o convex_0
v 0.023337 -0.023598 -0.021386
v 0.010435 0.023056 -0.021386
v 0.010435 0.023056 -0.021884
v -0.020336 -0.015160 -0.030320
v 0.035749 -0.000275 -0.031809
v -0.003957 0.021071 -0.031809
v -0.014872 0.005181 -0.021386
v 0.047657 0.001710 -0.021386
v 0.023337 -0.020122 -0.031809
v 0.023834 0.016100 -0.031809
v -0.023317 0.004191 -0.031809
v -0.008918 -0.016646 -0.021386
v 0.001011 -0.025088 -0.031809
v 0.046174 -0.009703 -0.022380
v 0.028801 0.018585 -0.021386
v -0.016362 -0.019627 -0.026846
v 0.014402 -0.025588 -0.021386
v 0.043690 0.003696 -0.026351
v 0.043690 -0.006227 -0.027342
v -0.017356 -0.020127 -0.031809
v -0.012885 0.008657 -0.021386
v -0.017852 -0.015655 -0.025855
v -0.006441 0.019576 -0.029824
v -0.022813 0.000215 -0.028831
v 0.003991 0.021566 -0.021386
v -0.020833 0.007662 -0.029824
v 0.043690 -0.012184 -0.021386
v 0.043193 0.006672 -0.023870
v 0.017383 0.021066 -0.024862
v 0.018873 -0.024593 -0.023870
v -0.015865 -0.021117 -0.029327
v 0.025324 -0.019131 -0.031809
v -0.012395 -0.011684 -0.021386
v 0.038233 0.002701 -0.030320
v 0.004488 -0.025088 -0.031809
v 0.047160 -0.004242 -0.024366
v 0.036246 -0.007218 -0.030817
v 0.041206 -0.013175 -0.023870
v 0.027808 0.019080 -0.022380
v 0.002004 -0.025088 -0.027838
v 0.042200 -0.009703 -0.026846
v 0.021357 0.017095 -0.031809
v -0.014872 0.000715 -0.021386
v -0.001473 0.021066 -0.031809
v -0.021826 0.004686 -0.028334
v -0.020833 0.008162 -0.031809
v 0.042696 -0.000771 -0.028334
v 0.022343 -0.024093 -0.022380
v 0.044187 0.006672 -0.021386
v 0.048161 -0.005728 -0.021386
v -0.023317 -0.000275 -0.031809
v 0.006468 -0.023103 -0.021386
v 0.046174 0.002701 -0.024366
v 0.035749 -0.003247 -0.031809
v 0.026814 0.016100 -0.028831
v 0.021357 0.021066 -0.022380
v 0.005971 0.022556 -0.021386
v -0.018846 -0.018631 -0.031809
v -0.019343 -0.015655 -0.027838
v -0.016362 -0.018631 -0.025855
v 0.016389 -0.025588 -0.022380
v 0.026317 -0.019131 -0.030817
v -0.014872 -0.021117 -0.028334
v 0.027311 -0.021612 -0.021884
f 48 62 64 
f 1 2 7 
f 2 1 8 
f 6 5 9 
f 5 6 10 
f 6 9 11 
f 1 7 12 
f 11 9 13 
f 2 8 15 
f 1 12 17 
f 11 13 20 
f 7 2 21 
f 21 2 25 
f 23 21 25 
f 21 23 26 
f 8 1 27 
f 18 10 28 
f 20 13 31 
f 9 5 32 
f 12 7 33 
f 5 10 34 
f 10 18 34 
f 13 9 35 
f 9 30 35 
f 14 19 36 
f 14 27 38 
f 13 17 40 
f 31 13 40 
f 19 14 41 
f 37 19 41 
f 32 37 41 
f 14 38 41 
f 38 32 41 
f 10 6 42 
f 39 10 42 
f 7 24 43 
f 24 22 43 
f 33 7 43 
f 22 33 43 
f 6 3 44 
f 3 29 44 
f 42 6 44 
f 29 42 44 
f 7 21 45 
f 11 24 45 
f 24 7 45 
f 26 11 45 
f 21 26 45 
f 6 11 46 
f 23 6 46 
f 11 26 46 
f 26 23 46 
f 5 34 47 
f 34 18 47 
f 36 19 47 
f 30 9 48 
f 15 8 49 
f 39 15 49 
f 28 39 49 
f 8 27 50 
f 27 14 50 
f 36 8 50 
f 14 36 50 
f 11 20 51 
f 4 24 51 
f 24 11 51 
f 17 12 52 
f 18 28 53 
f 8 36 53 
f 47 18 53 
f 36 47 53 
f 49 8 53 
f 28 49 53 
f 32 5 54 
f 19 37 54 
f 37 32 54 
f 5 47 54 
f 47 19 54 
f 28 10 55 
f 39 28 55 
f 10 39 55 
f 3 2 56 
f 2 15 56 
f 29 3 56 
f 15 39 56 
f 42 29 56 
f 39 42 56 
f 2 3 57 
f 3 6 57 
f 6 23 57 
f 25 2 57 
f 23 25 57 
f 31 16 58 
f 20 31 58 
f 4 51 58 
f 51 20 58 
f 24 4 59 
f 22 24 59 
f 4 58 59 
f 58 16 59 
f 12 33 60 
f 33 22 60 
f 52 12 60 
f 16 52 60 
f 59 16 60 
f 22 59 60 
f 17 13 61 
f 1 17 61 
f 13 35 61 
f 35 30 61 
f 48 1 61 
f 30 48 61 
f 9 32 62 
f 32 38 62 
f 48 9 62 
f 16 31 63 
f 40 17 63 
f 31 40 63 
f 52 16 63 
f 17 52 63 
f 27 1 64 
f 38 27 64 
f 1 48 64 
f 62 38 64 
o convex_1
v 0.030785 0.005186 0.014346
v -0.002469 -0.020122 -0.002024
v -0.002469 -0.020122 -0.000045
v 0.001007 0.024544 -0.005498
v 0.048158 -0.006720 -0.021382
v -0.002469 -0.016648 -0.021386
v 0.025823 0.020073 -0.021382
v 0.022352 -0.025580 -0.003016
v -0.002469 -0.004238 0.017823
v 0.028304 -0.013175 0.014350
v -0.002469 0.010644 -0.021386
v 0.016394 -0.025585 -0.021386
v 0.034757 0.014118 -0.001531
v -0.002469 0.010145 0.014346
v 0.014909 0.023547 -0.001029
v 0.048653 0.000716 -0.014930
v 0.020861 0.004683 0.019313
v 0.011927 -0.014166 0.016338
v 0.005474 -0.027075 -0.005498
v 0.006465 0.023054 -0.021382
v 0.036743 -0.011684 0.005412
v 0.021857 0.012627 0.013848
v 0.045182 -0.011684 -0.019399
v 0.045182 0.006178 -0.020889
v 0.021361 -0.007219 0.019811
v 0.037734 0.002206 0.007399
v 0.034757 -0.018139 -0.001531
v 0.048158 -0.007219 -0.013938
v -0.002469 -0.012676 0.013358
v 0.014408 0.025038 -0.006489
v 0.010437 -0.026083 -0.000045
v -0.001474 0.022057 -0.009469
v 0.026814 -0.024095 -0.010959
v 0.006465 0.024539 -0.001527
v 0.033762 0.011635 0.005910
v 0.033762 -0.008704 0.012362
v 0.029790 0.018588 -0.010959
v 0.020861 -0.014660 0.015840
v 0.006965 -0.023596 -0.021382
v 0.023342 0.021065 -0.002024
v 0.015899 -0.027574 -0.011452
v 0.022847 -0.024095 -0.021382
v -0.002469 0.014118 0.010379
v 0.008451 0.025531 -0.013440
v -0.002469 0.002699 0.017823
v 0.011927 0.009647 0.016831
v 0.015899 -0.004737 0.020309
v 0.025328 -0.021114 0.004420
v 0.028304 -0.005230 0.017325
v 0.002993 -0.025585 -0.008477
v 0.001007 0.019082 -0.021386
v 0.036743 0.009153 0.004420
v 0.011927 -0.010194 0.018819
v 0.003489 0.025531 -0.011950
v 0.048653 -0.004737 -0.013440
v 0.036743 0.013121 -0.004012
v 0.016394 0.014611 0.011868
v 0.010937 -0.026078 -0.018897
v 0.037238 -0.006725 0.007897
v 0.006465 -0.025585 -0.000539
v 0.016889 -0.025585 0.000453
v 0.032276 -0.013673 0.010379
v 0.020861 0.023049 -0.010959
v -0.002469 0.019082 -0.010465
f 96 115 128 
f 66 67 70 
f 70 67 73 
f 70 73 75 
f 70 75 76 
f 75 73 78 
f 81 65 86 
f 69 71 88 
f 80 69 88 
f 91 87 92 
f 87 69 92 
f 85 91 92 
f 73 67 93 
f 91 72 97 
f 87 91 97 
f 79 94 98 
f 86 65 99 
f 90 65 100 
f 88 71 101 
f 74 89 102 
f 82 95 102 
f 70 76 103 
f 79 86 104 
f 94 79 104 
f 99 77 104 
f 86 99 104 
f 77 101 104 
f 95 83 105 
f 97 72 105 
f 97 105 106 
f 76 69 106 
f 69 87 106 
f 87 97 106 
f 105 76 106 
f 75 78 107 
f 68 96 107 
f 98 68 107 
f 71 84 108 
f 78 73 109 
f 81 86 110 
f 107 78 110 
f 78 109 110 
f 109 81 110 
f 89 81 111 
f 109 73 111 
f 81 109 111 
f 72 91 112 
f 74 102 112 
f 65 81 113 
f 89 74 113 
f 81 89 113 
f 74 100 113 
f 100 65 113 
f 67 66 114 
f 66 70 114 
f 83 67 114 
f 70 103 114 
f 71 69 115 
f 69 76 115 
f 76 75 115 
f 84 71 115 
f 65 90 116 
f 90 80 116 
f 77 99 116 
f 99 65 116 
f 73 93 117 
f 93 82 117 
f 102 89 117 
f 82 102 117 
f 111 73 117 
f 89 111 117 
f 96 68 118 
f 68 98 118 
f 98 94 118 
f 108 84 118 
f 94 108 118 
f 84 115 118 
f 115 96 118 
f 69 80 119 
f 80 90 119 
f 92 69 119 
f 80 88 120 
f 88 101 120 
f 101 77 120 
f 77 116 120 
f 116 80 120 
f 86 79 121 
f 79 98 121 
f 98 107 121 
f 110 86 121 
f 107 110 121 
f 103 76 122 
f 76 105 122 
f 105 83 122 
f 83 114 122 
f 114 103 122 
f 85 92 123 
f 100 85 123 
f 90 100 123 
f 119 90 123 
f 92 119 123 
f 67 83 124 
f 93 67 124 
f 82 93 124 
f 95 82 124 
f 83 95 124 
f 102 95 125 
f 105 72 125 
f 95 105 125 
f 72 112 125 
f 112 102 125 
f 91 85 126 
f 100 74 126 
f 85 100 126 
f 112 91 126 
f 74 112 126 
f 101 71 127 
f 94 104 127 
f 104 101 127 
f 71 108 127 
f 108 94 127 
f 75 107 128 
f 107 96 128 
f 115 75 128 
o convex_2
v -0.013391 -0.011689 0.030732
v -0.033741 -0.008711 0.026762
v -0.033741 -0.008711 0.028253
v -0.017364 0.009158 0.030732
v -0.012893 0.006177 0.022294
v -0.023317 -0.023106 0.022294
v -0.031255 0.003198 0.022294
v -0.022821 0.009158 0.036192
v -0.025300 -0.014169 0.031724
v -0.012893 0.001711 0.036689
v -0.012893 -0.012681 0.022294
v -0.031255 -0.019626 0.022294
v -0.022327 0.009158 0.022294
v -0.032747 -0.002758 0.030732
v -0.025798 0.009158 0.033709
v -0.017860 -0.014668 0.031724
v -0.029269 -0.009207 0.032221
v -0.012893 0.006177 0.034702
v -0.027782 -0.018142 0.028253
v -0.033241 -0.003750 0.022294
v -0.015376 -0.014668 0.030732
v -0.024306 -0.010199 0.033213
v -0.025798 -0.020624 0.026762
v -0.027286 0.007171 0.022294
v -0.031255 -0.011689 0.030234
v -0.033241 -0.002259 0.029244
v -0.015376 0.008163 0.022294
v -0.020835 -0.021616 0.022792
v -0.032747 -0.016152 0.022294
v -0.028280 -0.022607 0.022792
v -0.031755 -0.017643 0.024778
v -0.032251 -0.007217 0.031228
v -0.022327 -0.020125 0.027260
v -0.012893 0.004689 0.036689
v -0.024306 0.009158 0.035696
v -0.012893 -0.010199 0.031228
v -0.014383 -0.011689 0.032221
v -0.024306 -0.017643 0.029738
v -0.017364 -0.012185 0.032717
v -0.033741 -0.004245 0.024778
v -0.020835 0.009158 0.035696
v -0.025300 0.009158 0.027756
v -0.018852 0.009158 0.022294
v -0.015376 -0.015163 0.029244
v -0.026294 -0.008212 0.033213
v -0.027782 -0.014668 0.030732
v -0.030265 -0.017147 0.027260
v -0.032251 0.001215 0.022294
v -0.033241 -0.008711 0.029738
f 153 160 177 
f 133 134 135 
f 134 133 139 
f 133 138 139 
f 135 134 140 
f 133 135 141 
f 136 132 141 
f 136 141 143 
f 138 133 146 
f 135 140 148 
f 145 137 150 
f 141 135 152 
f 135 143 152 
f 143 135 154 
f 142 143 154 
f 133 141 155 
f 132 146 155 
f 146 133 155 
f 134 139 156 
f 131 130 157 
f 148 140 157 
f 140 134 158 
f 134 151 158 
f 151 147 158 
f 131 157 159 
f 157 140 159 
f 140 158 159 
f 153 145 160 
f 149 144 161 
f 151 134 161 
f 134 156 161 
f 156 149 161 
f 136 138 162 
f 138 146 162 
f 136 143 163 
f 143 142 163 
f 145 136 163 
f 142 160 163 
f 160 145 163 
f 129 139 164 
f 139 138 164 
f 149 129 165 
f 144 149 165 
f 129 164 165 
f 164 138 165 
f 144 137 166 
f 147 151 166 
f 161 144 166 
f 151 161 166 
f 137 144 167 
f 138 150 167 
f 150 137 167 
f 165 138 167 
f 144 165 167 
f 130 131 168 
f 131 154 168 
f 157 130 168 
f 148 157 168 
f 132 136 169 
f 146 132 169 
f 136 162 169 
f 162 146 169 
f 143 141 170 
f 141 152 170 
f 152 143 170 
f 141 132 171 
f 132 155 171 
f 155 141 171 
f 139 129 172 
f 129 149 172 
f 156 139 172 
f 149 156 172 
f 138 136 173 
f 136 145 173 
f 150 138 173 
f 145 150 173 
f 137 145 174 
f 145 153 174 
f 166 137 174 
f 147 166 174 
f 158 147 175 
f 153 159 175 
f 159 158 175 
f 174 153 175 
f 147 174 175 
f 135 148 176 
f 154 135 176 
f 148 168 176 
f 168 154 176 
f 154 131 177 
f 142 154 177 
f 131 159 177 
f 159 153 177 
f 160 142 177 
o convex_3
v -0.026293 0.012137 0.033216
v -0.020339 0.035465 0.047113
v -0.021827 0.035465 0.047113
v -0.021332 0.030499 0.030736
v -0.017361 0.009158 0.031233
v -0.016369 0.037449 0.040162
v -0.018354 0.009657 0.025277
v -0.023315 0.009657 0.036686
v -0.026790 0.029504 0.043634
v -0.025301 0.009158 0.027758
v -0.023812 0.024542 0.029247
v -0.017858 0.034966 0.045622
v -0.020836 0.034966 0.034707
v -0.019843 0.012137 0.037182
v -0.018354 0.033971 0.033714
v -0.023812 0.031494 0.046612
v -0.021827 0.009158 0.024776
v -0.026790 0.028017 0.040658
v -0.016865 0.014622 0.034208
v -0.017361 0.010649 0.027260
v -0.025301 0.009158 0.034707
v -0.025798 0.032483 0.044131
v -0.019843 0.037449 0.045123
v -0.022323 0.030998 0.031727
v -0.016865 0.037449 0.044131
v -0.025798 0.030499 0.045622
v -0.020339 0.028017 0.029742
v -0.026790 0.021076 0.036686
v -0.020836 0.032483 0.046612
v -0.016865 0.036457 0.037182
v -0.021827 0.015611 0.039664
v -0.018851 0.037449 0.038673
v -0.020836 0.009158 0.036192
v -0.026790 0.022068 0.040162
v -0.017858 0.013627 0.035697
v -0.025301 0.011641 0.036686
v -0.023812 0.009657 0.025771
v -0.022820 0.025038 0.028749
v -0.019843 0.009657 0.024776
v -0.016865 0.035465 0.044131
v -0.016865 0.017105 0.031233
v -0.024308 0.016107 0.039664
v -0.019347 0.033971 0.046612
v -0.016369 0.036457 0.042147
v -0.024308 0.022068 0.029247
v -0.019347 0.031990 0.031727
v -0.017858 0.009657 0.025771
v -0.023315 0.027022 0.029742
v -0.026293 0.030998 0.042642
v -0.025798 0.009158 0.033714
v -0.018354 0.009158 0.033714
f 196 212 228 
f 179 180 193 
f 182 187 194 
f 196 182 197 
f 187 182 198 
f 180 179 200 
f 199 180 200 
f 190 181 201 
f 179 189 202 
f 200 179 202 
f 183 200 202 
f 193 180 203 
f 180 199 203 
f 199 186 203 
f 187 178 205 
f 186 195 205 
f 179 193 206 
f 192 190 207 
f 206 193 208 
f 190 199 209 
f 200 183 209 
f 199 200 209 
f 183 207 209 
f 207 190 209 
f 198 182 210 
f 185 198 210 
f 208 185 210 
f 191 208 210 
f 203 186 211 
f 205 178 211 
f 186 205 211 
f 189 191 212 
f 198 185 213 
f 203 211 213 
f 194 187 214 
f 194 214 215 
f 181 204 215 
f 214 188 215 
f 215 204 216 
f 184 194 216 
f 204 184 216 
f 194 215 216 
f 202 189 217 
f 189 212 217 
f 212 196 217 
f 183 196 218 
f 196 197 218 
f 207 183 218 
f 197 207 218 
f 193 203 219 
f 185 208 219 
f 208 193 219 
f 213 185 219 
f 203 213 219 
f 189 179 220 
f 191 189 220 
f 179 206 220 
f 208 191 220 
f 206 208 220 
f 196 183 221 
f 183 202 221 
f 217 196 221 
f 202 217 221 
f 195 188 222 
f 187 205 222 
f 205 195 222 
f 214 187 222 
f 188 214 222 
f 181 190 223 
f 190 192 223 
f 204 181 223 
f 184 204 223 
f 194 184 224 
f 182 194 224 
f 197 182 224 
f 192 207 224 
f 207 197 224 
f 184 223 224 
f 223 192 224 
f 188 195 225 
f 201 181 225 
f 181 215 225 
f 215 188 225 
f 195 186 226 
f 199 190 226 
f 186 199 226 
f 190 201 226 
f 225 195 226 
f 201 225 226 
f 178 187 227 
f 187 198 227 
f 211 178 227 
f 198 213 227 
f 213 211 227 
f 182 196 228 
f 210 182 228 
f 191 210 228 
f 212 191 228 
o convex_4
v -0.008922 -0.000275 0.027755
v -0.008922 0.007668 0.040164
v -0.008922 0.008661 0.038177
v -0.012893 0.005186 0.037183
v -0.012893 0.005681 0.022294
v -0.012893 -0.012186 0.022791
v -0.012396 -0.009205 0.030736
v -0.009418 -0.000275 0.022294
v -0.008922 0.002704 0.039667
v -0.010907 -0.009704 0.022294
v -0.008922 0.007171 0.029245
v -0.012893 0.002207 0.037183
v -0.009418 0.009158 0.033707
v -0.008922 -0.000770 0.034206
v -0.012893 0.006676 0.034206
v -0.009418 -0.004738 0.022294
v -0.010411 0.003697 0.022294
v -0.012893 -0.009205 0.030736
v -0.009418 0.003697 0.040164
v -0.012396 -0.012186 0.022294
v -0.011900 0.005681 0.022294
f 239 245 249 
f 231 230 229 
f 232 233 234 
f 229 230 237 
f 233 236 238 
f 231 229 239 
f 229 236 239 
f 232 234 240 
f 231 239 241 
f 229 237 242 
f 237 235 242 
f 235 238 242 
f 230 231 243 
f 232 230 243 
f 233 232 243 
f 231 241 243 
f 241 233 243 
f 236 229 244 
f 238 236 244 
f 229 242 244 
f 242 238 244 
f 236 233 245 
f 239 236 245 
f 234 235 246 
f 235 237 246 
f 240 234 246 
f 240 246 247 
f 230 232 247 
f 237 230 247 
f 232 240 247 
f 246 237 247 
f 234 233 248 
f 235 234 248 
f 238 235 248 
f 233 238 248 
f 233 241 249 
f 241 239 249 
f 245 233 249 
o convex_5
v -0.002469 0.018093 -0.003021
v -0.032748 -0.006227 -0.001536
v -0.032250 -0.007220 -0.003520
v -0.002469 -0.016649 0.007403
v -0.002967 -0.017145 -0.021386
v -0.012398 0.009156 -0.021386
v -0.024805 0.009649 0.007403
v -0.024805 -0.016649 0.007403
v -0.002469 0.015606 0.007403
v -0.023812 0.013128 -0.006992
v -0.023317 -0.013174 -0.013442
v -0.002469 0.010149 -0.021386
v -0.019840 -0.020128 -0.004512
v -0.021826 -0.000773 -0.018405
v -0.029766 0.006174 -0.006496
v -0.030759 0.000716 0.007403
v -0.002469 -0.019631 0.001942
v -0.008429 -0.017149 -0.021386
v -0.012893 0.016599 0.002934
v -0.002967 0.017592 -0.009965
v -0.026787 -0.015159 -0.006992
v -0.027285 0.006174 -0.011458
v -0.027783 -0.004737 -0.012946
v -0.010412 -0.020624 -0.005507
v -0.015377 0.016103 -0.007485
v -0.031257 -0.009206 0.003926
v -0.029766 0.006670 0.002438
v -0.011900 -0.013174 -0.021386
v -0.002469 -0.018138 -0.016917
v -0.031752 0.002206 -0.005008
v -0.009917 0.010642 -0.021386
v -0.025300 0.012135 -0.000045
v -0.017362 -0.020124 0.000454
v -0.017854 0.013624 0.007403
v -0.019840 0.013624 -0.010960
v -0.023317 -0.006227 -0.016917
v -0.022324 -0.016649 -0.010464
v -0.008429 -0.018138 0.006408
v -0.014879 0.005181 -0.021386
v -0.032748 -0.002259 0.001939
v -0.030759 -0.006723 0.007403
v -0.029271 -0.011191 -0.007981
v -0.030264 -0.011684 0.001443
v -0.025300 -0.017145 -0.001040
v -0.030759 -0.005234 -0.008477
v -0.028773 0.003199 -0.010960
v -0.024805 0.007663 -0.012946
v -0.014384 0.016599 -0.000541
v -0.029271 0.008159 -0.002528
v -0.023317 0.001709 -0.016917
v -0.005946 -0.018138 -0.018901
v -0.026787 -0.015159 0.007403
v -0.002967 -0.019631 -0.006003
v -0.020833 -0.003744 -0.018901
v -0.014384 -0.020124 -0.008477
v -0.020833 -0.019131 -0.006992
v -0.028278 0.006670 0.006904
v -0.002469 -0.016649 -0.021386
v -0.031752 0.002206 0.001939
v -0.015872 -0.019131 0.003928
v -0.022324 0.011639 -0.011458
v -0.031257 -0.010199 -0.002032
v -0.032250 -0.005730 0.004422
v -0.026293 -0.010199 -0.012450
f 291 272 313 
f 253 256 257 
f 253 250 258 
f 256 253 258 
f 250 253 261 
f 254 255 261 
f 257 256 265 
f 261 253 266 
f 255 254 267 
f 258 250 268 
f 250 261 269 
f 264 259 271 
f 250 269 274 
f 255 267 277 
f 267 260 277 
f 261 266 278 
f 252 251 279 
f 261 255 280 
f 269 261 280 
f 257 262 282 
f 273 266 282 
f 262 273 282 
f 256 258 283 
f 258 268 283 
f 281 256 283 
f 268 281 283 
f 259 274 284 
f 274 269 284 
f 280 255 284 
f 269 280 284 
f 272 263 285 
f 277 260 285 
f 260 267 286 
f 270 260 286 
f 253 257 287 
f 266 253 287 
f 255 277 288 
f 279 251 289 
f 257 265 290 
f 260 270 291 
f 262 257 293 
f 292 270 293 
f 252 279 294 
f 291 252 294 
f 272 291 294 
f 264 271 295 
f 279 264 295 
f 272 294 295 
f 294 279 295 
f 268 250 297 
f 274 259 297 
f 250 274 297 
f 259 281 297 
f 281 268 297 
f 259 264 298 
f 264 279 298 
f 281 259 298 
f 276 281 298 
f 263 272 299 
f 255 288 299 
f 288 263 299 
f 295 271 299 
f 272 295 299 
f 271 296 299 
f 296 255 299 
f 267 254 300 
f 254 278 300 
f 278 273 300 
f 257 290 301 
f 290 275 301 
f 275 292 301 
f 293 257 301 
f 292 293 301 
f 266 273 302 
f 278 266 302 
f 273 278 302 
f 285 263 303 
f 277 285 303 
f 263 288 303 
f 288 277 303 
f 273 262 304 
f 267 300 304 
f 300 273 304 
f 286 267 305 
f 270 286 305 
f 262 293 305 
f 293 270 305 
f 304 262 305 
f 267 304 305 
f 265 256 306 
f 276 265 306 
f 256 281 306 
f 281 276 306 
f 254 261 307 
f 278 254 307 
f 261 278 307 
f 265 276 308 
f 289 265 308 
f 279 289 308 
f 298 279 308 
f 276 298 308 
f 257 282 309 
f 282 266 309 
f 287 257 309 
f 266 287 309 
f 271 259 310 
f 284 255 310 
f 259 284 310 
f 296 271 310 
f 255 296 310 
f 251 252 311 
f 275 251 311 
f 252 291 311 
f 291 270 311 
f 270 292 311 
f 292 275 311 
f 251 275 312 
f 289 251 312 
f 265 289 312 
f 290 265 312 
f 275 290 312 
f 285 260 313 
f 272 285 313 
f 260 291 313 
o convex_6
v -0.002969 0.000717 0.018321
v -0.035230 -0.008709 0.013857
v -0.035230 -0.008709 0.016832
v -0.020834 -0.024595 0.012865
v -0.002469 0.015114 0.007403
v -0.027283 0.007169 0.022294
v -0.026789 -0.023600 0.022294
v -0.002469 -0.016157 0.007403
v -0.030266 0.002206 0.007403
v -0.031256 -0.018637 0.008893
v -0.010909 -0.010695 0.022294
v -0.014382 0.007663 0.022294
v -0.017361 0.013622 0.007403
v -0.032744 0.000219 0.022294
v -0.031256 0.005681 0.014355
v -0.002469 -0.011193 0.014849
v -0.021331 -0.022108 0.022294
v -0.032247 -0.018139 0.022294
v -0.026296 -0.018139 0.007403
v -0.033738 -0.019628 0.012865
v -0.002469 0.008658 0.015841
v -0.022322 0.009156 0.022294
v -0.024804 -0.023600 0.010382
v -0.034236 -0.001767 0.010880
v -0.009915 0.002699 0.022294
v -0.028774 -0.024094 0.019315
v -0.002469 0.014119 0.010382
v -0.012894 0.014617 0.008893
v -0.025301 0.009156 0.007403
v -0.020834 -0.024595 0.015841
v -0.034733 -0.001767 0.016832
v -0.029271 0.007169 0.018321
v -0.002469 -0.004741 0.017827
v -0.033241 -0.016650 0.009885
v -0.031256 -0.004741 0.007403
v -0.002469 -0.016157 0.008397
v -0.034236 -0.018637 0.015841
v -0.021828 -0.022609 0.009390
v -0.031753 -0.021614 0.012368
v -0.034733 -0.008208 0.019315
v -0.009421 -0.006225 0.022294
v -0.032744 0.002206 0.020805
v -0.025301 -0.024595 0.012865
v -0.033241 0.001708 0.011871
v -0.024804 0.008658 0.021797
v -0.018849 0.009156 0.022294
v -0.006442 0.015114 0.008397
v -0.002469 0.005681 0.017330
v -0.024804 -0.024595 0.019812
v -0.034236 -0.016650 0.011375
v -0.030266 -0.022609 0.020307
v -0.021828 -0.024094 0.010880
v -0.034236 -0.003256 0.010382
v -0.032744 -0.016650 0.022294
v -0.002469 -0.012678 0.013362
v -0.014382 0.014617 0.007900
v -0.035230 -0.003753 0.013857
v -0.026789 -0.019628 0.007900
v -0.030266 -0.021116 0.009885
v -0.006442 -0.017144 0.007403
v -0.034236 0.000219 0.014849
v -0.034236 -0.002758 0.020307
v -0.027283 0.007169 0.007403
v -0.011900 -0.012180 0.022294
f 330 329 377 
f 318 321 322 
f 319 320 324 
f 319 324 325 
f 318 322 326 
f 320 319 327 
f 321 318 329 
f 324 320 330 
f 320 327 331 
f 322 321 332 
f 329 318 334 
f 319 325 335 
f 325 324 338 
f 325 334 340 
f 334 318 340 
f 326 322 342 
f 317 321 343 
f 326 342 345 
f 342 328 345 
f 324 329 346 
f 329 334 346 
f 323 333 347 
f 322 332 348 
f 332 323 348 
f 323 347 348 
f 321 329 349 
f 343 321 349 
f 330 343 349 
f 316 315 350 
f 316 350 353 
f 314 338 354 
f 338 324 354 
f 324 346 354 
f 346 314 354 
f 327 319 355 
f 319 345 355 
f 345 328 355 
f 317 343 356 
f 339 352 356 
f 322 337 357 
f 319 335 358 
f 345 319 358 
f 326 345 358 
f 335 325 359 
f 325 340 359 
f 359 340 360 
f 340 318 360 
f 341 335 360 
f 335 359 360 
f 334 325 361 
f 338 314 361 
f 325 338 361 
f 314 346 361 
f 346 334 361 
f 330 320 362 
f 320 339 362 
f 343 330 362 
f 356 343 362 
f 339 356 362 
f 347 333 363 
f 350 315 363 
f 333 350 363 
f 320 331 364 
f 339 320 364 
f 331 350 364 
f 350 333 364 
f 333 352 364 
f 352 339 364 
f 321 317 365 
f 336 351 365 
f 317 356 365 
f 356 336 365 
f 337 322 366 
f 348 347 366 
f 322 348 366 
f 363 315 366 
f 347 363 366 
f 331 327 367 
f 350 331 367 
f 353 350 367 
f 329 330 368 
f 349 329 368 
f 330 349 368 
f 318 326 369 
f 335 341 369 
f 358 335 369 
f 326 358 369 
f 360 318 369 
f 341 360 369 
f 315 316 370 
f 316 344 370 
f 366 315 370 
f 337 366 370 
f 323 332 371 
f 351 336 371 
f 333 323 372 
f 352 333 372 
f 336 356 372 
f 356 352 372 
f 323 371 372 
f 371 336 372 
f 332 321 373 
f 321 365 373 
f 365 351 373 
f 371 332 373 
f 351 371 373 
f 344 355 374 
f 355 328 374 
f 357 337 374 
f 328 357 374 
f 370 344 374 
f 337 370 374 
f 344 316 375 
f 316 353 375 
f 327 355 375 
f 355 344 375 
f 367 327 375 
f 353 367 375 
f 342 322 376 
f 328 342 376 
f 322 357 376 
f 357 328 376 
f 329 324 377 
f 324 330 377 
o convex_7
v 0.002494 0.015611 0.044629
v -0.008922 -0.000770 0.029247
v -0.008922 -0.000272 0.028254
v 0.003487 0.005189 0.034210
v 0.003487 0.009653 0.048103
v -0.008922 0.009155 0.032721
v -0.008922 0.004196 0.040657
v 0.003487 0.011140 0.034210
v -0.004950 0.002708 0.040657
v -0.008425 0.005189 0.027258
v -0.007928 0.008658 0.041154
v 0.003487 0.015611 0.040657
v 0.002991 0.013623 0.048600
v -0.008425 -0.000272 0.035203
v 0.001998 0.004196 0.035698
v 0.002991 0.006678 0.032721
v -0.002471 0.011638 0.034210
v -0.008922 0.009155 0.038175
v -0.004454 0.012133 0.036195
v -0.007928 0.001714 0.027258
v 0.000509 0.008658 0.047110
v -0.005942 0.008163 0.043139
v -0.001975 0.004693 0.043139
v -0.008425 0.002211 0.039665
v -0.008922 0.007666 0.029742
v 0.002991 0.015114 0.047110
v 0.001501 0.011638 0.034210
v 0.002991 0.008163 0.032721
v -0.006936 0.010645 0.038673
v -0.008425 -0.000770 0.029247
v 0.003487 0.015611 0.046118
f 403 390 408 
f 380 379 383 
f 383 379 384 
f 382 381 385 
f 382 385 389 
f 384 379 391 
f 386 391 392 
f 381 382 392 
f 385 381 393 
f 383 384 395 
f 384 388 395 
f 378 389 396 
f 389 394 396 
f 381 380 397 
f 380 387 397 
f 393 381 397 
f 382 390 398 
f 398 390 399 
f 388 384 399 
f 390 388 399 
f 384 398 399 
f 386 392 400 
f 392 382 400 
f 382 398 400 
f 400 398 401 
f 384 391 401 
f 391 386 401 
f 398 384 401 
f 386 400 401 
f 380 383 402 
f 387 380 402 
f 383 396 402 
f 396 394 402 
f 388 390 403 
f 385 387 404 
f 389 385 404 
f 394 389 404 
f 387 402 404 
f 402 394 404 
f 387 385 405 
f 385 393 405 
f 397 387 405 
f 393 397 405 
f 383 395 406 
f 395 388 406 
f 378 396 406 
f 396 383 406 
f 403 378 406 
f 388 403 406 
f 379 380 407 
f 380 381 407 
f 391 379 407 
f 392 391 407 
f 381 392 407 
f 389 378 408 
f 382 389 408 
f 390 382 408 
f 378 403 408 
o convex_8
v 0.007458 0.018092 0.049592
v 0.003487 0.005683 0.033713
v 0.003487 0.006677 0.033214
v 0.011429 0.015113 0.039173
v 0.003487 0.015113 0.039173
v 0.003487 0.010151 0.048105
v 0.009940 0.019085 0.040662
v 0.007458 0.008166 0.036195
v 0.006963 0.014120 0.050091
v 0.010437 0.020574 0.047111
v 0.003487 0.016107 0.046120
v 0.003487 0.011145 0.034209
v 0.010437 0.014616 0.037186
v 0.008451 0.020077 0.044630
v 0.010933 0.014120 0.040662
v 0.003984 0.013623 0.049592
v 0.011429 0.019085 0.045127
v 0.004481 0.005683 0.035697
v 0.004977 0.011145 0.049097
v 0.011429 0.019085 0.040662
v 0.007458 0.009160 0.034704
v 0.009444 0.010648 0.037685
v 0.010437 0.018588 0.047608
v 0.006467 0.018092 0.049097
v 0.003984 0.009160 0.033214
v 0.009940 0.020077 0.042147
f 418 428 434 
f 411 410 413 
f 413 410 414 
f 413 414 419 
f 411 413 420 
f 413 415 420 
f 413 419 422 
f 417 409 424 
f 419 414 424 
f 423 412 425 
f 414 410 426 
f 410 416 426 
f 426 416 427 
f 424 414 427 
f 417 424 427 
f 414 426 427 
f 420 415 428 
f 421 420 428 
f 412 421 428 
f 425 412 428 
f 418 425 428 
f 410 411 429 
f 416 410 429 
f 429 421 430 
f 421 412 430 
f 412 423 430 
f 423 417 430 
f 427 416 430 
f 417 427 430 
f 416 429 430 
f 409 417 431 
f 418 409 431 
f 417 423 431 
f 425 418 431 
f 423 425 431 
f 409 418 432 
f 418 422 432 
f 422 419 432 
f 424 409 432 
f 419 424 432 
f 411 420 433 
f 420 421 433 
f 429 411 433 
f 421 429 433 
f 415 413 434 
f 413 422 434 
f 422 418 434 
f 428 415 434 
