o convex_0
v 0.033415 -0.000041 -0.034434
v 0.035935 0.001974 -0.017809
v 0.035430 0.001974 -0.017809
v 0.035935 -0.004577 -0.022345
v 0.024344 -0.003569 -0.026376
v 0.024344 0.004998 -0.032924
v 0.024344 -0.003569 -0.035443
v 0.035935 0.004494 -0.029900
v 0.024344 0.004494 -0.027383
v 0.035935 -0.003569 -0.030907
v 0.035935 0.004998 -0.022849
v 0.024848 0.002982 -0.036451
v 0.035430 -0.001552 -0.017809
v 0.024344 0.001470 -0.024864
v 0.024344 -0.004577 -0.033428
v 0.028376 -0.001552 -0.036451
v 0.035935 0.002478 -0.032420
v 0.029384 0.002478 -0.035947
v 0.034926 -0.004577 -0.029396
v 0.035430 0.003990 -0.019825
v 0.029887 -0.003569 -0.034434
v 0.024848 -0.004577 -0.028388
v 0.029384 0.003990 -0.034434
v 0.035430 -0.003569 -0.019825
v 0.024344 -0.001049 -0.024864
v 0.024344 -0.001552 -0.036957
v 0.035935 -0.001049 -0.032924
v 0.034421 0.004998 -0.029396
f 8 23 28 
f 5 6 7 
f 2 4 8 
f 6 5 9 
f 8 4 10 
f 2 8 11 
f 6 9 11 
f 2 3 13 
f 4 2 13 
f 3 9 14 
f 9 5 14 
f 13 3 14 
f 5 7 15 
f 8 10 17 
f 1 16 18 
f 17 1 18 
f 10 4 19 
f 4 15 19 
f 3 2 20 
f 9 3 20 
f 2 11 20 
f 11 9 20 
f 15 7 21 
f 7 16 21 
f 10 19 21 
f 19 15 21 
f 15 4 22 
f 5 15 22 
f 12 6 23 
f 8 17 23 
f 18 12 23 
f 17 18 23 
f 4 13 24 
f 13 5 24 
f 22 4 24 
f 5 22 24 
f 5 13 25 
f 14 5 25 
f 13 14 25 
f 7 6 26 
f 6 12 26 
f 16 7 26 
f 12 18 26 
f 18 16 26 
f 16 1 27 
f 1 17 27 
f 17 10 27 
f 10 21 27 
f 21 16 27 
f 11 8 28 
f 6 11 28 
f 23 6 28 
o convex_1
v 0.035935 -0.001552 -0.032422
v 0.051054 0.001974 0.000336
v 0.051054 -0.001552 0.000336
v 0.041480 0.001974 0.000336
v 0.035935 0.004998 -0.027381
v 0.035935 -0.004577 -0.021834
v 0.047020 -0.001049 -0.019313
v 0.044502 -0.004577 0.000336
v 0.047020 0.004998 -0.009242
v 0.045005 -0.004577 -0.016290
v 0.044502 0.004998 0.000336
v 0.041983 0.002982 -0.026371
v 0.035935 0.003486 -0.018810
v 0.050044 0.001974 -0.009745
v 0.041480 -0.001552 0.000336
v 0.049035 -0.003569 -0.008738
v 0.041983 -0.003064 -0.025864
v 0.035935 -0.001049 -0.016793
v 0.036439 -0.004577 -0.027884
v 0.046013 0.003990 -0.017803
v 0.048029 -0.004577 0.000336
v 0.036439 0.001974 -0.032422
v 0.049035 0.004494 0.000336
v 0.042486 -0.000545 -0.026874
v 0.047020 0.001470 -0.019313
v 0.050044 -0.001049 -0.010249
v 0.035935 0.004998 -0.022340
v 0.040975 0.004998 -0.022844
v 0.046518 -0.003064 -0.018310
v 0.042486 -0.003569 -0.000170
v 0.049035 0.003990 -0.007728
v 0.041983 0.002982 0.000336
v 0.036439 0.003990 -0.030405
f 56 40 61 
f 31 30 32 
f 33 29 34 
f 31 32 36 
f 36 34 38 
f 32 30 39 
f 37 33 39 
f 33 34 41 
f 36 32 43 
f 32 41 46 
f 41 34 46 
f 34 43 46 
f 43 32 46 
f 34 29 47 
f 38 34 47 
f 29 45 47 
f 45 38 47 
f 31 36 49 
f 36 38 49 
f 44 31 49 
f 38 44 49 
f 29 33 50 
f 39 30 51 
f 37 39 51 
f 45 29 52 
f 35 45 52 
f 29 50 52 
f 50 40 52 
f 40 48 53 
f 48 42 53 
f 35 52 53 
f 52 40 53 
f 30 31 54 
f 42 30 54 
f 31 44 54 
f 35 53 54 
f 53 42 54 
f 39 33 55 
f 33 41 55 
f 33 37 56 
f 37 48 56 
f 48 40 56 
f 44 38 57 
f 38 45 57 
f 45 35 57 
f 54 44 57 
f 35 54 57 
f 34 36 58 
f 43 34 58 
f 36 43 58 
f 30 42 59 
f 48 37 59 
f 42 48 59 
f 51 30 59 
f 37 51 59 
f 32 39 60 
f 41 32 60 
f 39 55 60 
f 55 41 60 
f 50 33 61 
f 40 50 61 
f 33 56 61 
o convex_2
v 0.024849 0.000966 0.025035
v 0.036943 0.001470 0.032589
v 0.036943 -0.001049 0.032589
v 0.036943 0.001470 0.016463
v 0.024344 -0.004577 0.033598
v 0.024344 0.004998 0.033090
v 0.036943 -0.004577 0.022008
v 0.036943 0.004998 0.022511
v 0.024849 0.000966 0.037630
v 0.024344 -0.003569 0.027046
v 0.024344 0.003990 0.027046
v 0.036437 -0.001552 0.016463
v 0.034925 0.004494 0.031076
v 0.035933 -0.003569 0.031582
v 0.029384 -0.002561 0.036117
v 0.029384 0.001974 0.036621
v 0.036943 -0.004577 0.027548
v 0.036437 0.002982 0.017472
v 0.036943 0.004998 0.027548
v 0.024344 -0.002057 0.037122
v 0.025857 0.003990 0.035614
v 0.024344 -0.002057 0.025538
v 0.024344 -0.004577 0.029058
v 0.036437 -0.003569 0.018985
v 0.024344 0.004998 0.029566
v 0.028881 -0.004577 0.033090
v 0.029890 -0.000545 0.036621
v 0.036437 0.004494 0.020495
f 72 86 89 
f 63 64 65 
f 65 64 68 
f 63 65 69 
f 66 67 71 
f 71 67 72 
f 62 65 73 
f 65 68 73 
f 75 64 76 
f 63 74 77 
f 68 64 78 
f 66 68 78 
f 64 75 78 
f 65 62 79 
f 69 65 79 
f 62 72 79 
f 63 69 80 
f 69 67 80 
f 74 63 80 
f 67 74 80 
f 67 66 81 
f 70 67 81 
f 66 76 81 
f 67 70 82 
f 74 67 82 
f 70 77 82 
f 77 74 82 
f 72 62 83 
f 71 72 83 
f 62 73 83 
f 73 71 83 
f 68 66 84 
f 66 71 84 
f 84 71 85 
f 73 68 85 
f 71 73 85 
f 68 84 85 
f 67 69 86 
f 72 67 86 
f 76 66 87 
f 75 76 87 
f 66 78 87 
f 78 75 87 
f 64 63 88 
f 76 64 88 
f 63 77 88 
f 77 70 88 
f 70 81 88 
f 81 76 88 
f 69 79 89 
f 79 72 89 
f 86 69 89 
o convex_3
v 0.036943 0.002982 0.016966
v 0.051054 0.000462 0.002857
v 0.051054 -0.000545 0.002857
v 0.040473 0.001470 0.029062
v 0.036943 -0.004577 0.021501
v 0.041479 -0.001552 0.000336
v 0.048029 0.004998 0.000336
v 0.047020 -0.004577 0.010418
v 0.036943 0.004998 0.027045
v 0.047020 0.002478 0.018980
v 0.048029 -0.004577 0.000336
v 0.037448 -0.003569 0.030069
v 0.047020 -0.002561 0.018477
v 0.043495 0.004494 0.000336
v 0.048029 0.004494 0.009915
v 0.044501 -0.004577 0.000336
v 0.050045 -0.001552 0.010418
v 0.042487 -0.001552 0.027045
v 0.036943 0.001470 0.032086
v 0.040473 -0.004577 0.024525
v 0.041479 0.004494 0.024525
v 0.036943 -0.001049 0.015459
v 0.041479 0.001974 0.000336
v 0.051054 0.001974 0.000336
v 0.050045 0.001974 0.010418
v 0.036943 0.004998 0.022004
v 0.045004 0.004998 0.015959
v 0.050548 -0.002561 0.000336
v 0.047020 0.000462 0.019990
v 0.042487 0.001974 0.027045
v 0.049037 -0.003569 0.009408
v 0.042487 -0.003569 0.000843
v 0.037448 0.003486 0.030569
v 0.044501 -0.004073 0.019990
v 0.036943 -0.002561 0.016463
v 0.037448 -0.001049 0.032086
v 0.044501 0.004998 0.000336
v 0.036943 -0.004577 0.027045
v 0.041984 -0.003569 0.025532
v 0.046012 0.003990 0.018477
f 110 119 129 
f 90 94 98 
f 95 96 100 
f 97 94 100 
f 96 95 103 
f 100 94 105 
f 95 100 105 
f 92 91 106 
f 98 94 108 
f 94 97 109 
f 94 90 111 
f 95 111 112 
f 90 103 112 
f 103 95 112 
f 111 90 112 
f 91 92 113 
f 100 96 113 
f 96 104 113 
f 113 104 114 
f 106 91 114 
f 91 113 114 
f 90 98 115 
f 98 96 115 
f 103 90 115 
f 96 98 116 
f 104 96 116 
f 98 110 116 
f 92 106 117 
f 113 92 117 
f 100 113 117 
f 102 106 118 
f 107 102 118 
f 114 99 118 
f 106 114 118 
f 93 107 119 
f 118 99 119 
f 107 118 119 
f 97 100 120 
f 106 102 120 
f 100 117 120 
f 117 106 120 
f 105 94 121 
f 95 105 121 
f 98 108 122 
f 108 93 122 
f 110 98 122 
f 93 119 122 
f 119 110 122 
f 109 97 123 
f 97 120 123 
f 120 102 123 
f 94 111 124 
f 111 95 124 
f 121 94 124 
f 95 121 124 
f 107 93 125 
f 101 107 125 
f 93 108 125 
f 108 101 125 
f 96 103 126 
f 115 96 126 
f 103 115 126 
f 108 94 127 
f 101 108 127 
f 94 109 127 
f 109 101 127 
f 107 101 128 
f 102 107 128 
f 101 109 128 
f 123 102 128 
f 109 123 128 
f 114 104 129 
f 99 114 129 
f 104 116 129 
f 116 110 129 
f 119 99 129 
o convex_4
v -0.017489 -0.031786 -0.030910
v -0.004381 0.032717 -0.030910
v -0.001360 0.032210 -0.030910
v -0.038139 -0.012637 -0.041997
v 0.022830 -0.007602 -0.041997
v -0.013455 0.031703 -0.041997
v -0.039152 0.012060 -0.030910
v 0.023330 -0.009116 -0.030910
v 0.001160 -0.030779 -0.041997
v 0.017789 0.019608 -0.041492
v -0.032091 0.022635 -0.041492
v 0.011235 -0.026745 -0.030910
v 0.022323 0.012060 -0.030910
v -0.038139 -0.014663 -0.030910
v -0.025043 -0.028259 -0.041492
v -0.024037 0.029183 -0.030910
v -0.041172 0.002479 -0.040989
v 0.017283 -0.020698 -0.040989
v 0.005188 0.029183 -0.041997
v 0.014262 0.024149 -0.030910
v 0.024344 0.003992 -0.040484
v -0.001360 -0.032293 -0.030910
v -0.012442 -0.032799 -0.040484
v -0.031085 -0.024231 -0.030910
v -0.041172 -0.004075 -0.030910
v -0.038139 0.012554 -0.041997
v -0.032592 -0.022718 -0.040484
v -0.035118 0.019608 -0.030910
v -0.017489 0.031703 -0.040484
v -0.004381 0.032717 -0.040484
v 0.007208 -0.029266 -0.040484
v 0.007201 0.029183 -0.040484
v 0.018296 -0.019691 -0.030910
v 0.021817 0.011047 -0.041997
v -0.012442 0.032717 -0.030910
v 0.024344 0.004999 -0.030910
v 0.021317 -0.014657 -0.039978
v -0.040666 -0.007102 -0.040484
v -0.017989 -0.030779 -0.041997
v -0.026550 0.027669 -0.040484
v 0.024344 -0.004075 -0.040484
v -0.037639 0.015581 -0.040484
v 0.007201 0.029183 -0.030910
v -0.001360 -0.032293 -0.040484
v 0.020810 0.015581 -0.040484
v 0.011742 -0.025238 -0.041997
v -0.041172 0.003992 -0.030910
v -0.031085 0.024142 -0.030910
v -0.024037 -0.029266 -0.040484
v -0.037639 -0.015670 -0.040484
v -0.040159 0.009033 -0.040484
v -0.024037 -0.029266 -0.030910
v 0.014762 0.023636 -0.040484
v 0.019296 0.018095 -0.030910
v 0.014262 -0.024231 -0.039978
v -0.012442 -0.032799 -0.030910
v -0.024037 0.028176 -0.041997
v 0.006201 -0.029772 -0.030910
v -0.035118 -0.019691 -0.030910
v 0.023330 0.009033 -0.040484
v -0.005894 -0.032799 -0.040989
v 0.024344 -0.004575 -0.030910
v -0.012442 0.032717 -0.040484
v -0.033605 -0.020198 -0.041997
f 156 179 193 
f 132 131 130 
f 134 133 135 
f 130 131 136 
f 132 130 137 
f 133 134 138 
f 137 130 141 
f 132 137 142 
f 130 136 143 
f 136 131 145 
f 134 135 148 
f 132 142 149 
f 141 130 151 
f 130 143 153 
f 143 136 154 
f 135 133 155 
f 133 146 155 
f 136 145 157 
f 131 132 159 
f 148 135 159 
f 159 132 161 
f 148 159 161 
f 137 141 162 
f 134 148 163 
f 148 139 163 
f 150 134 163 
f 145 131 164 
f 158 145 164 
f 131 159 164 
f 142 137 165 
f 147 134 166 
f 137 162 166 
f 162 147 166 
f 146 133 167 
f 143 154 167 
f 154 146 167 
f 133 138 168 
f 145 158 169 
f 134 150 170 
f 150 165 170 
f 166 134 170 
f 137 166 170 
f 140 155 171 
f 136 157 171 
f 157 140 171 
f 132 149 172 
f 149 161 172 
f 161 132 172 
f 138 160 173 
f 163 139 174 
f 138 134 175 
f 134 147 175 
f 160 138 175 
f 154 136 176 
f 146 154 176 
f 157 145 177 
f 140 157 177 
f 169 140 177 
f 145 169 177 
f 152 130 178 
f 156 144 178 
f 153 156 178 
f 144 168 178 
f 168 152 178 
f 167 133 179 
f 143 167 179 
f 155 146 180 
f 136 171 180 
f 171 155 180 
f 176 136 180 
f 146 176 180 
f 130 153 181 
f 178 130 181 
f 153 178 181 
f 139 148 182 
f 148 161 182 
f 161 149 182 
f 149 142 183 
f 174 139 183 
f 142 174 183 
f 139 182 183 
f 182 149 183 
f 141 160 184 
f 162 141 184 
f 147 162 184 
f 175 147 184 
f 160 175 184 
f 151 130 185 
f 130 152 185 
f 135 155 186 
f 155 140 186 
f 158 135 186 
f 140 169 186 
f 169 158 186 
f 141 151 187 
f 160 141 187 
f 151 173 187 
f 173 160 187 
f 153 143 188 
f 156 153 188 
f 179 156 188 
f 143 179 188 
f 150 163 189 
f 142 165 189 
f 165 150 189 
f 174 142 189 
f 163 174 189 
f 168 138 190 
f 152 168 190 
f 138 173 190 
f 173 151 190 
f 151 185 190 
f 185 152 190 
f 165 137 191 
f 137 170 191 
f 170 165 191 
f 135 158 192 
f 159 135 192 
f 158 164 192 
f 164 159 192 
f 144 156 193 
f 133 168 193 
f 168 144 193 
f 179 133 193 
o convex_5
v 0.021823 0.011044 0.041150
v 0.023335 -0.000041 -0.030910
v 0.024344 -0.000041 -0.030910
v 0.021823 0.013062 -0.030896
v 0.017288 0.011548 -0.030896
v 0.020312 -0.000041 0.041150
v 0.017288 0.013062 0.041150
v 0.024344 0.003991 0.039641
v 0.020312 -0.000041 -0.030896
v 0.024344 -0.000041 0.040149
v 0.021823 0.013062 0.040142
v 0.024344 0.004998 -0.030910
v 0.017288 0.013062 -0.030896
v 0.023335 0.009029 0.039641
v 0.017288 0.011548 0.041150
v 0.023335 0.009029 -0.030910
v 0.022327 0.012054 -0.030896
v 0.024344 0.004998 0.033589
v 0.023335 0.005505 0.041150
v 0.022327 0.012054 0.039634
f 210 204 213 
f 195 196 199 
f 199 194 200 
f 198 195 202 
f 195 199 202 
f 199 198 202 
f 199 196 203 
f 196 201 203 
f 200 194 204 
f 197 200 204 
f 196 195 205 
f 201 196 205 
f 195 198 206 
f 200 197 206 
f 198 200 206 
f 204 194 207 
f 198 199 208 
f 200 198 208 
f 199 200 208 
f 205 195 209 
f 195 206 209 
f 206 197 209 
f 207 205 209 
f 207 209 210 
f 197 204 210 
f 209 197 210 
f 201 205 211 
f 207 201 211 
f 205 207 211 
f 194 199 212 
f 199 203 212 
f 203 201 212 
f 207 194 212 
f 201 207 212 
f 204 207 213 
f 207 210 213 
o convex_6
v 0.023335 -0.000041 0.041150
v 0.018800 -0.009113 -0.030903
v 0.018800 -0.008103 -0.030903
v 0.024344 -0.004577 -0.030903
v 0.023335 -0.009113 0.039634
v 0.018800 -0.009113 0.041150
v 0.020313 -0.000041 -0.030903
v 0.020313 -0.000041 0.041150
v 0.023335 -0.009113 -0.030903
v 0.024344 -0.000041 -0.030903
v 0.024344 -0.003066 0.040142
v 0.024344 -0.000041 0.040142
v 0.018800 -0.008103 0.041150
v 0.024344 -0.004577 0.033590
v 0.022831 -0.008103 0.041150
v 0.023839 -0.007096 0.039634
v 0.019809 -0.002561 0.041150
f 226 221 230 
f 215 216 217 
f 215 218 219 
f 216 215 219 
f 217 216 220 
f 214 220 221 
f 219 214 221 
f 215 217 222 
f 218 215 222 
f 217 220 223 
f 220 214 223 
f 217 223 224 
f 224 223 225 
f 223 214 225 
f 214 224 225 
f 216 219 226 
f 219 221 226 
f 217 224 227 
f 219 218 228 
f 214 219 228 
f 224 214 228 
f 224 228 229 
f 222 217 229 
f 218 222 229 
f 217 227 229 
f 227 224 229 
f 228 218 229 
f 220 216 230 
f 221 220 230 
f 216 226 230 
o convex_7
v 0.016784 0.020118 0.041150
v 0.016784 0.013062 -0.030903
v 0.016280 0.013567 -0.030903
v 0.015775 0.022637 -0.030903
v 0.009225 0.022132 0.041150
v 0.009225 0.027677 -0.030903
v 0.021320 0.013062 0.040643
v 0.009729 0.027677 0.039634
v 0.020815 0.015583 -0.030903
v 0.016784 0.013062 0.041150
v 0.009225 0.022132 -0.030903
v 0.017792 0.020118 0.039634
v 0.021320 0.013062 -0.030903
v 0.014265 0.024148 0.039133
v 0.020815 0.015583 0.039634
v 0.011745 0.026165 -0.030903
v 0.009225 0.027172 0.040643
v 0.019302 0.018102 -0.030903
v 0.021320 0.014070 0.040142
v 0.019302 0.018102 0.039634
v 0.016280 0.013567 0.041150
v 0.009729 0.027677 -0.030903
v 0.015775 0.022637 0.039133
v 0.014265 0.024148 -0.030903
v 0.021320 0.014070 -0.030903
f 239 249 255 
f 232 233 234 
f 234 233 236 
f 232 234 239 
f 233 232 240 
f 231 235 240 
f 232 237 240 
f 237 231 240 
f 233 235 241 
f 236 233 241 
f 235 236 241 
f 237 232 243 
f 232 239 243 
f 238 231 244 
f 234 236 246 
f 238 244 246 
f 235 231 247 
f 236 235 247 
f 231 238 247 
f 238 236 247 
f 239 234 248 
f 234 242 248 
f 245 239 248 
f 231 237 249 
f 237 243 249 
f 239 245 249 
f 249 245 250 
f 242 231 250 
f 248 242 250 
f 245 248 250 
f 231 249 250 
f 235 233 251 
f 233 240 251 
f 240 235 251 
f 236 238 252 
f 246 236 252 
f 238 246 252 
f 231 242 253 
f 242 234 253 
f 244 231 253 
f 234 244 253 
f 244 234 254 
f 234 246 254 
f 246 244 254 
f 243 239 255 
f 249 243 255 
o convex_8
v -0.039155 -0.012135 -0.030903
v -0.029077 -0.025744 -0.030903
v -0.028573 -0.025744 -0.030903
v -0.040163 -0.000041 0.041150
v -0.037140 -0.000041 -0.030903
v -0.028573 -0.024735 0.041150
v -0.037645 -0.015663 0.039634
v -0.028573 -0.020199 0.041150
v -0.037140 -0.000041 0.041150
v -0.041171 -0.004074 -0.030903
v -0.028573 -0.020199 -0.030903
v -0.040667 -0.007098 0.039634
v -0.032606 -0.022717 -0.030903
v -0.031094 -0.024229 0.039634
v -0.041171 -0.000041 -0.030903
v -0.041171 -0.000041 0.040142
v -0.035124 -0.019695 -0.030903
v -0.035124 -0.019695 0.039133
v -0.029077 -0.025744 0.040142
v -0.039660 -0.010626 0.040142
v -0.037645 -0.015663 -0.030903
v -0.040163 -0.009114 -0.030903
v -0.036132 -0.016669 0.041150
v -0.041171 -0.004074 0.039634
v -0.032606 -0.022717 0.039634
v -0.031094 -0.024229 -0.030903
v -0.038148 -0.014654 0.039133
v -0.036132 -0.018181 0.039634
v -0.028573 -0.025744 0.040142
v -0.040667 -0.007098 -0.030903
v -0.040163 -0.005586 0.041150
f 271 279 286 
f 258 257 256 
f 258 256 260 
f 261 258 263 
f 259 261 263 
f 260 259 264 
f 259 263 264 
f 263 260 264 
f 260 256 265 
f 258 260 266 
f 260 263 266 
f 263 258 266 
f 256 257 268 
f 259 260 270 
f 260 265 270 
f 259 270 271 
f 270 265 271 
f 256 268 272 
f 272 268 273 
f 257 258 274 
f 269 257 274 
f 256 272 276 
f 265 256 277 
f 256 275 277 
f 275 267 277 
f 261 259 278 
f 274 261 278 
f 275 262 278 
f 265 267 279 
f 271 265 279 
f 268 269 280 
f 273 268 280 
f 269 274 280 
f 274 278 280 
f 268 257 281 
f 269 268 281 
f 257 269 281 
f 262 275 282 
f 275 256 282 
f 256 276 282 
f 276 262 282 
f 272 273 283 
f 262 276 283 
f 276 272 283 
f 278 262 283 
f 273 280 283 
f 280 278 283 
f 258 261 284 
f 274 258 284 
f 261 274 284 
f 267 265 285 
f 265 277 285 
f 277 267 285 
f 259 271 286 
f 267 275 286 
f 278 259 286 
f 275 278 286 
f 279 267 286 
o convex_9
v 0.003682 -0.030782 -0.030903
v 0.017288 -0.020200 0.040142
v 0.016278 -0.020200 0.041150
v -0.004382 -0.032799 0.039634
v -0.007405 -0.028768 -0.030903
v 0.017288 -0.020200 -0.030903
v -0.007405 -0.028768 0.041150
v 0.009727 -0.027759 0.039634
v 0.011743 -0.020200 -0.030903
v -0.007405 -0.032799 -0.030903
v 0.011743 -0.020200 0.041150
v 0.014264 -0.024232 -0.030903
v 0.002171 -0.031286 0.040142
v -0.007405 -0.032799 0.040142
v 0.015775 -0.022721 0.039634
v -0.001358 -0.032295 -0.030903
v 0.007209 -0.029271 -0.030903
v 0.006201 -0.029774 0.039133
v 0.001666 -0.030783 0.041150
v 0.011238 -0.026750 -0.030903
v 0.014264 -0.024232 0.039634
v 0.017288 -0.020704 -0.030903
v -0.004382 -0.032799 -0.030903
v -0.001358 -0.032295 0.039634
v 0.017288 -0.020704 0.040142
v 0.011238 -0.025745 0.041150
v 0.000658 -0.031790 -0.030903
v 0.015775 -0.022721 -0.030903
v 0.011238 -0.026750 0.039133
f 306 307 315 
f 289 288 292 
f 287 291 292 
f 289 292 295 
f 292 291 295 
f 291 293 295 
f 291 287 296 
f 293 291 296 
f 293 289 297 
f 289 295 297 
f 295 293 297 
f 287 292 298 
f 296 290 300 
f 293 296 300 
f 296 287 302 
f 287 298 303 
f 299 287 304 
f 294 299 304 
f 287 303 304 
f 303 294 304 
f 289 293 305 
f 299 294 305 
f 300 290 305 
f 293 300 305 
f 303 298 306 
f 294 303 306 
f 298 301 307 
f 306 298 307 
f 292 288 308 
f 298 292 308 
f 290 296 309 
f 296 302 309 
f 302 290 309 
f 290 302 310 
f 305 290 310 
f 299 305 310 
f 288 289 311 
f 307 301 311 
f 308 288 311 
f 301 308 311 
f 289 305 312 
f 305 294 312 
f 294 307 312 
f 311 289 312 
f 307 311 312 
f 287 299 313 
f 302 287 313 
f 310 302 313 
f 299 310 313 
f 301 298 314 
f 298 308 314 
f 308 301 314 
f 294 306 315 
f 307 294 315 
o convex_10
v -0.034117 0.019610 0.041150
v -0.041171 -0.000041 -0.030903
v -0.037141 -0.000041 -0.030903
v -0.029077 0.025157 -0.030903
v -0.037141 -0.000041 0.041150
v -0.029077 0.019109 0.041150
v -0.039156 0.012055 0.039634
v -0.037644 0.015579 -0.030903
v -0.029077 0.019109 -0.030903
v -0.041171 -0.000041 0.040142
v -0.029581 0.025157 0.040142
v -0.040667 0.007015 -0.030903
v -0.035124 0.019610 0.039133
v -0.032606 0.022636 -0.030903
v -0.041171 0.003991 0.039634
v -0.031093 0.024148 0.039634
v -0.029077 0.025157 0.040142
v -0.037644 0.015579 0.039634
v -0.035124 0.019610 -0.030903
v -0.039156 0.012055 -0.030903
v -0.040163 0.009031 0.039634
v -0.031093 0.024148 -0.030903
v -0.041171 0.003991 -0.030903
v -0.039660 0.008022 0.041150
v -0.032606 0.022636 0.039634
v -0.036132 0.018100 0.039634
v -0.040667 0.007015 0.039634
v -0.029581 0.025157 -0.030903
v -0.040163 0.009031 -0.030903
v -0.038148 0.014571 0.039133
f 323 335 345 
f 318 317 319 
f 317 318 320 
f 320 318 321 
f 316 320 321 
f 319 317 323 
f 318 319 324 
f 321 318 324 
f 319 321 324 
f 317 320 325 
f 323 317 327 
f 319 323 329 
f 317 325 330 
f 321 319 332 
f 316 321 332 
f 319 326 332 
f 326 316 332 
f 328 329 334 
f 329 323 334 
f 323 327 335 
f 322 335 336 
f 319 329 337 
f 331 326 337 
f 329 331 337 
f 327 317 338 
f 317 330 338 
f 330 327 338 
f 320 316 339 
f 325 320 339 
f 330 325 339 
f 316 333 339 
f 333 322 339 
f 322 336 339 
f 316 326 340 
f 329 328 340 
f 326 331 340 
f 331 329 340 
f 333 316 341 
f 323 333 341 
f 334 323 341 
f 328 334 341 
f 316 340 341 
f 340 328 341 
f 327 330 342 
f 336 327 342 
f 330 339 342 
f 339 336 342 
f 326 319 343 
f 319 337 343 
f 337 326 343 
f 335 327 344 
f 327 336 344 
f 336 335 344 
f 322 333 345 
f 333 323 345 
f 335 322 345 
o convex_11
v -0.024036 0.029188 -0.030903
v -0.009422 0.031708 0.041150
v -0.009422 0.028684 0.041150
v -0.029077 0.020117 0.041150
v -0.009422 0.028684 -0.030903
v -0.028571 0.020117 -0.030903
v -0.028067 0.026667 0.039133
v -0.012447 0.032717 -0.030903
v -0.017485 0.031708 0.039634
v -0.029077 0.025661 -0.030903
v -0.009422 0.032717 -0.030903
v -0.011440 0.032717 0.040142
v -0.029077 0.024655 0.041150
v -0.023028 0.029693 0.039133
v -0.017485 0.031708 -0.030903
v -0.028571 0.020117 0.041150
v -0.029077 0.020117 -0.030903
v -0.009422 0.032717 0.040142
v -0.015471 0.032212 0.039634
v -0.020508 0.030700 -0.030903
v -0.028067 0.026667 -0.030903
v -0.018494 0.030700 0.041150
v -0.029077 0.025661 0.040142
v -0.026555 0.027676 0.039634
v -0.020508 0.030700 0.039634
v -0.015471 0.032212 -0.030903
v -0.012447 0.032717 0.039634
f 364 357 372 
f 348 347 349 
f 347 348 350 
f 350 348 351 
f 346 350 351 
f 350 346 353 
f 346 351 355 
f 347 350 356 
f 350 353 356 
f 356 353 357 
f 349 347 358 
f 355 349 358 
f 353 346 360 
f 348 349 361 
f 351 348 361 
f 349 351 361 
f 351 349 362 
f 349 355 362 
f 355 351 362 
f 347 356 363 
f 356 357 363 
f 357 347 363 
f 360 354 364 
f 346 359 365 
f 360 346 365 
f 354 360 365 
f 346 355 366 
f 355 352 366 
f 347 357 367 
f 358 347 367 
f 357 364 367 
f 364 354 367 
f 352 355 368 
f 355 358 368 
f 359 346 369 
f 346 366 369 
f 366 352 369 
f 358 367 369 
f 352 368 369 
f 368 358 369 
f 365 359 370 
f 354 365 370 
f 367 354 370 
f 359 369 370 
f 369 367 370 
f 353 360 371 
f 364 353 371 
f 360 364 371 
f 357 353 372 
f 353 364 372 
o convex_12
v -0.001358 0.032211 -0.030903
v 0.009225 0.026670 0.041150
v 0.009225 0.022637 0.041150
v -0.009422 0.028684 0.041150
v 0.008719 0.022637 -0.030903
v -0.009422 0.028684 -0.030903
v -0.009422 0.032717 0.040142
v 0.009225 0.027677 -0.030903
v 0.003681 0.030700 0.039634
v -0.009422 0.032717 -0.030903
v -0.004381 0.032717 0.039634
v 0.007208 0.029188 -0.030903
v 0.008719 0.028180 0.040142
v 0.008719 0.022637 0.041150
v 0.009225 0.022637 -0.030903
v -0.004381 0.032717 -0.030903
v 0.003681 0.030700 -0.030903
v 0.000657 0.031708 0.039634
v -0.002871 0.031708 0.041150
v 0.007208 0.029188 0.039634
v -0.001358 0.032211 0.039634
v 0.009225 0.027677 0.040142
v 0.000657 0.031708 -0.030903
f 390 389 395 
f 375 374 376 
f 373 377 378 
f 377 376 378 
f 378 376 379 
f 374 375 380 
f 377 373 380 
f 373 378 382 
f 378 379 382 
f 382 379 383 
f 380 373 384 
f 380 384 385 
f 375 376 386 
f 376 377 386 
f 377 375 386 
f 375 377 387 
f 380 375 387 
f 377 380 387 
f 373 382 388 
f 382 383 388 
f 383 373 388 
f 384 373 389 
f 381 384 389 
f 381 389 390 
f 376 374 391 
f 379 376 391 
f 383 379 391 
f 385 381 391 
f 374 385 391 
f 381 390 391 
f 384 381 392 
f 381 385 392 
f 385 384 392 
f 373 383 393 
f 390 373 393 
f 383 391 393 
f 391 390 393 
f 374 380 394 
f 385 374 394 
f 380 385 394 
f 389 373 395 
f 373 390 395 
o convex_13
v -0.024038 -0.029270 -0.030903
v -0.017990 -0.026752 0.041150
v -0.027564 -0.020705 0.041150
v -0.017990 -0.026752 -0.030903
v -0.018998 -0.031286 0.040142
v -0.028572 -0.020705 -0.030903
v -0.028572 -0.026246 0.040142
v -0.017990 -0.031286 -0.030903
v -0.028572 -0.026246 -0.030903
v -0.027564 -0.020705 -0.030903
v -0.024038 -0.029270 0.039634
v -0.028572 -0.020705 0.041150
v -0.017990 -0.030783 0.041150
v -0.020510 -0.030783 -0.030903
v -0.028068 -0.026751 -0.030903
v -0.026556 -0.027759 0.039634
v -0.023031 -0.029775 0.039133
v -0.028068 -0.025744 0.041150
v -0.017990 -0.031286 0.040142
v -0.018998 -0.031286 -0.030903
f 400 409 415 
f 398 397 399 
f 399 396 401 
f 399 397 403 
f 396 399 403 
f 401 396 404 
f 402 401 404 
f 398 399 405 
f 401 398 405 
f 399 401 405 
f 397 398 407 
f 398 401 407 
f 401 402 407 
f 403 397 408 
f 397 407 408 
f 396 403 409 
f 404 396 410 
f 402 404 410 
f 396 406 411 
f 406 402 411 
f 410 396 411 
f 402 410 411 
f 406 396 412 
f 400 406 412 
f 396 409 412 
f 409 400 412 
f 406 400 413 
f 402 406 413 
f 407 402 413 
f 408 407 413 
f 400 408 413 
f 400 403 414 
f 403 408 414 
f 408 400 414 
f 403 400 415 
f 409 403 415 
o convex_14
v -0.015469 -0.032295 0.039634
v -0.007406 -0.028768 0.041150
v -0.016477 -0.027256 0.041150
v -0.007406 -0.028768 -0.030903
v -0.017990 -0.031286 -0.030903
v -0.007406 -0.032799 -0.030903
v -0.017990 -0.027256 -0.030903
v -0.007406 -0.032799 0.040142
v -0.017990 -0.031286 0.040643
v -0.012447 -0.032799 -0.030903
v -0.017990 -0.027256 0.041150
v -0.017485 -0.031791 -0.030903
v -0.012447 -0.032799 0.039634
v -0.016477 -0.027256 -0.030903
v -0.013958 -0.031791 0.041150
v -0.017485 -0.031791 0.039634
v -0.015469 -0.032295 -0.030903
f 427 425 432 
f 418 417 419 
f 419 417 421 
f 420 419 421 
f 419 420 422 
f 421 417 423 
f 422 420 424 
f 420 421 425 
f 421 423 425 
f 417 418 426 
f 418 422 426 
f 422 424 426 
f 424 420 427 
f 420 425 427 
f 416 425 428 
f 425 423 428 
f 418 419 429 
f 422 418 429 
f 419 422 429 
f 423 417 430 
f 424 416 430 
f 417 426 430 
f 426 424 430 
f 416 428 430 
f 428 423 430 
f 416 424 431 
f 427 416 431 
f 424 427 431 
f 425 416 432 
f 416 427 432 
o convex_15
v 0.020816 -0.013648 0.041150
v 0.012249 -0.020200 -0.030903
v 0.012249 -0.019191 -0.030903
v 0.022831 -0.009113 -0.030903
v 0.018295 -0.009617 0.041150
v 0.017791 -0.020200 0.039634
v 0.012249 -0.019191 0.041150
v 0.018295 -0.019695 -0.030903
v 0.018799 -0.009113 -0.030903
v 0.022831 -0.010626 0.040142
v 0.021319 -0.014656 -0.030903
v 0.022831 -0.009113 0.040643
v 0.020816 -0.015664 0.039634
v 0.012249 -0.020200 0.041150
v 0.017791 -0.020200 -0.030903
v 0.022831 -0.010626 -0.030903
v 0.018799 -0.009113 0.041150
v 0.018295 -0.009617 -0.030903
v 0.019302 -0.018184 0.039634
v 0.022327 -0.012137 0.039634
v 0.020816 -0.015664 -0.030903
v 0.016784 -0.020200 0.041150
f 438 451 454 
f 434 435 436 
f 435 434 439 
f 433 437 439 
f 437 435 439 
f 434 436 440 
f 436 435 441 
f 440 436 443 
f 436 441 444 
f 433 442 444 
f 442 436 444 
f 442 433 445 
f 434 438 446 
f 433 439 446 
f 439 434 446 
f 438 434 447 
f 434 440 447 
f 440 438 447 
f 436 442 448 
f 443 436 448 
f 437 433 449 
f 441 437 449 
f 433 444 449 
f 444 441 449 
f 435 437 450 
f 441 435 450 
f 437 441 450 
f 438 440 451 
f 445 433 451 
f 442 445 452 
f 445 443 452 
f 448 442 452 
f 443 448 452 
f 440 443 453 
f 443 445 453 
f 451 440 453 
f 445 451 453 
f 446 438 454 
f 433 446 454 
f 451 433 454 
