o convex_0
v -0.048631 -0.035410 -0.007476
v -0.011004 0.034539 0.009676
v -0.011004 0.034539 0.007694
v 0.066182 -0.030782 0.001102
v 0.055630 0.027274 -0.018698
v 0.038467 -0.001744 0.024853
v -0.049283 0.029253 -0.017373
v 0.055630 -0.028146 -0.018698
v -0.029485 0.000872 0.019573
v 0.018668 -0.032103 0.020893
v 0.056283 0.030574 0.013631
v -0.046648 -0.028146 -0.018698
v -0.056547 0.020009 -0.000218
v 0.017351 0.029253 0.022213
v 0.061565 0.032553 -0.010116
v -0.052583 -0.028810 0.001102
v 0.054965 -0.024845 0.016933
v 0.070812 0.008137 -0.000880
v 0.058265 -0.033425 -0.014071
v -0.047966 0.034539 -0.011436
v -0.058517 -0.006365 -0.012756
v -0.047966 0.029917 0.003080
v 0.044414 -0.033425 0.016933
v 0.065529 -0.009008 -0.014733
v 0.061565 0.002858 0.015613
v -0.010351 -0.030124 0.016933
v 0.014051 -0.010330 0.024853
v -0.048631 0.024631 -0.018698
v 0.041114 0.032553 0.018253
v -0.057865 -0.007694 0.001102
v -0.008369 0.029253 0.017591
v -0.016951 -0.035410 0.007694
v 0.062882 0.033217 0.001760
v 0.044414 0.019352 0.022209
v 0.056283 0.032553 -0.015395
v -0.046648 -0.033418 -0.015395
v 0.033850 -0.026824 0.022876
v 0.018016 0.013416 0.024853
v 0.068829 0.003522 0.007694
v -0.055217 -0.028810 -0.010116
v -0.055217 0.028596 -0.009458
v 0.063547 0.016716 -0.016053
v 0.008769 -0.026824 0.022213
v 0.049031 -0.007029 0.022209
v -0.027502 -0.001744 0.020231
v 0.067512 0.027274 0.000440
v 0.068164 -0.014287 0.007036
v 0.068829 -0.020224 -0.004178
v 0.061565 -0.033425 0.005716
v -0.017603 -0.035410 -0.011436
v -0.046648 -0.031446 0.003080
v -0.014968 0.034539 -0.012093
v -0.054565 0.008794 -0.017373
v -0.049283 0.033868 -0.002200
v -0.059847 0.006158 -0.007476
v -0.055217 0.010773 0.003080
v -0.046648 0.030574 -0.017373
v 0.002182 0.033211 0.016933
v 0.062882 -0.029467 -0.013413
v 0.064212 0.024638 0.009014
v -0.059182 -0.013623 -0.003520
v 0.006134 0.027274 0.021551
v 0.031215 0.027274 0.022876
v 0.055630 0.016059 0.018253
f 25 60 64 
f 5 8 12 
f 2 3 20 
f 5 12 28 
f 16 9 30 
f 22 9 31 
f 23 10 32 
f 10 26 32 
f 3 2 33 
f 29 11 33 
f 2 29 33 
f 11 29 34 
f 15 5 35 
f 33 15 35 
f 12 8 36 
f 8 19 36 
f 10 23 37 
f 23 17 37 
f 6 27 37 
f 27 6 38 
f 1 16 40 
f 21 12 40 
f 12 36 40 
f 36 1 40 
f 20 7 41 
f 8 5 42 
f 5 15 42 
f 24 8 42 
f 18 24 42 
f 26 10 43 
f 10 37 43 
f 37 27 43 
f 17 25 44 
f 34 6 44 
f 6 37 44 
f 37 17 44 
f 9 16 45 
f 27 38 45 
f 26 43 45 
f 43 27 45 
f 15 33 46 
f 39 18 46 
f 42 15 46 
f 18 42 46 
f 25 17 47 
f 18 39 47 
f 39 25 47 
f 24 18 48 
f 47 4 48 
f 18 47 48 
f 19 4 49 
f 17 23 49 
f 23 32 49 
f 4 47 49 
f 47 17 49 
f 32 1 50 
f 1 36 50 
f 36 19 50 
f 19 49 50 
f 49 32 50 
f 16 1 51 
f 1 32 51 
f 32 26 51 
f 45 16 51 
f 26 45 51 
f 20 3 52 
f 3 33 52 
f 33 35 52 
f 12 21 53 
f 7 28 53 
f 28 12 53 
f 41 7 53 
f 2 20 54 
f 13 22 54 
f 20 41 54 
f 41 13 54 
f 30 13 55 
f 13 41 55 
f 53 21 55 
f 41 53 55 
f 9 22 56 
f 22 13 56 
f 30 9 56 
f 13 30 56 
f 7 20 57 
f 5 28 57 
f 28 7 57 
f 35 5 57 
f 20 52 57 
f 52 35 57 
f 29 2 58 
f 14 29 58 
f 22 31 58 
f 2 54 58 
f 54 22 58 
f 4 19 59 
f 19 8 59 
f 8 24 59 
f 48 4 59 
f 24 48 59 
f 33 11 60 
f 25 39 60 
f 46 33 60 
f 39 46 60 
f 16 30 61 
f 40 16 61 
f 21 40 61 
f 30 55 61 
f 55 21 61 
f 31 9 62 
f 38 14 62 
f 9 45 62 
f 45 38 62 
f 14 58 62 
f 58 31 62 
f 29 14 63 
f 6 34 63 
f 34 29 63 
f 14 38 63 
f 38 6 63 
f 11 34 64 
f 44 25 64 
f 34 44 64 
f 60 11 64 
