o convex_0
v -0.002711 -0.023669 -0.004318
v 0.004685 0.023547 -0.003496
v 0.006325 0.023131 -0.003496
v 0.005503 0.021490 -0.007191
v -0.023648 0.003840 -0.003496
v 0.023154 -0.006425 -0.003496
v -0.004763 -0.021612 -0.007191
v -0.019123 0.011230 -0.007191
v 0.021925 0.003017 -0.007191
v 0.013711 -0.017508 -0.007191
v -0.019123 -0.014633 -0.003496
v -0.020769 -0.007659 -0.007191
v -0.012967 0.020256 -0.003496
v 0.019461 0.014100 -0.003496
v 0.009612 -0.022024 -0.003496
v -0.006815 0.021079 -0.007191
v 0.015352 0.016152 -0.007191
v -0.013790 -0.018331 -0.006369
v 0.019461 -0.012170 -0.006369
v -0.009690 -0.022024 -0.003496
v 0.005091 -0.022024 -0.006779
v 0.017409 -0.016685 -0.003496
v 0.023570 0.004658 -0.003496
v -0.023232 -0.001498 -0.005548
v -0.020769 0.012044 -0.003496
v -0.003533 0.023547 -0.004318
v -0.015019 0.017386 -0.006369
v 0.011664 0.021079 -0.003908
v 0.020691 0.009996 -0.006369
v -0.023232 -0.006018 -0.003496
v 0.021925 -0.003144 -0.007191
v -0.021998 0.005069 -0.006779
v -0.017071 -0.014222 -0.007191
v 0.003857 -0.023669 -0.003496
v 0.002628 0.022720 -0.006369
v 0.023570 -0.002321 -0.004729
v -0.021592 -0.008888 -0.005548
v 0.012893 -0.019560 -0.005548
v 0.010023 0.020668 -0.006369
v -0.009690 0.021079 -0.005958
v 0.015768 0.017386 -0.005548
v -0.006404 0.023131 -0.003496
v -0.017487 0.016564 -0.003908
v 0.020691 -0.008061 -0.007191
v -0.021998 -0.001910 -0.007191
v -0.008867 -0.020794 -0.006779
v -0.014608 -0.019149 -0.003908
v -0.021998 0.008355 -0.005139
v 0.021513 -0.010123 -0.004729
v 0.002216 -0.022024 -0.007191
v -0.012149 0.018616 -0.007191
v -0.018717 0.013689 -0.005958
v -0.018305 -0.014222 -0.005958
f 18 47 53 
f 3 2 5 
f 3 5 6 
f 4 7 8 
f 7 4 9 
f 7 9 10 
f 6 5 11 
f 8 7 12 
f 5 2 13 
f 3 6 14 
f 6 11 15 
f 4 8 16 
f 9 4 17 
f 15 11 20 
f 6 15 22 
f 10 19 22 
f 14 6 23 
f 5 13 25 
f 3 14 28 
f 9 17 29 
f 23 9 29 
f 14 23 29 
f 11 5 30 
f 5 24 30 
f 10 9 31 
f 24 5 32 
f 12 7 33 
f 20 1 34 
f 15 20 34 
f 21 15 34 
f 2 3 35 
f 4 16 35 
f 26 2 35 
f 16 26 35 
f 23 6 36 
f 9 23 36 
f 31 9 36 
f 24 12 37 
f 11 30 37 
f 30 24 37 
f 21 10 38 
f 15 21 38 
f 10 22 38 
f 22 15 38 
f 17 4 39 
f 3 28 39 
f 35 3 39 
f 4 35 39 
f 26 16 40 
f 27 13 40 
f 28 14 41 
f 29 17 41 
f 14 29 41 
f 17 39 41 
f 39 28 41 
f 13 2 42 
f 2 26 42 
f 40 13 42 
f 26 40 42 
f 25 13 43 
f 13 27 43 
f 19 10 44 
f 10 31 44 
f 31 36 44 
f 8 12 45 
f 12 24 45 
f 32 8 45 
f 24 32 45 
f 7 1 46 
f 1 20 46 
f 33 7 46 
f 18 33 46 
f 20 11 47 
f 46 20 47 
f 18 46 47 
f 5 25 48 
f 8 32 48 
f 32 5 48 
f 6 22 49 
f 22 19 49 
f 36 6 49 
f 19 44 49 
f 44 36 49 
f 1 7 50 
f 7 10 50 
f 10 21 50 
f 34 1 50 
f 21 34 50 
f 16 8 51 
f 8 27 51 
f 40 16 51 
f 27 40 51 
f 27 8 52 
f 25 43 52 
f 43 27 52 
f 48 25 52 
f 8 48 52 
f 12 33 53 
f 33 18 53 
f 37 12 53 
f 11 37 53 
f 47 11 53 
o convex_1
v 0.015770 0.025188 0.031409
v 0.028908 0.015747 0.069997
v 0.028086 0.017390 0.069997
v 0.012074 0.026831 0.069997
v 0.020286 0.015338 0.029360
v 0.017413 0.028062 0.069997
v 0.023569 0.017799 0.029360
v 0.012074 0.022316 0.029360
v 0.024801 0.015335 0.067944
v 0.012074 0.030526 0.068764
v 0.022748 0.023957 0.068764
v 0.012074 0.026831 0.030179
v 0.025212 0.015335 0.031409
v 0.020286 0.021496 0.029360
v 0.012074 0.022316 0.031409
v 0.018233 0.024777 0.041263
v 0.013716 0.027652 0.042906
v 0.023981 0.019442 0.042496
v 0.025212 0.015335 0.069997
v 0.020286 0.015338 0.032232
v 0.026443 0.015747 0.041672
v 0.026443 0.019854 0.069173
v 0.028908 0.015335 0.067530
v 0.021105 0.022315 0.040853
v 0.019876 0.026419 0.069997
v 0.016590 0.028472 0.067944
v 0.012896 0.026419 0.029360
v 0.012485 0.030526 0.069997
v 0.024801 0.021906 0.069583
v 0.024801 0.015335 0.029360
v 0.012485 0.028062 0.041263
f 81 70 84 
f 55 56 57 
f 57 56 59 
f 60 58 61 
f 61 57 63 
f 61 63 65 
f 60 61 67 
f 57 61 68 
f 61 58 68 
f 62 57 68 
f 67 54 69 
f 69 54 70 
f 60 67 71 
f 55 57 72 
f 57 62 72 
f 62 66 72 
f 58 62 73 
f 68 58 73 
f 62 68 73 
f 66 60 74 
f 60 71 74 
f 74 71 75 
f 56 74 75 
f 56 55 76 
f 55 72 76 
f 72 66 76 
f 74 56 76 
f 66 74 76 
f 69 64 77 
f 67 69 77 
f 71 67 77 
f 59 56 78 
f 64 69 78 
f 69 70 79 
f 59 78 79 
f 78 69 79 
f 61 65 80 
f 67 61 80 
f 54 67 80 
f 70 54 80 
f 57 59 81 
f 63 57 81 
f 59 79 81 
f 79 70 81 
f 75 71 82 
f 56 75 82 
f 77 64 82 
f 71 77 82 
f 78 56 82 
f 64 78 82 
f 58 60 83 
f 62 58 83 
f 60 66 83 
f 66 62 83 
f 65 63 84 
f 80 65 84 
f 70 80 84 
f 63 81 84 
o convex_2
v 0.008789 -0.025312 0.008416
v 0.002219 -0.029830 0.035094
v 0.003042 -0.029830 0.035094
v 0.008378 -0.024902 0.038796
v 0.002219 -0.020798 0.003488
v 0.008789 -0.019156 0.003488
v 0.002219 -0.025723 0.003899
v 0.002219 -0.026133 0.037558
v 0.008789 -0.029008 0.038796
v 0.008378 -0.024493 0.003488
v 0.005094 -0.027365 0.015806
v 0.007968 -0.019156 0.004310
v 0.002219 -0.029830 0.038796
v 0.008789 -0.024902 0.038796
v 0.007968 -0.028187 0.027705
v 0.002219 -0.027776 0.016628
v 0.002219 -0.020798 0.004722
v 0.005504 -0.029830 0.038381
v 0.005094 -0.025312 0.003488
v 0.002219 -0.026544 0.038796
f 97 88 104 
f 86 89 91 
f 89 86 92 
f 85 90 93 
f 90 85 94 
f 89 90 94 
f 90 89 96 
f 92 88 96 
f 86 87 97 
f 92 86 97 
f 93 88 97 
f 93 90 98 
f 88 93 98 
f 96 88 98 
f 90 96 98 
f 85 93 99 
f 95 85 99 
f 87 86 100 
f 86 91 100 
f 91 95 100 
f 95 87 100 
f 89 92 101 
f 96 89 101 
f 92 96 101 
f 87 95 102 
f 97 87 102 
f 93 97 102 
f 99 93 102 
f 95 99 102 
f 91 89 103 
f 94 85 103 
f 89 94 103 
f 95 91 103 
f 85 95 103 
f 88 92 104 
f 92 97 104 
o convex_3
v 0.016179 -0.021210 0.007594
v 0.008789 -0.028598 0.035094
v 0.009200 -0.028598 0.035094
v 0.015769 -0.020798 0.037558
v 0.008789 -0.018745 0.003488
v 0.008789 -0.024080 0.003488
v 0.016179 -0.015871 0.003488
v 0.016179 -0.025723 0.038796
v 0.008789 -0.024902 0.038796
v 0.013305 -0.015871 0.004310
v 0.012484 -0.024902 0.015394
v 0.016179 -0.015871 0.011700
v 0.014947 -0.021210 0.003488
v 0.011254 -0.028186 0.038796
v 0.016179 -0.021210 0.038796
v 0.009200 -0.026544 0.017447
v 0.014536 -0.025312 0.026063
v 0.010432 -0.024080 0.005133
v 0.011254 -0.026954 0.026475
v 0.008789 -0.028598 0.038796
v 0.016179 -0.022849 0.016217
v 0.013305 -0.027365 0.038381
v 0.008789 -0.018745 0.004310
v 0.015769 -0.015871 0.011700
v 0.013715 -0.023670 0.011700
f 125 121 129 
f 106 109 110 
f 110 109 111 
f 105 111 112 
f 109 106 113 
f 111 109 114 
f 112 111 116 
f 111 114 116 
f 111 105 117 
f 110 111 117 
f 112 113 118 
f 108 113 119 
f 113 112 119 
f 116 108 119 
f 112 116 119 
f 107 106 120 
f 106 110 120 
f 110 117 122 
f 120 110 122 
f 115 120 122 
f 107 120 123 
f 120 115 123 
f 115 121 123 
f 106 107 124 
f 113 106 124 
f 107 118 124 
f 118 113 124 
f 105 112 125 
f 112 121 125 
f 118 107 126 
f 112 118 126 
f 121 112 126 
f 107 123 126 
f 123 121 126 
f 109 113 127 
f 114 109 127 
f 113 114 127 
f 113 108 128 
f 114 113 128 
f 108 116 128 
f 116 114 128 
f 117 105 129 
f 121 115 129 
f 122 117 129 
f 115 122 129 
f 105 125 129 
o convex_4
v -0.009687 -0.022439 -0.002674
v -0.010509 -0.014229 -0.003084
v 0.002215 -0.017924 -0.003084
v -0.014613 -0.014229 0.003074
v 0.002215 -0.025313 0.003074
v -0.019950 -0.016281 0.003074
v -0.019128 -0.014229 -0.003496
v 0.002215 -0.023670 -0.003496
v 0.002215 -0.020386 0.003074
v -0.006404 -0.024901 0.003074
v -0.014613 -0.021207 0.002663
v -0.015846 -0.018334 -0.003496
v -0.004762 -0.023670 -0.003496
v -0.021182 -0.014229 0.003074
v 0.002215 -0.017924 -0.003496
v -0.000248 -0.024901 -0.000621
v -0.010097 -0.023670 0.003074
f 135 140 146 
f 132 131 133 
f 134 133 135 
f 133 131 136 
f 132 134 137 
f 132 133 138 
f 133 134 138 
f 134 132 138 
f 134 135 139 
f 135 136 141 
f 136 137 141 
f 130 140 141 
f 140 135 141 
f 139 130 142 
f 130 141 142 
f 141 137 142 
f 135 133 143 
f 133 136 143 
f 136 135 143 
f 131 132 144 
f 136 131 144 
f 132 137 144 
f 137 136 144 
f 137 134 145 
f 134 139 145 
f 142 137 145 
f 139 142 145 
f 130 139 146 
f 139 135 146 
f 140 130 146 
o convex_5
v -0.011330 -0.014228 -0.003084
v -0.025291 -0.004374 0.002663
v -0.024469 -0.004786 -0.000621
v -0.017901 0.000143 -0.003084
v -0.015027 -0.014228 0.003074
v -0.019542 -0.014228 -0.003496
v -0.020772 0.000143 0.003074
v -0.024058 0.000143 -0.003496
v -0.022004 -0.013406 0.003074
v -0.025291 0.000143 0.003074
v -0.022416 -0.008889 -0.003496
v -0.011330 -0.013817 -0.003496
v -0.017901 0.000143 -0.003496
v -0.023647 -0.009711 0.001842
v -0.020363 0.000143 0.002663
v -0.021184 -0.014228 0.003074
v -0.011330 -0.013817 -0.003084
f 150 161 163 
f 147 151 152 
f 149 148 154 
f 153 150 154 
f 151 153 155 
f 155 153 156 
f 154 148 156 
f 153 154 156 
f 148 155 156 
f 149 154 157 
f 154 152 157 
f 147 152 158 
f 152 154 158 
f 158 154 159 
f 154 150 159 
f 150 158 159 
f 148 149 160 
f 155 148 160 
f 152 155 160 
f 149 157 160 
f 157 152 160 
f 150 153 161 
f 153 151 161 
f 152 151 162 
f 151 155 162 
f 155 152 162 
f 151 147 163 
f 147 158 163 
f 158 150 163 
f 161 151 163 
o convex_6
v 0.012894 -0.022026 0.001431
v 0.002219 -0.025314 0.001842
v 0.002219 -0.025314 0.003484
v 0.014126 -0.010943 -0.003496
v 0.014537 -0.015049 0.003484
v 0.002219 -0.017926 -0.003496
v 0.013715 -0.019975 -0.003496
v 0.002630 -0.020386 0.003484
v 0.004684 -0.023669 -0.003496
v 0.014537 -0.021208 0.003484
v 0.006737 -0.024903 0.003074
v 0.002219 -0.023669 -0.003496
v 0.014537 -0.019154 -0.003496
v 0.007969 -0.022849 -0.003496
v 0.014126 -0.010943 -0.003084
v 0.014126 -0.014638 0.003074
v 0.014537 -0.010943 -0.003496
f 178 168 180 
f 165 166 169 
f 169 167 170 
f 166 168 171 
f 169 166 171 
f 169 170 172 
f 168 166 173 
f 164 170 173 
f 166 165 174 
f 165 172 174 
f 164 173 174 
f 173 166 174 
f 165 169 175 
f 172 165 175 
f 169 172 175 
f 170 167 176 
f 168 173 176 
f 173 170 176 
f 170 164 177 
f 172 170 177 
f 174 172 177 
f 164 174 177 
f 167 169 178 
f 169 171 178 
f 178 171 179 
f 171 168 179 
f 168 178 179 
f 176 167 180 
f 168 176 180 
f 167 178 180 
o convex_7
v 0.023158 -0.008892 -0.001442
v 0.014538 -0.020797 0.001842
v 0.014538 -0.020797 0.003484
v 0.018234 0.000143 -0.003496
v 0.025622 0.000143 0.003484
v 0.020695 0.000143 0.003484
v 0.014538 -0.018743 -0.003496
v 0.023979 0.000143 -0.003496
v 0.022338 -0.012996 0.003484
v 0.014538 -0.014226 0.003074
v 0.019875 -0.013816 -0.003496
v 0.014538 -0.010122 -0.003496
v 0.025211 -0.005196 0.003074
v 0.019055 -0.017509 0.003074
v 0.023569 -0.005196 -0.003496
v 0.015771 -0.018743 -0.002674
v 0.018234 0.000143 -0.002674
v 0.024801 -0.002733 -0.000621
f 193 195 198 
f 183 185 186 
f 185 184 186 
f 182 183 187 
f 187 184 188 
f 184 185 188 
f 185 183 189 
f 183 186 190 
f 187 183 190 
f 187 188 191 
f 181 189 191 
f 184 187 192 
f 187 190 192 
f 189 181 193 
f 185 189 193 
f 183 182 194 
f 189 183 194 
f 191 189 194 
f 191 188 195 
f 181 191 195 
f 193 181 195 
f 182 187 196 
f 187 191 196 
f 194 182 196 
f 191 194 196 
f 186 184 197 
f 190 186 197 
f 184 192 197 
f 192 190 197 
f 188 185 198 
f 185 193 198 
f 195 188 198 
o convex_8
v 0.019875 -0.019567 0.015393
v 0.016179 -0.028598 0.069578
v 0.016591 -0.028598 0.069578
v 0.024801 -0.015870 0.070001
v 0.016179 -0.015871 0.013342
v 0.028497 -0.016281 0.066303
v 0.016179 -0.024492 0.070001
v 0.016179 -0.020388 0.005132
v 0.021107 -0.015870 0.007183
v 0.023570 -0.022850 0.066303
v 0.016591 -0.024492 0.029763
v 0.024801 -0.017923 0.039608
v 0.026032 -0.020388 0.070001
v 0.020696 -0.022848 0.042069
v 0.016179 -0.015871 0.003484
v 0.028497 -0.015870 0.070001
v 0.024391 -0.016281 0.027302
v 0.020696 -0.025723 0.068757
v 0.019875 -0.016692 0.003484
v 0.022749 -0.020388 0.039204
v 0.018233 -0.024902 0.042485
v 0.016591 -0.019977 0.003484
v 0.018644 -0.022031 0.023193
v 0.021929 -0.017513 0.016630
v 0.026032 -0.015870 0.040845
v 0.016591 -0.022031 0.013342
v 0.021929 -0.019567 0.027718
v 0.016179 -0.024081 0.026488
v 0.026032 -0.020388 0.069174
v 0.019054 -0.026955 0.070001
f 216 211 228 
f 202 203 205 
f 203 200 205 
f 200 203 206 
f 203 202 207 
f 201 200 209 
f 202 205 211 
f 206 203 213 
f 203 207 213 
f 207 202 214 
f 202 211 214 
f 211 204 214 
f 204 210 215 
f 208 211 216 
f 212 208 216 
f 213 207 217 
f 208 212 218 
f 201 209 219 
f 216 201 219 
f 212 216 219 
f 206 213 220 
f 217 199 220 
f 213 217 220 
f 219 209 221 
f 212 219 221 
f 207 215 222 
f 199 217 222 
f 217 207 222 
f 207 214 223 
f 214 204 223 
f 215 207 223 
f 204 215 223 
f 220 199 224 
f 206 220 224 
f 199 221 224 
f 221 209 224 
f 215 210 225 
f 210 218 225 
f 218 212 225 
f 212 221 225 
f 221 199 225 
f 222 215 225 
f 199 222 225 
f 200 206 226 
f 209 200 226 
f 206 224 226 
f 224 209 226 
f 210 204 227 
f 211 208 227 
f 204 211 227 
f 208 218 227 
f 218 210 227 
f 200 201 228 
f 205 200 228 
f 211 205 228 
f 201 216 228 
o convex_9
v -0.022004 0.011639 -0.001032
v -0.024879 0.000143 -0.000622
v -0.024879 0.000143 0.001021
v -0.010921 0.014103 -0.003085
v -0.013796 0.014514 0.001021
v -0.017901 0.000143 -0.003496
v -0.019952 0.013693 -0.003496
v -0.019952 0.000143 0.001021
v -0.020361 0.014514 0.001021
v -0.024058 0.000554 -0.003496
v -0.010921 0.014514 -0.003496
v -0.024058 0.007531 0.001021
v -0.022825 0.007943 -0.003496
v -0.019130 0.014514 -0.003496
v -0.024879 0.003429 0.000199
f 240 241 243 
f 231 230 234 
f 232 233 236 
f 233 231 236 
f 231 234 236 
f 234 232 236 
f 231 233 237 
f 235 229 237 
f 234 230 238 
f 235 234 238 
f 233 232 239 
f 232 234 239 
f 234 235 239 
f 237 233 239 
f 237 229 240 
f 231 237 240 
f 229 235 241 
f 235 238 241 
f 240 229 241 
f 235 237 242 
f 239 235 242 
f 237 239 242 
f 230 231 243 
f 238 230 243 
f 231 240 243 
f 241 238 243 
o convex_10
v -0.017485 0.018211 0.000199
v 0.000986 0.025190 0.001021
v 0.000986 0.025190 0.000610
v 0.002219 0.017801 -0.003496
v -0.009276 0.022314 -0.003496
v -0.013383 0.014514 0.001021
v -0.018721 0.014514 -0.003496
v 0.002219 0.019852 0.001021
v 0.002219 0.023958 -0.003496
v -0.009276 0.023547 0.001021
v -0.020364 0.014514 0.001021
v -0.010098 0.014514 -0.003496
v -0.003530 0.024368 -0.001853
v -0.013794 0.019852 -0.003496
v -0.013383 0.021492 0.001021
v 0.002219 0.024779 0.001021
v -0.018721 0.015335 -0.003496
f 257 250 260 
f 248 247 250 
f 245 249 251 
f 249 247 251 
f 247 248 252 
f 251 247 252 
f 245 246 253 
f 249 245 253 
f 249 253 254 
f 250 249 254 
f 247 249 255 
f 250 247 255 
f 249 250 255 
f 246 252 256 
f 252 248 256 
f 253 246 256 
f 248 253 256 
f 248 250 257 
f 253 248 258 
f 254 253 258 
f 244 254 258 
f 257 244 258 
f 248 257 258 
f 246 245 259 
f 245 251 259 
f 252 246 259 
f 251 252 259 
f 254 244 260 
f 250 254 260 
f 244 257 260 
o convex_11
v 0.010019 0.023134 0.000199
v 0.002219 0.017799 -0.003496
v 0.013304 0.012051 -0.003496
v 0.002219 0.020262 0.002663
v 0.002219 0.023957 -0.003496
v 0.013716 0.015335 0.002663
v 0.013716 0.019850 -0.003496
v 0.004684 0.025190 0.002663
v 0.013716 0.021492 0.002663
v 0.002219 0.025190 0.002663
v 0.006738 0.023134 -0.003496
v 0.013304 0.012051 -0.003085
f 266 264 272 
f 263 262 265 
f 262 264 265 
f 263 265 267 
f 266 263 267 
f 264 266 268 
f 268 266 269 
f 267 261 269 
f 266 267 269 
f 261 268 269 
f 265 264 270 
f 268 265 270 
f 264 268 270 
f 261 267 271 
f 267 265 271 
f 268 261 271 
f 265 268 271 
f 262 263 272 
f 264 262 272 
f 263 266 272 
o convex_12
v 0.021927 0.012869 0.001020
v 0.013717 0.011226 -0.003496
v 0.017823 0.000965 -0.003496
v 0.013717 0.014921 0.002663
v 0.025211 0.000143 0.002663
v 0.023569 0.005071 -0.003496
v 0.014128 0.019438 -0.003496
v 0.014128 0.021494 0.002663
v 0.020695 0.000143 0.002663
v 0.023979 0.000143 -0.003496
v 0.023979 0.009178 0.002663
v 0.018644 0.015743 -0.003085
v 0.020284 0.015743 0.002663
v 0.018233 0.000143 -0.002674
v 0.022338 0.009178 -0.003496
v 0.025211 0.004662 0.002252
v 0.013717 0.019852 -0.003085
v 0.016591 0.019438 0.001431
f 279 289 290 
f 275 274 278 
f 278 274 279 
f 276 277 280 
f 277 276 281 
f 277 281 282 
f 275 278 282 
f 280 277 283 
f 283 273 285 
f 280 283 285 
f 273 284 285 
f 274 275 286 
f 276 274 286 
f 281 276 286 
f 282 281 286 
f 275 282 286 
f 278 279 287 
f 283 278 287 
f 273 283 287 
f 284 273 287 
f 279 284 287 
f 277 282 288 
f 282 278 288 
f 283 277 288 
f 278 283 288 
f 274 276 289 
f 279 274 289 
f 276 280 289 
f 289 280 290 
f 284 279 290 
f 280 285 290 
f 285 284 290 
o convex_13
v -0.017901 -0.023260 0.027719
v -0.015026 -0.025312 0.070001
v -0.015437 -0.024902 0.070001
v -0.015026 -0.017925 0.003074
v -0.027344 -0.017924 0.070001
v -0.015437 -0.029008 0.067531
v -0.023237 -0.017924 0.070001
v -0.020365 -0.018334 0.012114
v -0.023237 -0.023260 0.067125
v -0.015026 -0.022441 0.011289
v -0.015026 -0.017925 0.017866
v -0.024058 -0.019157 0.041667
v -0.017901 -0.027776 0.070001
v -0.018311 -0.017924 0.003493
v -0.015026 -0.026544 0.041248
v -0.020365 -0.022850 0.040016
v -0.015437 -0.020798 0.003493
v -0.027344 -0.018334 0.067944
v -0.023237 -0.017924 0.030176
v -0.016258 -0.025723 0.038385
v -0.015026 -0.029008 0.070001
v -0.021185 -0.025313 0.069175
v -0.019543 -0.020388 0.018266
v -0.015437 -0.023671 0.018679
v -0.025289 -0.021209 0.070001
v -0.018723 -0.024491 0.042479
v -0.021596 -0.019566 0.025669
v -0.017490 -0.021620 0.014984
v -0.022416 -0.021209 0.042899
v -0.018723 -0.018745 0.006363
f 318 313 320 
f 292 293 295 
f 295 293 297 
f 294 292 300 
f 293 292 301 
f 292 294 301 
f 297 293 301 
f 292 295 303 
f 295 297 304 
f 301 294 304 
f 297 301 304 
f 300 292 305 
f 294 300 307 
f 304 294 307 
f 302 308 309 
f 295 304 309 
f 304 298 309 
f 308 295 309 
f 296 303 310 
f 305 296 310 
f 292 303 311 
f 303 296 311 
f 305 292 311 
f 296 305 311 
f 299 306 312 
f 291 306 313 
f 300 305 314 
f 307 300 314 
f 310 291 314 
f 305 310 314 
f 302 299 315 
f 303 295 315 
f 295 308 315 
f 308 302 315 
f 312 303 315 
f 299 312 315 
f 306 291 316 
f 291 310 316 
f 310 303 316 
f 303 312 316 
f 312 306 316 
f 302 309 317 
f 309 298 317 
f 298 313 317 
f 313 306 317 
f 291 313 318 
f 307 314 318 
f 314 291 318 
f 299 302 319 
f 306 299 319 
f 302 317 319 
f 317 306 319 
f 298 304 320 
f 304 307 320 
f 313 298 320 
f 307 318 320 
o convex_14
v -0.025701 -0.015049 0.032227
v -0.015026 -0.017512 0.015809
v -0.015026 -0.017923 0.015809
v -0.023648 -0.017512 0.070001
v -0.027343 -0.010943 0.070001
v -0.017491 -0.010943 0.003080
v -0.023237 -0.010943 0.003493
v -0.018722 -0.017923 0.003493
v -0.027753 -0.017923 0.069582
v -0.030628 -0.010943 0.065481
v -0.015026 -0.013817 0.003493
v -0.022007 -0.017923 0.019504
v -0.025701 -0.011353 0.017454
v -0.015026 -0.017923 0.003080
v -0.030628 -0.012175 0.068756
v -0.021596 -0.014229 0.003080
v -0.028163 -0.012175 0.041248
v -0.023648 -0.017923 0.070001
v -0.024879 -0.017923 0.040848
v -0.024059 -0.014229 0.016222
v -0.029395 -0.015049 0.070001
v -0.026521 -0.015459 0.041248
v -0.028575 -0.010943 0.042073
v -0.030628 -0.010943 0.070001
v -0.024059 -0.016691 0.070001
v -0.023648 -0.012175 0.007181
v -0.022007 -0.015870 0.010470
v -0.017491 -0.010943 0.003899
f 331 326 348 
f 323 322 324 
f 325 326 327 
f 328 323 329 
f 325 327 330 
f 322 323 331 
f 328 329 332 
f 323 328 334 
f 331 323 334 
f 326 331 334 
f 327 326 336 
f 326 334 336 
f 334 328 336 
f 333 321 337 
f 323 324 338 
f 324 325 338 
f 329 323 338 
f 321 332 339 
f 332 329 339 
f 332 321 340 
f 321 333 340 
f 335 337 341 
f 338 325 341 
f 329 338 341 
f 337 321 342 
f 321 339 342 
f 339 329 342 
f 329 341 342 
f 341 337 342 
f 330 327 343 
f 327 333 343 
f 335 330 343 
f 333 337 343 
f 337 335 343 
f 325 330 344 
f 330 335 344 
f 341 325 344 
f 335 341 344 
f 324 322 345 
f 325 324 345 
f 322 331 345 
f 331 325 345 
f 333 327 346 
f 327 336 346 
f 340 333 346 
f 340 346 347 
f 328 332 347 
f 336 328 347 
f 332 340 347 
f 346 336 347 
f 326 325 348 
f 325 331 348 
o convex_15
v -0.028575 -0.001910 0.022782
v -0.023238 -0.010943 0.003074
v -0.023647 -0.010530 0.003486
v -0.020775 0.000143 0.003074
v -0.022007 -0.010943 0.024425
v -0.017901 -0.010943 0.003074
v -0.024468 0.000143 0.024011
v -0.025700 0.000143 0.003074
v -0.026521 -0.010943 0.024425
v -0.028575 0.000143 0.024425
v -0.026521 -0.006015 0.011287
v -0.017901 -0.010530 0.004717
v -0.027753 -0.007658 0.023603
v -0.025289 -0.004785 0.003074
v -0.025289 -0.010530 0.012518
v -0.026932 -0.001910 0.010466
v -0.020775 0.000143 0.003895
v -0.022007 -0.010530 0.024425
v -0.027342 0.000143 0.012932
f 356 364 367 
f 353 350 354 
f 350 352 354 
f 352 350 356 
f 355 352 356 
f 350 353 357 
f 355 356 358 
f 357 353 358 
f 353 354 360 
f 354 352 360 
f 358 349 361 
f 357 358 361 
f 349 359 361 
f 350 351 362 
f 356 350 362 
f 351 359 362 
f 351 350 363 
f 350 357 363 
f 359 351 363 
f 357 361 363 
f 361 359 363 
f 359 349 364 
f 356 362 364 
f 362 359 364 
f 352 355 365 
f 360 352 365 
f 355 360 365 
f 358 353 366 
f 355 358 366 
f 353 360 366 
f 360 355 366 
f 349 358 367 
f 358 356 367 
f 364 349 367 
o convex_16
v -0.031449 0.000143 0.051933
v -0.026523 -0.010943 0.024425
v -0.026934 -0.010530 0.024425
v -0.031038 -0.010943 0.070001
v -0.022417 -0.010530 0.026892
v -0.029396 0.000143 0.069171
v -0.024880 0.000143 0.024429
v -0.027344 -0.010943 0.069586
v -0.028986 -0.001500 0.026071
v -0.032681 -0.003963 0.069586
v -0.029807 -0.007246 0.041672
v -0.032681 0.000143 0.070001
v -0.028575 0.000143 0.024425
v -0.022417 -0.010943 0.024429
v -0.024880 0.000143 0.026892
v -0.030628 -0.003554 0.044139
v -0.028165 -0.006424 0.024425
v -0.028986 -0.010943 0.044960
v -0.031859 -0.008477 0.069586
v -0.029807 0.000143 0.070001
v -0.027344 -0.010530 0.069586
v -0.030217 -0.005196 0.041672
f 386 377 389 
f 368 373 374 
f 371 369 375 
f 373 368 379 
f 377 371 379 
f 368 377 379 
f 369 370 380 
f 368 374 380 
f 376 368 380 
f 374 372 381 
f 375 369 381 
f 372 375 381 
f 369 380 381 
f 380 374 381 
f 373 372 382 
f 372 374 382 
f 374 373 382 
f 368 376 383 
f 377 368 383 
f 370 378 384 
f 380 370 384 
f 376 380 384 
f 370 369 385 
f 369 371 385 
f 378 370 385 
f 378 385 386 
f 371 377 386 
f 385 371 386 
f 371 375 387 
f 373 379 387 
f 379 371 387 
f 372 373 388 
f 375 372 388 
f 387 375 388 
f 373 387 388 
f 383 376 389 
f 377 383 389 
f 384 378 389 
f 376 384 389 
f 378 386 389 
o convex_17
v -0.015026 -0.021209 0.003896
v -0.006404 -0.028188 0.024423
v -0.005993 -0.028188 0.024423
v -0.015026 -0.019977 0.026887
v -0.006404 -0.019566 0.003074
v -0.015026 -0.014641 0.003074
v -0.005993 -0.024081 0.026887
v -0.014615 -0.025311 0.027710
v -0.005993 -0.024902 0.003074
v -0.011330 -0.024902 0.012107
v -0.014615 -0.014641 0.004306
v -0.005993 -0.028188 0.027710
v -0.014203 -0.020389 0.027710
v -0.005993 -0.019977 0.004718
v -0.009278 -0.024081 0.003074
v -0.010099 -0.027364 0.026477
v -0.015026 -0.024902 0.025655
v -0.007226 -0.026543 0.013340
v -0.014203 -0.021617 0.003074
v -0.006404 -0.024081 0.027710
v -0.014203 -0.024081 0.016212
f 408 399 410 
f 390 393 395 
f 395 394 398 
f 396 392 398 
f 395 393 400 
f 394 395 400 
f 391 392 401 
f 392 396 401 
f 397 401 402 
f 393 397 402 
f 400 393 402 
f 398 394 403 
f 396 398 403 
f 394 400 403 
f 400 396 403 
f 395 398 404 
f 391 401 405 
f 401 397 405 
f 393 390 406 
f 397 393 406 
f 405 397 406 
f 392 391 407 
f 398 392 407 
f 404 398 407 
f 399 404 407 
f 391 405 407 
f 405 399 407 
f 390 395 408 
f 395 404 408 
f 404 399 408 
f 396 400 409 
f 401 396 409 
f 402 401 409 
f 400 402 409 
f 399 405 410 
f 406 390 410 
f 405 406 410 
f 390 408 410 
o convex_18
v -0.015026 -0.025725 0.032234
v -0.006404 -0.032291 0.069173
v -0.005993 -0.032291 0.069173
v -0.014615 -0.025315 0.068767
v -0.005994 -0.024493 0.027714
v -0.015026 -0.020388 0.027714
v -0.006404 -0.028597 0.028128
v -0.015026 -0.029419 0.069583
v -0.005993 -0.028597 0.067943
v -0.010509 -0.027366 0.027714
v -0.014615 -0.020388 0.029357
v -0.010099 -0.029008 0.041677
v -0.015026 -0.025725 0.070001
v -0.015026 -0.024904 0.027714
v -0.005993 -0.029008 0.070001
v -0.008457 -0.031881 0.070001
v -0.005994 -0.024493 0.029767
v -0.005993 -0.028187 0.027714
v -0.012972 -0.027776 0.040853
v -0.012150 -0.030650 0.068767
v -0.007226 -0.029829 0.041677
f 426 422 431 
f 416 411 418 
f 416 415 420 
f 416 414 421 
f 415 416 421 
f 414 419 421 
f 420 417 422 
f 414 416 423 
f 416 418 423 
f 411 416 424 
f 420 411 424 
f 416 420 424 
f 413 419 425 
f 419 414 425 
f 414 423 425 
f 425 423 426 
f 412 413 426 
f 423 418 426 
f 413 425 426 
f 415 421 427 
f 421 419 427 
f 413 417 428 
f 419 413 428 
f 420 415 428 
f 417 420 428 
f 415 427 428 
f 427 419 428 
f 418 411 429 
f 411 420 429 
f 420 422 429 
f 429 422 430 
f 422 426 430 
f 426 418 430 
f 418 429 430 
f 413 412 431 
f 417 413 431 
f 422 417 431 
f 412 426 431 
o convex_19
v -0.004760 -0.019977 0.003074
v -0.001477 -0.029009 0.026063
v 0.001398 -0.029009 0.026063
v -0.000245 -0.025724 0.003074
v 0.002219 -0.020798 0.004309
v -0.005993 -0.024083 0.026063
v -0.005993 -0.025313 0.004309
v 0.002219 -0.024902 0.026475
v -0.005993 -0.028187 0.026475
v 0.002219 -0.025724 0.003488
v -0.005993 -0.019977 0.004309
v 0.002219 -0.028597 0.026475
v -0.004350 -0.026955 0.012111
v 0.002219 -0.020798 0.003074
v -0.000245 -0.027365 0.012931
v -0.005993 -0.024902 0.003074
v 0.002219 -0.024493 0.024833
v -0.005993 -0.028187 0.024011
f 438 444 449 
f 439 437 440 
f 437 438 440 
f 436 439 441 
f 436 432 442 
f 438 437 442 
f 433 434 443 
f 439 440 443 
f 440 433 443 
f 434 441 443 
f 441 439 443 
f 438 435 444 
f 435 432 445 
f 432 436 445 
f 441 435 445 
f 436 441 445 
f 434 433 446 
f 441 434 446 
f 435 441 446 
f 433 444 446 
f 444 435 446 
f 432 435 447 
f 435 438 447 
f 442 432 447 
f 438 442 447 
f 439 436 448 
f 437 439 448 
f 436 442 448 
f 442 437 448 
f 433 440 449 
f 440 438 449 
f 444 433 449 
o convex_20
v -0.005993 -0.024492 0.026482
v -0.001066 -0.032704 0.067125
v 0.000987 -0.032704 0.067125
v 0.002219 -0.029008 0.026482
v 0.002219 -0.029418 0.070001
v -0.005993 -0.032294 0.070001
v -0.005993 -0.028598 0.027300
v 0.002219 -0.024904 0.027713
v -0.005993 -0.029008 0.070001
v 0.002219 -0.032704 0.070001
v -0.001887 -0.030650 0.042492
v -0.005582 -0.024492 0.028944
v -0.005171 -0.030241 0.041674
v -0.002297 -0.029008 0.026482
v 0.002219 -0.024904 0.026482
v -0.003529 -0.032704 0.068765
v 0.002219 -0.030650 0.042905
v -0.005582 -0.028598 0.066712
f 461 458 467 
f 455 450 456 
f 454 453 457 
f 455 454 458 
f 450 455 458 
f 451 452 459 
f 453 454 459 
f 454 455 459 
f 452 451 460 
f 454 457 461 
f 450 458 461 
f 455 456 462 
f 460 462 463 
f 450 453 463 
f 456 450 463 
f 453 460 463 
f 462 456 463 
f 453 450 464 
f 457 453 464 
f 450 461 464 
f 461 457 464 
f 451 459 465 
f 459 455 465 
f 460 451 465 
f 455 462 465 
f 462 460 465 
f 459 452 466 
f 453 459 466 
f 452 460 466 
f 460 453 466 
f 458 454 467 
f 454 461 467 
o convex_21
v 0.006738 -0.029829 0.040442
v 0.016179 -0.026136 0.070001
v 0.016178 -0.024904 0.070001
v 0.002219 -0.032703 0.070001
v 0.002219 -0.026547 0.041263
v 0.016178 -0.021208 0.038802
v 0.016179 -0.028597 0.067124
v 0.002219 -0.029419 0.070001
v 0.016178 -0.025724 0.038802
v 0.002219 -0.030239 0.038802
v 0.008381 -0.031882 0.070001
v 0.015768 -0.021208 0.040442
v 0.011660 -0.028187 0.039211
v 0.002219 -0.026547 0.038802
v 0.013303 -0.030239 0.070001
v 0.015768 -0.024492 0.067533
v 0.003863 -0.032703 0.069176
v 0.010431 -0.031060 0.066302
v 0.014124 -0.027366 0.042085
v 0.009199 -0.029008 0.038802
f 480 485 487 
f 469 470 471 
f 470 469 473 
f 473 469 474 
f 471 470 475 
f 472 471 475 
f 473 474 476 
f 471 472 477 
f 473 476 477 
f 469 471 478 
f 470 473 479 
f 472 475 479 
f 477 472 481 
f 473 477 481 
f 479 473 481 
f 472 479 481 
f 474 469 482 
f 469 478 482 
f 475 470 483 
f 470 479 483 
f 479 475 483 
f 477 468 484 
f 471 477 484 
f 478 471 484 
f 468 478 484 
f 478 468 485 
f 482 478 485 
f 480 482 485 
f 476 474 486 
f 480 476 486 
f 474 482 486 
f 482 480 486 
f 468 477 487 
f 477 476 487 
f 476 480 487 
f 485 468 487 
o convex_22
v 0.021927 -0.015870 0.010057
v 0.027676 -0.008069 0.028120
v 0.023978 -0.008069 0.028120
v 0.024390 -0.008069 0.003487
v 0.013716 -0.015459 0.003487
v 0.019876 -0.015870 0.028120
v 0.019056 -0.008069 0.003487
v 0.025212 -0.015048 0.027705
v 0.020287 -0.015870 0.003487
v 0.026034 -0.010534 0.017031
v 0.023570 -0.008069 0.027705
v 0.019465 -0.015459 0.027705
v 0.023570 -0.011765 0.005541
v 0.024390 -0.015870 0.028120
v 0.013716 -0.015870 0.004309
v 0.013716 -0.015459 0.004309
v 0.027676 -0.008479 0.024421
v 0.023978 -0.014227 0.015394
v 0.025212 -0.008479 0.007183
v 0.026855 -0.011765 0.027705
f 505 497 507 
f 490 489 491 
f 489 490 493 
f 490 491 494 
f 491 492 494 
f 492 491 496 
f 488 493 496 
f 490 494 498 
f 493 490 499 
f 490 498 499 
f 488 496 500 
f 496 491 500 
f 489 493 501 
f 493 488 501 
f 488 495 501 
f 492 496 502 
f 496 493 502 
f 493 499 502 
f 502 499 503 
f 494 492 503 
f 498 494 503 
f 499 498 503 
f 492 502 503 
f 491 489 504 
f 495 488 505 
f 488 500 505 
f 500 497 505 
f 500 491 506 
f 497 500 506 
f 491 504 506 
f 504 497 506 
f 489 501 507 
f 501 495 507 
f 504 489 507 
f 497 504 507 
f 495 505 507 
o convex_23
v 0.026034 -0.015870 0.038802
v 0.031780 -0.008069 0.069997
v 0.028496 -0.008069 0.069997
v 0.023981 -0.008069 0.028120
v 0.024803 -0.015870 0.068763
v 0.019876 -0.015459 0.030178
v 0.028086 -0.008479 0.028120
v 0.028907 -0.015870 0.069997
v 0.024393 -0.015870 0.028120
v 0.030138 -0.011765 0.060962
v 0.019876 -0.015870 0.028120
v 0.028086 -0.008069 0.067943
v 0.026854 -0.012174 0.028948
v 0.029317 -0.008069 0.039622
v 0.023981 -0.008069 0.030588
v 0.025213 -0.015048 0.069997
v 0.031780 -0.008891 0.069173
v 0.028496 -0.011765 0.042496
v 0.029317 -0.015048 0.067943
v 0.029317 -0.009711 0.043316
v 0.024803 -0.015459 0.068763
f 523 519 528 
f 510 509 511 
f 509 510 515 
f 512 508 515 
f 508 512 516 
f 511 514 516 
f 512 513 518 
f 513 511 518 
f 516 512 518 
f 511 516 518 
f 510 511 519 
f 508 516 520 
f 516 514 520 
f 511 509 521 
f 514 511 521 
f 511 513 522 
f 519 511 522 
f 513 519 522 
f 515 510 523 
f 512 515 523 
f 510 519 523 
f 509 515 524 
f 521 509 524 
f 508 520 525 
f 520 514 525 
f 515 508 526 
f 524 515 526 
f 517 524 526 
f 508 525 526 
f 525 517 526 
f 514 521 527 
f 524 517 527 
f 521 524 527 
f 517 525 527 
f 525 514 527 
f 513 512 528 
f 519 513 528 
f 512 523 528 
o convex_24
v 0.026032 -0.005604 0.007594
v 0.029319 0.000143 0.029763
v 0.025621 0.000143 0.029763
v 0.024391 -0.008069 0.029763
v 0.021108 0.000143 0.003487
v 0.019464 -0.008069 0.004719
v 0.028086 -0.008069 0.026884
v 0.025621 0.000143 0.003487
v 0.024391 -0.008069 0.003487
v 0.028086 -0.002321 0.018675
v 0.025212 0.000143 0.028937
v 0.028908 -0.005604 0.029763
v 0.023982 -0.007658 0.029348
v 0.019464 -0.006836 0.003899
v 0.021108 0.000143 0.005131
v 0.027265 0.000143 0.012111
v 0.025621 -0.003554 0.003487
v 0.026854 -0.007246 0.015395
v 0.028086 -0.008069 0.029763
v 0.019464 -0.008069 0.003487
f 534 542 548 
f 530 531 532 
f 531 530 533 
f 532 534 535 
f 533 530 536 
f 535 534 537 
f 533 536 537 
f 531 533 539 
f 530 532 540 
f 538 530 540 
f 532 531 541 
f 534 532 541 
f 531 539 541 
f 541 539 542 
f 534 541 542 
f 539 533 543 
f 542 539 543 
f 533 542 543 
f 536 530 544 
f 530 538 544 
f 544 538 545 
f 529 537 545 
f 537 536 545 
f 538 529 545 
f 536 544 545 
f 537 529 546 
f 535 537 546 
f 529 538 546 
f 540 535 546 
f 538 540 546 
f 532 535 547 
f 540 532 547 
f 535 540 547 
f 533 537 548 
f 537 534 548 
f 542 533 548 
o convex_25
v 0.028907 -0.006426 0.030999
v 0.032603 0.000143 0.070001
v 0.029729 0.000143 0.070001
v 0.028497 -0.008069 0.070001
v 0.025624 0.000143 0.029770
v 0.024391 -0.008069 0.032641
v 0.031781 -0.008069 0.066712
v 0.029729 0.000143 0.032641
v 0.028087 -0.008069 0.029770
v 0.032603 -0.004783 0.069174
v 0.029317 0.000143 0.067941
v 0.029317 -0.002731 0.029770
v 0.024391 -0.008069 0.029770
v 0.025624 0.000143 0.032232
v 0.032603 -0.000678 0.065480
v 0.030550 -0.003554 0.042495
v 0.031781 -0.008069 0.070001
v 0.024391 -0.007658 0.032641
v 0.029729 -0.007246 0.040443
v 0.028497 -0.007246 0.070001
v 0.029317 0.000143 0.029770
f 556 560 569 
f 550 551 552 
f 551 550 553 
f 552 554 555 
f 553 550 556 
f 555 554 557 
f 551 553 559 
f 557 553 560 
f 549 557 560 
f 553 557 561 
f 557 554 561 
f 559 553 562 
f 556 550 563 
f 550 558 563 
f 560 556 564 
f 549 560 564 
f 556 563 564 
f 563 558 564 
f 550 552 565 
f 552 555 565 
f 558 550 565 
f 555 558 565 
f 554 552 566 
f 553 561 566 
f 561 554 566 
f 562 553 566 
f 559 562 566 
f 557 549 567 
f 555 557 567 
f 558 555 567 
f 549 564 567 
f 564 558 567 
f 552 551 568 
f 551 559 568 
f 566 552 568 
f 559 566 568 
f 553 556 569 
f 560 553 569 
o convex_26
v -0.028164 0.002607 0.019907
v -0.017491 0.010408 0.002253
v -0.017491 0.009997 0.002253
v -0.023238 0.010408 0.030994
v -0.025290 0.000143 0.029762
v -0.019954 0.000143 0.001021
v -0.023238 0.010408 0.001432
v -0.027752 0.009997 0.030994
v -0.025290 0.000143 0.001432
v -0.029395 0.000143 0.030994
v -0.026110 0.006301 0.009233
v -0.027342 0.010408 0.027298
v -0.028574 0.006301 0.027705
v -0.017491 0.010408 0.001021
v -0.024879 0.004662 0.001021
v -0.026522 0.000554 0.007593
v -0.025700 0.000143 0.030994
v -0.025700 0.009997 0.013751
v -0.023238 0.009997 0.030994
v -0.029395 0.002197 0.030584
v -0.019954 0.000143 0.001432
v -0.028164 0.000143 0.019082
v -0.026932 0.003430 0.011287
f 585 591 592 
f 572 571 573 
f 573 571 576 
f 575 574 578 
f 573 577 579 
f 578 574 579 
f 573 576 581 
f 577 573 581 
f 577 581 582 
f 571 572 583 
f 572 575 583 
f 576 571 583 
f 576 583 584 
f 575 578 584 
f 580 576 584 
f 583 575 584 
f 584 578 585 
f 573 579 586 
f 579 574 586 
f 576 580 587 
f 581 576 587 
f 580 582 587 
f 582 581 587 
f 572 573 588 
f 574 572 588 
f 573 586 588 
f 586 574 588 
f 579 577 589 
f 577 582 589 
f 582 570 589 
f 572 574 590 
f 575 572 590 
f 574 575 590 
f 578 579 591 
f 585 578 591 
f 579 589 591 
f 589 570 591 
f 582 580 592 
f 570 582 592 
f 580 584 592 
f 584 585 592 
f 591 570 592 
o convex_27
v -0.031449 0.009586 0.070001
v -0.029396 0.000143 0.030994
v -0.029396 0.003018 0.030994
v -0.023648 0.009997 0.034282
v -0.029396 0.000143 0.069589
v -0.025702 0.000143 0.030994
v -0.027755 0.010408 0.031407
v -0.027755 0.010408 0.070001
v -0.032681 0.000143 0.067122
v -0.023648 0.010408 0.030994
v -0.031039 0.006713 0.054805
v -0.032681 0.003839 0.070001
v -0.031039 0.010408 0.066301
v -0.025702 0.000143 0.033465
v -0.029396 0.008354 0.040441
v -0.030627 0.001786 0.042495
v -0.027344 0.009997 0.067122
v -0.032681 0.000143 0.070001
v -0.030217 0.005072 0.041670
v -0.028985 0.005890 0.030994
v -0.032269 0.005480 0.066713
f 611 608 613 
f 597 594 598 
f 594 595 598 
f 594 597 601 
f 598 595 602 
f 596 598 602 
f 600 596 602 
f 599 600 602 
f 600 593 604 
f 593 600 605 
f 600 599 605 
f 596 597 606 
f 597 598 606 
f 598 596 606 
f 603 605 607 
f 605 599 607 
f 595 594 608 
f 594 601 608 
f 601 604 608 
f 597 596 609 
f 600 597 609 
f 596 600 609 
f 597 600 610 
f 601 597 610 
f 600 604 610 
f 604 601 610 
f 603 607 611 
f 595 608 611 
f 602 595 612 
f 599 602 612 
f 607 599 612 
f 595 611 612 
f 611 607 612 
f 604 593 613 
f 605 603 613 
f 593 605 613 
f 608 604 613 
f 603 611 613 
o convex_28
v -0.026111 0.010408 0.019090
v -0.015027 0.018620 0.019096
v -0.015027 0.018208 0.019096
v -0.031039 0.010819 0.070001
v -0.024469 0.018620 0.041669
v -0.017080 0.010408 0.001845
v -0.022829 0.018208 0.068765
v -0.017490 0.018620 0.001845
v -0.027342 0.010408 0.069170
v -0.026932 0.018620 0.070001
v -0.022829 0.011230 0.001433
v -0.015027 0.013283 0.002257
v -0.025290 0.014514 0.026078
v -0.015027 0.018620 0.001021
v -0.029805 0.013694 0.066713
v -0.021185 0.016977 0.010474
v -0.028575 0.011230 0.041669
v -0.023237 0.018620 0.070001
v -0.022829 0.010408 0.001021
v -0.031039 0.010408 0.067941
v -0.028575 0.016567 0.069582
v -0.026522 0.015746 0.042898
v -0.022006 0.018620 0.023202
v -0.023649 0.013694 0.011703
v -0.019953 0.015746 0.001021
v -0.015437 0.012461 0.001021
v -0.025700 0.011230 0.017037
v -0.024058 0.016567 0.026490
v -0.026932 0.018620 0.065882
v -0.027342 0.010819 0.070001
v -0.027342 0.014104 0.042067
f 626 640 644 
f 616 615 620 
f 618 615 621 
f 614 619 622 
f 615 618 623 
f 615 616 625 
f 616 620 625 
f 620 622 625 
f 621 615 627 
f 615 625 627 
f 620 615 631 
f 623 617 631 
f 615 623 631 
f 619 614 632 
f 614 622 633 
f 622 617 633 
f 617 628 633 
f 630 614 633 
f 628 630 633 
f 617 623 634 
f 628 617 634 
f 618 621 636 
f 621 629 636 
f 621 627 638 
f 629 621 638 
f 632 624 638 
f 627 632 638 
f 637 629 638 
f 624 637 638 
f 622 619 639 
f 625 622 639 
f 627 625 639 
f 619 632 639 
f 632 627 639 
f 614 630 640 
f 632 614 640 
f 624 632 640 
f 637 624 640 
f 626 637 640 
f 635 618 641 
f 626 635 641 
f 618 636 641 
f 636 629 641 
f 629 637 641 
f 637 626 641 
f 623 618 642 
f 634 623 642 
f 635 634 642 
f 618 635 642 
f 617 622 643 
f 622 620 643 
f 620 631 643 
f 631 617 643 
f 630 628 644 
f 628 634 644 
f 634 635 644 
f 635 626 644 
f 640 630 644 
o convex_29
v -0.020776 0.018620 0.017861
v -0.015027 0.028885 0.070001
v -0.015848 0.028885 0.070001
v -0.022826 0.018620 0.070001
v -0.015027 0.018620 0.021142
v -0.026933 0.019032 0.068765
v -0.015437 0.023548 0.017861
v -0.015027 0.025188 0.070001
v -0.020776 0.022727 0.042067
v -0.015027 0.019853 0.001021
v -0.020365 0.026010 0.069170
v -0.015437 0.026421 0.040021
v -0.017080 0.018620 0.001851
v -0.021185 0.019853 0.024836
v -0.026933 0.018620 0.070001
v -0.024468 0.021906 0.066713
v -0.024058 0.019032 0.040838
v -0.016668 0.020675 0.006774
v -0.018312 0.022727 0.026078
v -0.015027 0.024777 0.026490
v -0.015027 0.018620 0.001021
v -0.018722 0.024367 0.041257
v -0.022415 0.018620 0.068353
v -0.019544 0.019032 0.011298
v -0.017901 0.027241 0.063836
v -0.022826 0.020674 0.042067
v -0.025700 0.020674 0.070001
f 655 660 671 
f 646 647 648 
f 648 645 649 
f 646 648 652 
f 649 646 652 
f 646 649 654 
f 647 646 656 
f 649 645 657 
f 648 647 659 
f 645 648 659 
f 655 653 660 
f 658 645 661 
f 645 659 661 
f 659 650 661 
f 650 660 661 
f 651 654 662 
f 654 657 662 
f 656 651 663 
f 658 653 663 
f 651 662 663 
f 646 654 664 
f 654 651 664 
f 656 646 664 
f 651 656 664 
f 654 649 665 
f 649 657 665 
f 657 654 665 
f 653 655 666 
f 663 653 666 
f 656 663 666 
f 648 649 667 
f 652 648 667 
f 649 652 667 
f 657 645 668 
f 645 658 668 
f 662 657 668 
f 658 663 668 
f 663 662 668 
f 655 647 669 
f 647 656 669 
f 666 655 669 
f 656 666 669 
f 653 658 670 
f 660 653 670 
f 658 661 670 
f 661 660 670 
f 647 655 671 
f 659 647 671 
f 650 659 671 
f 660 650 671 
o convex_30
v -0.009689 0.026421 0.017853
v -0.015025 0.013693 0.001021
v -0.015025 0.020264 0.001021
v -0.007225 0.018621 0.001021
v -0.015025 0.019442 0.024010
v -0.007225 0.023547 0.024423
v -0.007225 0.024367 0.001846
v -0.015025 0.024367 0.024423
v -0.007225 0.027653 0.024423
v -0.012972 0.023134 0.006773
v -0.014614 0.013693 0.001846
v -0.014204 0.025189 0.024010
v -0.010510 0.023134 0.001021
v -0.015025 0.022726 0.011288
v -0.014614 0.019442 0.024010
v -0.008047 0.026011 0.011288
v -0.011330 0.024778 0.011288
v -0.008047 0.027653 0.023600
v -0.007636 0.023134 0.024010
f 686 682 690 
f 673 674 675 
f 674 673 676 
f 677 675 678 
f 674 676 679 
f 676 677 679 
f 679 677 680 
f 677 678 680 
f 673 675 682 
f 676 673 682 
f 679 680 683 
f 675 674 684 
f 678 675 684 
f 674 681 684 
f 674 679 685 
f 681 674 685 
f 679 683 685 
f 677 676 686 
f 676 682 686 
f 680 678 687 
f 678 684 687 
f 687 684 688 
f 683 672 688 
f 684 681 688 
f 681 685 688 
f 685 683 688 
f 672 687 688 
f 683 680 689 
f 672 683 689 
f 687 672 689 
f 680 687 689 
f 675 677 690 
f 682 675 690 
f 677 686 690 
o convex_31
v -0.006813 0.024778 0.002666
v 0.002219 0.028474 0.024423
v -0.004350 0.028474 0.024423
v -0.006813 0.019031 0.002256
v 0.002219 0.025188 0.001021
v 0.002219 0.024368 0.023600
v -0.007224 0.023547 0.024423
v 0.002219 0.020263 0.001021
v -0.007224 0.027653 0.021958
v -0.007224 0.023958 0.001021
v -0.001888 0.026832 0.009645
v -0.007224 0.019031 0.001021
v 0.001808 0.028062 0.018263
v 0.002219 0.020263 0.002666
v -0.002298 0.025188 0.001021
v -0.004760 0.026832 0.011698
v -0.007224 0.027653 0.024423
v 0.002219 0.024778 0.024423
v -0.001066 0.028474 0.021548
f 706 693 709 
f 695 692 696 
f 694 696 697 
f 692 693 697 
f 695 696 698 
f 697 699 700 
f 695 698 700 
f 699 691 700 
f 694 697 702 
f 698 694 702 
f 697 700 702 
f 700 698 702 
f 692 695 703 
f 695 701 703 
f 696 694 704 
f 694 698 704 
f 698 696 704 
f 700 691 705 
f 695 700 705 
f 701 695 705 
f 701 705 706 
f 691 699 706 
f 699 693 706 
f 705 691 706 
f 697 693 707 
f 693 699 707 
f 699 697 707 
f 696 692 708 
f 697 696 708 
f 692 697 708 
f 693 692 709 
f 692 703 709 
f 703 701 709 
f 701 706 709 
o convex_32
v -0.010099 0.030937 0.063840
v -0.015026 0.019852 0.024425
v -0.015026 0.024369 0.024425
v -0.006403 0.028062 0.024425
v -0.006403 0.028474 0.067534
v -0.015026 0.025601 0.070001
v -0.006814 0.023547 0.024840
v -0.015026 0.029294 0.070001
v -0.006403 0.032170 0.070001
v -0.012151 0.026832 0.028944
v -0.014615 0.019852 0.026481
v -0.007225 0.029705 0.040445
v -0.015026 0.026832 0.041672
v -0.014204 0.025601 0.069586
v -0.006403 0.023960 0.024425
v -0.006403 0.028885 0.070001
v -0.011740 0.028474 0.042493
v -0.012562 0.030526 0.069586
v -0.009689 0.027241 0.024425
v -0.006814 0.032170 0.068355
v -0.014615 0.025190 0.025661
f 719 728 730 
f 711 712 713 
f 712 711 715 
f 712 715 717 
f 717 715 718 
f 714 713 718 
f 715 711 720 
f 711 716 720 
f 716 714 720 
f 712 717 722 
f 715 720 723 
f 720 714 723 
f 711 713 724 
f 713 714 724 
f 716 711 724 
f 714 716 724 
f 718 715 725 
f 714 718 725 
f 715 723 725 
f 723 714 725 
f 710 721 726 
f 719 722 726 
f 726 722 727 
f 717 718 727 
f 722 717 727 
f 710 726 727 
f 713 712 728 
f 721 713 728 
f 726 721 728 
f 719 726 728 
f 718 713 729 
f 721 710 729 
f 713 721 729 
f 727 718 729 
f 710 727 729 
f 712 722 730 
f 722 719 730 
f 728 712 730 
o convex_33
v 0.000987 0.032580 0.065482
v -0.006403 0.023958 0.024425
v -0.006403 0.028065 0.024425
v 0.002219 0.024780 0.024425
v -0.006403 0.028883 0.070001
v 0.002219 0.029295 0.068761
v 0.002219 0.028883 0.025661
v -0.006403 0.032169 0.070001
v -0.003528 0.030526 0.042493
v 0.002219 0.032580 0.070001
v -0.005992 0.023958 0.026071
v 0.002219 0.024780 0.026481
v -0.000656 0.028883 0.024840
v -0.004761 0.032580 0.069171
v 0.002219 0.030526 0.041262
v -0.006403 0.030116 0.042903
v -0.004349 0.028883 0.027302
v 0.002219 0.029706 0.070001
v 0.002219 0.028473 0.024425
v -0.001066 0.030526 0.040856
v -0.001888 0.032580 0.065892
f 731 750 751 
f 732 733 734 
f 733 732 735 
f 736 734 737 
f 733 735 738 
f 736 737 740 
f 738 735 740 
f 732 734 741 
f 735 732 741 
f 736 735 741 
f 736 741 742 
f 734 736 742 
f 741 734 742 
f 740 731 744 
f 738 740 744 
f 731 740 745 
f 740 737 745 
f 737 743 745 
f 733 738 746 
f 738 744 746 
f 744 739 746 
f 743 733 747 
f 739 743 747 
f 733 746 747 
f 746 739 747 
f 735 736 748 
f 740 735 748 
f 736 740 748 
f 734 733 749 
f 737 734 749 
f 733 743 749 
f 743 737 749 
f 743 739 750 
f 731 745 750 
f 745 743 750 
f 744 731 751 
f 739 744 751 
f 750 739 751 
o convex_34
v 0.026033 0.001376 0.004720
v 0.029319 0.005069 0.032637
v 0.029319 0.000143 0.032637
v 0.019054 0.007944 0.003898
v 0.020697 0.000143 0.003488
v 0.024391 0.007944 0.032637
v 0.024391 0.008355 0.003077
v 0.025622 0.000143 0.032223
v 0.028497 0.008355 0.032637
v 0.025622 0.000143 0.002666
v 0.019054 0.008355 0.002666
v 0.027675 0.004658 0.017449
v 0.028908 0.000143 0.024833
v 0.026033 0.007123 0.009648
v 0.024391 0.008355 0.032637
v 0.025211 0.005069 0.002666
v 0.020697 0.000143 0.002666
v 0.028086 0.007944 0.026473
v 0.026855 0.003429 0.010467
f 767 765 770 
f 754 753 757 
f 755 756 759 
f 756 754 759 
f 754 757 759 
f 757 755 759 
f 757 753 760 
f 754 756 761 
f 760 758 762 
f 753 754 764 
f 761 752 764 
f 754 761 764 
f 763 753 764 
f 755 757 766 
f 757 760 766 
f 762 755 766 
f 760 762 766 
f 752 761 767 
f 762 758 767 
f 761 762 767 
f 758 765 767 
f 756 755 768 
f 761 756 768 
f 762 761 768 
f 755 762 768 
f 760 753 769 
f 758 760 769 
f 753 763 769 
f 765 758 769 
f 763 765 769 
f 764 752 770 
f 763 764 770 
f 765 763 770 
f 752 767 770 
o convex_35
v 0.021517 0.014514 0.003488
v 0.028087 0.009587 0.032637
v 0.027265 0.012050 0.032637
v 0.014126 0.014925 0.003488
v 0.018644 0.008355 0.002666
v 0.020697 0.015335 0.032637
v 0.023979 0.008355 0.031402
v 0.024390 0.008355 0.003488
v 0.024390 0.015335 0.022780
v 0.020697 0.015335 0.002666
v 0.028087 0.008355 0.032637
v 0.025210 0.010408 0.011288
v 0.025210 0.015335 0.032637
v 0.014126 0.015335 0.002666
v 0.026854 0.008766 0.018672
v 0.020697 0.014925 0.032637
v 0.023569 0.010408 0.002666
v 0.024802 0.012461 0.014574
v 0.024390 0.008355 0.032637
f 781 786 789 
f 772 773 776 
f 774 775 777 
f 777 775 778 
f 779 771 780 
f 776 779 780 
f 772 776 781 
f 777 778 781 
f 776 773 783 
f 773 779 783 
f 779 776 783 
f 775 774 784 
f 774 776 784 
f 780 775 784 
f 776 780 784 
f 773 772 785 
f 772 781 785 
f 781 778 785 
f 778 782 785 
f 776 774 786 
f 774 777 786 
f 781 776 786 
f 778 775 787 
f 775 780 787 
f 780 771 787 
f 782 778 787 
f 782 787 788 
f 771 779 788 
f 779 773 788 
f 773 785 788 
f 785 782 788 
f 787 771 788 
f 777 781 789 
f 786 777 789 
o convex_36
v 0.028498 0.007944 0.032640
v 0.032603 0.004659 0.070001
v 0.032603 0.000144 0.070001
v 0.028498 0.007533 0.070001
v 0.026035 0.000144 0.032640
v 0.029729 0.000144 0.032640
v 0.024803 0.007944 0.035515
v 0.029318 0.000144 0.067942
v 0.031781 0.007944 0.066300
v 0.030139 0.005070 0.040445
v 0.032603 0.000966 0.065481
v 0.024803 0.007944 0.032640
v 0.026035 0.000144 0.035515
v 0.028498 0.007944 0.070001
v 0.029729 0.000144 0.070001
v 0.031781 0.007944 0.070001
v 0.024803 0.007533 0.035515
v 0.028907 0.007944 0.034286
v 0.030549 0.002197 0.041264
v 0.032603 0.003839 0.067532
v 0.029318 0.005070 0.032640
f 808 795 810 
f 792 791 793 
f 792 794 795 
f 794 790 795 
f 794 792 797 
f 790 796 798 
f 791 792 800 
f 792 795 800 
f 790 794 801 
f 796 790 801 
f 794 797 802 
f 793 791 803 
f 796 793 803 
f 798 796 803 
f 792 793 804 
f 797 792 804 
f 793 797 804 
f 791 798 805 
f 803 791 805 
f 798 803 805 
f 793 796 806 
f 797 793 806 
f 801 794 806 
f 796 801 806 
f 794 802 806 
f 802 797 806 
f 790 798 807 
f 798 799 807 
f 800 795 808 
f 800 808 809 
f 798 791 809 
f 799 798 809 
f 791 800 809 
f 808 799 809 
f 795 790 810 
f 790 807 810 
f 807 799 810 
f 799 808 810 
o convex_37
v 0.025624 0.015335 0.032640
v 0.031782 0.008766 0.070001
v 0.030961 0.011230 0.070001
v 0.021107 0.014924 0.035515
v 0.028496 0.007945 0.032640
v 0.028085 0.007945 0.067532
v 0.025214 0.015335 0.069584
v 0.024393 0.007945 0.032640
v 0.028906 0.015335 0.070001
v 0.028085 0.012460 0.041264
v 0.021107 0.015335 0.032640
v 0.031782 0.007945 0.070001
v 0.029317 0.014924 0.067532
v 0.028496 0.007945 0.070001
v 0.030139 0.008355 0.048245
v 0.025214 0.014924 0.069584
v 0.030550 0.011640 0.065068
v 0.028085 0.009998 0.032640
v 0.024393 0.007945 0.033463
v 0.026854 0.015335 0.043315
f 823 820 830 
f 811 815 818 
f 815 816 818 
f 812 813 819 
f 811 817 819 
f 814 817 821 
f 817 811 821 
f 811 818 821 
f 818 814 821 
f 816 815 822 
f 812 819 822 
f 819 813 823 
f 819 817 824 
f 816 822 824 
f 822 819 824 
f 812 822 825 
f 822 815 825 
f 814 816 826 
f 817 814 826 
f 816 824 826 
f 824 817 826 
f 813 812 827 
f 823 813 827 
f 820 823 827 
f 812 825 827 
f 825 820 827 
f 815 811 828 
f 811 820 828 
f 820 825 828 
f 825 815 828 
f 816 814 829 
f 814 818 829 
f 818 816 829 
f 811 819 830 
f 820 811 830 
f 819 823 830 
o convex_38
v 0.003041 0.027241 0.012928
v 0.011252 0.016979 0.002663
v 0.012074 0.016979 0.002663
v 0.012074 0.022316 0.027710
v 0.002219 0.024778 0.026886
v 0.011663 0.026830 0.026886
v 0.012074 0.022726 0.002663
v 0.002219 0.020674 0.002663
v 0.002219 0.028884 0.027710
v 0.002219 0.025599 0.003075
v 0.007146 0.025599 0.007182
v 0.006326 0.028472 0.026476
v 0.011663 0.021906 0.027298
v 0.012074 0.026420 0.027710
v 0.002630 0.020264 0.003075
v 0.010020 0.025599 0.012928
v 0.011663 0.016979 0.003896
v 0.005094 0.025189 0.002663
v 0.002219 0.025189 0.027710
v 0.007555 0.026830 0.015802
v 0.012074 0.023957 0.008412
f 841 846 851 
f 833 832 837 
f 834 833 837 
f 837 832 838 
f 838 835 839 
f 838 839 840 
f 839 831 840 
f 831 839 842 
f 833 834 843 
f 834 837 844 
f 839 834 844 
f 836 842 844 
f 842 839 844 
f 835 838 845 
f 838 832 845 
f 832 833 847 
f 833 843 847 
f 843 835 847 
f 845 832 847 
f 835 845 847 
f 837 838 848 
f 838 840 848 
f 840 831 848 
f 841 837 848 
f 831 841 848 
f 834 839 849 
f 839 835 849 
f 843 834 849 
f 835 843 849 
f 841 831 850 
f 842 836 850 
f 831 842 850 
f 836 846 850 
f 846 841 850 
f 837 841 851 
f 844 837 851 
f 836 844 851 
f 846 836 851 
o convex_39
v 0.005094 0.032168 0.064657
v 0.011252 0.022315 0.027714
v 0.012074 0.022315 0.027714
v 0.004684 0.028884 0.027714
v 0.002219 0.029295 0.069173
v 0.012074 0.030527 0.070001
v 0.002219 0.025190 0.027714
v 0.012074 0.026834 0.068767
v 0.012074 0.026834 0.028538
v 0.002219 0.032580 0.070001
v 0.002219 0.029295 0.029767
v 0.009610 0.029295 0.042902
v 0.008787 0.031758 0.068767
v 0.011663 0.022315 0.029767
v 0.002219 0.025190 0.029767
v 0.011252 0.027243 0.070001
v 0.003862 0.030525 0.042902
v 0.012074 0.030117 0.062198
v 0.008378 0.028062 0.027714
v 0.006737 0.029706 0.039214
v 0.011663 0.026834 0.068767
v 0.002219 0.032580 0.066714
v 0.002219 0.029706 0.070001
f 867 861 874 
f 854 853 855 
f 855 853 858 
f 854 857 859 
f 857 854 860 
f 858 856 861 
f 858 861 862 
f 855 858 862 
f 861 857 864 
f 853 854 865 
f 854 859 865 
f 858 853 866 
f 856 858 866 
f 853 865 866 
f 865 856 866 
f 859 857 867 
f 857 861 867 
f 855 862 868 
f 857 860 869 
f 860 863 869 
f 864 857 869 
f 863 864 869 
f 854 855 870 
f 860 854 870 
f 863 860 870 
f 863 870 871 
f 852 864 871 
f 864 863 871 
f 868 852 871 
f 855 868 871 
f 870 855 871 
f 856 865 872 
f 865 859 872 
f 867 856 872 
f 859 867 872 
f 862 861 873 
f 864 852 873 
f 861 864 873 
f 852 868 873 
f 868 862 873 
f 861 856 874 
f 856 867 874 
o convex_40
v 0.012485 0.024368 0.012109
v 0.024802 0.015748 0.029352
v 0.024391 0.016569 0.029352
v 0.012074 0.022315 0.029352
v 0.013718 0.015336 0.002666
v 0.020284 0.015748 0.002666
v 0.016591 0.024368 0.028937
v 0.019873 0.015336 0.029352
v 0.012074 0.022315 0.002666
v 0.018235 0.020263 0.010879
v 0.012074 0.026420 0.029352
v 0.012074 0.016569 0.003489
v 0.022336 0.015336 0.011699
v 0.021928 0.019442 0.026883
v 0.015359 0.020673 0.002666
v 0.021928 0.016569 0.012522
v 0.017002 0.022315 0.016620
v 0.012074 0.021904 0.028526
v 0.012485 0.026420 0.026473
v 0.024802 0.015336 0.027706
v 0.019462 0.021904 0.026883
v 0.018641 0.018210 0.003899
v 0.015359 0.023546 0.017030
v 0.020284 0.015336 0.002666
v 0.013718 0.022315 0.004719
f 897 891 899 
f 876 877 878 
f 876 878 882 
f 880 879 883 
f 878 877 885 
f 877 881 885 
f 875 883 885 
f 883 878 885 
f 879 882 886 
f 878 883 886 
f 883 879 886 
f 882 879 887 
f 880 883 889 
f 887 880 890 
f 884 888 890 
f 888 877 890 
f 882 878 892 
f 878 886 892 
f 886 882 892 
f 885 881 893 
f 875 885 893 
f 877 876 894 
f 876 882 894 
f 882 887 894 
f 890 877 894 
f 887 890 894 
f 881 877 895 
f 888 884 895 
f 877 888 895 
f 891 881 895 
f 884 891 895 
f 880 889 896 
f 889 884 896 
f 890 880 896 
f 884 890 896 
f 881 891 897 
f 875 893 897 
f 893 881 897 
f 879 880 898 
f 887 879 898 
f 880 887 898 
f 883 875 899 
f 889 883 899 
f 884 889 899 
f 891 884 899 
f 875 897 899 
