o convex_0
v 0.016399 0.020256 0.037564
v 0.025573 -0.025619 0.015953
v 0.026226 -0.025619 0.015953
v 0.008533 0.018285 -0.014192
v 0.007880 -0.018403 0.038872
v 0.026226 0.021567 -0.006330
v 0.007880 -0.019714 -0.013538
v 0.026226 0.002558 0.050023
v 0.007880 0.011079 0.046080
v 0.026226 -0.015786 -0.010921
v 0.007880 0.024845 0.012677
v 0.026226 0.024845 0.027079
v 0.026226 -0.017753 0.040840
v 0.007880 -0.024963 -0.001745
v 0.009189 -0.006609 0.048702
v 0.026226 0.002558 -0.013544
v 0.007880 0.024845 -0.002399
v 0.026226 -0.022341 -0.004368
v 0.019672 -0.024308 0.027079
v 0.026226 0.013701 0.044771
v 0.007880 0.020907 0.032979
v 0.026226 0.025500 0.014639
v 0.007880 -0.024963 0.012016
v 0.007880 -0.016437 -0.014852
v 0.023604 -0.009231 0.048048
v 0.007880 0.002558 0.049356
v 0.026226 0.015668 -0.010921
v 0.026226 -0.023652 0.031010
v 0.007880 0.016318 -0.014852
v 0.011156 -0.013815 0.044771
v 0.007880 0.022218 -0.010915
v 0.013778 0.006491 0.049356
v 0.026226 0.021567 0.035595
v 0.008533 -0.021025 0.032979
v 0.026226 -0.002676 0.050023
v 0.009845 0.016318 0.042149
v 0.015744 -0.001365 -0.014852
v 0.026226 0.022878 -0.003053
v 0.008533 -0.023647 -0.007638
v 0.025573 -0.003332 -0.013538
v 0.013123 -0.003987 0.050023
v 0.025573 -0.025619 0.023142
v 0.018362 -0.020375 0.037564
v 0.024917 0.025500 0.023802
v 0.026226 -0.021030 -0.006984
v 0.015744 0.015012 0.044117
v 0.018362 0.023534 0.029702
v 0.024261 0.009113 0.048048
v 0.026226 -0.022997 -0.002399
v 0.007880 -0.009887 0.046740
v 0.026226 -0.014475 0.044124
v 0.026226 0.018290 -0.009613
v 0.014432 0.004524 0.050023
v 0.013778 -0.010542 0.047394
v 0.025573 0.018945 0.039526
v 0.015090 -0.021686 0.034287
v 0.016399 0.011735 0.046740
v 0.007880 0.018285 0.038872
v 0.011812 -0.017753 0.040840
v 0.008533 -0.021681 -0.011575
v 0.014432 0.023534 0.027079
v 0.008533 0.024184 -0.005676
v 0.023604 0.022878 0.032979
v 0.015090 -0.023652 0.027079
f 56 34 64 
f 3 6 8 
f 7 5 9 
f 6 3 10 
f 7 9 11 
f 8 6 12 
f 3 8 13 
f 3 2 14 
f 5 7 14 
f 6 10 16 
f 7 11 17 
f 10 3 18 
f 8 12 20 
f 11 9 21 
f 12 6 22 
f 14 2 23 
f 5 14 23 
f 10 7 24 
f 7 17 24 
f 9 5 26 
f 6 16 27 
f 3 13 28 
f 24 17 29 
f 4 27 29 
f 27 16 29 
f 4 29 31 
f 29 17 31 
f 9 26 32 
f 20 12 33 
f 5 23 34 
f 13 8 35 
f 29 16 37 
f 24 29 37 
f 22 6 38 
f 17 22 38 
f 6 31 38 
f 14 7 39 
f 16 10 40 
f 10 24 40 
f 37 16 40 
f 24 37 40 
f 26 15 41 
f 35 8 41 
f 25 35 41 
f 2 3 42 
f 23 2 42 
f 19 23 42 
f 3 28 42 
f 28 19 42 
f 28 13 43 
f 17 11 44 
f 12 22 44 
f 22 17 44 
f 7 10 45 
f 10 18 45 
f 1 36 46 
f 36 9 46 
f 21 1 47 
f 12 44 47 
f 8 20 48 
f 3 14 49 
f 18 3 49 
f 14 39 49 
f 39 18 49 
f 26 5 50 
f 15 26 50 
f 5 30 50 
f 13 35 51 
f 35 25 51 
f 27 4 52 
f 6 27 52 
f 4 31 52 
f 31 6 52 
f 32 26 53 
f 26 41 53 
f 41 8 53 
f 8 48 53 
f 48 32 53 
f 41 15 54 
f 25 41 54 
f 15 50 54 
f 50 30 54 
f 30 51 54 
f 51 25 54 
f 33 1 55 
f 20 33 55 
f 46 20 55 
f 1 46 55 
f 19 28 56 
f 5 34 56 
f 28 43 56 
f 43 5 56 
f 9 32 57 
f 46 9 57 
f 20 46 57 
f 48 20 57 
f 32 48 57 
f 1 21 58 
f 21 9 58 
f 36 1 58 
f 9 36 58 
f 30 5 59 
f 43 13 59 
f 5 43 59 
f 13 51 59 
f 51 30 59 
f 39 7 60 
f 18 39 60 
f 7 45 60 
f 45 18 60 
f 11 21 61 
f 44 11 61 
f 21 47 61 
f 47 44 61 
f 31 17 62 
f 17 38 62 
f 38 31 62 
f 1 33 63 
f 33 12 63 
f 47 1 63 
f 12 47 63 
f 23 19 64 
f 34 23 64 
f 19 56 64 
o convex_1
v -0.050446 0.009763 0.013327
v -0.018339 -0.024308 0.041499
v -0.017682 -0.024308 0.041499
v -0.017682 0.022219 0.047399
v -0.017682 0.003867 -0.003057
v -0.043895 -0.009886 -0.003717
v -0.044549 -0.008576 0.038219
v -0.042584 0.010423 -0.003057
v -0.017682 -0.019057 0.010052
v -0.017682 0.020254 0.012677
v -0.042584 0.016974 0.031015
v -0.045206 -0.016437 0.017256
v -0.031445 0.001901 0.048703
v -0.018339 -0.022338 0.047399
v -0.039308 0.018939 0.016601
v -0.043895 0.009112 0.038874
v -0.051761 -0.004640 0.018571
v -0.048482 -0.003985 -0.003717
v -0.043895 -0.015782 0.031670
v -0.017682 -0.007261 -0.001742
v -0.035372 -0.019713 0.016607
v -0.018339 0.024189 0.045434
v -0.017682 -0.003335 0.050678
v -0.049793 0.006487 0.028390
v -0.037343 -0.009231 0.044774
v -0.036686 0.013698 0.042803
v -0.047171 0.007142 -0.003717
v -0.049793 -0.011196 0.013982
v -0.046517 0.015013 0.013327
v -0.017682 0.009112 -0.000432
v -0.049139 -0.008576 0.029045
v -0.051104 0.001246 0.004807
v -0.037997 0.005182 0.045434
v -0.039308 -0.015132 0.039534
v -0.039962 -0.018407 0.031015
v -0.027516 -0.006610 0.049363
v -0.018339 -0.020372 0.012677
v -0.047824 0.013043 0.026425
v -0.045206 -0.002680 0.038874
v -0.024894 0.005832 0.050013
v -0.038651 -0.009886 -0.003717
v -0.038651 0.009763 -0.003717
v -0.018339 0.019599 0.010707
v -0.033410 0.020249 0.018571
v -0.041273 0.015013 0.037564
v -0.031445 0.009763 0.047399
v -0.045860 -0.012506 0.004153
v -0.018339 -0.024308 0.045434
v -0.039962 -0.019057 0.021191
v -0.051761 0.005182 0.016601
v -0.039962 0.018939 0.025770
v -0.050446 -0.006610 0.005462
v -0.040619 0.016319 0.009397
v -0.040619 -0.017092 0.011362
v -0.048482 -0.013161 0.022496
v -0.017682 0.024189 0.041499
v -0.050446 -0.002680 0.027735
v -0.039308 -0.003335 0.044774
v -0.017682 -0.003985 -0.003057
v -0.047824 0.004522 0.034289
v -0.045860 0.011733 0.002182
v -0.029481 -0.002680 -0.003717
v -0.017682 -0.013166 0.003498
v -0.049139 0.006487 0.000223
f 65 125 128 
f 68 67 69 
f 69 67 73 
f 68 69 74 
f 69 73 84 
f 67 68 87 
f 78 67 87 
f 68 86 90 
f 70 82 91 
f 74 69 94 
f 83 71 95 
f 90 80 97 
f 71 83 98 
f 78 89 98 
f 89 71 98 
f 83 76 99 
f 98 83 99 
f 78 87 100 
f 89 78 100 
f 67 66 101 
f 73 67 101 
f 70 73 101 
f 66 85 101 
f 88 80 102 
f 93 65 102 
f 75 93 102 
f 95 71 103 
f 97 80 103 
f 87 68 104 
f 77 100 104 
f 100 87 104 
f 73 70 105 
f 70 91 105 
f 105 91 106 
f 91 72 106 
f 94 69 106 
f 94 106 107 
f 74 94 107 
f 106 72 107 
f 74 107 108 
f 79 86 108 
f 107 79 108 
f 86 75 109 
f 80 90 109 
f 90 86 109 
f 75 102 109 
f 102 80 109 
f 68 90 110 
f 97 77 110 
f 90 97 110 
f 104 68 110 
f 77 104 110 
f 82 70 111 
f 76 92 111 
f 66 67 112 
f 67 78 112 
f 78 98 112 
f 98 99 112 
f 112 99 113 
f 85 66 113 
f 99 76 113 
f 66 112 113 
f 65 96 114 
f 96 81 114 
f 102 65 114 
f 88 102 114 
f 86 79 115 
f 75 86 115 
f 93 75 115 
f 79 93 115 
f 92 81 116 
f 81 96 116 
f 96 82 116 
f 82 111 116 
f 111 92 116 
f 93 79 117 
f 107 72 117 
f 79 107 117 
f 70 101 118 
f 101 85 118 
f 111 70 118 
f 76 111 118 
f 85 113 118 
f 113 76 118 
f 76 83 119 
f 92 76 119 
f 81 92 119 
f 83 95 119 
f 95 81 119 
f 68 74 120 
f 86 68 120 
f 74 108 120 
f 108 86 120 
f 81 95 121 
f 95 103 121 
f 114 81 121 
f 88 114 121 
f 71 89 122 
f 77 97 122 
f 100 77 122 
f 89 100 122 
f 103 71 122 
f 97 103 122 
f 69 84 123 
f 84 105 123 
f 80 88 124 
f 103 80 124 
f 88 121 124 
f 121 103 124 
f 72 91 125 
f 65 93 125 
f 117 72 125 
f 93 117 125 
f 105 106 126 
f 106 69 126 
f 69 123 126 
f 123 105 126 
f 84 73 127 
f 73 105 127 
f 105 84 127 
f 91 82 128 
f 96 65 128 
f 82 96 128 
f 125 91 128 
o convex_2
v 0.030163 -0.019061 0.038875
v 0.061618 -0.005958 0.018552
v 0.061618 -0.006615 0.018552
v 0.028196 -0.020372 -0.035175
v 0.026228 -0.005960 -0.012232
v 0.047197 -0.024959 -0.033853
v 0.047852 -0.007924 -0.034510
v 0.026228 -0.005960 0.048712
v 0.039995 -0.028893 -0.001738
v 0.053754 -0.017752 0.028381
v 0.026228 -0.025615 0.023807
v 0.034095 -0.028238 -0.034518
v 0.051132 -0.006615 0.040189
v 0.030818 -0.009236 -0.035175
v 0.051132 -0.018408 -0.034518
v 0.039995 -0.024304 0.026419
v 0.061618 -0.005958 0.008723
v 0.056373 -0.016443 0.018552
v 0.040650 -0.014478 0.040838
v 0.026228 -0.023648 -0.003717
v 0.051132 -0.021030 0.022493
v 0.057683 -0.005958 0.033628
v 0.051132 -0.011203 -0.034518
v 0.045233 -0.007269 -0.034510
v 0.032128 -0.028893 -0.006337
v 0.041304 -0.028238 -0.034510
v 0.026228 -0.015134 0.043465
v 0.044574 -0.026926 -0.003052
v 0.047852 -0.019061 0.032314
v 0.036059 -0.007924 0.046742
v 0.049819 -0.021684 -0.033853
v 0.030818 -0.026271 -0.031242
v 0.048506 -0.005960 -0.008948
v 0.028196 -0.013167 -0.035175
v 0.061618 -0.007271 0.011342
v 0.058996 -0.011203 0.025770
v 0.036059 -0.007269 -0.034510
v 0.026228 -0.023648 0.031017
v 0.053096 -0.011858 0.035599
v 0.034750 -0.025615 0.024456
v 0.038027 -0.021028 0.034285
v 0.029509 -0.027584 -0.005023
v 0.053096 -0.019719 0.023150
v 0.047197 -0.022339 0.025762
v 0.034095 -0.028893 0.000873
v 0.044574 -0.005960 0.044122
v 0.042614 -0.011856 -0.035175
v 0.046542 -0.011856 0.040181
v 0.029509 -0.023648 -0.035175
v 0.051787 -0.015134 -0.033861
v 0.026228 -0.016445 -0.011575
v 0.033437 -0.023648 0.031017
v 0.043268 -0.027584 -0.034510
v 0.056373 -0.013167 0.030352
v 0.028851 -0.010547 0.046742
v 0.057683 -0.014478 0.017246
v 0.059650 -0.007271 0.029046
v 0.050477 -0.009891 -0.034518
v 0.034095 -0.025615 -0.035175
v 0.034750 -0.015790 0.041503
v 0.041304 -0.024959 0.021837
v 0.056373 -0.015787 0.025770
v 0.033437 -0.007924 -0.035175
v 0.037372 -0.028893 -0.012232
f 140 154 192 
f 136 133 139 
f 130 131 145 
f 139 133 148 
f 133 136 150 
f 130 145 150 
f 145 133 150 
f 145 135 152 
f 136 139 155 
f 149 137 156 
f 134 143 159 
f 146 134 159 
f 133 145 161 
f 152 133 161 
f 145 152 161 
f 132 133 162 
f 142 132 162 
f 133 142 162 
f 145 131 163 
f 143 145 163 
f 159 143 163 
f 163 131 164 
f 133 152 165 
f 129 155 166 
f 155 139 166 
f 150 141 167 
f 157 138 167 
f 166 139 168 
f 144 157 169 
f 157 147 169 
f 139 148 170 
f 153 139 170 
f 140 153 170 
f 160 140 170 
f 148 160 170 
f 134 146 171 
f 156 134 171 
f 149 156 171 
f 137 149 172 
f 138 157 172 
f 157 144 172 
f 171 138 172 
f 149 171 172 
f 153 137 173 
f 139 153 173 
f 137 168 173 
f 168 139 173 
f 150 136 174 
f 141 150 174 
f 136 158 174 
f 132 142 175 
f 151 143 175 
f 147 157 176 
f 158 147 176 
f 167 141 176 
f 157 167 176 
f 141 174 176 
f 174 158 176 
f 148 132 177 
f 140 160 177 
f 160 148 177 
f 132 175 177 
f 145 143 178 
f 143 151 178 
f 151 145 178 
f 133 132 179 
f 132 148 179 
f 148 133 179 
f 129 166 180 
f 168 144 180 
f 166 168 180 
f 169 129 180 
f 144 169 180 
f 143 134 181 
f 137 154 181 
f 134 156 181 
f 156 137 181 
f 167 138 182 
f 150 167 182 
f 136 155 183 
f 158 136 183 
f 146 159 184 
f 159 163 184 
f 163 164 184 
f 131 130 185 
f 130 150 185 
f 164 131 185 
f 182 164 185 
f 150 182 185 
f 135 145 186 
f 145 151 186 
f 175 135 186 
f 151 175 186 
f 154 140 187 
f 175 143 187 
f 140 177 187 
f 177 175 187 
f 143 181 187 
f 181 154 187 
f 155 129 188 
f 147 158 188 
f 129 169 188 
f 169 147 188 
f 183 155 188 
f 158 183 188 
f 168 137 189 
f 144 168 189 
f 137 172 189 
f 172 144 189 
f 171 146 190 
f 138 171 190 
f 182 138 190 
f 164 182 190 
f 146 184 190 
f 184 164 190 
f 142 133 191 
f 152 135 191 
f 133 165 191 
f 165 152 191 
f 175 142 191 
f 135 175 191 
f 137 153 192 
f 153 140 192 
f 154 137 192 
o convex_3
v -0.022927 0.002562 -0.020104
v -0.034063 -0.001370 -0.032553
v -0.036031 -0.003991 -0.029931
v -0.036031 0.004528 -0.027309
v -0.034063 -0.002680 -0.020104
v -0.025548 -0.005302 -0.022724
v -0.028170 0.001907 -0.031241
v -0.029480 0.005839 -0.020104
v -0.025548 -0.002680 -0.027965
v -0.030787 -0.005302 -0.020104
v -0.025548 0.004528 -0.025346
v -0.037996 0.001250 -0.026653
v -0.034063 0.003873 -0.031241
v -0.030787 -0.003336 -0.031897
v -0.034063 0.002562 -0.020104
v -0.022927 -0.002680 -0.020104
v -0.023582 0.000596 -0.026001
v -0.037341 -0.003336 -0.027309
v -0.037341 0.001250 -0.029931
v -0.031443 0.004528 -0.029931
v -0.035375 -0.004647 -0.029275
v -0.030787 0.002562 -0.032553
v -0.026858 0.005839 -0.020758
v -0.022927 -0.002025 -0.024036
v -0.029480 -0.000713 -0.032553
f 194 214 217 
f 197 193 200 
f 193 197 202 
f 195 194 206 
f 201 198 206 
f 200 196 207 
f 197 200 207 
f 196 204 207 
f 204 197 207 
f 193 202 208 
f 202 198 208 
f 199 203 209 
f 203 193 209 
f 202 197 210 
f 197 204 210 
f 210 204 211 
f 194 195 211 
f 204 196 211 
f 205 194 211 
f 196 205 211 
f 195 210 211 
f 196 200 212 
f 205 196 212 
f 198 202 213 
f 195 206 213 
f 206 198 213 
f 202 210 213 
f 210 195 213 
f 203 199 214 
f 194 205 214 
f 212 203 214 
f 205 212 214 
f 200 193 215 
f 193 203 215 
f 212 200 215 
f 203 212 215 
f 198 201 216 
f 208 198 216 
f 193 208 216 
f 201 209 216 
f 209 193 216 
f 206 194 217 
f 201 206 217 
f 199 209 217 
f 209 201 217 
f 214 199 217 
o convex_4
v -0.038652 -0.009233 -0.005029
v -0.039960 0.009769 -0.003717
v -0.039960 0.009769 -0.004373
v -0.022274 0.000596 -0.020101
v -0.034724 -0.002023 -0.020101
v -0.030136 -0.002680 -0.003717
v -0.048484 -0.002680 -0.003717
v -0.032758 0.004526 -0.020101
v -0.025548 -0.005300 -0.020101
v -0.045859 0.005837 -0.007650
v -0.024894 0.004526 -0.015513
v -0.045859 -0.008576 -0.004373
v -0.031447 0.005183 -0.003717
v -0.026859 0.005837 -0.020101
v -0.045205 -0.003989 -0.009617
v -0.024240 -0.002023 -0.012889
v -0.034724 -0.007921 -0.003717
v -0.031447 -0.005300 -0.020101
v -0.044548 0.009113 -0.004373
v -0.043237 0.001251 -0.012235
v -0.024894 0.001905 -0.011584
v -0.023583 -0.003334 -0.016167
v -0.037341 0.009113 -0.003717
v -0.047825 0.005183 -0.003717
v -0.030136 0.005837 -0.020101
v -0.046513 0.001905 -0.008306
v -0.028825 -0.005955 -0.020101
v -0.044548 -0.009233 -0.003717
v -0.034724 0.001905 -0.020101
v -0.043894 -0.005955 -0.009617
v -0.029482 0.001905 -0.004373
v -0.037341 -0.009233 -0.003717
v -0.025548 -0.005300 -0.016823
v -0.045205 0.007803 -0.006339
v -0.043237 0.005183 -0.010929
v -0.026205 -0.003989 -0.011584
v -0.022929 0.001905 -0.016167
v -0.023583 0.003871 -0.020101
f 228 254 255 
f 223 219 224 
f 221 222 225 
f 222 221 226 
f 219 223 230 
f 221 225 231 
f 229 224 232 
f 223 224 234 
f 222 226 235 
f 219 220 236 
f 222 232 237 
f 228 230 238 
f 226 221 239 
f 220 219 240 
f 219 230 240 
f 230 228 240 
f 231 220 240 
f 228 231 240 
f 224 219 241 
f 219 236 241 
f 220 231 242 
f 231 225 242 
f 236 220 242 
f 232 224 243 
f 237 232 243 
f 224 241 243 
f 241 227 243 
f 235 226 244 
f 235 244 245 
f 224 229 245 
f 234 224 245 
f 229 235 245 
f 244 218 245 
f 225 222 246 
f 222 237 246 
f 232 222 247 
f 229 232 247 
f 222 235 247 
f 235 229 247 
f 230 223 248 
f 223 233 248 
f 238 230 248 
f 233 238 248 
f 218 244 249 
f 244 226 249 
f 234 245 249 
f 245 218 249 
f 226 239 250 
f 249 226 250 
f 234 249 250 
f 227 241 251 
f 241 236 251 
f 242 225 251 
f 236 242 251 
f 243 227 252 
f 237 243 252 
f 225 246 252 
f 246 237 252 
f 251 225 252 
f 227 251 252 
f 233 223 253 
f 223 234 253 
f 239 233 253 
f 250 239 253 
f 234 250 253 
f 228 238 254 
f 238 233 254 
f 239 221 254 
f 233 239 254 
f 221 231 255 
f 231 228 255 
f 254 221 255 
o convex_5
v 0.006567 -0.025619 0.006113
v 0.007878 0.004524 0.048712
v 0.007878 0.006496 0.048054
v 0.001980 0.005830 0.046085
v 0.007878 0.025500 0.006113
v 0.001980 0.025500 0.006113
v 0.001980 -0.025619 0.007427
v 0.007878 -0.017753 0.039530
v 0.001980 -0.013820 0.042153
v 0.007222 0.019601 0.036257
v 0.007878 -0.024963 0.006113
v 0.001980 0.016979 0.038876
v 0.007221 -0.004643 0.048712
v 0.001980 -0.018408 0.036257
v 0.007878 -0.021686 0.029043
v 0.007878 0.014357 0.043467
v 0.001980 -0.025619 0.006113
v 0.001980 -0.003332 0.046740
v 0.007878 0.021562 0.029702
v 0.001980 0.018940 0.034944
v 0.007878 -0.010542 0.046085
v 0.001980 0.025500 0.008082
v 0.001980 0.011730 0.043467
v 0.003947 0.000586 0.048054
v 0.007221 -0.020375 0.034293
v 0.007878 -0.024963 0.012014
v 0.007878 0.024840 0.012668
v 0.001980 -0.019719 0.032321
v 0.002635 -0.009887 0.044776
f 276 268 284 
f 257 258 259 
f 258 257 260 
f 260 256 261 
f 259 261 262 
f 260 257 263 
f 259 262 264 
f 256 260 266 
f 260 263 266 
f 261 259 267 
f 264 262 269 
f 263 264 269 
f 266 263 270 
f 258 260 271 
f 265 267 271 
f 261 256 272 
f 256 262 272 
f 262 261 272 
f 259 264 273 
f 271 260 274 
f 265 271 274 
f 261 267 275 
f 267 265 275 
f 265 274 275 
f 263 257 276 
f 264 263 276 
f 257 268 276 
f 260 261 277 
f 261 275 277 
f 275 274 277 
f 259 258 278 
f 267 259 278 
f 258 271 278 
f 271 267 278 
f 257 259 279 
f 268 257 279 
f 259 273 279 
f 273 268 279 
f 263 269 280 
f 262 270 280 
f 270 263 280 
f 262 256 281 
f 256 266 281 
f 270 262 281 
f 266 270 281 
f 274 260 282 
f 260 277 282 
f 277 274 282 
f 269 262 283 
f 262 280 283 
f 280 269 283 
f 273 264 284 
f 268 273 284 
f 264 276 284 
o convex_6
v 0.043264 0.007150 -0.021413
v 0.038681 0.028777 -0.025997
v 0.038681 0.028777 -0.034517
v 0.027539 0.014360 -0.014206
v 0.029509 0.010427 -0.035173
v 0.051130 0.011083 -0.034517
v 0.048507 0.022221 -0.013552
v 0.030817 0.026154 -0.013552
v 0.048507 0.009773 -0.013552
v 0.028852 0.022221 -0.035173
v 0.048507 0.023533 -0.034517
v 0.032127 0.008462 -0.013552
v 0.036718 0.007150 -0.034517
v 0.042609 0.027462 -0.013552
v 0.051130 0.016981 -0.018793
v 0.031474 0.026810 -0.034517
v 0.047199 0.007806 -0.034517
v 0.034095 0.028121 -0.013552
v 0.028196 0.020910 -0.013552
v 0.051130 0.018287 -0.034517
v 0.028196 0.013706 -0.035173
v 0.050475 0.013050 -0.013552
v 0.044577 0.026810 -0.034517
v 0.042609 0.009117 -0.035173
v 0.049818 0.009117 -0.022725
v 0.028196 0.011739 -0.013552
v 0.034750 0.007806 -0.013552
v 0.028196 0.020910 -0.034517
v 0.047199 0.024844 -0.023379
v 0.049818 0.021567 -0.023379
v 0.032127 0.008462 -0.035173
v 0.051788 0.013050 -0.032550
v 0.045889 0.008462 -0.013552
v 0.036063 0.028777 -0.034517
v 0.035407 0.024844 -0.035173
v 0.051130 0.011083 -0.022069
v 0.029509 0.024187 -0.034517
v 0.045232 0.007150 -0.027310
v 0.041956 0.028121 -0.034517
v 0.040646 0.028121 -0.013552
v 0.030817 0.009117 -0.013552
v 0.047199 0.007806 -0.021413
v 0.050475 0.017640 -0.013552
v 0.046544 0.024844 -0.013552
v 0.036718 0.007150 -0.024035
v 0.027539 0.017640 -0.013552
v 0.028852 0.022875 -0.013552
v 0.044577 0.007150 -0.034517
v 0.042609 0.007806 -0.013552
v 0.050475 0.009773 -0.034517
f 290 320 334 
f 291 292 293 
f 293 292 296 
f 292 291 298 
f 292 298 302 
f 300 292 302 
f 296 292 303 
f 294 289 305 
f 291 293 306 
f 289 294 308 
f 304 290 308 
f 296 303 310 
f 288 305 310 
f 305 289 310 
f 293 296 311 
f 305 288 312 
f 294 305 312 
f 295 307 313 
f 307 298 313 
f 304 295 314 
f 299 304 314 
f 295 313 314 
f 297 296 315 
f 289 308 315 
f 290 304 316 
f 304 299 316 
f 293 311 317 
f 286 287 318 
f 294 300 318 
f 302 286 318 
f 300 302 318 
f 295 304 319 
f 307 295 319 
f 308 294 319 
f 304 308 319 
f 318 287 319 
f 294 318 319 
f 306 293 320 
f 299 306 320 
f 293 309 320 
f 290 316 320 
f 316 299 320 
f 292 300 321 
f 300 294 321 
f 294 312 321 
f 285 297 322 
f 287 286 323 
f 298 307 323 
f 319 287 323 
f 307 319 323 
f 286 302 324 
f 302 298 324 
f 323 286 324 
f 298 323 324 
f 310 289 325 
f 296 310 325 
f 289 315 325 
f 315 296 325 
f 309 293 326 
f 301 309 326 
f 293 317 326 
f 285 322 326 
f 322 301 326 
f 291 306 327 
f 306 299 327 
f 314 291 327 
f 299 314 327 
f 298 291 328 
f 313 298 328 
f 291 314 328 
f 314 313 328 
f 297 285 329 
f 296 297 329 
f 285 311 329 
f 311 296 329 
f 288 310 330 
f 310 303 330 
f 312 288 330 
f 303 312 330 
f 303 292 331 
f 312 303 331 
f 292 321 331 
f 321 312 331 
f 308 301 332 
f 297 315 332 
f 315 308 332 
f 322 297 332 
f 301 322 332 
f 311 285 333 
f 317 311 333 
f 285 326 333 
f 326 317 333 
f 308 290 334 
f 301 308 334 
f 309 301 334 
f 320 309 334 
o convex_7
v 0.026232 0.011737 0.046090
v 0.064236 0.001255 0.012015
v 0.064236 -0.001368 0.012015
v 0.026232 -0.000709 -0.013548
v 0.038027 0.028774 -0.012888
v 0.026232 -0.005958 0.048704
v 0.053096 0.017633 0.029700
v 0.049163 -0.005958 -0.008296
v 0.026232 0.025494 0.024454
v 0.053096 -0.005954 0.038878
v 0.049818 0.019601 -0.013548
v 0.026232 0.021565 -0.008302
v 0.026232 -0.005958 -0.012888
v 0.044579 0.004532 0.044771
v 0.038682 0.024188 0.027733
v 0.058993 0.004532 0.032326
v 0.061616 -0.005299 0.006116
v 0.052441 0.020252 0.021841
v 0.040650 0.028774 -0.003056
v 0.031471 0.026810 -0.013548
v 0.037372 0.017633 0.038878
v 0.058993 0.012389 0.020528
v 0.049818 0.011737 -0.013548
v 0.060307 -0.005954 0.027733
v 0.064236 0.001255 0.006776
v 0.047198 0.024188 -0.013548
v 0.026232 0.021565 0.035599
v 0.034749 -0.001364 0.048704
v 0.031471 0.028774 -0.004363
v 0.051786 0.008460 0.038878
v 0.037372 0.008467 0.046084
v 0.043269 -0.005958 -0.010922
v 0.026232 0.001913 0.050023
v 0.046544 0.022878 0.024460
v 0.037372 0.029432 -0.002403
v 0.042614 -0.005296 0.045431
v 0.057029 0.015011 0.013981
v 0.046544 0.016979 0.035599
v 0.051786 -0.005954 -0.006336
v 0.027542 0.025494 -0.005016
v 0.051786 0.002568 0.040845
v 0.027542 0.019601 -0.013548
v 0.063581 0.003223 0.006776
v 0.058993 0.009115 0.029046
v 0.044579 0.026810 -0.008296
v 0.063581 -0.002022 0.006116
v 0.062271 -0.005954 0.009395
v 0.059648 -0.002022 0.031666
v 0.034094 0.025494 0.025114
v 0.043269 0.021565 0.031013
v 0.044579 0.010431 0.042151
v 0.056374 0.016321 0.023147
v 0.050473 0.013702 -0.013548
v 0.060962 0.002568 0.027733
v 0.041305 0.024842 0.022494
v 0.055064 0.011737 0.033633
v 0.034749 0.022878 0.032326
v 0.033439 0.003877 0.048704
v 0.057029 0.003877 0.035599
v 0.028196 0.015669 0.042811
v 0.046544 -0.002677 0.044118
v 0.036717 0.013702 0.042805
v 0.041305 0.028116 -0.013548
v 0.030165 -0.005958 0.048704
f 370 362 398 
f 335 338 340 
f 338 335 343 
f 338 343 346 
f 340 338 347 
f 342 340 347 
f 345 338 354 
f 338 345 357 
f 347 338 357 
f 336 337 359 
f 345 354 360 
f 343 335 361 
f 339 354 363 
f 342 347 366 
f 347 357 366 
f 357 342 366 
f 335 340 367 
f 341 352 368 
f 352 353 368 
f 363 343 369 
f 339 363 369 
f 342 357 373 
f 346 343 374 
f 354 346 374 
f 343 363 374 
f 363 354 374 
f 364 348 375 
f 338 346 376 
f 354 338 376 
f 346 354 376 
f 356 336 377 
f 336 359 377 
f 359 345 377 
f 345 360 377 
f 371 356 377 
f 360 371 377 
f 336 356 378 
f 353 352 379 
f 352 360 379 
f 359 337 380 
f 351 373 380 
f 337 358 381 
f 358 342 381 
f 342 373 381 
f 373 351 381 
f 380 337 381 
f 351 380 381 
f 344 358 382 
f 343 361 383 
f 369 343 383 
f 341 368 384 
f 368 349 384 
f 372 341 384 
f 355 372 384 
f 348 364 385 
f 365 348 385 
f 364 372 385 
f 352 341 386 
f 360 352 386 
f 356 371 386 
f 371 360 386 
f 378 356 386 
f 341 378 386 
f 357 345 387 
f 345 359 387 
f 373 357 387 
f 359 380 387 
f 380 373 387 
f 337 336 388 
f 358 337 388 
f 336 378 388 
f 378 350 388 
f 350 382 388 
f 382 358 388 
f 349 368 389 
f 368 353 389 
f 353 369 389 
f 383 349 389 
f 369 383 389 
f 341 372 390 
f 372 364 390 
f 350 378 390 
f 378 341 390 
f 361 355 391 
f 383 361 391 
f 349 383 391 
f 384 349 391 
f 355 384 391 
f 362 348 392 
f 365 335 392 
f 348 365 392 
f 335 367 392 
f 367 362 392 
f 375 344 393 
f 364 375 393 
f 382 350 393 
f 344 382 393 
f 350 390 393 
f 390 364 393 
f 361 335 394 
f 355 361 394 
f 348 362 395 
f 370 344 395 
f 362 370 395 
f 344 375 395 
f 375 348 395 
f 335 365 396 
f 372 355 396 
f 365 385 396 
f 385 372 396 
f 394 335 396 
f 355 394 396 
f 354 339 397 
f 360 354 397 
f 369 353 397 
f 339 369 397 
f 353 379 397 
f 379 360 397 
f 340 342 398 
f 342 358 398 
f 358 344 398 
f 367 340 398 
f 362 367 398 
f 344 370 398 
o convex_8
v -0.002609 -0.027581 -0.023381
v -0.001299 -0.005958 -0.032550
v -0.000644 -0.006616 -0.024035
v -0.017024 -0.015135 -0.024035
v -0.012437 -0.026927 -0.034517
v 0.005908 -0.021028 -0.034517
v 0.007220 -0.012513 -0.015516
v -0.011782 -0.026271 -0.015516
v -0.012437 -0.009238 -0.015516
v -0.013092 -0.007270 -0.034517
v 0.005908 -0.022339 -0.015516
v 0.003943 -0.008581 -0.034517
v 0.000666 -0.026927 -0.034517
v -0.017024 -0.019717 -0.034517
v -0.005884 -0.007270 -0.015516
v -0.015056 -0.021684 -0.015516
v -0.004574 -0.007927 -0.035175
v -0.005884 -0.027581 -0.015516
v 0.004598 -0.009238 -0.015516
v -0.015711 -0.023649 -0.023381
v -0.016366 -0.011203 -0.034517
v -0.015711 -0.011203 -0.020103
v -0.011127 -0.006616 -0.025345
v -0.008504 -0.028238 -0.027964
v 0.005908 -0.012513 -0.034517
v 0.000011 -0.026271 -0.015516
v -0.013747 -0.015791 -0.035175
v 0.007220 -0.019717 -0.016172
v -0.015711 -0.015135 -0.016172
v -0.009159 -0.005958 -0.034517
v -0.014402 -0.008581 -0.023381
v -0.007194 -0.005958 -0.026654
v 0.004598 -0.023649 -0.034517
v -0.012437 -0.026927 -0.021414
v -0.015056 -0.024960 -0.031240
v -0.000644 -0.012513 -0.035175
v 0.003943 -0.024306 -0.015516
v -0.001299 -0.027581 -0.034517
v -0.001299 -0.007270 -0.015516
v -0.016366 -0.021028 -0.021414
v 0.000666 -0.006616 -0.034517
v -0.011127 -0.007270 -0.020103
v -0.012437 -0.009238 -0.035175
v -0.016366 -0.022339 -0.034517
v 0.001978 -0.026271 -0.030585
v -0.017024 -0.013824 -0.034517
v -0.010469 -0.027581 -0.034517
f 425 436 445 
f 406 405 407 
f 405 406 409 
f 407 405 413 
f 406 407 414 
f 409 406 416 
f 405 410 417 
f 413 405 417 
f 406 414 418 
f 419 402 420 
f 399 416 422 
f 410 405 423 
f 399 411 424 
f 416 399 424 
f 409 416 424 
f 405 409 426 
f 404 423 426 
f 423 405 426 
f 414 407 427 
f 407 420 427 
f 420 402 427 
f 408 421 428 
f 408 419 429 
f 420 407 429 
f 419 420 429 
f 421 408 429 
f 401 400 430 
f 400 428 430 
f 428 421 430 
f 404 426 431 
f 426 409 431 
f 416 406 432 
f 406 418 432 
f 403 422 432 
f 422 416 432 
f 403 432 433 
f 432 418 433 
f 415 410 434 
f 423 404 434 
f 410 423 434 
f 425 415 434 
f 431 411 434 
f 404 431 434 
f 409 424 435 
f 431 409 435 
f 411 399 436 
f 399 422 436 
f 434 411 436 
f 425 434 436 
f 417 401 437 
f 413 417 437 
f 401 430 437 
f 430 413 437 
f 402 412 438 
f 418 414 438 
f 414 427 438 
f 427 402 438 
f 400 401 439 
f 410 415 439 
f 401 417 439 
f 417 410 439 
f 428 400 439 
f 415 428 439 
f 407 413 440 
f 429 407 440 
f 421 429 440 
f 413 430 440 
f 430 421 440 
f 419 408 441 
f 415 425 441 
f 408 428 441 
f 428 415 441 
f 425 403 442 
f 412 425 442 
f 403 433 442 
f 433 418 442 
f 438 412 442 
f 418 438 442 
f 424 411 443 
f 411 431 443 
f 435 424 443 
f 431 435 443 
f 412 402 444 
f 402 419 444 
f 425 412 444 
f 419 441 444 
f 441 425 444 
f 422 403 445 
f 403 425 445 
f 436 422 445 
o convex_9
v -0.005880 -0.027582 -0.015514
v 0.007878 -0.004649 0.006113
v 0.007878 -0.024960 0.006113
v -0.017682 -0.004649 0.006113
v 0.007878 -0.004649 -0.014201
v -0.013749 -0.010547 -0.015514
v -0.017682 -0.015136 0.006113
v 0.006567 -0.021685 -0.015514
v -0.011780 -0.026271 -0.013547
v -0.001299 -0.025616 0.006113
v -0.017682 -0.004649 -0.002408
v -0.015060 -0.021029 -0.015514
v 0.007878 -0.024305 -0.006993
v -0.005880 -0.007271 -0.015514
v -0.008502 -0.026271 -0.005024
v -0.007847 -0.004649 -0.010924
v 0.001323 -0.026927 -0.001751
v 0.007878 -0.012514 -0.015514
v 0.000667 -0.026271 -0.015514
v -0.004577 -0.024305 0.006113
v -0.013749 -0.024305 -0.015514
v 0.007222 -0.025616 -0.000441
v -0.015060 -0.013825 -0.015514
v -0.005880 -0.026927 -0.003718
v -0.011127 -0.008582 -0.015514
v 0.007878 -0.019718 -0.014858
v 0.007222 -0.025616 0.006113
v 0.000667 -0.026927 -0.010270
v -0.017682 -0.008582 -0.001097
v -0.006536 -0.027582 -0.010924
v -0.010471 -0.026271 -0.008960
v 0.002634 -0.007927 -0.015514
f 463 459 477 
f 448 447 449 
f 447 448 450 
f 449 447 450 
f 448 449 452 
f 446 451 453 
f 448 452 455 
f 449 450 456 
f 452 449 456 
f 451 446 457 
f 450 448 458 
f 453 451 459 
f 456 450 461 
f 450 459 461 
f 450 458 463 
f 453 459 463 
f 446 453 464 
f 453 458 464 
f 455 452 465 
f 452 460 465 
f 446 454 466 
f 454 452 466 
f 457 446 466 
f 452 457 466 
f 458 448 467 
f 464 458 467 
f 456 451 468 
f 451 457 468 
f 457 456 468 
f 462 455 469 
f 455 465 469 
f 465 460 469 
f 451 456 470 
f 459 451 470 
f 456 461 470 
f 461 459 470 
f 458 453 471 
f 463 458 471 
f 453 463 471 
f 448 455 472 
f 455 462 472 
f 467 448 472 
f 462 467 472 
f 462 446 473 
f 446 464 473 
f 467 462 473 
f 464 467 473 
f 452 456 474 
f 457 452 474 
f 456 457 474 
f 454 446 475 
f 446 462 475 
f 462 469 475 
f 475 469 476 
f 452 454 476 
f 460 452 476 
f 469 460 476 
f 454 475 476 
f 459 450 477 
f 450 463 477 
o convex_10
v -0.003923 0.006496 -0.021415
v -0.004574 0.028122 -0.025342
v -0.004574 0.028122 -0.033206
v -0.017026 0.013706 -0.034517
v 0.005255 0.010430 -0.034517
v 0.007878 0.018289 -0.014858
v -0.015059 0.020911 -0.014858
v -0.011127 0.008461 -0.014858
v 0.003943 0.024843 -0.034517
v -0.014403 0.025498 -0.034517
v -0.008506 0.005839 -0.034517
v -0.004574 0.027465 -0.014858
v 0.005255 0.009117 -0.014858
v -0.015715 0.010430 -0.022071
v -0.011127 0.026809 -0.014858
v 0.000667 0.006496 -0.034517
v 0.003290 0.024843 -0.014858
v -0.016370 0.022222 -0.024692
v -0.008506 0.016980 -0.035171
v 0.005911 0.020911 -0.034517
v -0.013747 0.007807 -0.034517
v 0.007878 0.013052 -0.015517
v -0.011127 0.027465 -0.034517
v -0.016370 0.014361 -0.019448
v 0.001323 0.026809 -0.034517
v -0.011780 0.007150 -0.022071
v 0.001978 0.007807 -0.014858
v -0.014403 0.011739 -0.014858
v -0.017026 0.019600 -0.034517
v -0.001954 0.009117 -0.035171
v -0.013747 0.026154 -0.022725
v -0.009160 0.028122 -0.024692
v 0.006566 0.021567 -0.014858
v -0.013747 0.011083 -0.035171
v -0.017026 0.018289 -0.024035
v 0.005911 0.012393 -0.034517
v -0.002609 0.005839 -0.030585
v -0.001298 0.026809 -0.014858
v -0.007851 0.006496 -0.021415
v -0.014403 0.023530 -0.015517
v -0.016370 0.011083 -0.034517
v 0.007222 0.011083 -0.014858
v -0.014403 0.008461 -0.024035
v -0.009160 0.007807 -0.014858
v 0.005255 0.023530 -0.014858
v -0.017026 0.014361 -0.025342
v -0.011780 0.027465 -0.024035
v 0.001978 0.007150 -0.034517
f 519 490 525 
f 483 484 485 
f 484 483 489 
f 483 485 490 
f 484 489 492 
f 489 483 494 
f 497 483 499 
f 496 487 500 
f 480 479 502 
f 486 496 502 
f 500 480 502 
f 496 500 502 
f 498 488 503 
f 490 485 504 
f 493 490 504 
f 485 484 505 
f 491 485 505 
f 484 501 505 
f 501 491 505 
f 495 487 506 
f 493 488 507 
f 496 486 507 
f 486 497 507 
f 487 495 508 
f 479 480 509 
f 489 479 509 
f 492 489 509 
f 480 500 509 
f 494 483 510 
f 483 497 510 
f 497 486 510 
f 487 496 511 
f 488 498 511 
f 506 487 511 
f 481 506 511 
f 507 488 511 
f 496 507 511 
f 484 495 512 
f 501 484 512 
f 495 506 512 
f 506 481 512 
f 499 482 513 
f 497 499 513 
f 482 507 513 
f 507 497 513 
f 488 493 514 
f 504 478 514 
f 493 504 514 
f 479 489 515 
f 489 494 515 
f 502 479 515 
f 494 502 515 
f 503 488 516 
f 478 504 516 
f 514 478 516 
f 488 514 516 
f 484 492 517 
f 495 484 517 
f 492 508 517 
f 508 495 517 
f 511 498 518 
f 481 511 518 
f 483 490 519 
f 482 499 519 
f 499 483 519 
f 485 491 520 
f 503 485 520 
f 498 503 520 
f 491 518 520 
f 518 498 520 
f 485 503 521 
f 504 485 521 
f 503 516 521 
f 516 504 521 
f 486 502 522 
f 502 494 522 
f 510 486 522 
f 494 510 522 
f 491 501 523 
f 501 512 523 
f 512 481 523 
f 481 518 523 
f 518 491 523 
f 500 487 524 
f 508 492 524 
f 487 508 524 
f 509 500 524 
f 492 509 524 
f 490 493 525 
f 493 507 525 
f 507 482 525 
f 482 519 525 
o convex_11
v 0.003945 0.024845 -0.014202
v -0.017682 -0.004647 -0.003063
v -0.017682 -0.004647 0.006113
v 0.007878 -0.004647 0.006113
v -0.001955 0.025499 0.006113
v 0.007878 -0.004647 -0.014202
v -0.014404 0.022877 -0.014858
v 0.007878 0.025499 0.006113
v -0.017682 0.015012 0.006113
v -0.013749 0.011083 -0.014858
v 0.007878 0.019601 -0.014858
v -0.008502 0.027466 -0.012892
v -0.006536 -0.004647 -0.011580
v -0.009813 0.026152 -0.006994
v -0.003924 0.027466 -0.014858
v 0.006567 -0.002679 -0.014858
v -0.015060 0.020252 -0.014858
v 0.007878 0.024845 -0.004373
v -0.017682 0.006497 -0.002408
v 0.001323 0.026809 0.000213
v -0.000644 -0.004647 -0.013547
v -0.012438 0.025499 -0.012235
v -0.011127 -0.004647 -0.008957
v -0.005227 0.024188 0.005456
v 0.001323 0.026809 -0.009611
v -0.015060 0.014355 -0.014858
v -0.005227 0.026809 -0.002408
v -0.010471 0.026809 -0.014858
v 0.006567 0.022220 -0.014858
v -0.003266 0.027466 -0.006994
f 552 545 555 
f 528 527 529 
f 528 529 530 
f 529 527 531 
f 530 529 533 
f 529 531 533 
f 527 528 534 
f 528 530 534 
f 535 532 536 
f 533 531 536 
f 531 527 538 
f 536 532 540 
f 535 536 541 
f 536 531 541 
f 534 532 542 
f 532 535 542 
f 533 536 543 
f 527 534 544 
f 542 527 544 
f 534 542 544 
f 530 533 545 
f 531 538 546 
f 538 535 546 
f 535 541 546 
f 541 531 546 
f 532 534 547 
f 534 539 547 
f 527 535 548 
f 538 527 548 
f 535 538 548 
f 534 530 549 
f 539 534 549 
f 526 540 550 
f 543 526 550 
f 533 543 550 
f 545 533 550 
f 535 527 551 
f 527 542 551 
f 542 535 551 
f 537 539 552 
f 530 545 552 
f 549 530 552 
f 539 549 552 
f 539 537 553 
f 540 532 553 
f 537 540 553 
f 532 547 553 
f 547 539 553 
f 540 526 554 
f 536 540 554 
f 526 543 554 
f 543 536 554 
f 540 537 555 
f 550 540 555 
f 545 550 555 
f 537 552 555 
o convex_12
v -0.003919 -0.032828 0.025120
v -0.017024 0.002557 0.050678
v -0.017681 0.002557 0.050678
v 0.001323 0.015014 0.006113
v -0.017681 -0.015786 0.006113
v 0.001980 0.004529 0.046089
v -0.017681 0.015014 0.006113
v 0.001980 -0.025616 0.006113
v -0.013747 -0.026271 0.048052
v -0.017681 0.015014 0.047398
v 0.000013 -0.028238 0.046739
v 0.001980 0.015014 0.040846
v -0.017681 -0.024960 0.042150
v -0.009817 -0.028894 0.014637
v 0.001980 -0.026927 0.041496
v -0.005886 -0.024960 0.050020
v -0.000643 -0.032172 0.038874
v 0.001980 0.015014 0.006118
v -0.017681 -0.020371 0.012016
v -0.011128 0.015014 0.047398
v -0.006540 -0.030861 0.044776
v -0.017681 -0.021682 0.048052
v -0.007851 -0.031512 0.020535
v -0.011782 -0.024305 0.050020
v -0.013093 0.004524 0.050020
v -0.011782 -0.028894 0.045431
v -0.002610 -0.024960 0.006113
v -0.005229 -0.032828 0.031013
v -0.003265 -0.022993 0.049365
v -0.002610 -0.030205 0.046739
v 0.000013 -0.031512 0.032981
v 0.000667 -0.025616 0.046739
v -0.009817 -0.029550 0.016600
v -0.008507 -0.028238 0.048711
v -0.005229 -0.031512 0.019226
v -0.001954 -0.032828 0.029046
v -0.017681 -0.002688 0.050678
v 0.001323 -0.029550 0.038224
v -0.007196 0.015014 0.046089
v -0.017024 0.010425 0.049365
v -0.017024 -0.025616 0.044772
v -0.003919 -0.032828 0.036911
v 0.001980 -0.024960 0.043468
v -0.000643 -0.025616 0.048052
v 0.001980 0.011081 0.043468
v -0.000643 -0.031512 0.042809
v -0.017681 -0.021026 0.014637
v -0.010472 -0.027583 0.013324
v -0.002610 -0.027583 0.048711
f 599 584 604 
f 559 560 562 
f 560 558 562 
f 560 559 563 
f 559 562 565 
f 562 558 565 
f 561 563 567 
f 559 565 567 
f 558 560 568 
f 563 561 570 
f 563 559 573 
f 559 567 573 
f 567 563 573 
f 568 560 574 
f 567 565 575 
f 558 568 577 
f 577 564 579 
f 557 571 580 
f 561 575 580 
f 560 563 582 
f 563 569 582 
f 578 556 583 
f 581 578 583 
f 580 571 584 
f 561 580 584 
f 574 569 588 
f 569 578 588 
f 578 568 588 
f 571 579 589 
f 579 564 589 
f 564 581 589 
f 581 576 589 
f 576 585 589 
f 563 556 590 
f 569 563 590 
f 556 578 590 
f 578 569 590 
f 556 563 591 
f 583 556 591 
f 563 586 591 
f 586 572 591 
f 557 558 592 
f 571 557 592 
f 558 577 592 
f 579 571 592 
f 577 579 592 
f 563 570 593 
f 586 563 593 
f 572 586 593 
f 575 561 594 
f 567 575 594 
f 558 557 595 
f 565 558 595 
f 575 565 595 
f 557 580 595 
f 580 575 595 
f 577 568 596 
f 564 577 596 
f 568 578 596 
f 581 564 596 
f 578 581 596 
f 576 581 597 
f 581 583 597 
f 583 591 597 
f 591 572 597 
f 570 561 598 
f 566 570 598 
f 561 587 598 
f 587 566 598 
f 561 584 599 
f 587 561 599 
f 566 587 599 
f 561 567 600 
f 594 561 600 
f 567 594 600 
f 570 566 601 
f 566 585 601 
f 585 576 601 
f 593 570 601 
f 572 593 601 
f 576 597 601 
f 597 572 601 
f 568 574 602 
f 588 568 602 
f 574 588 602 
f 574 560 603 
f 569 574 603 
f 560 582 603 
f 582 569 603 
f 584 571 604 
f 585 566 604 
f 571 589 604 
f 589 585 604 
f 566 599 604 
o convex_13
v -0.014403 0.024844 0.048712
v 0.001976 0.024844 0.043464
v 0.001976 0.023534 0.043464
v -0.017678 0.015014 0.006113
v -0.000645 0.025500 0.006113
v 0.001976 0.015014 0.040185
v -0.017678 0.015014 0.047401
v 0.001976 0.015014 0.006113
v -0.011782 0.025500 0.013326
v -0.017024 0.025500 0.042811
v -0.003266 0.025500 0.049365
v 0.001976 0.025500 0.006113
v -0.017678 0.020257 0.011357
v -0.007197 0.019602 0.049365
v -0.017678 0.024844 0.045433
v -0.001299 0.021568 0.048055
v -0.006541 0.015014 0.046090
v -0.011782 0.021568 0.050023
v 0.000665 0.025500 0.046744
v -0.003266 0.024844 0.006113
v -0.017678 0.021568 0.048055
v -0.009816 0.025500 0.050023
v -0.017678 0.018948 0.009393
v -0.011126 0.025500 0.012015
v -0.017678 0.020912 0.013979
v -0.013092 0.015670 0.048055
v -0.005886 0.022879 0.050023
f 626 622 631 
f 606 607 610 
f 608 610 611 
f 608 609 612 
f 606 610 612 
f 610 608 612 
f 609 613 614 
f 609 614 615 
f 612 609 616 
f 606 612 616 
f 609 615 616 
f 608 611 617 
f 605 614 619 
f 617 611 619 
f 620 618 621 
f 611 610 621 
f 610 620 621 
f 607 606 623 
f 610 607 623 
f 606 616 623 
f 616 615 623 
f 620 610 623 
f 615 620 623 
f 609 608 624 
f 605 619 625 
f 619 611 625 
f 622 605 625 
f 611 622 625 
f 614 605 626 
f 615 614 626 
f 605 622 626 
f 608 617 627 
f 624 608 627 
f 624 627 628 
f 613 609 628 
f 617 613 628 
f 609 624 628 
f 627 617 628 
f 614 613 629 
f 613 617 629 
f 619 614 629 
f 617 619 629 
f 621 618 630 
f 611 621 630 
f 622 611 630 
f 618 622 630 
f 620 615 631 
f 618 620 631 
f 622 618 631 
f 615 626 631 
o convex_14
v -0.006540 0.029431 0.015289
v 0.001980 0.026812 0.038226
v 0.001324 0.029431 0.038226
v -0.007195 0.025500 0.038226
v -0.003920 0.032709 0.037570
v -0.011128 0.025500 0.012671
v -0.001299 0.025500 0.021847
v -0.001299 0.032054 0.027736
v -0.008505 0.030742 0.023153
v -0.006540 0.032054 0.021190
v 0.001980 0.025500 0.036258
v -0.003920 0.026156 0.015948
v 0.000013 0.028122 0.025771
v -0.005884 0.030742 0.038226
v -0.011128 0.026156 0.018568
v -0.003920 0.030742 0.019225
v -0.009817 0.029431 0.015948
v -0.001299 0.032709 0.036915
v -0.007848 0.025500 0.012014
v -0.003264 0.032709 0.025119
v 0.000668 0.030087 0.031670
f 639 649 652 
f 633 634 635 
f 635 637 638 
f 640 636 641 
f 633 635 642 
f 635 638 642 
f 642 638 644 
f 638 643 644 
f 635 634 645 
f 634 636 645 
f 636 640 645 
f 645 640 646 
f 637 635 646 
f 635 645 646 
f 632 641 647 
f 643 632 647 
f 639 644 647 
f 644 643 647 
f 632 637 648 
f 641 632 648 
f 640 641 648 
f 646 640 648 
f 637 646 648 
f 636 634 649 
f 637 632 650 
f 638 637 650 
f 632 643 650 
f 643 638 650 
f 641 636 651 
f 647 641 651 
f 639 647 651 
f 636 649 651 
f 649 639 651 
f 634 633 652 
f 633 642 652 
f 644 639 652 
f 642 644 652 
f 649 634 652 
o convex_15
v -0.003264 0.028122 0.048711
v -0.007849 0.025500 0.038226
v -0.015713 0.025500 0.042160
v -0.004577 0.032054 0.038226
v 0.001980 0.025500 0.038226
v -0.013093 0.025500 0.048711
v -0.001299 0.031398 0.044124
v 0.000013 0.025500 0.047400
v -0.010472 0.029432 0.045434
v 0.000668 0.030743 0.038226
v 0.001322 0.028122 0.044124
v -0.016371 0.026156 0.044124
v -0.005231 0.030743 0.046089
v -0.008503 0.027466 0.049368
v -0.003919 0.025500 0.049368
f 653 666 667 
f 654 655 656 
f 655 654 657 
f 654 656 657 
f 655 657 658 
f 658 657 660 
f 657 656 662 
f 656 659 662 
f 659 653 663 
f 653 660 663 
f 660 657 663 
f 657 662 663 
f 662 659 663 
f 656 655 664 
f 655 658 664 
f 661 656 664 
f 658 661 664 
f 653 659 665 
f 659 656 665 
f 656 661 665 
f 665 661 666 
f 661 658 666 
f 653 665 666 
f 666 658 667 
f 660 653 667 
f 658 660 667 
