o convex_0
v -0.002176 0.009537 -0.069140
v 0.038537 0.030249 -0.050569
v 0.038537 0.009537 -0.050569
v -0.035748 0.009537 -0.050569
v -0.024310 0.030249 -0.061996
v 0.014250 0.030249 -0.067712
v -0.035748 0.030249 -0.050569
v 0.022104 0.009537 -0.064854
v -0.024310 0.009537 -0.061996
v -0.008597 0.030249 -0.068424
v 0.028539 0.030249 -0.061282
v -0.015745 0.009537 -0.066283
v 0.032822 0.009537 -0.057713
v 0.011385 0.009537 -0.068424
v 0.005677 0.030249 -0.069140
v -0.031458 0.030249 -0.056286
v 0.037105 0.030249 -0.053427
v -0.032884 0.009537 -0.054856
v -0.015745 0.030249 -0.066283
v 0.020678 0.030249 -0.065568
v -0.008597 0.009537 -0.068424
v 0.028539 0.009537 -0.061282
v 0.037105 0.009537 -0.053427
v -0.002176 0.030249 -0.069140
v 0.005677 0.009537 -0.069140
v -0.035748 0.030249 -0.051283
v 0.014250 0.009537 -0.067712
v -0.027175 0.009537 -0.059855
v 0.032822 0.030249 -0.057713
f 17 13 29 
f 3 2 4 
f 1 3 4 
f 5 2 6 
f 4 2 7 
f 2 5 7 
f 3 1 8 
f 1 4 9 
f 5 6 10 
f 6 2 11 
f 1 9 12 
f 9 5 12 
f 3 8 13 
f 8 1 14 
f 10 6 15 
f 6 14 15 
f 7 5 16 
f 2 3 17 
f 11 2 17 
f 9 4 18 
f 5 10 19 
f 12 5 19 
f 10 12 19 
f 6 11 20 
f 11 8 20 
f 10 1 21 
f 1 12 21 
f 12 10 21 
f 8 11 22 
f 13 8 22 
f 11 13 22 
f 3 13 23 
f 17 3 23 
f 13 17 23 
f 1 10 24 
f 10 15 24 
f 15 1 24 
f 14 1 25 
f 1 15 25 
f 15 14 25 
f 4 7 26 
f 7 16 26 
f 18 4 26 
f 16 18 26 
f 14 6 27 
f 8 14 27 
f 6 20 27 
f 20 8 27 
f 5 9 28 
f 16 5 28 
f 9 18 28 
f 18 16 28 
f 13 11 29 
f 11 17 29 
o convex_1
v 0.047812 0.009535 -0.057713
v -0.054320 -0.005465 -0.069140
v -0.054320 -0.005465 -0.068424
v 0.057823 -0.005465 -0.069140
v 0.040677 -0.005465 -0.050569
v -0.036460 0.009535 -0.050569
v -0.054320 0.009535 -0.069140
v -0.036460 -0.005465 -0.050569
v 0.057823 0.009535 -0.069140
v 0.040677 0.009535 -0.050569
v 0.057823 -0.005465 -0.068424
v -0.054320 0.009535 -0.068424
v 0.057823 0.009535 -0.068424
v 0.047812 -0.005465 -0.057713
f 34 40 43 
f 32 31 33 
f 32 33 34 
f 35 30 36 
f 31 32 36 
f 33 31 36 
f 32 34 37 
f 35 32 37 
f 34 35 37 
f 36 30 38 
f 33 36 38 
f 34 30 39 
f 35 34 39 
f 30 35 39 
f 34 33 40 
f 33 38 40 
f 32 35 41 
f 35 36 41 
f 36 32 41 
f 38 30 42 
f 30 40 42 
f 40 38 42 
f 30 34 43 
f 40 30 43 
o convex_2
v -0.045747 -0.016889 -0.022717
v -0.017180 0.030249 -0.006288
v -0.017177 0.013813 -0.040568
v -0.042176 0.030240 -0.040568
v -0.042889 0.030240 -0.006288
v -0.017177 -0.009747 -0.006288
v -0.028607 -0.016889 -0.050569
v -0.017180 0.030249 -0.050569
v -0.042889 -0.016889 -0.006288
v -0.017177 -0.009747 -0.050569
v -0.036463 -0.016889 -0.050569
v -0.036463 0.030240 -0.050569
v -0.045747 0.030240 -0.021291
v -0.044318 -0.016889 -0.033420
v -0.037176 -0.016889 -0.006288
v -0.045032 0.030240 -0.030568
v -0.045032 -0.016889 -0.014147
v -0.042176 -0.016889 -0.040568
v -0.044318 0.030240 -0.010575
v -0.040034 0.030240 -0.044847
v -0.045032 -0.016889 -0.030568
v -0.040034 -0.016889 -0.044847
v -0.045032 0.030240 -0.014147
v -0.044318 -0.016889 -0.010575
v -0.042889 0.030240 -0.038418
f 61 57 68 
f 45 48 49 
f 46 45 49 
f 45 46 51 
f 49 48 52 
f 44 50 52 
f 46 49 53 
f 49 50 53 
f 51 46 53 
f 50 51 53 
f 50 44 54 
f 51 50 54 
f 51 54 55 
f 45 51 56 
f 54 44 57 
f 50 49 58 
f 49 52 58 
f 52 50 58 
f 44 56 59 
f 56 51 59 
f 44 52 60 
f 56 44 60 
f 54 57 61 
f 48 45 62 
f 52 48 62 
f 47 51 63 
f 51 55 63 
f 55 54 63 
f 61 47 63 
f 57 44 64 
f 44 59 64 
f 59 57 64 
f 54 61 65 
f 63 54 65 
f 61 63 65 
f 45 56 66 
f 56 60 66 
f 62 45 66 
f 60 62 66 
f 60 52 67 
f 52 62 67 
f 62 60 67 
f 51 47 68 
f 59 51 68 
f 57 59 68 
f 47 61 68 
o convex_3
v 0.000680 -0.002608 0.043717
v 0.018537 0.009535 0.038718
v 0.018537 0.009535 0.034431
v -0.015034 0.009535 0.034431
v 0.018537 -0.002608 0.034431
v -0.015034 -0.002608 0.034431
v -0.007890 0.009535 0.042288
v -0.013605 -0.002608 0.040145
v 0.017821 -0.002608 0.039430
v 0.008534 0.009535 0.043002
v -0.015034 0.009535 0.038718
v 0.011393 -0.002608 0.042288
v 0.000680 0.009535 0.043717
v -0.005031 -0.002608 0.043002
v 0.013536 0.009535 0.041573
v -0.015034 -0.002608 0.038718
v -0.013605 0.009535 0.040145
f 79 76 85 
f 70 71 72 
f 71 70 73 
f 72 71 73 
f 73 69 74 
f 72 73 74 
f 70 72 75 
f 74 69 76 
f 69 73 77 
f 73 70 77 
f 70 75 78 
f 72 74 79 
f 75 72 79 
f 69 77 80 
f 78 69 80 
f 78 75 81 
f 69 78 81 
f 76 69 82 
f 75 76 82 
f 69 81 82 
f 81 75 82 
f 77 70 83 
f 70 78 83 
f 80 77 83 
f 78 80 83 
f 74 76 84 
f 79 74 84 
f 76 79 84 
f 76 75 85 
f 75 79 85 
o convex_4
v -0.032174 -0.016893 -0.055571
v -0.010749 -0.016893 -0.067712
v -0.010749 -0.005465 -0.067712
v -0.010034 -0.005465 -0.050569
v -0.035748 -0.005465 -0.050569
v -0.027888 -0.016893 -0.050569
v -0.024319 -0.005465 -0.061996
v -0.010034 -0.016893 -0.061996
v -0.010034 -0.009752 -0.050569
v -0.024319 -0.016893 -0.061996
v -0.035748 -0.016893 -0.050569
v -0.015753 -0.005465 -0.066280
v -0.031462 -0.005465 -0.056284
v -0.010034 -0.005465 -0.067712
v -0.015753 -0.016893 -0.066280
v -0.035748 -0.005465 -0.051285
f 90 98 101 
f 89 88 90 
f 86 87 91 
f 89 90 91 
f 90 88 92 
f 91 87 93 
f 91 93 94 
f 89 91 94 
f 93 89 94 
f 87 86 95 
f 86 91 96 
f 91 90 96 
f 88 87 97 
f 92 88 97 
f 95 92 97 
f 90 92 98 
f 95 86 98 
f 92 95 98 
f 87 88 99 
f 88 89 99 
f 93 87 99 
f 89 93 99 
f 87 95 100 
f 97 87 100 
f 95 97 100 
f 86 96 101 
f 96 90 101 
f 98 86 101 
o convex_5
v 0.027109 -0.009747 -0.006288
v -0.017177 -0.009747 -0.050569
v -0.000032 -0.016889 -0.050569
v 0.027109 0.030244 -0.050569
v -0.017177 0.030244 -0.006288
v -0.017177 -0.009747 -0.006288
v -0.017177 0.030244 -0.050569
v 0.027109 0.030244 -0.006288
v 0.027109 -0.009747 -0.050569
v 0.021391 -0.016889 -0.019856
v -0.003604 -0.016889 -0.023432
v 0.026393 -0.016889 -0.026285
v -0.001459 -0.011888 -0.006288
v 0.004966 -0.016889 -0.050569
v -0.000748 -0.016889 -0.019856
v 0.006392 -0.011888 -0.006288
v -0.003604 -0.016889 -0.027720
f 112 103 118 
f 104 103 105 
f 106 103 107 
f 102 106 107 
f 105 103 108 
f 106 105 108 
f 103 106 108 
f 102 105 109 
f 106 102 109 
f 105 106 109 
f 104 105 110 
f 105 102 110 
f 107 103 112 
f 104 111 112 
f 110 102 113 
f 102 111 113 
f 111 104 113 
f 102 107 114 
f 104 110 115 
f 110 113 115 
f 113 104 115 
f 107 112 116 
f 112 111 116 
f 114 107 116 
f 111 114 116 
f 111 102 117 
f 102 114 117 
f 114 111 117 
f 103 104 118 
f 104 112 118 
o convex_6
v 0.046394 -0.016889 -0.036992
v 0.045678 0.030244 -0.006288
v 0.046394 0.030244 -0.007714
v 0.027111 0.030244 -0.050569
v 0.027111 -0.009747 -0.006288
v 0.027111 -0.009747 -0.050569
v 0.027111 0.030244 -0.006288
v 0.040680 0.030244 -0.049138
v 0.045678 -0.016889 -0.006288
v 0.039249 -0.016889 -0.050569
v 0.048535 0.030244 -0.025574
v 0.048535 -0.016889 -0.019141
v 0.032109 -0.016889 -0.049138
v 0.044965 0.030244 -0.041275
v 0.039965 -0.016889 -0.006288
v 0.047822 -0.016889 -0.031994
v 0.047822 0.030244 -0.012716
v 0.039249 0.030244 -0.050569
v 0.044965 -0.016889 -0.041275
v 0.047822 0.030244 -0.031994
v 0.047822 -0.016889 -0.012716
v 0.039965 -0.005461 -0.050569
v 0.048535 -0.016889 -0.025574
v 0.048535 0.030244 -0.019141
v 0.047107 -0.016889 -0.009855
v 0.032109 -0.016889 -0.050569
v 0.040680 -0.016889 -0.049138
f 140 137 145 
f 120 121 122 
f 123 122 124 
f 120 122 125 
f 122 123 125 
f 123 120 125 
f 122 121 126 
f 121 120 127 
f 120 123 127 
f 124 122 128 
f 119 127 128 
f 126 121 129 
f 127 119 130 
f 123 124 131 
f 128 127 131 
f 126 129 132 
f 127 123 133 
f 123 131 133 
f 131 127 133 
f 130 119 134 
f 129 121 135 
f 122 126 136 
f 128 122 136 
f 119 128 137 
f 132 119 137 
f 119 132 138 
f 132 129 138 
f 134 119 138 
f 129 134 138 
f 127 130 139 
f 130 135 139 
f 126 132 140 
f 136 126 140 
f 128 136 140 
f 132 137 140 
f 129 130 141 
f 130 134 141 
f 134 129 141 
f 130 129 142 
f 129 135 142 
f 135 130 142 
f 121 127 143 
f 135 121 143 
f 127 139 143 
f 139 135 143 
f 124 128 144 
f 131 124 144 
f 128 131 144 
f 137 128 145 
f 128 140 145 
o convex_7
v 0.033537 -0.016893 -0.057000
v 0.009966 -0.016893 -0.068426
v 0.009966 -0.005465 -0.068426
v 0.009966 -0.005465 -0.050569
v 0.038537 -0.005465 -0.050569
v 0.031392 -0.016893 -0.050569
v 0.028533 -0.005465 -0.061282
v 0.009966 -0.009752 -0.050569
v 0.020683 -0.016893 -0.065568
v 0.009966 -0.016893 -0.062710
v 0.038537 -0.016893 -0.050569
v 0.020683 -0.005465 -0.065568
v 0.037105 -0.005465 -0.053427
v 0.028533 -0.016893 -0.061282
v 0.014253 -0.016893 -0.067709
v 0.011395 -0.005465 -0.068426
v 0.037105 -0.016893 -0.053427
f 158 156 162 
f 148 147 149 
f 148 149 150 
f 147 146 151 
f 150 149 151 
f 148 150 152 
f 149 147 153 
f 151 149 153 
f 146 147 154 
f 147 151 155 
f 153 147 155 
f 151 153 155 
f 151 146 156 
f 150 151 156 
f 148 152 157 
f 152 154 157 
f 146 152 158 
f 152 150 158 
f 150 156 158 
f 152 146 159 
f 146 154 159 
f 154 152 159 
f 154 147 160 
f 157 154 160 
f 157 160 161 
f 147 148 161 
f 148 157 161 
f 160 147 161 
f 156 146 162 
f 146 158 162 
o convex_8
v -0.060746 0.001682 -0.000568
v -0.050035 0.007387 0.034431
v -0.045036 0.010962 0.033714
v -0.045034 -0.016175 0.006577
v -0.045036 0.029535 0.005147
v -0.063606 0.010246 0.021570
v -0.057888 -0.008318 0.017286
v -0.055747 0.015244 -0.005566
v -0.053607 0.025955 0.016569
v -0.045034 -0.011173 0.025859
v -0.060034 0.018814 0.004433
v -0.051466 -0.009745 -0.001995
v -0.055033 -0.002604 0.030143
v -0.046463 0.023812 0.026572
v -0.057174 0.016671 0.027995
v -0.045036 0.003825 0.002289
v -0.060746 -0.005459 0.008004
v -0.063606 0.007387 0.006577
v -0.062889 0.001682 0.022288
v -0.052178 -0.014032 0.012288
v -0.055747 0.001682 -0.006283
v -0.054320 0.024528 0.002289
v -0.045036 0.028814 0.018713
v -0.045036 -0.001889 0.032283
v -0.058605 0.021673 0.014429
v -0.050035 -0.013316 0.020144
v -0.055033 -0.009745 0.000862
v -0.060034 0.011673 -0.001995
v -0.052178 0.013100 0.032996
v -0.052893 0.020957 -0.003426
v -0.045749 -0.015459 0.003720
v -0.062889 0.013816 0.008722
v -0.053607 0.026671 0.009435
v -0.063606 0.002398 0.010148
v -0.045749 -0.016175 0.015142
v -0.059319 -0.002604 0.025859
v -0.060034 0.015960 0.025145
v -0.058605 -0.002604 -0.001995
v -0.045036 0.020962 0.029425
v -0.055033 -0.011889 0.007291
v -0.050035 0.025955 0.021570
v -0.049321 0.028814 0.013719
v -0.047894 0.027387 0.001576
v -0.057174 0.004541 -0.006283
v -0.056461 0.020242 -0.001282
v -0.045036 0.010250 0.002289
v -0.060746 0.018814 0.013719
v -0.051466 0.002398 0.033714
v -0.045749 -0.007602 0.029429
v -0.055033 -0.005459 -0.004139
v -0.062177 0.011673 0.002289
v -0.062889 0.002398 0.004433
v -0.050035 -0.014743 0.005860
v -0.052178 -0.010457 0.023001
v -0.057888 0.022385 0.005860
v -0.050751 0.028098 0.006577
v -0.062177 -0.002604 0.013006
v -0.060034 -0.005459 0.004433
v -0.055747 0.011673 -0.006283
v -0.055033 -0.011889 0.014429
v -0.061461 -0.001173 0.023714
v -0.059319 -0.007602 0.012288
v -0.045036 0.003109 0.033714
v -0.055747 0.023101 0.019426
f 177 203 226 
f 166 167 172 
f 178 174 183 
f 172 167 185 
f 164 165 191 
f 176 177 191 
f 178 166 193 
f 174 178 193 
f 180 168 194 
f 187 171 195 
f 168 180 196 
f 181 168 196 
f 166 172 197 
f 172 188 197 
f 188 182 197 
f 168 181 199 
f 191 177 199 
f 181 198 199 
f 165 172 201 
f 172 185 201 
f 185 176 201 
f 191 165 201 
f 176 191 201 
f 177 176 203 
f 176 185 203 
f 203 185 204 
f 185 167 204 
f 195 171 204 
f 171 203 204 
f 192 184 205 
f 163 190 206 
f 200 163 206 
f 170 190 207 
f 190 173 207 
f 192 170 207 
f 184 192 207 
f 167 166 208 
f 166 178 208 
f 178 183 208 
f 205 167 208 
f 192 205 208 
f 194 168 209 
f 173 194 209 
f 168 199 209 
f 199 187 209 
f 164 191 210 
f 198 175 210 
f 191 199 210 
f 199 198 210 
f 172 186 211 
f 186 210 211 
f 210 175 211 
f 183 174 212 
f 174 189 212 
f 189 200 212 
f 206 183 212 
f 200 206 212 
f 173 190 213 
f 190 163 213 
f 180 194 213 
f 194 173 213 
f 179 196 214 
f 196 180 214 
f 213 163 214 
f 180 213 214 
f 189 174 215 
f 193 166 215 
f 174 193 215 
f 166 197 215 
f 197 182 215 
f 182 202 215 
f 202 189 215 
f 188 172 216 
f 198 169 216 
f 175 198 216 
f 172 211 216 
f 211 175 216 
f 195 184 217 
f 187 195 217 
f 207 173 217 
f 184 207 217 
f 173 209 217 
f 209 187 217 
f 184 195 218 
f 204 167 218 
f 195 204 218 
f 167 205 218 
f 205 184 218 
f 196 179 219 
f 181 196 219 
f 163 200 220 
f 200 189 220 
f 202 179 220 
f 189 202 220 
f 179 214 220 
f 214 163 220 
f 190 170 221 
f 170 192 221 
f 183 206 221 
f 206 190 221 
f 208 183 221 
f 192 208 221 
f 182 188 222 
f 202 182 222 
f 188 216 222 
f 216 169 222 
f 198 181 223 
f 169 198 223 
f 181 219 223 
f 223 219 224 
f 179 202 224 
f 219 179 224 
f 222 169 224 
f 202 222 224 
f 169 223 224 
f 165 164 225 
f 172 165 225 
f 186 172 225 
f 164 210 225 
f 210 186 225 
f 171 187 226 
f 199 177 226 
f 187 199 226 
f 203 171 226 
o convex_9
v -0.010034 -0.009750 -0.050569
v -0.002176 -0.010465 -0.069140
v -0.002176 -0.005466 -0.069140
v 0.009966 -0.005466 -0.050569
v 0.009966 -0.010465 -0.068424
v -0.010034 -0.005466 -0.050569
v 0.009966 -0.009750 -0.050569
v -0.010034 -0.010465 -0.067712
v 0.009966 -0.005466 -0.068424
v -0.010034 -0.005466 -0.067712
v -0.008605 -0.010465 -0.061996
v 0.009966 -0.010465 -0.062711
v 0.005678 -0.005466 -0.069140
f 235 231 239 
f 230 229 232 
f 227 230 232 
f 230 227 233 
f 231 230 233 
f 229 228 234 
f 228 231 234 
f 227 232 234 
f 229 230 235 
f 230 231 235 
f 232 229 236 
f 229 234 236 
f 234 232 236 
f 233 227 237 
f 234 231 237 
f 227 234 237 
f 231 233 238 
f 233 237 238 
f 237 231 238 
f 228 229 239 
f 231 228 239 
f 229 235 239 
o convex_10
v -0.031466 0.008819 0.033000
v -0.045034 -0.014750 0.018002
v -0.044319 -0.015461 0.018002
v -0.032179 0.028105 0.018002
v -0.045034 0.020242 0.030144
v -0.025037 -0.005460 0.024433
v -0.045034 -0.002604 0.032287
v -0.045034 0.028816 0.018002
v -0.031466 -0.014035 0.018002
v -0.024322 0.016674 0.026574
v -0.034318 -0.008321 0.028714
v -0.035747 0.022392 0.028714
v -0.040745 0.009534 0.034431
v -0.030751 0.000968 0.032287
v -0.022891 0.004540 0.026574
v -0.043604 -0.011174 0.026574
v -0.027181 0.023098 0.022290
v -0.035034 0.014532 0.033000
v -0.034318 -0.013319 0.023004
v -0.042173 0.027390 0.023004
v -0.038603 0.000258 0.033715
v -0.025752 -0.006886 0.025146
v -0.045034 0.010956 0.033715
v -0.025752 0.005971 0.030144
v -0.031466 0.023818 0.025860
v -0.027892 0.014532 0.030144
v -0.038603 -0.007602 0.030144
v -0.027181 -0.001893 0.029430
v -0.037175 0.028816 0.020146
v -0.031466 0.027390 0.018002
v -0.029320 0.020242 0.028000
v -0.032179 -0.005460 0.030144
v -0.045034 0.002399 0.033715
v -0.037175 -0.015461 0.019432
v -0.042891 0.015248 0.033000
v -0.044319 0.025248 0.025860
v -0.045034 -0.013319 0.023004
v -0.037888 0.005971 0.034431
v -0.027892 -0.010463 0.023004
v -0.023607 0.000258 0.027288
v -0.023607 0.010956 0.028000
v -0.037175 -0.011893 0.025860
v -0.037888 0.025959 0.025146
v -0.038603 0.020961 0.030144
v -0.031466 0.026675 0.021574
v -0.032892 0.019531 0.030144
f 283 257 285 
f 242 241 243 
f 244 241 246 
f 243 241 247 
f 241 244 247 
f 242 243 248 
f 245 248 254 
f 249 254 256 
f 244 246 262 
f 240 253 263 
f 257 240 265 
f 240 263 265 
f 246 255 266 
f 260 246 266 
f 263 253 267 
f 243 247 268 
f 247 259 268 
f 248 243 269 
f 254 248 269 
f 243 256 269 
f 256 254 269 
f 249 256 270 
f 256 264 270 
f 265 249 270 
f 253 260 271 
f 250 261 271 
f 266 250 271 
f 260 266 271 
f 267 253 271 
f 261 267 271 
f 246 260 272 
f 262 246 272 
f 252 262 272 
f 242 248 273 
f 248 258 273 
f 252 257 274 
f 244 262 274 
f 262 252 274 
f 247 244 275 
f 259 247 275 
f 241 242 276 
f 246 241 276 
f 255 246 276 
f 242 273 276 
f 253 240 277 
f 240 257 277 
f 257 252 277 
f 260 253 277 
f 272 260 277 
f 252 272 277 
f 248 245 278 
f 258 248 278 
f 250 258 278 
f 245 261 278 
f 261 250 278 
f 245 254 279 
f 261 245 279 
f 267 261 279 
f 263 267 279 
f 254 249 280 
f 265 263 280 
f 249 265 280 
f 279 254 280 
f 263 279 280 
f 258 250 281 
f 250 266 281 
f 266 255 281 
f 273 258 281 
f 255 276 281 
f 276 273 281 
f 251 264 282 
f 268 259 282 
f 275 251 282 
f 259 275 282 
f 244 274 283 
f 274 257 283 
f 275 244 283 
f 251 275 283 
f 256 243 284 
f 264 256 284 
f 243 268 284 
f 282 264 284 
f 268 282 284 
f 264 251 285 
f 257 265 285 
f 270 264 285 
f 265 270 285 
f 251 283 285 
o convex_11
v -0.012173 -0.016889 0.023000
v 0.029250 0.030244 0.015857
v 0.029250 0.030244 -0.006283
v -0.022891 0.030244 0.018000
v -0.022891 -0.009747 -0.006283
v 0.029250 -0.016889 0.008716
v -0.022891 0.030244 -0.006283
v 0.029250 -0.009747 -0.006283
v 0.009248 -0.016889 0.024431
v 0.009248 0.030244 0.024431
v -0.022891 -0.016889 0.018000
v -0.003604 -0.016889 -0.004140
v 0.027821 -0.016889 0.017285
v -0.005747 0.030244 0.024431
v 0.019966 0.030244 0.021572
v -0.016460 0.030244 0.021572
v 0.008534 -0.016889 -0.004140
v 0.019966 -0.016889 0.021572
v -0.005747 -0.016889 0.024431
v -0.022891 -0.016889 0.011572
v 0.029250 -0.016889 0.015857
v -0.001460 -0.011888 -0.006283
v -0.017889 -0.016889 0.020859
v 0.012821 -0.016889 0.023715
v 0.027821 0.030244 0.017285
v -0.022172 0.030244 0.018716
v -0.009320 0.030244 0.023715
v 0.012821 0.030244 0.023715
v -0.022172 -0.016889 0.018716
f 308 311 314 
f 287 288 289 
f 288 287 291 
f 289 288 292 
f 290 289 292 
f 288 290 292 
f 290 288 293 
f 288 291 293 
f 286 291 294 
f 287 289 295 
f 289 290 296 
f 291 286 296 
f 291 296 297 
f 294 291 298 
f 295 289 299 
f 294 295 299 
f 287 295 300 
f 299 289 301 
f 293 291 302 
f 291 297 302 
f 294 298 303 
f 298 300 303 
f 286 294 304 
f 294 299 304 
f 296 290 305 
f 297 296 305 
f 290 297 305 
f 291 287 306 
f 287 298 306 
f 298 291 306 
f 290 293 307 
f 297 290 307 
f 293 302 307 
f 302 297 307 
f 296 286 308 
f 286 301 308 
f 295 294 309 
f 294 303 309 
f 303 300 309 
f 298 287 310 
f 287 300 310 
f 300 298 310 
f 289 296 311 
f 301 289 311 
f 308 301 311 
f 301 286 312 
f 299 301 312 
f 286 304 312 
f 304 299 312 
f 300 295 313 
f 295 309 313 
f 309 300 313 
f 296 308 314 
f 311 296 314 
o convex_12
v 0.052823 0.023818 0.024431
v 0.026394 0.004541 0.026576
v 0.027823 -0.003319 0.025146
v 0.054244 0.005964 0.034431
v 0.063537 -0.001892 0.024431
v 0.036396 0.019534 0.030144
v 0.039970 -0.003319 0.032286
v 0.029252 0.020242 0.024431
v 0.048536 -0.011894 0.024431
v 0.058534 0.015958 0.030144
v 0.032830 0.007387 0.032286
v 0.058534 -0.002607 0.030144
v 0.063537 0.015958 0.025146
v 0.034255 -0.010463 0.024431
v 0.042828 0.009529 0.034431
v 0.047104 0.019534 0.030858
v 0.041395 0.025963 0.025146
v 0.043544 -0.007606 0.030144
v 0.030681 -0.001892 0.029431
v 0.027823 0.013105 0.028004
v 0.038541 0.001680 0.033715
v 0.055677 0.013105 0.033002
v 0.039970 0.015246 0.033002
v 0.054960 0.002395 0.033715
v 0.052823 -0.009748 0.025860
v 0.039970 -0.011179 0.026576
v 0.033539 -0.006176 0.028718
v 0.047820 0.025248 0.025860
v 0.029252 -0.006891 0.024431
v 0.034255 0.012389 0.032286
v 0.063537 0.015958 0.024431
v 0.027111 0.002395 0.028004
v 0.032830 0.020242 0.028004
v 0.049245 -0.007606 0.029431
v 0.062821 -0.002607 0.025860
v 0.042112 0.020961 0.030144
v 0.035680 0.024533 0.024431
v 0.045678 -0.001892 0.033002
v 0.042828 0.003822 0.034431
v 0.034255 0.000965 0.032286
v 0.037829 0.010963 0.033715
v 0.047104 -0.011179 0.026576
v 0.054244 0.023103 0.025146
v 0.034971 0.023818 0.025860
v 0.027823 0.016677 0.026576
v 0.049961 0.021672 0.028718
v 0.028539 0.018815 0.024431
f 359 322 361 
f 315 319 322 
f 322 319 323 
f 322 323 328 
f 327 324 336 
f 329 318 336 
f 336 330 337 
f 329 336 337 
f 336 318 338 
f 326 336 338 
f 323 319 339 
f 328 323 340 
f 332 321 341 
f 328 340 341 
f 340 332 341 
f 315 331 342 
f 322 328 343 
f 333 317 343 
f 328 341 343 
f 341 333 343 
f 334 325 344 
f 337 320 344 
f 319 315 345 
f 327 319 345 
f 316 317 346 
f 317 333 346 
f 334 316 346 
f 325 334 346 
f 344 320 347 
f 326 338 348 
f 339 326 348 
f 319 327 349 
f 336 326 349 
f 327 336 349 
f 339 319 349 
f 326 339 349 
f 337 330 350 
f 320 337 350 
f 330 342 350 
f 342 331 350 
f 315 322 351 
f 331 315 351 
f 321 332 352 
f 335 321 352 
f 332 348 352 
f 348 338 352 
f 318 329 353 
f 338 318 353 
f 335 352 353 
f 352 338 353 
f 321 335 354 
f 335 325 354 
f 341 321 354 
f 333 341 354 
f 346 333 354 
f 325 346 354 
f 325 335 355 
f 329 337 355 
f 344 325 355 
f 337 344 355 
f 353 329 355 
f 335 353 355 
f 323 339 356 
f 340 323 356 
f 332 340 356 
f 348 332 356 
f 339 348 356 
f 324 327 357 
f 315 342 357 
f 345 315 357 
f 327 345 357 
f 322 347 358 
f 347 320 358 
f 320 350 358 
f 350 331 358 
f 351 322 358 
f 331 351 358 
f 316 334 359 
f 334 344 359 
f 347 322 359 
f 344 347 359 
f 336 324 360 
f 330 336 360 
f 342 330 360 
f 324 357 360 
f 357 342 360 
f 317 316 361 
f 343 317 361 
f 322 343 361 
f 316 359 361 
o convex_13
v -0.008605 -0.010465 -0.061998
v -0.002176 -0.016894 -0.069139
v -0.002176 -0.010465 -0.069139
v 0.009966 -0.016894 -0.062713
v 0.009966 -0.010465 -0.068425
v -0.010034 -0.016894 -0.061998
v 0.009966 -0.010465 -0.062713
v -0.010034 -0.010465 -0.067711
v 0.009966 -0.016894 -0.068425
v -0.010034 -0.016894 -0.067711
v 0.005678 -0.016894 -0.069139
f 366 370 372 
f 364 362 366 
f 363 365 367 
f 365 362 367 
f 362 365 368 
f 366 362 368 
f 365 366 368 
f 362 364 369 
f 364 363 369 
f 367 362 369 
f 365 363 370 
f 366 365 370 
f 363 367 371 
f 369 363 371 
f 367 369 371 
f 363 364 372 
f 364 366 372 
f 370 363 372 
o convex_14
v -0.002177 -0.016893 -0.059139
v 0.006394 -0.012608 -0.051999
v 0.005680 -0.012608 -0.050569
v 0.006394 -0.016893 -0.051999
v 0.004966 -0.012608 -0.060569
v -0.001462 -0.012608 -0.050569
v -0.001462 -0.016893 -0.050569
v 0.006394 -0.016893 -0.059139
v -0.002177 -0.012608 -0.059139
v -0.000748 -0.016893 -0.060569
f 381 377 382 
f 374 375 376 
f 375 374 377 
f 375 377 378 
f 376 375 379 
f 373 376 379 
f 375 378 379 
f 378 373 379 
f 374 376 380 
f 376 373 380 
f 377 374 380 
f 373 378 381 
f 378 377 381 
f 380 373 382 
f 377 380 382 
f 373 381 382 
o convex_15
v -0.030034 -0.016889 0.012999
v -0.022891 0.030244 0.018000
v -0.022891 0.030244 -0.006281
v -0.022891 -0.016889 0.018000
v -0.030034 0.030244 -0.006281
v -0.022891 -0.009747 -0.006281
v -0.030034 0.030244 0.012999
v -0.030034 -0.009747 -0.006281
v -0.029319 -0.016889 0.005147
v -0.025034 0.030244 0.017285
v -0.022891 -0.016889 0.010858
v -0.030034 0.003822 0.013715
v -0.025034 -0.016889 0.017285
f 394 383 395 
f 385 384 386 
f 384 385 387 
f 385 386 388 
f 387 385 388 
f 387 383 389 
f 384 387 389 
f 383 387 390 
f 387 388 390 
f 390 388 391 
f 386 383 391 
f 383 390 391 
f 386 384 392 
f 384 389 392 
f 388 386 393 
f 391 388 393 
f 386 391 393 
f 389 383 394 
f 392 389 394 
f 392 394 395 
f 383 386 395 
f 386 392 395 
o convex_16
v 0.062106 0.000253 -0.003424
v 0.050680 0.025244 0.024431
v 0.052111 0.025244 0.023715
v 0.053538 -0.010457 0.024431
v 0.067109 0.010248 0.021572
v 0.048537 0.028814 0.004432
v 0.048537 -0.015459 0.004432
v 0.062106 0.020958 0.004432
v 0.062822 -0.007603 0.012288
v 0.048537 -0.011889 0.024431
v 0.059250 0.011675 -0.006283
v 0.067109 0.007389 0.006575
v 0.064249 -0.001890 0.024431
v 0.058536 0.025244 0.015144
v 0.048537 0.026671 0.023000
v 0.057110 -0.008319 -0.002712
v 0.055681 -0.014032 0.012288
v 0.064249 0.015245 0.024431
v 0.048537 0.003823 0.002288
v 0.065680 -0.001890 0.006575
v 0.053538 0.026671 0.000860
v 0.062106 0.015961 -0.001996
v 0.064964 0.017388 0.007291
v 0.050680 0.029526 0.013000
v 0.057823 -0.004033 -0.004852
v 0.058536 -0.010457 0.002288
v 0.067109 0.003823 0.021572
v 0.049253 -0.016171 0.015144
v 0.057110 -0.011889 0.018000
v 0.056396 0.020958 -0.003424
v 0.065680 0.009532 0.001576
v 0.054254 0.028099 0.006575
v 0.064249 0.018815 0.013716
v 0.060679 0.008816 -0.006283
v 0.062822 -0.006176 0.003719
v 0.052111 -0.014743 0.003719
v 0.054254 0.026671 0.019428
v 0.064964 0.001680 0.000860
v 0.048537 0.010248 0.002288
v 0.065680 -0.002606 0.013000
v 0.057823 0.023813 0.000860
v 0.058536 -0.011889 0.007291
v 0.066392 0.013102 0.006575
v 0.052826 -0.012600 0.000148
v 0.048537 0.025244 0.024431
v 0.067109 0.002396 0.010144
v 0.059964 0.023813 0.005860
v 0.053538 -0.013316 0.020141
v 0.048537 0.029526 0.015857
v 0.059250 0.001680 -0.006283
v 0.057823 0.023101 0.021572
v 0.063537 0.008816 -0.002712
v 0.062106 -0.002606 -0.001996
v 0.058536 -0.011889 0.014425
v 0.050680 -0.016171 0.009426
v 0.058536 0.018815 -0.004140
v 0.049253 0.029526 0.005147
v 0.060679 0.022385 0.018000
v 0.064249 0.014529 0.000860
v 0.055681 -0.010457 0.023000
v 0.048537 -0.014032 0.021572
v 0.063537 0.020242 0.010141
v 0.057110 0.026671 0.012288
v 0.061393 -0.008319 0.017288
f 424 449 459 
f 399 397 405 
f 401 402 405 
f 397 399 408 
f 397 398 410 
f 401 405 410 
f 398 397 413 
f 397 408 413 
f 408 400 413 
f 402 401 414 
f 407 400 422 
f 400 408 422 
f 401 416 425 
f 413 400 428 
f 400 418 428 
f 415 404 430 
f 410 398 432 
f 407 415 433 
f 426 407 433 
f 415 430 433 
f 414 401 434 
f 406 414 434 
f 401 425 434 
f 425 406 434 
f 408 404 435 
f 404 415 435 
f 422 408 435 
f 403 417 436 
f 425 416 436 
f 416 427 436 
f 430 404 437 
f 421 430 437 
f 431 421 437 
f 412 431 437 
f 400 407 438 
f 418 400 438 
f 407 426 438 
f 402 414 439 
f 420 411 439 
f 414 420 439 
f 411 421 439 
f 431 402 439 
f 421 431 439 
f 405 397 440 
f 397 410 440 
f 410 405 440 
f 415 407 441 
f 407 422 441 
f 435 415 441 
f 422 435 441 
f 403 436 442 
f 436 427 442 
f 423 412 443 
f 412 424 443 
f 401 410 444 
f 410 432 444 
f 432 419 444 
f 414 406 445 
f 396 420 445 
f 420 414 445 
f 406 429 445 
f 429 396 445 
f 398 413 446 
f 432 398 446 
f 409 432 446 
f 429 417 447 
f 396 429 447 
f 426 433 447 
f 433 396 447 
f 420 396 448 
f 411 420 448 
f 421 411 448 
f 430 421 448 
f 396 433 448 
f 433 430 448 
f 424 412 449 
f 437 404 449 
f 412 437 449 
f 423 402 450 
f 412 423 450 
f 402 431 450 
f 431 412 450 
f 406 425 451 
f 429 406 451 
f 417 429 451 
f 436 417 451 
f 425 436 451 
f 416 401 452 
f 427 416 452 
f 419 427 452 
f 401 444 452 
f 444 419 452 
f 413 428 453 
f 446 413 453 
f 409 446 453 
f 417 403 454 
f 403 418 454 
f 418 438 454 
f 438 426 454 
f 447 417 454 
f 426 447 454 
f 408 399 455 
f 424 408 455 
f 399 443 455 
f 443 424 455 
f 399 405 456 
f 405 402 456 
f 402 423 456 
f 443 399 456 
f 423 443 456 
f 418 403 457 
f 428 418 457 
f 403 442 457 
f 409 453 457 
f 453 428 457 
f 427 419 458 
f 432 409 458 
f 419 432 458 
f 442 427 458 
f 409 457 458 
f 457 442 458 
f 404 408 459 
f 408 424 459 
f 449 404 459 
o convex_17
v -0.015034 -0.002608 0.028718
v 0.005680 0.009535 0.034431
v 0.005680 -0.002608 0.034431
v 0.005680 0.009535 0.024431
v -0.015034 0.009535 0.034431
v 0.005680 -0.002608 0.024431
v -0.002893 0.009535 0.024431
v -0.015034 -0.002608 0.034431
v -0.015034 0.009535 0.028718
v -0.002893 -0.002608 0.024431
f 460 466 469 
f 461 462 463 
f 462 461 464 
f 461 463 464 
f 462 460 465 
f 463 462 465 
f 463 465 466 
f 464 463 466 
f 460 462 467 
f 464 460 467 
f 462 464 467 
f 460 464 468 
f 466 460 468 
f 464 466 468 
f 465 460 469 
f 466 465 469 
o convex_18
v 0.005680 -0.002608 0.033002
v 0.018537 0.009535 0.034431
v 0.018537 -0.002608 0.034431
v 0.018537 0.009535 0.028717
v 0.005680 0.009535 0.034431
v 0.018537 -0.002608 0.028717
v 0.005680 -0.002608 0.034431
v 0.005680 0.009535 0.033002
v 0.017106 0.009535 0.028717
v 0.017106 -0.002608 0.028717
f 478 475 479 
f 471 472 473 
f 472 471 474 
f 471 473 474 
f 472 470 475 
f 473 472 475 
f 470 472 476 
f 474 470 476 
f 472 474 476 
f 470 474 477 
f 474 473 477 
f 473 475 478 
f 470 477 478 
f 477 473 478 
f 475 470 479 
f 470 478 479 
o convex_19
v -0.030035 0.030244 -0.001283
v -0.042176 -0.016889 -0.006283
v -0.036462 -0.016889 -0.006283
v -0.030035 0.030244 -0.006283
v -0.042176 0.030244 -0.006283
v -0.040747 -0.016889 -0.001283
v -0.030035 -0.009747 -0.001283
v -0.040747 0.030244 -0.001283
v -0.030035 -0.009747 -0.006283
v -0.041462 0.010244 -0.001283
v -0.034321 -0.016889 -0.001283
v -0.042176 -0.016889 -0.004140
v -0.042176 0.030244 -0.004140
f 484 491 492 
f 482 481 483 
f 480 483 484 
f 483 481 484 
f 481 482 485 
f 483 480 486 
f 480 485 486 
f 480 484 487 
f 485 480 487 
f 482 483 488 
f 483 486 488 
f 485 487 489 
f 485 482 490 
f 486 485 490 
f 482 488 490 
f 488 486 490 
f 484 481 491 
f 481 485 491 
f 485 489 491 
f 491 489 492 
f 487 484 492 
f 489 487 492 
o convex_20
v 0.040676 0.028099 0.021572
v 0.029252 -0.006887 0.023717
v 0.029252 -0.006887 0.024431
v 0.048537 -0.016171 0.015145
v 0.048537 -0.011889 0.024431
v 0.037826 0.029526 0.015145
v 0.048537 0.025956 0.024431
v 0.048537 0.029526 0.015145
v 0.037826 -0.015459 0.015145
v 0.029252 0.020242 0.024431
v 0.034966 0.010248 0.015145
v 0.037826 -0.013316 0.023001
v 0.036395 0.025956 0.023717
v 0.029252 0.020242 0.023717
v 0.044250 -0.016171 0.018004
v 0.033539 0.026671 0.019432
v 0.034966 0.003823 0.015145
v 0.035683 -0.014743 0.017289
v 0.032110 -0.009746 0.024431
v 0.045679 0.029526 0.018004
v 0.047820 -0.012600 0.024431
v 0.038539 0.025956 0.024431
f 505 502 514 
f 497 496 499 
f 495 497 499 
f 496 498 500 
f 499 496 500 
f 498 496 501 
f 494 495 502 
f 495 499 502 
f 498 501 503 
f 494 502 506 
f 503 494 506 
f 501 496 507 
f 493 498 508 
f 498 503 508 
f 505 493 508 
f 502 505 508 
f 506 502 508 
f 503 506 508 
f 494 503 509 
f 503 501 509 
f 495 494 510 
f 501 507 510 
f 507 504 510 
f 494 509 510 
f 509 501 510 
f 497 495 511 
f 495 510 511 
f 510 504 511 
f 498 493 512 
f 493 499 512 
f 500 498 512 
f 499 500 512 
f 496 497 513 
f 507 496 513 
f 504 507 513 
f 497 511 513 
f 511 504 513 
f 499 493 514 
f 502 499 514 
f 493 505 514 
o convex_21
v -0.030034 0.030244 -0.001283
v -0.045031 0.000251 0.004430
v -0.045031 0.000251 0.005145
v -0.030034 -0.016889 0.005145
v -0.040032 -0.016889 -0.001283
v -0.030034 0.030244 0.005145
v -0.040032 0.030244 -0.001283
v -0.030034 -0.009747 -0.001283
v -0.037178 0.030244 0.005145
v -0.045031 0.010244 0.001574
v -0.037178 -0.016889 0.005145
v -0.045031 0.013104 0.005145
v -0.033608 -0.016889 -0.001283
v -0.042176 0.003822 -0.001283
v -0.045031 0.003822 0.001574
v -0.040032 0.030244 0.000146
v -0.040032 -0.016889 0.000146
f 519 525 531 
f 517 516 519 
f 517 518 520 
f 518 515 520 
f 515 519 521 
f 520 515 521 
f 515 518 522 
f 519 515 522 
f 517 520 523 
f 520 521 523 
f 516 517 524 
f 518 517 525 
f 519 518 525 
f 517 523 526 
f 521 524 526 
f 524 517 526 
f 518 519 527 
f 522 518 527 
f 519 522 527 
f 521 519 528 
f 524 521 528 
f 524 528 529 
f 519 516 529 
f 516 524 529 
f 528 519 529 
f 523 521 530 
f 526 523 530 
f 521 526 530 
f 517 519 531 
f 525 517 531 
o convex_22
v -0.033608 0.028814 0.018002
v -0.045031 -0.016174 0.005860
v -0.036465 -0.016889 0.005145
v -0.045031 0.029529 0.005145
v -0.045031 -0.015459 0.018002
v -0.030034 0.030244 0.005145
v -0.032179 -0.014744 0.018002
v -0.045031 0.028814 0.018002
v -0.030034 -0.016889 0.005145
v -0.030034 0.030244 0.012287
v -0.030034 -0.016889 0.012287
v -0.030034 0.010244 0.014431
v -0.032179 0.028099 0.018002
v -0.043604 0.030244 0.014431
v -0.045031 -0.015459 0.005145
v -0.042889 -0.016889 0.013716
v -0.039319 -0.016174 0.018002
v -0.044318 0.030244 0.007289
v -0.037890 0.029529 0.018002
f 541 545 550 
f 535 533 536 
f 534 535 537 
f 532 536 538 
f 536 532 539 
f 535 536 539 
f 534 537 540 
f 540 537 541 
f 534 540 542 
f 540 541 542 
f 542 541 543 
f 538 542 543 
f 538 543 544 
f 532 538 544 
f 541 532 544 
f 543 541 544 
f 541 537 545 
f 534 533 546 
f 535 534 546 
f 533 535 546 
f 533 534 547 
f 536 533 547 
f 534 542 547 
f 547 542 548 
f 538 536 548 
f 542 538 548 
f 536 547 548 
f 537 535 549 
f 535 539 549 
f 545 537 549 
f 539 545 549 
f 539 532 550 
f 532 541 550 
f 545 539 550 
o convex_23
v 0.044964 0.030244 -0.003426
v 0.029252 -0.009747 -0.006283
v 0.039251 -0.016889 -0.006283
v 0.037110 -0.016889 -0.000569
v 0.029252 0.030244 -0.000569
v 0.029252 0.030244 -0.006283
v 0.045680 0.003822 -0.000569
v 0.045680 -0.016889 -0.006283
v 0.045680 0.030244 -0.006283
v 0.029252 -0.009747 -0.000569
v 0.043536 0.030244 -0.000569
v 0.043536 -0.016889 -0.000569
v 0.045680 0.010244 -0.000569
f 561 557 563 
f 552 553 554 
f 552 555 556 
f 553 552 556 
f 555 551 556 
f 555 554 557 
f 554 553 558 
f 553 556 558 
f 557 558 559 
f 556 551 559 
f 558 556 559 
f 552 554 560 
f 554 555 560 
f 555 552 560 
f 551 555 561 
f 555 557 561 
f 557 554 562 
f 554 558 562 
f 558 557 562 
f 557 559 563 
f 559 551 563 
f 551 561 563 
o convex_24
v 0.032108 -0.016889 0.005145
v 0.030681 0.030244 0.015145
v 0.033537 0.010244 0.013716
v 0.033537 0.030244 -0.000569
v 0.029252 0.030244 -0.000569
v 0.029252 -0.016889 0.015145
v 0.029252 -0.009747 -0.000569
v 0.033537 -0.009747 -0.000569
v 0.033537 -0.016889 0.012287
v 0.029252 0.030244 0.015145
v 0.033537 0.030244 0.012287
v 0.030681 -0.016889 0.015145
v 0.029252 -0.016889 0.008002
v 0.033537 -0.016889 0.004432
f 571 572 577 
f 565 567 568 
f 568 567 570 
f 569 568 570 
f 567 566 571 
f 570 567 571 
f 569 564 572 
f 571 566 572 
f 565 568 573 
f 569 565 573 
f 568 569 573 
f 565 566 574 
f 566 567 574 
f 567 565 574 
f 566 565 575 
f 565 569 575 
f 569 572 575 
f 572 566 575 
f 564 569 576 
f 570 564 576 
f 569 570 576 
f 564 570 577 
f 570 571 577 
f 572 564 577 
o convex_25
v 0.034252 -0.016889 0.002289
v 0.042823 0.029529 0.015145
v 0.042823 0.030244 0.014430
v 0.042823 -0.016889 -0.000569
v 0.033537 0.030244 -0.000569
v 0.034252 0.003822 0.015145
v 0.042823 -0.016174 0.015145
v 0.042823 0.030244 -0.000569
v 0.033537 0.030244 0.011574
v 0.033537 -0.016889 0.011574
v 0.033537 -0.009747 -0.000569
v 0.038536 0.029529 0.015145
v 0.038536 -0.016174 0.015145
v 0.033537 0.010244 0.014430
v 0.036396 -0.016889 -0.000569
v 0.042823 -0.016889 0.013716
f 590 587 593 
f 580 579 581 
f 581 579 584 
f 579 583 584 
f 580 581 585 
f 581 582 585 
f 582 580 585 
f 580 582 586 
f 578 581 587 
f 586 582 587 
f 582 581 588 
f 578 587 588 
f 587 582 588 
f 579 580 589 
f 583 579 589 
f 580 586 589 
f 584 583 590 
f 583 587 590 
f 587 583 591 
f 586 587 591 
f 583 589 591 
f 589 586 591 
f 581 578 592 
f 578 588 592 
f 588 581 592 
f 581 584 593 
f 587 581 593 
f 584 590 593 
o convex_26
v 0.043538 0.000251 -0.000569
v 0.048537 0.029529 0.015145
v 0.048537 0.029529 0.005145
v 0.048537 -0.016174 0.015145
v 0.042823 0.029529 0.015145
v 0.042823 -0.016174 0.015145
v 0.048537 -0.015459 0.005145
v 0.042823 0.013104 -0.000569
v 0.048537 0.010244 0.001575
v 0.042823 -0.016889 0.010145
v 0.042823 0.030244 0.010145
v 0.046394 0.010244 -0.000569
v 0.046394 0.003822 -0.000569
v 0.042823 0.000251 -0.000569
v 0.047108 -0.016174 0.005862
v 0.046394 0.030244 0.006574
f 601 604 609 
f 596 595 597 
f 597 595 598 
f 597 598 599 
f 596 597 600 
f 599 598 601 
f 596 600 602 
f 597 599 603 
f 599 601 603 
f 598 595 604 
f 601 598 604 
f 594 601 605 
f 601 596 605 
f 596 602 605 
f 605 602 606 
f 600 594 606 
f 602 600 606 
f 594 605 606 
f 594 600 607 
f 601 594 607 
f 603 601 607 
f 603 607 608 
f 600 597 608 
f 597 603 608 
f 607 600 608 
f 595 596 609 
f 596 601 609 
f 604 595 609 
