o convex_0
v -0.004732 -0.021646 0.015301
v 0.018578 -0.010405 0.015575
v 0.018578 -0.010954 0.015575
v -0.005830 -0.010680 0.017221
v -0.020093 -0.010405 0.015301
v 0.006783 -0.019178 0.015850
v 0.004315 -0.010405 0.017221
v 0.017753 -0.012325 0.015301
v -0.014055 -0.017807 0.015575
v -0.004183 -0.020275 0.015850
v 0.012540 -0.017807 0.015575
v -0.016523 -0.010405 0.016124
v 0.004587 -0.021372 0.015301
v 0.001847 -0.011502 0.017221
f 4 10 14 
f 3 2 7 
f 2 5 7 
f 2 3 8 
f 1 5 8 
f 5 2 8 
f 5 1 9 
f 9 1 10 
f 4 9 10 
f 7 6 11 
f 3 7 11 
f 8 3 11 
f 4 7 12 
f 7 5 12 
f 9 4 12 
f 5 9 12 
f 1 8 13 
f 10 1 13 
f 6 10 13 
f 11 6 13 
f 8 11 13 
f 7 4 14 
f 6 7 14 
f 10 6 14 
o convex_1
v -0.020641 0.009618 0.015301
v 0.000200 0.021959 0.015575
v 0.000200 0.021959 0.015301
v 0.019127 0.009618 0.015301
v 0.001847 0.009618 0.017495
v -0.014331 0.017569 0.015575
v 0.012816 0.017569 0.015575
v -0.003362 0.009893 0.017495
v 0.015561 0.009893 0.016124
v -0.017076 0.009618 0.016124
v -0.008025 0.020861 0.015575
v -0.011314 0.019490 0.015301
v 0.006510 0.020861 0.015575
f 19 21 27 
f 15 17 18 
f 15 18 19 
f 18 17 21 
f 19 16 22 
f 19 18 23 
f 18 21 23 
f 21 19 23 
f 15 19 24 
f 20 15 24 
f 19 22 24 
f 22 20 24 
f 16 17 25 
f 22 16 25 
f 20 22 25 
f 17 15 26 
f 15 20 26 
f 25 17 26 
f 20 25 26 
f 17 16 27 
f 16 19 27 
f 21 17 27 
o convex_2
v -0.036821 -0.009581 -0.024744
v -0.025580 -0.009581 -0.032694
v -0.025580 -0.010404 -0.032694
v -0.039563 -0.009581 -0.016788
v -0.039014 -0.010404 -0.021178
v -0.039563 -0.010404 -0.016788
v -0.028597 -0.010404 -0.032420
f 30 32 34 
f 30 29 31 
f 29 28 31 
f 31 28 32 
f 32 30 33 
f 30 31 33 
f 31 32 33 
f 28 29 34 
f 29 30 34 
f 32 28 34 
o convex_3
v -0.036547 -0.009581 -0.000879
v -0.026676 -0.009855 0.015301
v -0.026676 -0.010404 0.015301
v -0.039564 -0.009581 -0.016788
v -0.039564 -0.010404 -0.011300
v -0.030516 -0.010404 0.011733
v -0.039564 -0.010404 -0.016788
v -0.026676 -0.009581 0.014201
v -0.029145 -0.009581 0.014478
f 42 35 43 
f 35 38 39 
f 39 37 40 
f 35 39 40 
f 39 38 41 
f 37 39 41 
f 36 37 42 
f 38 35 42 
f 37 41 42 
f 41 38 42 
f 37 36 43 
f 40 37 43 
f 35 40 43 
f 36 42 43 
o convex_4
v 0.026527 -0.010404 -0.032421
v -0.009391 -0.009855 -0.034066
v -0.009391 -0.009581 -0.034066
v -0.025573 -0.009581 -0.032695
v 0.026527 -0.009581 -0.032147
v -0.025573 -0.010404 -0.032695
v 0.016653 -0.010404 -0.033792
v 0.021039 -0.009581 -0.033518
v -0.018168 -0.010404 -0.033792
f 50 49 52 
f 46 47 48 
f 44 48 49 
f 48 47 49 
f 45 46 50 
f 44 49 50 
f 48 44 51 
f 46 48 51 
f 50 46 51 
f 44 50 51 
f 46 45 52 
f 47 46 52 
f 49 47 52 
f 45 50 52 
o convex_5
v 0.027630 -0.009581 -0.032146
v 0.041616 -0.009581 -0.012127
v 0.041340 -0.009581 -0.011852
v 0.037501 -0.010404 -0.021180
v 0.033390 -0.009855 -0.011852
v 0.026532 -0.010404 -0.031871
v 0.037501 -0.010404 -0.010480
v 0.033390 -0.009581 -0.011852
v 0.036402 -0.009581 -0.023366
f 56 53 61 
f 55 54 53 
f 53 56 58 
f 57 58 59 
f 54 55 59 
f 56 54 59 
f 58 56 59 
f 55 53 60 
f 53 58 60 
f 58 57 60 
f 57 59 60 
f 59 55 60 
f 53 54 61 
f 54 56 61 
o convex_6
v 0.002121 -0.009581 0.017495
v -0.025304 -0.010129 0.013107
v -0.025304 -0.009581 0.013107
v 0.023789 -0.009581 0.013107
v 0.018849 -0.010404 0.015575
v -0.012137 -0.010404 0.016672
v 0.023510 -0.010404 0.013107
v -0.020638 -0.009581 0.015575
v -0.025025 -0.010404 0.013656
v 0.004860 -0.010404 0.017220
v 0.019123 -0.009581 0.015575
f 71 66 72 
f 63 64 65 
f 64 62 65 
f 63 65 68 
f 65 66 68 
f 66 67 68 
f 62 64 69 
f 67 62 69 
f 67 69 70 
f 64 63 70 
f 63 68 70 
f 68 67 70 
f 69 64 70 
f 67 66 71 
f 62 67 71 
f 65 62 72 
f 66 65 72 
f 62 71 72 
o convex_7
v 0.027630 -0.009856 0.014476
v 0.037774 -0.009581 -0.009382
v 0.037500 -0.009581 -0.008009
v 0.033385 -0.017534 -0.003893
v 0.023789 -0.013421 0.013103
v 0.024066 -0.017534 0.013926
v 0.025163 -0.009581 0.013653
v 0.037226 -0.010130 -0.010480
v 0.032838 -0.017534 -0.004443
v 0.033385 -0.011501 0.002138
v 0.029551 -0.015888 0.006246
v 0.023789 -0.017534 0.012828
v 0.023789 -0.012872 0.015298
v 0.033660 -0.009581 0.002411
v 0.035855 -0.012050 -0.004443
v 0.026534 -0.014242 0.013378
f 83 82 88 
f 75 74 79 
f 79 74 80 
f 74 76 80 
f 77 79 80 
f 77 80 81 
f 76 78 81 
f 80 76 81 
f 78 76 83 
f 76 82 83 
f 77 81 84 
f 81 78 84 
f 78 73 85 
f 79 77 85 
f 73 79 85 
f 77 84 85 
f 84 78 85 
f 79 73 86 
f 75 79 86 
f 73 82 86 
f 86 82 87 
f 74 75 87 
f 76 74 87 
f 82 76 87 
f 75 86 87 
f 73 78 88 
f 82 73 88 
f 78 83 88 
o convex_8
v -0.005283 -0.002998 0.018592
v 0.000476 0.005229 0.018867
v 0.000476 0.005229 0.018592
v 0.003768 -0.002998 0.018867
v -0.005283 0.000840 0.022157
v 0.003219 -0.002449 0.022157
v 0.003219 0.002486 0.022157
v -0.002264 -0.004369 0.022157
v -0.005283 0.003035 0.018592
v -0.001991 0.004406 0.022157
v 0.000476 -0.005193 0.018592
v 0.004316 0.001937 0.018592
f 92 99 100 
f 93 94 95 
f 93 89 96 
f 94 93 96 
f 91 89 97 
f 89 93 97 
f 97 93 98 
f 90 91 98 
f 95 90 98 
f 93 95 98 
f 91 97 98 
f 89 91 99 
f 92 94 99 
f 96 89 99 
f 94 96 99 
f 91 90 100 
f 94 92 100 
f 90 95 100 
f 95 94 100 
f 99 91 100 
o convex_9
v 0.003767 0.006052 0.026819
v -0.008025 -0.001902 0.025447
v -0.008025 -0.001902 0.026819
v 0.003493 -0.006289 0.025448
v 0.003493 0.001114 0.021609
v -0.004733 0.006051 0.024900
v -0.005005 -0.002450 0.022158
v 0.005687 -0.002449 0.027368
v -0.003909 0.003857 0.027916
v -0.003087 -0.006837 0.027094
v -0.001718 0.004679 0.022158
v 0.000473 -0.004642 0.022158
v 0.006511 0.001388 0.025174
v -0.007475 0.003583 0.025447
v -0.003909 -0.006837 0.025447
v -0.000348 -0.001079 0.028191
v 0.002394 0.006325 0.024627
v -0.003087 0.007148 0.026819
v -0.005281 0.001664 0.022158
v 0.005687 -0.002449 0.024352
v 0.004316 0.003856 0.027642
v 0.001846 -0.005740 0.027641
v -0.004733 -0.002998 0.027916
v -0.006925 0.003035 0.027368
v 0.003493 -0.001352 0.021609
v 0.000473 -0.007387 0.025447
v -0.000073 0.007423 0.025447
v 0.005961 0.003582 0.025448
v 0.000749 0.006051 0.027642
v 0.006511 0.001935 0.026819
v -0.006925 -0.004366 0.025447
f 115 110 131 
f 102 103 114 
f 107 112 115 
f 105 111 117 
f 106 114 118 
f 107 102 119 
f 111 105 119 
f 106 111 119 
f 102 114 119 
f 114 106 119 
f 108 104 120 
f 113 108 120 
f 116 108 121 
f 104 108 122 
f 108 116 122 
f 122 116 123 
f 103 110 123 
f 116 109 123 
f 110 122 123 
f 114 103 124 
f 109 118 124 
f 118 114 124 
f 103 123 124 
f 123 109 124 
f 104 112 125 
f 112 107 125 
f 105 113 125 
f 107 119 125 
f 119 105 125 
f 120 104 125 
f 113 120 125 
f 112 104 126 
f 110 115 126 
f 115 112 126 
f 104 122 126 
f 122 110 126 
f 111 106 127 
f 101 117 127 
f 117 111 127 
f 118 101 127 
f 106 118 127 
f 113 105 128 
f 117 101 128 
f 105 117 128 
f 109 116 129 
f 101 118 129 
f 118 109 129 
f 121 101 129 
f 116 121 129 
f 108 113 130 
f 101 121 130 
f 121 108 130 
f 113 128 130 
f 128 101 130 
f 103 102 131 
f 102 107 131 
f 110 103 131 
f 107 115 131 
o convex_10
v 0.044633 -0.008207 -0.006640
v 0.044633 0.000840 -0.002526
v 0.044633 0.002485 -0.002801
v 0.038873 0.000292 -0.005544
v 0.044633 0.006052 -0.004721
v 0.038873 -0.008483 -0.008834
v 0.044633 -0.008483 -0.008834
v 0.044358 -0.004916 -0.003623
v 0.038873 -0.003822 -0.005544
f 139 133 140 
f 134 133 132 
f 133 134 135 
f 134 132 136 
f 135 134 136 
f 135 136 137 
f 137 136 138 
f 136 132 138 
f 132 137 138 
f 132 133 139 
f 137 132 139 
f 137 139 140 
f 133 135 140 
f 135 137 140 
o convex_11
v 0.056152 -0.001352 0.002411
v 0.044633 -0.004092 -0.003349
v 0.045457 -0.005740 -0.003349
v 0.053683 0.004405 -0.003349
v 0.048474 0.004405 0.002411
v 0.046828 0.006874 -0.003349
v 0.049570 -0.005466 0.002411
v 0.052311 -0.006289 -0.003349
v 0.053407 0.005503 0.002411
v 0.044633 0.001113 -0.002251
v 0.047651 -0.001900 0.002411
v 0.053957 -0.005190 0.002411
v 0.054231 -0.002723 -0.003349
v 0.048473 -0.007387 -0.002800
v 0.050939 0.007148 -0.003349
v 0.055876 0.002210 0.001587
v 0.044633 0.004128 -0.003074
v 0.050392 0.006051 0.002136
f 149 155 158 
f 143 142 144 
f 144 142 146 
f 141 145 147 
f 143 144 148 
f 145 141 149 
f 142 143 151 
f 143 147 151 
f 147 145 151 
f 150 142 151 
f 145 150 151 
f 141 147 152 
f 148 141 152 
f 148 144 153 
f 141 148 153 
f 147 143 154 
f 143 148 154 
f 152 147 154 
f 148 152 154 
f 144 146 155 
f 149 144 155 
f 149 141 156 
f 144 149 156 
f 141 153 156 
f 153 144 156 
f 146 142 157 
f 145 146 157 
f 142 150 157 
f 150 145 157 
f 146 145 158 
f 145 149 158 
f 155 146 158 
o convex_12
v 0.048474 -0.004094 0.002411
v 0.052589 0.005777 0.002960
v 0.052589 0.005777 0.002411
v 0.060814 -0.001900 0.010090
v 0.050943 0.001937 0.010088
v 0.055874 -0.002723 0.002411
v 0.055327 -0.004368 0.010088
v 0.059443 0.003308 0.009816
v 0.048201 0.003582 0.002411
v 0.052861 -0.005740 0.002411
v 0.056149 0.001937 0.002411
v 0.050395 -0.001901 0.009266
v 0.053683 0.004131 0.010088
v 0.049846 -0.005465 0.002960
v 0.049298 0.005228 0.002686
v 0.047651 0.000840 0.002686
v 0.061089 0.000840 0.009816
v 0.059168 -0.003546 0.009816
v 0.052039 -0.003271 0.010088
v 0.055327 0.003856 0.002411
v 0.057520 0.004131 0.010088
f 175 166 179 
f 159 161 164 
f 161 159 167 
f 159 164 168 
f 164 161 169 
f 163 162 171 
f 159 168 172 
f 168 165 172 
f 170 159 172 
f 160 161 173 
f 161 167 173 
f 167 163 173 
f 163 171 173 
f 171 160 173 
f 167 159 174 
f 163 167 174 
f 159 170 174 
f 170 163 174 
f 162 164 175 
f 164 169 175 
f 164 162 176 
f 162 165 176 
f 168 164 176 
f 165 168 176 
f 162 163 177 
f 165 162 177 
f 163 170 177 
f 172 165 177 
f 170 172 177 
f 161 166 178 
f 169 161 178 
f 166 175 178 
f 175 169 178 
f 161 160 179 
f 166 161 179 
f 171 162 179 
f 160 171 179 
f 162 175 179 
o convex_13
v 0.053962 -0.004096 0.010090
v 0.058347 0.004132 0.012010
v 0.058347 0.004132 0.011735
v 0.068490 -0.001352 0.014752
v 0.055607 -0.000803 0.014478
v 0.061359 0.000567 0.010090
v 0.051491 0.002486 0.010090
v 0.066021 0.003034 0.014752
v 0.059991 -0.003820 0.014203
v 0.056427 0.002760 0.014203
v 0.058619 -0.003821 0.010090
v 0.059169 0.003583 0.010090
v 0.068218 0.001663 0.014203
v 0.052314 -0.002449 0.011461
v 0.064927 -0.003272 0.014752
v 0.053138 0.000291 0.013107
v 0.067395 -0.001626 0.013655
v 0.053962 0.004132 0.010365
v 0.061362 0.003308 0.014752
f 184 194 198 
f 185 180 186 
f 182 181 187 
f 180 185 190 
f 188 180 190 
f 185 186 191 
f 182 187 191 
f 191 187 192 
f 187 183 192 
f 185 191 192 
f 186 180 193 
f 180 188 193 
f 188 184 193 
f 183 187 194 
f 184 188 194 
f 188 190 194 
f 189 186 195 
f 184 189 195 
f 186 193 195 
f 193 184 195 
f 190 185 196 
f 192 183 196 
f 185 192 196 
f 183 194 196 
f 194 190 196 
f 181 182 197 
f 189 181 197 
f 186 189 197 
f 182 191 197 
f 191 186 197 
f 187 181 198 
f 181 189 198 
f 189 184 198 
f 194 187 198 
o convex_14
v 0.038873 0.006875 -0.014045
v 0.036404 0.009618 -0.004995
v 0.036131 0.009618 -0.004995
v 0.037502 0.000018 -0.004995
v 0.033388 0.009342 -0.012124
v 0.033388 0.000018 -0.006092
v 0.038873 0.000018 -0.010205
v 0.038873 0.009618 -0.010479
v 0.038873 0.003584 -0.005544
v 0.033388 0.006600 -0.007464
v 0.038599 0.009618 -0.014045
f 206 199 209 
f 200 201 202 
f 202 201 204 
f 203 199 205 
f 204 203 205 
f 202 204 205 
f 201 200 206 
f 205 199 206 
f 205 206 207 
f 200 202 207 
f 202 205 207 
f 206 200 207 
f 201 203 208 
f 204 201 208 
f 203 204 208 
f 199 203 209 
f 203 201 209 
f 201 206 209 
o convex_15
v -0.015981 -0.023292 -0.032969
v -0.028867 -0.010954 -0.032147
v -0.028319 -0.010954 -0.032421
v -0.015981 -0.010405 -0.033518
v -0.015981 -0.024663 -0.031872
v -0.022288 -0.010954 -0.033518
v -0.028044 -0.010405 -0.031872
v -0.024205 -0.018356 -0.032421
v -0.020917 -0.022469 -0.031872
v -0.015981 -0.013148 -0.033792
v -0.022013 -0.015890 -0.033243
f 219 210 220 
f 210 213 214 
f 213 215 216 
f 212 211 216 
f 214 213 216 
f 215 212 216 
f 211 212 217 
f 210 214 218 
f 216 211 218 
f 214 216 218 
f 211 217 218 
f 217 210 218 
f 213 210 219 
f 215 213 219 
f 215 219 220 
f 212 215 220 
f 217 212 220 
f 210 217 220 
o convex_16
v -0.004733 -0.028502 -0.032695
v 0.014464 -0.010407 -0.033517
v 0.014464 -0.024936 -0.031872
v -0.015979 -0.024936 -0.031872
v -0.015979 -0.010407 -0.033791
v 0.007604 -0.022468 -0.033517
v -0.014605 -0.019733 -0.033517
v 0.003492 -0.012329 -0.034066
v 0.004314 -0.029600 -0.031872
v 0.014187 -0.023564 -0.032969
v -0.015979 -0.010407 -0.033517
v -0.005007 -0.019733 -0.033791
v 0.014464 -0.013424 -0.033791
v 0.004040 -0.027404 -0.032969
v -0.015979 -0.023291 -0.032969
v -0.004184 -0.026034 -0.033243
v -0.010219 -0.028502 -0.031872
v -0.008297 -0.010407 -0.034066
v 0.012268 -0.027132 -0.032146
f 234 230 239 
f 223 222 224 
f 223 224 229 
f 224 222 231 
f 225 224 231 
f 222 225 231 
f 228 226 232 
f 222 223 233 
f 226 228 233 
f 228 222 233 
f 223 230 233 
f 230 226 233 
f 229 221 234 
f 226 230 234 
f 224 225 235 
f 225 227 235 
f 235 227 236 
f 232 226 236 
f 227 232 236 
f 234 221 236 
f 226 234 236 
f 221 235 236 
f 229 224 237 
f 221 229 237 
f 235 221 237 
f 224 235 237 
f 225 222 238 
f 227 225 238 
f 222 228 238 
f 232 227 238 
f 228 232 238 
f 223 229 239 
f 230 223 239 
f 229 234 239 
o convex_17
v 0.049295 -0.007112 -0.003349
v 0.044633 -0.009307 -0.010480
v 0.044633 -0.009032 -0.010480
v 0.049295 -0.006838 -0.010480
v 0.044633 -0.003273 -0.003349
v 0.044633 -0.007660 -0.005543
v 0.049295 -0.007934 -0.004721
f 240 245 246 
f 241 242 243 
f 240 243 244 
f 242 241 244 
f 243 242 244 
f 240 244 245 
f 244 241 245 
f 241 243 246 
f 243 240 246 
f 245 241 246 
o convex_18
v 0.024337 -0.012600 -0.032969
v 0.014467 -0.025761 -0.032147
v 0.014740 -0.025761 -0.032147
v 0.026529 -0.010405 -0.031872
v 0.014467 -0.010405 -0.033518
v 0.014740 -0.018356 -0.033518
v 0.014467 -0.024663 -0.031872
v 0.022143 -0.019727 -0.032147
v 0.020773 -0.010405 -0.033518
v 0.018305 -0.020549 -0.032969
f 255 247 256 
f 248 251 252 
f 249 248 252 
f 248 249 253 
f 250 251 253 
f 251 248 253 
f 247 250 254 
f 253 249 254 
f 250 253 254 
f 250 247 255 
f 251 250 255 
f 252 251 255 
f 252 255 256 
f 249 252 256 
f 247 254 256 
f 254 249 256 
o convex_19
v -0.058214 -0.001078 -0.008831
v -0.049987 0.000292 -0.009383
v -0.049987 -0.000255 -0.009383
v -0.055200 0.001938 0.001039
v -0.057391 -0.004644 0.001039
v -0.060134 0.004132 -0.000060
v -0.049987 0.004681 -0.014044
v -0.049987 -0.004095 -0.015142
v -0.060134 -0.003821 -0.001980
v -0.055747 0.002759 -0.011301
v -0.061505 0.001115 0.001039
v -0.056843 0.004406 0.001039
v -0.049987 -0.003271 -0.010205
v -0.050537 0.000840 -0.016239
v -0.060408 0.001938 -0.004447
v -0.056843 -0.004369 -0.008009
v -0.055200 -0.001901 0.001039
v -0.049987 0.004132 -0.011028
v -0.056843 0.004681 -0.006641
v -0.053554 -0.001901 -0.013768
v -0.049987 -0.004644 -0.012124
v -0.059311 -0.004644 0.001039
v -0.060408 -0.001901 -0.004447
v -0.059037 0.004681 0.001039
v -0.057391 0.004132 -0.007735
v -0.061230 -0.002450 0.001039
f 267 279 282 
f 259 258 260 
f 258 259 263 
f 263 259 264 
f 261 260 267 
f 267 260 268 
f 264 259 269 
f 263 264 270 
f 266 263 270 
f 266 257 271 
f 267 262 271 
f 259 260 273 
f 260 261 273 
f 269 259 273 
f 260 258 274 
f 258 263 274 
f 268 260 274 
f 263 268 274 
f 257 266 276 
f 270 264 276 
f 266 270 276 
f 272 257 276 
f 264 272 276 
f 264 269 277 
f 272 264 277 
f 273 261 277 
f 269 273 277 
f 261 267 278 
f 265 272 278 
f 272 277 278 
f 277 261 278 
f 271 257 279 
f 267 271 279 
f 257 272 279 
f 272 265 279 
f 262 267 280 
f 268 263 280 
f 267 268 280 
f 263 275 280 
f 275 262 280 
f 263 266 281 
f 266 271 281 
f 271 262 281 
f 275 263 281 
f 262 275 281 
f 278 267 282 
f 265 278 282 
f 279 265 282 
o convex_20
v -0.049987 0.004681 -0.014320
v -0.041487 -0.004644 -0.019529
v -0.040938 -0.004644 -0.019529
v -0.049987 -0.003271 -0.010481
v -0.040938 0.000566 -0.012949
v -0.040938 0.004132 -0.020352
v -0.049987 -0.001626 -0.016512
v -0.049712 0.003858 -0.011029
v -0.041212 0.004681 -0.017883
v -0.041212 0.001662 -0.021449
v -0.049987 -0.004644 -0.014320
v -0.040938 -0.004644 -0.017883
v -0.049987 0.003308 -0.015964
v -0.043680 -0.003271 -0.019803
v -0.049987 0.001938 -0.009932
v -0.040938 -0.001078 -0.013223
v -0.049712 -0.004095 -0.011304
v -0.047244 0.000018 -0.018432
v -0.049712 -0.001901 -0.009932
f 298 287 301 
f 287 285 288 
f 286 283 289 
f 287 288 291 
f 288 283 291 
f 283 290 291 
f 290 287 291 
f 285 284 292 
f 288 285 292 
f 284 285 293 
f 286 289 293 
f 285 287 294 
f 293 285 294 
f 283 288 295 
f 289 283 295 
f 288 292 295 
f 292 284 296 
f 284 293 296 
f 293 289 296 
f 283 286 297 
f 290 283 297 
f 287 290 297 
f 294 287 298 
f 294 298 299 
f 286 293 299 
f 293 294 299 
f 298 286 299 
f 289 295 300 
f 295 292 300 
f 292 296 300 
f 296 289 300 
f 297 286 301 
f 287 297 301 
f 286 298 301 
o convex_21
v -0.058488 -0.004644 0.004604
v -0.056022 0.004681 0.004879
v -0.056022 0.004681 0.004604
v -0.051635 -0.001352 0.004604
v -0.061230 0.002487 0.001040
v -0.055199 -0.001901 0.001040
v -0.056843 0.004406 0.001040
v -0.060682 0.001938 0.004879
v -0.060682 -0.003546 0.001040
v -0.057391 -0.004644 0.001040
v -0.051635 0.001388 0.004879
v -0.054925 -0.004369 0.004879
v -0.059585 0.004406 0.003233
v -0.061230 -0.001626 0.003782
v -0.055199 0.001938 0.001040
f 308 312 316 
f 307 306 308 
f 306 307 310 
f 302 310 311 
f 307 305 311 
f 310 307 311 
f 304 303 312 
f 308 304 312 
f 303 309 312 
f 312 309 313 
f 309 302 313 
f 302 311 313 
f 311 305 313 
f 305 312 313 
f 303 304 314 
f 304 308 314 
f 308 306 314 
f 309 303 314 
f 306 309 314 
f 302 309 315 
f 309 306 315 
f 306 310 315 
f 310 302 315 
f 305 307 316 
f 307 308 316 
f 312 305 316 
o convex_22
v -0.060684 -0.000255 0.005428
v -0.034354 0.004681 0.008718
v -0.034354 0.004681 0.007622
v -0.034354 -0.004644 0.007348
v -0.050810 -0.001901 0.009815
v -0.057939 0.004681 0.004879
v -0.034354 -0.004095 0.005702
v -0.058209 -0.004644 0.004879
v -0.053277 0.003307 0.008993
v -0.034354 -0.001901 0.010364
v -0.034354 0.004132 0.005702
v -0.046699 -0.004369 0.008993
v -0.040390 0.001938 0.010364
v -0.056568 -0.002997 0.008169
v -0.049991 -0.000255 0.004879
v -0.057390 0.001661 0.008169
v -0.049712 0.004406 0.008718
v -0.034354 -0.004644 0.008718
v -0.034354 0.003033 0.010090
v -0.052728 -0.004644 0.007895
v -0.057663 0.004132 0.006799
v -0.050810 0.001938 0.009815
v -0.045053 -0.000255 0.010364
v -0.039841 -0.002997 0.010090
f 326 339 340 
f 319 318 320 
f 318 319 322 
f 319 320 323 
f 323 320 324 
f 317 322 324 
f 320 318 326 
f 322 319 327 
f 319 323 327 
f 317 324 330 
f 323 324 331 
f 324 322 331 
f 322 327 331 
f 327 323 331 
f 317 330 332 
f 330 321 332 
f 318 322 333 
f 324 320 334 
f 320 326 334 
f 326 318 335 
f 329 326 335 
f 318 333 335 
f 333 329 335 
f 328 321 336 
f 330 324 336 
f 321 330 336 
f 324 334 336 
f 334 328 336 
f 322 317 337 
f 317 332 337 
f 332 325 337 
f 333 322 337 
f 325 333 337 
f 332 321 338 
f 325 332 338 
f 333 325 338 
f 329 333 338 
f 326 329 339 
f 338 321 339 
f 329 338 339 
f 321 328 340 
f 334 326 340 
f 328 334 340 
f 339 321 340 
o convex_23
v -0.034356 0.006875 0.005700
v -0.039840 -0.000256 -0.007462
v -0.039840 0.003036 -0.007462
v -0.038194 0.009343 -0.007462
v -0.034356 0.000293 0.005427
v -0.032983 0.009618 0.005427
v -0.036548 -0.000256 0.002409
v -0.037371 0.009618 -0.002799
v -0.037644 0.006326 -0.001428
v -0.039291 -0.000256 -0.006914
v -0.039565 0.006600 -0.007188
v -0.039291 0.000568 -0.004719
f 351 343 352 
f 342 343 344 
f 341 345 346 
f 345 341 347 
f 341 346 348 
f 346 344 348 
f 347 341 349 
f 341 348 349 
f 342 344 350 
f 344 346 350 
f 346 345 350 
f 347 342 350 
f 345 347 350 
f 344 343 351 
f 348 344 351 
f 349 348 351 
f 349 351 352 
f 343 342 352 
f 342 347 352 
f 347 349 352 
o convex_24
v 0.038050 -0.009581 -0.014045
v 0.037775 0.000018 -0.004995
v 0.038873 0.000018 -0.005269
v 0.036404 -0.009581 -0.004995
v 0.033388 0.000018 -0.006092
v 0.033388 -0.009581 -0.012124
v 0.038599 -0.000256 -0.010205
v 0.038873 -0.009305 -0.009930
v 0.038873 -0.006838 -0.014045
v 0.033388 -0.006289 -0.007189
v 0.038873 -0.006289 -0.006641
f 356 360 363 
f 355 354 356 
f 354 355 357 
f 356 354 357 
f 353 356 358 
f 358 357 359 
f 357 355 359 
f 356 353 360 
f 360 353 361 
f 353 358 361 
f 358 359 361 
f 359 355 361 
f 355 360 361 
f 356 357 362 
f 358 356 362 
f 357 358 362 
f 355 356 363 
f 360 355 363 
o convex_25
v 0.033388 -0.006563 -0.020627
v 0.038873 -0.007111 -0.014045
v 0.038873 0.000293 -0.020078
v 0.037228 -0.009581 -0.021998
v 0.033388 0.000293 -0.022273
v 0.033388 -0.009581 -0.015966
v 0.038873 -0.009581 -0.015691
v 0.038324 -0.000256 -0.022273
v 0.038873 -0.006563 -0.019804
v 0.036404 -0.009581 -0.022273
f 368 371 373 
f 365 366 368 
f 368 364 369 
f 365 368 369 
f 366 365 370 
f 365 369 370 
f 369 367 370 
f 368 366 371 
f 366 370 372 
f 370 367 372 
f 367 371 372 
f 371 366 372 
f 364 368 373 
f 367 369 373 
f 369 364 373 
f 371 367 373 
o convex_26
v 0.038050 0.003859 -0.022273
v 0.038873 0.009618 -0.014045
v 0.038873 0.009618 -0.015691
v 0.033388 0.009618 -0.015691
v 0.038599 0.000293 -0.020078
v 0.033388 0.000293 -0.022273
v 0.036404 0.009618 -0.022273
v 0.038599 0.007148 -0.014045
v 0.033388 0.006599 -0.020627
v 0.038873 0.007148 -0.019529
v 0.038873 0.000293 -0.021174
v 0.033663 0.000293 -0.021724
f 378 381 385 
f 375 376 377 
f 377 376 380 
f 374 379 380 
f 375 377 381 
f 379 377 382 
f 377 380 382 
f 380 379 382 
f 376 375 383 
f 374 380 383 
f 380 376 383 
f 379 374 384 
f 378 379 384 
f 375 381 384 
f 381 378 384 
f 383 375 384 
f 374 383 384 
f 377 379 385 
f 379 378 385 
f 381 377 385 
o convex_27
v -0.018723 0.022781 -0.032695
v -0.029143 0.009618 -0.032147
v -0.028046 0.009618 -0.032695
v -0.016527 0.009618 -0.033518
v -0.016527 0.024426 -0.031872
v -0.016803 0.017843 -0.033518
v -0.028320 0.009618 -0.031872
v -0.025029 0.018120 -0.031872
v -0.023931 0.012911 -0.033243
v -0.018449 0.009618 -0.033792
v -0.025029 0.017299 -0.032421
f 386 394 396 
f 387 388 389 
f 386 390 391 
f 390 389 391 
f 387 389 392 
f 389 390 392 
f 392 390 393 
f 390 386 393 
f 387 392 393 
f 386 391 394 
f 389 388 395 
f 391 389 395 
f 388 394 395 
f 394 391 395 
f 388 387 396 
f 393 386 396 
f 387 393 396 
f 394 388 396 
o convex_28
v -0.015975 0.018671 -0.033517
v 0.000203 0.029913 -0.031872
v 0.003768 0.029637 -0.031872
v -0.016527 0.009618 -0.033517
v 0.014464 0.009618 -0.033791
v 0.003218 0.023603 -0.033517
v 0.014464 0.024974 -0.031872
v -0.016527 0.024426 -0.031872
v -0.008300 0.010716 -0.034066
v -0.009944 0.026347 -0.032969
v 0.014188 0.023603 -0.032969
v 0.014464 0.009618 -0.033517
v 0.010347 0.017024 -0.033791
v 0.004041 0.027444 -0.032969
v -0.005009 0.019765 -0.033791
v 0.007605 0.009618 -0.034066
v -0.015429 0.026347 -0.032146
v 0.010897 0.027718 -0.032146
v -0.005831 0.029088 -0.032421
v -0.016527 0.012909 -0.033791
f 411 405 416 
f 399 398 403 
f 403 398 404 
f 403 401 407 
f 400 401 408 
f 401 403 408 
f 404 400 408 
f 403 404 408 
f 402 407 409 
f 407 401 409 
f 398 399 410 
f 402 406 410 
f 407 402 410 
f 406 402 411 
f 397 406 411 
f 402 409 411 
f 411 409 412 
f 401 400 412 
f 400 405 412 
f 409 401 412 
f 405 411 412 
f 404 398 413 
f 397 404 413 
f 406 397 413 
f 399 403 414 
f 403 407 414 
f 410 399 414 
f 407 410 414 
f 398 410 415 
f 410 406 415 
f 413 398 415 
f 406 413 415 
f 404 397 416 
f 400 404 416 
f 405 400 416 
f 397 411 416 
o convex_29
v -0.019542 -0.007112 0.015301
v -0.005559 -0.001079 0.018592
v -0.005559 -0.001079 0.018318
v 0.000477 -0.009581 0.017495
v -0.019268 -0.001079 0.015575
v -0.019268 -0.009305 0.015849
v 0.000477 -0.008482 0.017221
v -0.003089 -0.005465 0.018592
v -0.019542 -0.001079 0.016124
v 0.000477 -0.005194 0.018043
v -0.018720 -0.009581 0.015301
v -0.007752 -0.009581 0.017221
v -0.006383 -0.001902 0.018592
v -0.010491 -0.001079 0.016946
f 426 423 430 
f 418 419 421 
f 417 421 423 
f 421 417 425 
f 418 421 425 
f 417 422 425 
f 419 418 426 
f 420 423 426 
f 418 424 426 
f 424 420 426 
f 422 417 427 
f 423 420 427 
f 417 423 427 
f 424 422 428 
f 420 424 428 
f 427 420 428 
f 422 427 428 
f 424 418 429 
f 422 424 429 
f 418 425 429 
f 425 422 429 
f 421 419 430 
f 423 421 430 
f 419 426 430 
o convex_30
v 0.020773 0.021136 -0.031872
v 0.014464 0.009618 -0.033792
v 0.016933 0.009618 -0.033792
v 0.026804 0.009618 -0.031872
v 0.014464 0.024701 -0.031872
v 0.018854 0.017843 -0.033243
v 0.026531 0.009893 -0.032695
v 0.014464 0.021408 -0.033243
v 0.014464 0.009618 -0.033518
v 0.019951 0.021408 -0.032421
f 436 438 440 
f 432 433 434 
f 434 431 435 
f 434 433 437 
f 431 434 437 
f 433 436 437 
f 433 432 438 
f 432 435 438 
f 436 433 438 
f 432 434 439 
f 434 435 439 
f 435 432 439 
f 435 431 440 
f 431 437 440 
f 437 436 440 
f 438 435 440 
o convex_31
v -0.012688 -0.038378 -0.018709
v -0.001993 -0.033442 -0.028307
v -0.002816 -0.033716 -0.028031
v -0.018996 -0.033167 -0.022823
v -0.000620 -0.039475 -0.018983
v -0.008026 -0.037555 -0.023371
v -0.018719 -0.035363 -0.018709
v -0.000620 -0.033167 -0.027757
v -0.018447 -0.033442 -0.024192
v -0.000620 -0.038378 -0.023097
v -0.012688 -0.033442 -0.026660
v -0.007477 -0.039475 -0.019532
v -0.014330 -0.037006 -0.021451
v -0.018996 -0.035911 -0.019257
v -0.007204 -0.036459 -0.025015
v -0.000620 -0.040024 -0.018709
f 452 450 456 
f 447 445 448 
f 444 447 448 
f 443 442 450 
f 448 445 450 
f 442 448 450 
f 442 443 451 
f 448 442 451 
f 444 448 451 
f 449 444 451 
f 446 450 452 
f 451 446 453 
f 449 451 453 
f 452 441 453 
f 446 452 453 
f 447 444 454 
f 441 447 454 
f 444 449 454 
f 453 441 454 
f 449 453 454 
f 443 450 455 
f 450 446 455 
f 451 443 455 
f 446 451 455 
f 447 441 456 
f 445 447 456 
f 450 445 456 
f 441 452 456 
o convex_32
v -0.012413 -0.032893 -0.027210
v -0.018719 -0.023568 -0.031597
v -0.018719 -0.023568 -0.031872
v -0.000620 -0.029600 -0.031872
v -0.018447 -0.032893 -0.023370
v -0.000620 -0.032344 -0.028306
v -0.014330 -0.027135 -0.031872
v -0.018719 -0.024941 -0.029677
v -0.018996 -0.032069 -0.025290
v -0.005009 -0.029876 -0.031872
v -0.000620 -0.033167 -0.028580
v -0.000620 -0.030150 -0.030226
v -0.018996 -0.024391 -0.031872
f 465 464 469 
f 459 458 460 
f 459 460 463 
f 461 462 464 
f 457 461 465 
f 463 457 465 
f 461 464 465 
f 463 460 466 
f 457 463 466 
f 461 457 467 
f 462 461 467 
f 460 462 467 
f 466 460 467 
f 457 466 467 
f 460 458 468 
f 462 460 468 
f 458 464 468 
f 464 462 468 
f 458 459 469 
f 459 463 469 
f 464 458 469 
f 463 465 469 
o convex_33
v -0.031611 -0.022747 -0.003624
v -0.025305 -0.032344 -0.017610
v -0.025030 -0.032344 -0.017610
v -0.034354 -0.022197 -0.018708
v -0.025030 -0.028229 -0.003624
v -0.029419 -0.028503 -0.011575
v -0.025030 -0.031520 -0.018708
v -0.025305 -0.030423 -0.006366
v -0.030788 -0.022197 -0.003350
v -0.033806 -0.023844 -0.014591
v -0.033806 -0.022197 -0.018708
v -0.029694 -0.028503 -0.018158
v -0.034079 -0.022473 -0.010482
v -0.027499 -0.027135 -0.003076
v -0.025305 -0.032344 -0.013496
f 475 481 484 
f 472 471 476 
f 474 472 476 
f 472 474 477 
f 476 473 480 
f 474 476 480 
f 473 478 480 
f 478 474 480 
f 476 471 481 
f 473 476 481 
f 479 473 481 
f 475 479 481 
f 475 470 482 
f 470 478 482 
f 478 473 482 
f 473 479 482 
f 479 475 482 
f 470 475 483 
f 477 474 483 
f 475 477 483 
f 478 470 483 
f 474 478 483 
f 471 472 484 
f 472 477 484 
f 477 475 484 
f 481 471 484 
o convex_34
v -0.031886 -0.017535 0.002412
v -0.025579 -0.028504 -0.002800
v -0.025030 -0.028504 -0.002800
v -0.025305 -0.017810 0.013930
v -0.033257 -0.017810 -0.002800
v -0.031337 -0.022473 -0.002524
v -0.025030 -0.017535 0.013106
v -0.025305 -0.024664 0.004882
v -0.025030 -0.027955 -0.002800
v -0.028321 -0.020279 0.006247
f 492 488 494 
f 487 486 489 
f 485 489 490 
f 489 486 490 
f 485 488 491 
f 489 485 491 
f 486 487 492 
f 490 486 492 
f 487 491 492 
f 491 488 492 
f 487 489 493 
f 491 487 493 
f 489 491 493 
f 488 485 494 
f 485 490 494 
f 490 492 494 
o convex_35
v -0.034354 -0.010404 0.003782
v -0.025030 -0.013695 0.015301
v -0.025030 -0.015613 0.015301
v -0.033530 -0.017259 -0.002526
v -0.036273 -0.010404 -0.002526
v -0.026676 -0.010404 0.013378
v -0.027772 -0.013695 0.014202
v -0.034080 -0.017259 -0.001429
v -0.025030 -0.014517 0.013106
v -0.025304 -0.017534 0.014202
v -0.027772 -0.010404 0.015301
v -0.036548 -0.012324 -0.002526
v -0.031336 -0.015888 0.005703
v -0.029968 -0.010678 0.012556
v -0.025030 -0.017534 0.013378
f 504 502 509 
f 499 495 500 
f 496 497 503 
f 498 499 503 
f 500 496 503 
f 499 500 503 
f 497 501 504 
f 497 496 505 
f 500 495 505 
f 496 500 505 
f 501 497 505 
f 495 499 506 
f 499 498 506 
f 498 502 506 
f 506 502 507 
f 504 501 507 
f 502 504 507 
f 495 506 507 
f 505 495 508 
f 501 505 508 
f 495 507 508 
f 507 501 508 
f 502 498 509 
f 503 497 509 
f 498 503 509 
f 497 504 509 
o convex_36
v 0.007610 -0.039200 -0.019257
v -0.000620 -0.033442 -0.028307
v -0.000620 -0.035088 -0.026934
v 0.016932 -0.033442 -0.024192
v 0.017205 -0.035363 -0.018709
v -0.000071 -0.039475 -0.018709
v 0.005415 -0.037555 -0.023643
v -0.000620 -0.033167 -0.027757
v 0.008978 -0.033442 -0.027208
v -0.000620 -0.039475 -0.020903
v 0.011721 -0.037555 -0.021177
v 0.017205 -0.033167 -0.022823
v 0.016382 -0.036459 -0.018709
v 0.011171 -0.035363 -0.024740
f 520 516 523 
f 511 512 517 
f 515 514 517 
f 512 511 518 
f 516 512 518 
f 511 517 518 
f 510 515 519 
f 512 516 519 
f 516 510 519 
f 517 512 519 
f 515 517 519 
f 510 516 520 
f 514 513 521 
f 517 514 521 
f 513 518 521 
f 518 517 521 
f 513 514 522 
f 514 515 522 
f 515 510 522 
f 510 520 522 
f 520 513 522 
f 516 518 523 
f 518 513 523 
f 513 520 523 
o convex_37
v 0.008703 -0.028777 -0.031872
v 0.017481 -0.023568 -0.031597
v 0.017481 -0.023568 -0.031872
v 0.017481 -0.033167 -0.023370
v -0.000620 -0.030972 -0.029403
v 0.004043 -0.033167 -0.028306
v -0.000620 -0.029600 -0.031872
v 0.016657 -0.032893 -0.025016
v 0.017205 -0.024941 -0.029677
v -0.000620 -0.032618 -0.028032
v 0.017481 -0.024391 -0.031872
v 0.016932 -0.032893 -0.023370
v 0.010073 -0.033167 -0.027210
v -0.000620 -0.033167 -0.028580
v 0.003494 -0.029876 -0.031872
f 537 530 538 
f 526 525 527 
f 526 524 530 
f 525 526 530 
f 528 525 530 
f 527 525 532 
f 525 528 532 
f 532 528 533 
f 528 530 533 
f 524 526 534 
f 526 527 534 
f 531 524 534 
f 527 531 534 
f 527 532 535 
f 532 533 535 
f 533 527 535 
f 527 529 536 
f 524 531 536 
f 531 527 536 
f 529 527 537 
f 527 533 537 
f 533 530 537 
f 530 524 538 
f 524 536 538 
f 536 529 538 
f 529 537 538 
o convex_38
v 0.036677 -0.010404 -0.022548
v 0.021869 -0.019180 -0.031872
v 0.021869 -0.018905 -0.031872
v 0.034210 -0.018905 -0.018708
v 0.032839 -0.018905 -0.023372
v 0.037501 -0.010678 -0.018708
v 0.027630 -0.010404 -0.031872
v 0.027630 -0.010404 -0.030227
v 0.022968 -0.018631 -0.030227
v 0.024339 -0.017259 -0.031872
v 0.033936 -0.012873 -0.025290
v 0.037227 -0.013970 -0.018982
v 0.031468 -0.016710 -0.026111
v 0.034210 -0.019180 -0.020903
f 550 542 552 
f 540 541 545 
f 544 539 546 
f 545 541 546 
f 539 545 546 
f 541 540 547 
f 540 542 547 
f 542 544 547 
f 544 546 547 
f 546 541 547 
f 543 540 548 
f 540 545 548 
f 539 543 549 
f 545 539 549 
f 539 544 550 
f 544 542 550 
f 543 548 551 
f 548 545 551 
f 545 549 551 
f 549 543 551 
f 542 540 552 
f 543 539 552 
f 540 543 552 
f 539 550 552 
o convex_39
v 0.029822 -0.024940 -0.007464
v 0.023789 -0.032070 -0.018159
v 0.023789 -0.031795 -0.018708
v 0.023789 -0.028778 -0.004720
v 0.032290 -0.022197 -0.018708
v 0.027905 -0.028778 -0.012948
v 0.030095 -0.022197 -0.004720
v 0.032564 -0.023568 -0.016511
v 0.024064 -0.030971 -0.008561
v 0.032564 -0.022471 -0.010480
v 0.023789 -0.031246 -0.018708
v 0.028179 -0.028503 -0.018159
v 0.026259 -0.027681 -0.004720
v 0.024338 -0.032070 -0.015962
f 564 558 566 
f 555 554 556 
f 557 556 559 
f 556 554 561 
f 553 558 562 
f 559 553 562 
f 557 559 562 
f 560 557 562 
f 558 560 562 
f 555 556 563 
f 556 557 563 
f 557 555 563 
f 554 555 564 
f 555 557 564 
f 557 560 564 
f 560 558 564 
f 558 553 565 
f 553 559 565 
f 559 556 565 
f 556 561 565 
f 561 558 565 
f 561 554 566 
f 558 561 566 
f 554 564 566 
o convex_40
v 0.037226 -0.010679 -0.007738
v 0.032566 -0.022197 -0.018708
v 0.032566 -0.021646 -0.018708
v 0.030371 -0.022197 -0.004720
v 0.035307 -0.018630 -0.012674
v 0.037776 -0.010405 -0.018708
v 0.035582 -0.010679 -0.004995
v 0.037776 -0.013147 -0.017336
v 0.033938 -0.017259 -0.004995
v 0.032840 -0.022197 -0.011029
v 0.030371 -0.021646 -0.004995
v 0.035307 -0.018630 -0.018708
v 0.038325 -0.010679 -0.013221
v 0.037226 -0.012874 -0.009931
v 0.033389 -0.022197 -0.016511
f 578 571 581 
f 568 569 572 
f 567 572 573 
f 567 573 575 
f 573 570 575 
f 570 568 576 
f 571 575 576 
f 575 570 576 
f 569 568 577 
f 568 570 577 
f 572 569 577 
f 573 572 577 
f 570 573 577 
f 568 572 578 
f 574 571 578 
f 572 574 578 
f 572 567 579 
f 574 572 579 
f 574 579 580 
f 571 574 580 
f 567 575 580 
f 575 571 580 
f 579 567 580 
f 576 568 581 
f 571 576 581 
f 568 578 581 
o convex_41
v 0.024064 -0.020277 0.010637
v 0.023789 -0.029328 -0.004720
v 0.024064 -0.029328 -0.004720
v 0.032838 -0.017534 -0.004720
v 0.029821 -0.022473 -0.002526
v 0.023789 -0.017534 0.012558
v 0.029821 -0.017809 0.003509
v 0.023789 -0.028505 -0.004445
v 0.024612 -0.025762 0.001863
v 0.032838 -0.018907 -0.004445
v 0.027904 -0.025762 -0.004445
v 0.024612 -0.017534 0.012831
v 0.027081 -0.020552 0.005426
f 593 582 594 
f 584 583 585 
f 583 582 587 
f 585 583 589 
f 583 587 589 
f 587 585 589 
f 582 583 590 
f 583 584 590 
f 585 588 591 
f 588 586 591 
f 584 585 592 
f 590 584 592 
f 586 590 592 
f 585 591 592 
f 591 586 592 
f 587 582 593 
f 585 587 593 
f 588 585 593 
f 588 593 594 
f 586 588 594 
f 582 590 594 
f 590 586 594 
o convex_42
v -0.019820 0.007423 0.015849
v -0.031336 -0.002449 0.012832
v -0.031062 -0.005465 0.012832
v -0.029416 -0.004916 0.015301
v -0.019820 -0.009581 0.015300
v -0.025029 0.009618 0.013107
v -0.028320 0.009343 0.015301
v -0.025029 -0.009581 0.013107
v -0.028046 -0.009581 0.015301
v -0.029965 0.009618 0.012832
v -0.019820 0.009618 0.015300
v -0.020094 -0.007386 0.015849
v -0.030513 0.005228 0.014204
v -0.029965 -0.009581 0.012832
f 604 602 608 
f 596 597 598 
f 598 595 601 
f 600 599 602 
f 602 599 603 
f 597 596 604 
f 600 602 604 
f 595 599 605 
f 599 600 605 
f 601 595 605 
f 600 604 605 
f 604 601 605 
f 595 598 606 
f 599 595 606 
f 598 603 606 
f 603 599 606 
f 596 598 607 
f 598 601 607 
f 604 596 607 
f 601 604 607 
f 598 597 608 
f 603 598 608 
f 602 603 608 
f 597 604 608 
o convex_43
v -0.035727 -0.000528 -0.027209
v -0.037646 0.009618 -0.022547
v -0.037370 0.009618 -0.022822
v -0.037646 -0.009581 -0.022547
v -0.032709 -0.009581 -0.027757
v -0.032709 0.009618 -0.028306
v -0.038742 0.006325 -0.023370
v -0.039016 -0.006563 -0.022822
v -0.032984 -0.005740 -0.029129
v -0.036548 -0.009032 -0.025290
v -0.032984 0.005776 -0.029129
v -0.032709 0.009618 -0.027757
v -0.036273 0.009069 -0.025565
v -0.037919 0.000565 -0.025016
v -0.039291 0.003309 -0.022547
f 622 616 623 
f 611 610 612 
f 611 612 613 
f 610 611 614 
f 614 613 617 
f 613 612 618 
f 612 616 618 
f 617 613 618 
f 609 617 618 
f 614 617 619 
f 617 609 619 
f 611 613 620 
f 614 611 620 
f 613 614 620 
f 610 614 621 
f 615 610 621 
f 614 619 621 
f 621 619 622 
f 618 616 622 
f 609 618 622 
f 619 609 622 
f 615 621 622 
f 612 610 623 
f 610 615 623 
f 616 612 623 
f 615 622 623 
o convex_44
v 0.005140 0.000291 0.018592
v 0.000477 -0.009581 0.017221
v 0.001848 -0.009581 0.016946
v 0.001575 0.009618 0.016946
v 0.018578 -0.009581 0.015301
v 0.018578 0.009618 0.015575
v 0.000477 0.005502 0.018592
v 0.001575 -0.005465 0.018592
v 0.018578 -0.007386 0.015849
v 0.017207 0.009618 0.015301
v 0.018027 0.003311 0.016124
v 0.013640 -0.009581 0.016398
v 0.000477 0.009618 0.017495
v 0.017207 -0.009581 0.015301
v 0.013640 0.009618 0.016398
v 0.004591 -0.002723 0.018592
v 0.004044 0.003583 0.018592
f 638 630 640 
f 626 625 627 
f 625 626 628 
f 630 625 631 
f 624 630 631 
f 628 629 632 
f 627 629 633 
f 629 628 633 
f 624 632 634 
f 632 629 634 
f 625 628 635 
f 631 625 635 
f 628 632 635 
f 627 625 636 
f 629 627 636 
f 625 630 636 
f 626 627 637 
f 628 626 637 
f 627 633 637 
f 633 628 637 
f 629 636 638 
f 636 630 638 
f 624 631 639 
f 632 624 639 
f 631 635 639 
f 635 632 639 
f 630 624 640 
f 624 634 640 
f 634 629 640 
f 629 638 640 
o convex_45
v 0.039149 0.006874 -0.006915
v 0.038873 0.000293 -0.005544
v 0.039697 0.000293 -0.005544
v 0.041068 0.008520 -0.009657
v 0.044633 0.006600 -0.004720
v 0.044633 0.008794 -0.009657
v 0.041617 0.000293 -0.004995
v 0.038873 0.008794 -0.009108
v 0.038873 0.003859 -0.005544
f 641 648 649 
f 643 642 644 
f 643 644 646 
f 642 643 647 
f 643 646 647 
f 646 645 647 
f 644 642 648 
f 641 645 648 
f 645 646 648 
f 646 644 648 
f 645 641 649 
f 642 647 649 
f 647 645 649 
f 648 642 649 
o convex_46
v -0.018995 0.032380 -0.025017
v -0.011865 0.038415 -0.018433
v -0.012688 0.038415 -0.018433
v -0.020367 0.022783 -0.030775
v -0.011865 0.027996 -0.031872
v -0.020367 0.034848 -0.018433
v -0.012414 0.036492 -0.023370
v -0.011865 0.027996 -0.030225
v -0.020367 0.023057 -0.031872
v -0.020367 0.034300 -0.021451
v -0.012414 0.037865 -0.018433
v -0.019818 0.023331 -0.030225
v -0.014884 0.026897 -0.031872
v -0.012688 0.033478 -0.026659
f 654 662 663 
f 651 652 655 
f 652 651 656 
f 651 654 656 
f 653 654 657 
f 654 651 657 
f 654 653 658 
f 653 655 658 
f 658 655 659 
f 655 652 659 
f 652 656 659 
f 656 650 659 
f 650 658 659 
f 651 655 660 
f 657 651 660 
f 657 660 661 
f 655 653 661 
f 653 657 661 
f 660 655 661 
f 658 650 662 
f 654 658 662 
f 650 656 663 
f 656 654 663 
f 662 650 663 
o convex_47
v -0.040936 0.004408 -0.013222
v -0.034903 0.018120 -0.006092
v -0.035453 0.018120 -0.006092
v -0.036823 0.018120 -0.018433
v -0.039565 -0.000256 -0.007738
v -0.038467 0.012634 -0.008563
v -0.040662 0.002487 -0.016512
v -0.039290 0.013184 -0.017059
v -0.036550 0.017569 -0.018433
v -0.039565 0.006876 -0.007464
v -0.037098 0.018120 -0.013219
v -0.040936 -0.000256 -0.011029
v -0.039839 0.010166 -0.018433
v -0.039290 0.012909 -0.013219
v -0.038193 0.010714 -0.006092
v -0.040936 0.006601 -0.016512
v -0.034903 0.017843 -0.006915
v -0.040388 0.007149 -0.011304
f 677 679 681 
f 666 665 667 
f 667 665 672 
f 668 670 672 
f 666 667 674 
f 669 666 674 
f 667 671 674 
f 670 668 675 
f 668 673 675 
f 671 667 676 
f 667 672 676 
f 672 670 676 
f 669 674 677 
f 674 671 677 
f 665 666 678 
f 668 665 678 
f 666 669 678 
f 673 668 678 
f 669 673 678 
f 675 664 679 
f 670 675 679 
f 676 670 679 
f 671 676 679 
f 677 671 679 
f 665 668 680 
f 672 665 680 
f 668 672 680 
f 673 669 681 
f 664 675 681 
f 675 673 681 
f 669 677 681 
f 679 664 681 
o convex_48
v -0.029145 0.027992 -0.008835
v -0.036822 0.018122 -0.018433
v -0.036822 0.018670 -0.018433
v -0.028321 0.028815 -0.018433
v -0.034353 0.018396 -0.006092
v -0.033531 0.024153 -0.013769
v -0.028321 0.026621 -0.006092
v -0.035450 0.018396 -0.006641
v -0.029968 0.028266 -0.017882
v -0.036273 0.018122 -0.018433
v -0.032161 0.023331 -0.006092
v -0.036548 0.018944 -0.012127
v -0.028596 0.029636 -0.014592
f 690 687 694 
f 683 684 685 
f 686 685 688 
f 683 686 689 
f 685 684 690 
f 684 687 690 
f 683 685 691 
f 685 686 691 
f 686 683 691 
f 682 687 692 
f 688 682 692 
f 686 688 692 
f 689 686 692 
f 689 692 693 
f 684 683 693 
f 687 684 693 
f 683 689 693 
f 692 687 693 
f 687 682 694 
f 682 688 694 
f 688 685 694 
f 685 690 694 
o convex_49
v -0.028321 0.020313 0.005699
v -0.038194 0.009618 -0.006092
v -0.038194 0.010442 -0.006092
v -0.028321 0.027170 -0.006092
v -0.028321 0.009618 0.014203
v -0.033805 0.017298 -0.000881
v -0.029692 0.009894 0.013655
v -0.032434 0.022780 -0.005816
v -0.037645 0.009618 -0.005816
v -0.028596 0.026071 -0.006092
v -0.034628 0.011538 0.002686
v -0.028595 0.014281 0.012284
v -0.029694 0.021136 0.002686
v -0.036274 0.015927 -0.005816
v -0.028596 0.025797 -0.002798
v -0.035999 0.009618 0.000493
v -0.037096 0.012361 -0.003896
f 697 710 711 
f 696 697 698 
f 698 695 699 
f 698 697 702 
f 699 696 703 
f 699 703 704 
f 696 698 704 
f 698 699 704 
f 703 696 704 
f 705 701 706 
f 699 695 706 
f 701 699 706 
f 700 705 706 
f 700 706 707 
f 702 700 707 
f 706 695 707 
f 702 697 708 
f 700 702 708 
f 695 698 709 
f 698 702 709 
f 707 695 709 
f 702 707 709 
f 697 696 710 
f 696 699 710 
f 699 701 710 
f 701 705 710 
f 710 705 711 
f 705 700 711 
f 708 697 711 
f 700 708 711 
o convex_50
v -0.011864 0.037591 -0.007461
v -0.000346 0.030461 0.012832
v -0.000346 0.030189 0.012832
v -0.016527 0.025799 0.012832
v -0.000346 0.038687 -0.008283
v -0.006655 0.034298 0.004331
v -0.016252 0.035397 -0.008283
v -0.014332 0.027721 0.012832
v -0.016527 0.032930 0.000492
v -0.000622 0.038138 -0.004171
v -0.016252 0.025799 0.012556
v -0.009945 0.029365 0.012832
v -0.012412 0.034026 0.001862
v -0.007477 0.038687 -0.007735
v -0.000346 0.030189 0.012284
v -0.007206 0.036769 -0.001702
v -0.000346 0.034849 0.004054
v -0.005833 0.030461 0.012556
v -0.015704 0.036494 -0.008560
v -0.013234 0.036494 -0.004992
v -0.000346 0.039238 -0.008560
f 730 725 732 
f 714 713 715 
f 713 714 716 
f 715 713 719 
f 718 715 720 
f 715 719 720 
f 714 715 722 
f 715 718 722 
f 718 716 722 
f 719 713 723 
f 720 719 724 
f 723 717 724 
f 719 723 724 
f 716 714 726 
f 714 722 726 
f 722 716 726 
f 724 717 727 
f 721 725 727 
f 713 716 728 
f 727 717 728 
f 721 727 728 
f 723 713 729 
f 717 723 729 
f 713 728 729 
f 728 717 729 
f 718 720 730 
f 712 725 730 
f 720 724 731 
f 725 712 731 
f 724 727 731 
f 727 725 731 
f 712 730 731 
f 730 720 731 
f 716 718 732 
f 725 721 732 
f 728 716 732 
f 721 728 732 
f 718 730 732 
o convex_51
v -0.000070 0.029363 -0.031872
v 0.017481 0.033753 -0.022547
v 0.017481 0.033753 -0.023371
v 0.017481 0.023605 -0.031872
v 0.008431 0.028815 -0.031872
v -0.000346 0.032928 -0.027757
v 0.016931 0.024429 -0.030226
v 0.004866 0.033753 -0.027757
v 0.015834 0.031832 -0.026388
v -0.000346 0.029912 -0.030499
v 0.017205 0.033476 -0.022547
v 0.011173 0.033753 -0.026388
v 0.013366 0.026897 -0.031872
v -0.000346 0.033753 -0.028031
v 0.002947 0.029912 -0.031872
f 733 746 747 
f 735 734 736 
f 736 733 737 
f 736 734 739 
f 734 735 740 
f 735 736 741 
f 733 736 742 
f 739 738 742 
f 736 739 742 
f 734 738 743 
f 738 739 743 
f 739 734 743 
f 740 735 744 
f 737 740 744 
f 735 741 744 
f 744 741 745 
f 736 737 745 
f 741 736 745 
f 737 744 745 
f 738 734 746 
f 734 740 746 
f 733 742 746 
f 742 738 746 
f 737 733 747 
f 740 737 747 
f 746 740 747 
o convex_52
v 0.011173 0.037866 -0.020628
v -0.000346 0.033753 -0.027758
v -0.000346 0.033753 -0.027209
v 0.017481 0.033753 -0.021999
v -0.000346 0.039511 -0.019256
v 0.005414 0.036495 -0.025015
v 0.017205 0.035124 -0.019256
v 0.011173 0.034028 -0.026112
v -0.000346 0.038963 -0.021999
v 0.007062 0.039237 -0.019532
v 0.017481 0.034576 -0.022275
v 0.010897 0.036495 -0.023372
v 0.017205 0.035947 -0.019256
v 0.005962 0.037866 -0.023096
f 748 759 761 
f 750 749 751 
f 749 750 752 
f 750 751 754 
f 752 750 754 
f 751 749 755 
f 749 753 755 
f 749 752 756 
f 753 749 756 
f 756 752 757 
f 751 755 758 
f 758 755 759 
f 755 753 759 
f 748 758 759 
f 754 751 760 
f 752 754 760 
f 748 757 760 
f 757 752 760 
f 751 758 760 
f 758 748 760 
f 753 756 761 
f 756 757 761 
f 757 748 761 
f 759 753 761 
o convex_53
v 0.036131 0.015650 -0.020080
v 0.021595 0.019215 -0.031872
v 0.021595 0.019215 -0.031597
v 0.027355 0.009618 -0.031597
v 0.037500 0.009893 -0.019256
v 0.034758 0.012086 -0.024743
v 0.029277 0.019765 -0.026385
v 0.033660 0.019765 -0.019256
v 0.025984 0.014555 -0.031872
v 0.022146 0.019489 -0.030500
v 0.036678 0.009618 -0.022824
v 0.032837 0.019215 -0.023098
v 0.027904 0.010167 -0.031872
v 0.027629 0.009618 -0.030774
v 0.022146 0.019765 -0.031872
v 0.031740 0.016747 -0.025837
f 767 774 777 
f 764 763 765 
f 766 762 769 
f 766 769 771 
f 762 766 772 
f 767 762 772 
f 762 767 773 
f 769 762 773 
f 768 769 773 
f 765 763 774 
f 763 770 774 
f 772 765 774 
f 767 772 774 
f 764 765 775 
f 771 764 775 
f 766 771 775 
f 772 766 775 
f 765 772 775 
f 763 764 776 
f 769 768 776 
f 770 763 776 
f 768 770 776 
f 764 771 776 
f 771 769 776 
f 770 768 777 
f 773 767 777 
f 768 773 777 
f 774 770 777 
o convex_54
v 0.037501 0.010166 -0.019256
v 0.041067 0.009892 -0.012126
v 0.041067 0.009618 -0.012126
v 0.033389 0.009892 -0.011853
v 0.036406 0.014280 -0.009108
v 0.036406 0.014280 -0.019256
v 0.033389 0.009618 -0.016237
v 0.037501 0.009618 -0.009108
v 0.037228 0.014280 -0.017883
v 0.038324 0.009618 -0.018980
v 0.035857 0.014280 -0.009108
f 785 782 788 
f 783 778 784 
f 780 779 785 
f 779 782 785 
f 784 780 785 
f 781 784 785 
f 782 779 786 
f 783 782 786 
f 783 786 787 
f 779 780 787 
f 778 783 787 
f 784 778 787 
f 780 784 787 
f 786 779 787 
f 782 783 788 
f 784 781 788 
f 783 784 788 
f 781 785 788 
o convex_55
v 0.025984 0.025798 -0.000606
v 0.033936 0.018120 -0.009108
v 0.023789 0.030186 -0.008832
v 0.023789 0.018120 0.012009
v 0.031468 0.021962 -0.005814
v 0.028727 0.018395 0.004876
v 0.027630 0.027992 -0.008832
v 0.024063 0.024430 0.004876
v 0.034485 0.018395 -0.008284
v 0.023789 0.029638 -0.004994
v 0.024063 0.018395 0.013107
v 0.028727 0.021413 0.001316
v 0.032015 0.018120 -0.001702
f 800 794 801 
f 791 790 792 
f 790 791 795 
f 789 793 795 
f 790 795 797 
f 795 793 797 
f 791 792 798 
f 789 795 798 
f 795 791 798 
f 796 789 798 
f 792 796 798 
f 796 792 799 
f 796 799 800 
f 793 789 800 
f 789 796 800 
f 799 794 800 
f 792 790 801 
f 790 797 801 
f 797 793 801 
f 799 792 801 
f 794 799 801 
f 793 800 801 
o convex_56
v -0.021191 -0.032891 -0.022822
v -0.032158 -0.021374 -0.022547
v -0.032158 -0.021374 -0.023096
v -0.018996 -0.023296 -0.031871
v -0.018996 -0.035359 -0.018708
v -0.034353 -0.021374 -0.018708
v -0.028320 -0.027683 -0.022547
v -0.026404 -0.031244 -0.018708
v -0.022015 -0.021652 -0.031871
v -0.021465 -0.021925 -0.030225
v -0.019271 -0.030971 -0.026113
v -0.027220 -0.026313 -0.025018
v -0.032159 -0.021652 -0.023920
v -0.033256 -0.024118 -0.019258
v -0.018996 -0.035084 -0.021176
v -0.019545 -0.023571 -0.030225
v -0.023385 -0.029600 -0.025018
v -0.019271 -0.024118 -0.031871
v -0.024755 -0.031519 -0.021450
f 808 818 820 
f 803 804 807 
f 806 807 809 
f 804 803 810 
f 803 807 810 
f 805 810 811 
f 810 807 811 
f 807 804 814 
f 804 810 814 
f 810 813 814 
f 813 808 814 
f 808 809 815 
f 809 807 815 
f 807 814 815 
f 814 808 815 
f 805 806 816 
f 806 809 816 
f 802 812 816 
f 812 805 816 
f 806 805 817 
f 807 806 817 
f 805 811 817 
f 811 807 817 
f 812 802 818 
f 808 813 818 
f 818 813 819 
f 810 805 819 
f 805 812 819 
f 813 810 819 
f 812 818 819 
f 809 808 820 
f 802 816 820 
f 816 809 820 
f 818 802 820 
o convex_57
v 0.017758 0.031008 0.001588
v 0.023514 0.018120 0.012282
v 0.023789 0.018120 0.012282
v 0.023789 0.029911 -0.007463
v 0.011996 0.036220 -0.007187
v 0.013367 0.027171 0.012832
v 0.023789 0.024703 0.004878
v 0.022418 0.031830 -0.007187
v 0.012271 0.035670 -0.003347
v 0.018577 0.024153 0.012832
v 0.011996 0.029911 0.007345
v 0.017484 0.034571 -0.006364
v 0.021046 0.029091 0.001314
v 0.023789 0.018943 0.012832
v 0.014739 0.029635 0.007620
v 0.013367 0.026623 0.012556
v 0.023514 0.029911 -0.007463
v 0.012819 0.036769 -0.007463
v 0.011996 0.030732 0.007345
v 0.023789 0.029635 -0.004443
v 0.016660 0.033201 -0.001702
f 835 821 841 
f 823 822 824 
f 823 824 827 
f 825 822 831 
f 830 827 833 
f 822 823 834 
f 823 827 834 
f 830 826 834 
f 827 830 834 
f 826 830 835 
f 833 821 835 
f 830 833 835 
f 831 822 836 
f 826 831 836 
f 822 834 836 
f 834 826 836 
f 824 822 837 
f 822 825 837 
f 837 825 838 
f 828 824 838 
f 825 829 838 
f 832 828 838 
f 829 832 838 
f 824 837 838 
f 829 825 839 
f 825 831 839 
f 831 826 839 
f 826 835 839 
f 835 829 839 
f 827 824 840 
f 824 828 840 
f 833 827 840 
f 828 833 840 
f 828 832 841 
f 832 829 841 
f 833 828 841 
f 821 833 841 
f 829 835 841 
o convex_58
v -0.034078 -0.016710 -0.024741
v -0.028595 -0.010404 -0.031598
v -0.028323 -0.010678 -0.031598
v -0.023660 -0.020003 -0.031872
v -0.023112 -0.021098 -0.029678
v -0.035725 -0.010404 -0.024741
v -0.030515 -0.021374 -0.024741
v -0.029143 -0.010952 -0.031872
v -0.029416 -0.021374 -0.026662
v -0.029416 -0.010404 -0.029951
v -0.021464 -0.021374 -0.031872
v -0.036274 -0.011227 -0.025016
v -0.027224 -0.015066 -0.031872
v -0.032982 -0.016710 -0.026114
f 849 854 855 
f 847 842 848 
f 846 847 848 
f 843 844 849 
f 847 843 849 
f 848 842 850 
f 844 843 851 
f 847 846 851 
f 843 847 851 
f 846 848 852 
f 849 844 852 
f 845 849 852 
f 850 845 852 
f 848 850 852 
f 844 851 852 
f 851 846 852 
f 842 847 853 
f 847 849 853 
f 849 845 854 
f 845 850 854 
f 854 850 855 
f 850 842 855 
f 842 853 855 
f 853 849 855 
o convex_59
v -0.032162 -0.020825 -0.024466
v -0.039565 -0.011227 -0.018983
v -0.039565 -0.011227 -0.018708
v -0.035999 -0.010404 -0.024466
v -0.034356 -0.021098 -0.018708
v -0.036548 -0.016984 -0.021450
v -0.030790 -0.021098 -0.024466
v -0.039016 -0.010404 -0.018708
v -0.036274 -0.012050 -0.024741
v -0.035178 -0.021098 -0.019257
f 862 860 865 
f 860 862 863 
f 857 858 863 
f 859 857 863 
f 858 860 863 
f 862 859 863 
f 857 859 864 
f 861 857 864 
f 856 861 864 
f 862 856 864 
f 859 862 864 
f 858 857 865 
f 860 858 865 
f 857 861 865 
f 861 856 865 
f 856 862 865 
o convex_60
v -0.037919 -0.012874 -0.006916
v -0.034629 -0.022197 -0.018708
v -0.035726 -0.020550 -0.018158
v -0.039291 -0.010405 -0.018708
v -0.031063 -0.021646 -0.002800
v -0.036547 -0.010405 -0.002800
v -0.036821 -0.018630 -0.012672
v -0.032435 -0.022197 -0.004722
v -0.039840 -0.010679 -0.013496
v -0.034080 -0.021646 -0.018708
v -0.034630 -0.017259 -0.002800
v -0.039016 -0.013422 -0.018432
v -0.034630 -0.022197 -0.012672
v -0.035999 -0.018082 -0.007739
v -0.037097 -0.010405 -0.002800
v -0.039291 -0.012874 -0.013222
f 872 879 881 
f 870 869 871 
f 867 870 873 
f 867 869 875 
f 869 870 875 
f 870 867 875 
f 870 871 876 
f 873 870 876 
f 867 868 877 
f 869 867 877 
f 868 872 877 
f 874 869 877 
f 868 867 878 
f 872 868 878 
f 867 873 878 
f 878 873 879 
f 876 866 879 
f 873 876 879 
f 872 878 879 
f 871 869 880 
f 869 874 880 
f 874 866 880 
f 866 876 880 
f 876 871 880 
f 866 874 881 
f 877 872 881 
f 874 877 881 
f 879 866 881 
o convex_61
v 0.023789 0.031008 -0.009108
v 0.032017 0.024155 -0.013498
v 0.032017 0.023879 -0.013498
v 0.023789 0.031832 -0.019256
v 0.030918 0.023879 -0.019256
v 0.028177 0.028815 -0.016513
v 0.030371 0.023879 -0.009108
v 0.023789 0.031008 -0.019256
v 0.027629 0.028267 -0.009658
v 0.024064 0.032107 -0.013224
v 0.031467 0.024428 -0.019256
v 0.023789 0.030461 -0.009933
f 882 889 893 
f 884 883 888 
f 886 884 888 
f 882 885 889 
f 885 886 889 
f 883 887 890 
f 888 883 890 
f 882 888 890 
f 885 882 891 
f 887 885 891 
f 890 887 891 
f 882 890 891 
f 883 884 892 
f 886 885 892 
f 884 886 892 
f 887 883 892 
f 885 887 892 
f 888 882 893 
f 886 888 893 
f 889 886 893 
o convex_62
v -0.020093 -0.035636 -0.017609
v -0.015979 -0.035360 -0.007463
v -0.015979 -0.035909 -0.007463
v -0.025030 -0.030425 -0.007463
v -0.016254 -0.036458 -0.018708
v -0.024754 -0.031797 -0.018708
v -0.024754 -0.032346 -0.011030
v -0.016254 -0.037281 -0.013221
v -0.019820 -0.034538 -0.007738
v -0.024754 -0.030425 -0.008287
v -0.025030 -0.032620 -0.017336
v -0.020093 -0.035636 -0.013496
f 904 894 905 
f 896 895 897 
f 895 896 898 
f 898 894 899 
f 894 898 901 
f 898 896 901 
f 896 897 902 
f 897 900 902 
f 901 896 902 
f 897 895 903 
f 895 898 903 
f 898 899 903 
f 899 897 903 
f 897 899 904 
f 899 894 904 
f 900 897 904 
f 900 904 905 
f 894 901 905 
f 902 900 905 
f 901 902 905 
o convex_63
v -0.024206 -0.022473 0.009815
v -0.016255 -0.035907 -0.007463
v -0.015979 -0.035907 -0.007463
v -0.015707 -0.027133 0.012556
v -0.024753 -0.018361 0.012556
v -0.025030 -0.030971 -0.007187
v -0.022011 -0.029600 0.001038
v -0.024753 -0.030148 -0.007463
v -0.015707 -0.026036 0.012556
v -0.015979 -0.035359 -0.007463
v -0.017901 -0.033439 -0.001976
v -0.019821 -0.024390 0.012832
v -0.025030 -0.024942 0.004878
v -0.025030 -0.019182 0.012832
v -0.015981 -0.029325 0.008444
f 909 917 920 
f 908 907 913 
f 907 911 913 
f 909 908 914 
f 910 914 915 
f 908 913 915 
f 913 910 915 
f 914 908 915 
f 911 907 916 
f 912 911 916 
f 909 914 917 
f 911 912 918 
f 917 906 918 
f 912 917 918 
f 910 913 919 
f 913 911 919 
f 914 910 919 
f 906 917 919 
f 917 914 919 
f 918 906 919 
f 911 918 919 
f 907 908 920 
f 908 909 920 
f 916 907 920 
f 912 916 920 
f 917 912 920 
o convex_64
v -0.006929 -0.039201 -0.009658
v -0.015979 -0.037282 -0.018708
v -0.015979 -0.037556 -0.016512
v -0.015430 -0.035910 -0.008560
v -0.000620 -0.039749 -0.018708
v -0.000620 -0.038926 -0.008560
v -0.006106 -0.040023 -0.016512
v -0.015430 -0.036733 -0.018708
v -0.000620 -0.040298 -0.013498
v -0.013784 -0.038104 -0.012126
v -0.015979 -0.036459 -0.008560
v -0.008573 -0.039475 -0.018432
v -0.007754 -0.039749 -0.013498
f 932 927 933 
f 925 924 926 
f 922 924 928 
f 924 925 928 
f 925 922 928 
f 926 921 929 
f 925 926 929 
f 927 925 929 
f 922 923 931 
f 924 922 931 
f 921 926 931 
f 926 924 931 
f 923 930 931 
f 930 921 931 
f 923 922 932 
f 922 925 932 
f 925 927 932 
f 929 921 933 
f 927 929 933 
f 930 923 933 
f 921 930 933 
f 923 932 933 
o convex_65
v 0.037500 0.004953 -0.023097
v 0.025160 -0.009581 -0.032695
v 0.026532 -0.009581 -0.032695
v 0.026532 0.009618 -0.032695
v 0.036404 0.009618 -0.022273
v 0.036404 -0.009581 -0.022273
v 0.029274 -0.001900 -0.032145
v 0.025160 0.009618 -0.032421
v 0.035855 -0.006563 -0.025017
v 0.033662 0.009069 -0.026661
v 0.029000 0.005228 -0.032145
v 0.036404 0.000565 -0.025017
v 0.038051 -0.001900 -0.022273
v 0.027903 -0.009581 -0.032145
v 0.025160 -0.009581 -0.032421
v 0.036404 -0.009581 -0.023371
v 0.035855 0.006599 -0.025017
f 934 945 950 
f 936 935 937 
f 935 936 939 
f 936 937 940 
f 937 935 941 
f 938 937 941 
f 939 938 941 
f 937 938 943 
f 940 937 944 
f 937 943 944 
f 942 940 945 
f 940 944 945 
f 934 938 946 
f 938 939 946 
f 945 934 946 
f 942 945 946 
f 939 936 947 
f 936 940 947 
f 940 942 947 
f 935 939 948 
f 941 935 948 
f 939 941 948 
f 946 939 949 
f 942 946 949 
f 939 947 949 
f 947 942 949 
f 938 934 950 
f 943 938 950 
f 944 943 950 
f 945 944 950 
o convex_66
v -0.015704 -0.035085 -0.003894
v -0.000620 -0.030150 0.012832
v -0.000620 -0.030698 0.012832
v -0.000620 -0.038925 -0.008560
v -0.015154 -0.026585 0.012282
v -0.006655 -0.034539 0.003780
v -0.015704 -0.035633 -0.008283
v -0.010765 -0.029329 0.012556
v -0.007754 -0.038651 -0.007735
v -0.000620 -0.037553 -0.002523
v -0.015979 -0.029878 0.007346
v -0.012686 -0.034536 0.000490
v -0.000895 -0.038651 -0.008283
v -0.000620 -0.030424 0.011733
v -0.013784 -0.037279 -0.008283
v -0.015430 -0.027136 0.012832
v -0.007480 -0.037005 -0.002523
v -0.006106 -0.030424 0.012556
f 958 956 968 
f 952 953 954 
f 954 953 960 
f 953 956 960 
f 959 954 960 
f 957 951 961 
f 955 957 961 
f 958 961 962 
f 956 958 962 
f 961 951 962 
f 954 957 963 
f 957 955 963 
f 952 954 964 
f 955 952 964 
f 954 963 964 
f 963 955 964 
f 951 957 965 
f 957 954 965 
f 954 959 965 
f 962 951 965 
f 953 952 966 
f 952 955 966 
f 958 953 966 
f 955 961 966 
f 961 958 966 
f 960 956 967 
f 959 960 967 
f 956 962 967 
f 965 959 967 
f 962 965 967 
f 956 953 968 
f 953 958 968 
o convex_67
v -0.015706 -0.026857 0.013107
v -0.025030 -0.018907 0.012832
v -0.024206 -0.020001 0.012832
v -0.024480 -0.016987 0.015301
v -0.019818 -0.010405 0.015026
v -0.013785 -0.025759 0.015301
v -0.013785 -0.022194 0.013107
v -0.025030 -0.010405 0.013107
v -0.013785 -0.017261 0.015301
v -0.018997 -0.023566 0.014752
v -0.025030 -0.013972 0.015301
v -0.013785 -0.027682 0.012832
v -0.021463 -0.010405 0.015301
f 979 977 981 
f 970 971 972 
f 973 975 976 
f 972 974 977 
f 975 973 977 
f 974 975 977 
f 971 969 978 
f 972 971 978 
f 969 974 978 
f 974 972 978 
f 970 972 979 
f 976 970 979 
f 972 977 979 
f 969 971 980 
f 971 970 980 
f 974 969 980 
f 975 974 980 
f 970 976 980 
f 976 975 980 
f 973 976 981 
f 977 973 981 
f 976 979 981 
o convex_68
v -0.002816 -0.030423 0.013107
v 0.012267 -0.017534 0.015301
v 0.012267 -0.025760 0.015301
v -0.013782 -0.025760 0.015301
v -0.013782 -0.022472 0.013107
v 0.012267 -0.022472 0.013107
v -0.013782 -0.017534 0.015026
v 0.012267 -0.027679 0.012832
v 0.004042 -0.028502 0.015301
v -0.013782 -0.027679 0.012832
v -0.006378 -0.029051 0.014752
v -0.013782 -0.017534 0.015301
v 0.004591 -0.030148 0.012832
v 0.012267 -0.017534 0.015026
v 0.008975 -0.028502 0.014204
f 994 989 996 
f 984 983 985 
f 983 984 987 
f 986 985 988 
f 987 986 988 
f 986 987 989 
f 987 984 989 
f 984 985 990 
f 985 986 991 
f 986 989 991 
f 990 985 992 
f 982 990 992 
f 991 982 992 
f 985 991 992 
f 985 983 993 
f 983 988 993 
f 988 985 993 
f 990 982 994 
f 982 991 994 
f 991 989 994 
f 983 987 995 
f 988 983 995 
f 987 988 995 
f 989 984 996 
f 984 990 996 
f 990 994 996 
o convex_69
v 0.019676 -0.031793 -0.024194
v 0.034759 -0.019180 -0.018708
v 0.034759 -0.019180 -0.018983
v 0.021870 -0.019180 -0.031596
v 0.017481 -0.035360 -0.018708
v 0.027903 -0.027411 -0.021450
v 0.028723 -0.021651 -0.025838
v 0.017757 -0.024121 -0.031871
v 0.017481 -0.023846 -0.030499
v 0.023242 -0.032618 -0.018708
v 0.034210 -0.019180 -0.018708
v 0.025709 -0.026312 -0.025018
v 0.032838 -0.019458 -0.022822
v 0.017481 -0.035086 -0.021176
v 0.022420 -0.019730 -0.031871
v 0.032016 -0.023846 -0.018983
v 0.023242 -0.031521 -0.021450
v 0.022147 -0.019180 -0.030773
v 0.030643 -0.023023 -0.022822
f 1009 1012 1015 
f 998 999 1000 
f 1000 1004 1005 
f 998 1001 1006 
f 998 1000 1007 
f 1001 998 1007 
f 1005 1001 1007 
f 997 1004 1008 
f 1000 999 1009 
f 1004 997 1010 
f 1001 1005 1010 
f 1005 1004 1010 
f 1006 1001 1010 
f 1004 1000 1011 
f 1003 1008 1011 
f 1008 1004 1011 
f 1000 1009 1011 
f 1009 1003 1011 
f 999 998 1012 
f 998 1006 1012 
f 1006 1002 1012 
f 1009 999 1012 
f 1002 1006 1013 
f 997 1008 1013 
f 1008 1002 1013 
f 1010 997 1013 
f 1006 1010 1013 
f 1000 1005 1014 
f 1007 1000 1014 
f 1005 1007 1014 
f 1002 1008 1015 
f 1008 1003 1015 
f 1003 1009 1015 
f 1012 1002 1015 
o convex_70
v -0.019545 0.023878 0.013930
v -0.028321 0.009618 0.014478
v -0.027496 0.009618 0.013107
v -0.012688 0.017848 0.015301
v -0.012688 0.027444 0.012832
v -0.014060 0.025799 0.015301
v -0.025575 0.018397 0.012832
v -0.026126 0.014282 0.015301
v -0.020096 0.009618 0.015026
v -0.012688 0.023056 0.013107
v -0.024754 0.009618 0.013107
v -0.028321 0.013733 0.012832
v -0.028045 0.009618 0.015301
v -0.021736 0.020861 0.015026
v -0.015705 0.026896 0.012832
v -0.012688 0.026621 0.015026
f 1020 1030 1031 
f 1019 1021 1023 
f 1017 1018 1024 
f 1020 1019 1025 
f 1019 1024 1025 
f 1025 1024 1026 
f 1024 1018 1026 
f 1020 1025 1026 
f 1020 1026 1027 
f 1018 1017 1027 
f 1022 1020 1027 
f 1023 1022 1027 
f 1026 1018 1027 
f 1023 1027 1028 
f 1019 1023 1028 
f 1017 1024 1028 
f 1024 1019 1028 
f 1027 1017 1028 
f 1021 1016 1029 
f 1016 1022 1029 
f 1023 1021 1029 
f 1022 1023 1029 
f 1016 1021 1030 
f 1022 1016 1030 
f 1020 1022 1030 
f 1019 1020 1031 
f 1021 1019 1031 
f 1030 1021 1031 
o convex_71
v 0.010075 -0.038379 -0.010480
v -0.000620 -0.040024 -0.018708
v -0.000620 -0.040298 -0.017609
v -0.000620 -0.038926 -0.008560
v 0.011995 -0.037556 -0.018708
v 0.011995 -0.036733 -0.008560
v 0.006784 -0.039749 -0.015690
v -0.000346 -0.039475 -0.008835
v 0.012544 -0.038105 -0.018432
v 0.005689 -0.038926 -0.008560
v 0.000752 -0.039475 -0.018708
v 0.012544 -0.038105 -0.012675
v -0.000346 -0.040298 -0.013770
v 0.005140 -0.039749 -0.018708
f 1040 1038 1045 
f 1033 1034 1035 
f 1036 1037 1040 
f 1032 1037 1041 
f 1037 1035 1041 
f 1038 1032 1041 
f 1035 1039 1041 
f 1033 1035 1042 
f 1036 1033 1042 
f 1035 1037 1042 
f 1037 1036 1042 
f 1037 1032 1043 
f 1032 1038 1043 
f 1040 1037 1043 
f 1038 1040 1043 
f 1035 1034 1044 
f 1034 1038 1044 
f 1039 1035 1044 
f 1038 1041 1044 
f 1041 1039 1044 
f 1034 1033 1045 
f 1033 1036 1045 
f 1038 1034 1045 
f 1036 1040 1045 
o convex_72
v -0.000071 -0.038377 -0.004992
v 0.012544 -0.030974 0.005426
v 0.012544 -0.031524 0.005426
v -0.000620 -0.030699 0.012832
v 0.000203 -0.038650 -0.008560
v 0.011721 -0.027408 0.012282
v 0.012544 -0.036732 -0.008560
v 0.005689 -0.035634 0.001039
v 0.008703 -0.029329 0.012832
v -0.000620 -0.030152 0.012282
v 0.011995 -0.037280 -0.007737
v 0.006235 -0.038650 -0.007737
v 0.011171 -0.034538 0.000490
v 0.012270 -0.036457 -0.008283
v -0.000620 -0.035909 0.001588
v 0.005140 -0.032619 0.007897
v -0.000620 -0.039201 -0.008560
v 0.012270 -0.027408 0.012832
f 1052 1059 1063 
f 1047 1048 1052 
f 1051 1050 1055 
f 1052 1048 1056 
f 1053 1046 1057 
f 1052 1056 1057 
f 1048 1054 1058 
f 1056 1048 1058 
f 1053 1057 1058 
f 1057 1056 1058 
f 1050 1051 1059 
f 1052 1050 1059 
f 1046 1053 1060 
f 1049 1055 1060 
f 1054 1049 1061 
f 1058 1054 1061 
f 1053 1058 1061 
f 1049 1060 1061 
f 1060 1053 1061 
f 1050 1052 1062 
f 1055 1050 1062 
f 1057 1046 1062 
f 1052 1057 1062 
f 1046 1060 1062 
f 1060 1055 1062 
f 1048 1047 1063 
f 1047 1052 1063 
f 1054 1048 1063 
f 1049 1054 1063 
f 1055 1049 1063 
f 1051 1055 1063 
f 1059 1051 1063 
o convex_73
v 0.022965 -0.031797 -0.008286
v 0.012544 -0.037829 -0.018708
v 0.012544 -0.038103 -0.017610
v 0.012819 -0.036184 -0.008011
v 0.023514 -0.031523 -0.018708
v 0.018031 -0.035909 -0.013223
v 0.023240 -0.030425 -0.008011
v 0.023514 -0.032619 -0.017610
v 0.012819 -0.037006 -0.008011
v 0.012819 -0.037280 -0.018708
v 0.018302 -0.035635 -0.018708
v 0.023789 -0.032346 -0.013223
v 0.017483 -0.035087 -0.008011
v 0.012819 -0.038103 -0.013496
f 1069 1072 1077 
f 1065 1066 1067 
f 1067 1066 1072 
f 1070 1067 1072 
f 1065 1067 1073 
f 1068 1065 1073 
f 1067 1070 1073 
f 1070 1068 1073 
f 1066 1065 1074 
f 1065 1068 1074 
f 1069 1066 1074 
f 1068 1071 1074 
f 1071 1069 1074 
f 1064 1069 1075 
f 1070 1064 1075 
f 1068 1070 1075 
f 1071 1068 1075 
f 1069 1071 1075 
f 1069 1064 1076 
f 1064 1070 1076 
f 1072 1069 1076 
f 1070 1072 1076 
f 1066 1069 1077 
f 1072 1066 1077 
o convex_74
v 0.019675 -0.024118 0.011459
v 0.012545 -0.036733 -0.008011
v 0.013094 -0.036733 -0.008011
v 0.023513 -0.030150 -0.008011
v 0.023514 -0.018083 0.012557
v 0.012270 -0.027134 0.012832
v 0.021319 -0.029876 -0.000605
v 0.014190 -0.030422 0.006524
v 0.023789 -0.024668 0.004877
v 0.012545 -0.036183 -0.007736
v 0.017484 -0.034810 -0.007187
v 0.023789 -0.030697 -0.007187
v 0.017209 -0.025213 0.012832
v 0.012820 -0.034810 -0.001701
v 0.023789 -0.018908 0.012832
v 0.016387 -0.032618 -0.000056
v 0.012270 -0.027955 0.012557
v 0.020223 -0.028231 0.004055
v 0.012270 -0.027134 0.012557
f 1094 1083 1096 
f 1080 1079 1081 
f 1081 1079 1087 
f 1082 1081 1087 
f 1080 1081 1088 
f 1086 1084 1089 
f 1088 1081 1089 
f 1084 1088 1089 
f 1079 1080 1091 
f 1080 1088 1091 
f 1081 1082 1092 
f 1082 1083 1092 
f 1078 1086 1092 
f 1089 1081 1092 
f 1086 1089 1092 
f 1090 1078 1092 
f 1083 1090 1092 
f 1088 1084 1093 
f 1085 1091 1093 
f 1091 1088 1093 
f 1090 1083 1094 
f 1085 1090 1094 
f 1079 1091 1094 
f 1091 1085 1094 
f 1086 1078 1095 
f 1084 1086 1095 
f 1078 1090 1095 
f 1090 1085 1095 
f 1093 1084 1095 
f 1085 1093 1095 
f 1083 1082 1096 
f 1087 1079 1096 
f 1082 1087 1096 
f 1079 1094 1096 
o convex_75
v 0.012268 0.026893 0.012832
v 0.001025 0.030461 0.013107
v 0.000751 0.030187 0.013656
v -0.012685 0.018120 0.015026
v 0.012542 0.025797 0.015301
v 0.012542 0.017297 0.015026
v -0.012685 0.023060 0.013107
v -0.012685 0.026346 0.015301
v -0.011312 0.028813 0.012832
v 0.012542 0.022235 0.013107
v -0.001443 0.028813 0.015301
v 0.011994 0.017297 0.015301
v -0.012685 0.018120 0.015301
v 0.008975 0.028267 0.014478
v -0.006926 0.029362 0.014204
v 0.009798 0.028816 0.012832
f 1110 1101 1112 
f 1103 1100 1104 
f 1103 1104 1105 
f 1097 1103 1105 
f 1097 1101 1106 
f 1102 1100 1106 
f 1101 1102 1106 
f 1103 1097 1106 
f 1100 1103 1106 
f 1104 1101 1107 
f 1100 1102 1108 
f 1102 1101 1108 
f 1101 1104 1108 
f 1108 1104 1109 
f 1104 1100 1109 
f 1100 1108 1109 
f 1098 1099 1110 
f 1099 1107 1110 
f 1107 1101 1110 
f 1099 1098 1111 
f 1105 1104 1111 
f 1098 1105 1111 
f 1107 1099 1111 
f 1104 1107 1111 
f 1101 1097 1112 
f 1105 1098 1112 
f 1097 1105 1112 
f 1098 1110 1112 
o convex_76
v -0.000346 0.038414 -0.005267
v 0.013367 0.027445 0.012832
v 0.012818 0.027721 0.012832
v 0.011720 0.037316 -0.007736
v 0.005140 0.034301 0.004328
v -0.000346 0.030188 0.012282
v -0.000346 0.038414 -0.007460
v 0.013092 0.026896 0.012282
v 0.011720 0.036494 -0.007736
v 0.000752 0.030736 0.012557
v 0.011171 0.034301 0.001039
v 0.005962 0.038139 -0.005816
v 0.008430 0.029366 0.012832
v -0.000346 0.036220 0.000766
v 0.002947 0.038964 -0.008011
v 0.013367 0.029913 0.008170
v 0.005689 0.036768 -0.001701
f 1126 1117 1129 
f 1118 1113 1119 
f 1114 1118 1120 
f 1118 1119 1120 
f 1120 1119 1121 
f 1118 1114 1122 
f 1114 1115 1125 
f 1122 1114 1125 
f 1117 1122 1125 
f 1123 1117 1125 
f 1113 1118 1126 
f 1122 1117 1126 
f 1118 1122 1126 
f 1119 1113 1127 
f 1116 1121 1127 
f 1121 1119 1127 
f 1113 1124 1127 
f 1124 1116 1127 
f 1115 1114 1128 
f 1114 1120 1128 
f 1121 1116 1128 
f 1120 1121 1128 
f 1116 1123 1128 
f 1125 1115 1128 
f 1123 1125 1128 
f 1123 1116 1129 
f 1117 1123 1129 
f 1124 1113 1129 
f 1116 1124 1129 
f 1113 1126 1129 
o convex_77
v 0.047377 -0.007658 -0.013223
v 0.054232 0.000293 -0.003349
v 0.053957 0.000293 -0.003349
v 0.044633 0.000293 -0.018433
v 0.044633 -0.009030 -0.010481
v 0.050117 -0.000531 -0.013770
v 0.052585 -0.006015 -0.003624
v 0.049296 -0.007112 -0.003349
v 0.051764 -0.004642 -0.009384
v 0.044907 -0.006288 -0.016787
v 0.047652 -0.003548 -0.015965
v 0.049570 -0.007935 -0.008012
v 0.044633 0.000293 -0.017884
v 0.052311 0.000293 -0.009931
v 0.054232 -0.002451 -0.003624
v 0.044633 -0.009030 -0.013223
v 0.049568 -0.005741 -0.012675
f 1138 1141 1146 
f 1132 1131 1133 
f 1131 1132 1137 
f 1136 1131 1137 
f 1133 1135 1140 
f 1139 1133 1140 
f 1137 1134 1141 
f 1136 1137 1141 
f 1138 1136 1141 
f 1132 1133 1142 
f 1133 1134 1142 
f 1137 1132 1142 
f 1134 1137 1142 
f 1133 1131 1143 
f 1135 1133 1143 
f 1138 1135 1143 
f 1138 1143 1144 
f 1131 1136 1144 
f 1136 1138 1144 
f 1143 1131 1144 
f 1134 1133 1145 
f 1139 1130 1145 
f 1133 1139 1145 
f 1130 1141 1145 
f 1141 1134 1145 
f 1135 1138 1146 
f 1130 1139 1146 
f 1140 1135 1146 
f 1139 1140 1146 
f 1141 1130 1146 
o convex_78
v 0.022143 -0.018633 0.015026
v 0.012270 -0.027682 0.012832
v 0.012270 -0.027682 0.013107
v 0.018302 -0.010405 0.015026
v 0.023514 -0.010405 0.013107
v 0.012270 -0.025759 0.015301
v 0.023789 -0.018633 0.012832
v 0.012270 -0.022194 0.013107
v 0.023789 -0.013422 0.015301
v 0.012270 -0.017261 0.015301
v 0.017757 -0.024114 0.013930
v 0.019947 -0.010405 0.015301
f 1156 1155 1158 
f 1148 1149 1152 
f 1148 1151 1153 
f 1150 1151 1154 
f 1151 1148 1154 
f 1148 1152 1154 
f 1152 1147 1155 
f 1147 1153 1155 
f 1153 1151 1155 
f 1150 1154 1156 
f 1154 1152 1156 
f 1152 1155 1156 
f 1149 1148 1157 
f 1147 1152 1157 
f 1152 1149 1157 
f 1153 1147 1157 
f 1148 1153 1157 
f 1151 1150 1158 
f 1155 1151 1158 
f 1150 1156 1158 
o convex_79
v -0.025853 0.008520 -0.033243
v -0.032709 -0.009581 -0.028582
v -0.032709 -0.009581 -0.028032
v -0.024755 -0.009581 -0.032969
v -0.030788 -0.001626 -0.032146
v -0.032160 0.009618 -0.028032
v -0.025030 0.009618 -0.032694
v -0.029416 0.009618 -0.032146
v -0.028321 -0.009032 -0.032694
v -0.032709 0.005502 -0.029404
v -0.028595 0.001937 -0.032969
v -0.031885 -0.009581 -0.028307
v -0.025304 -0.009581 -0.033243
f 1167 1169 1171 
f 1161 1160 1162 
f 1162 1159 1165 
f 1164 1162 1165 
f 1165 1159 1166 
f 1164 1165 1166 
f 1160 1163 1167 
f 1160 1161 1168 
f 1163 1160 1168 
f 1161 1164 1168 
f 1166 1163 1168 
f 1164 1166 1168 
f 1166 1159 1169 
f 1163 1166 1169 
f 1167 1163 1169 
f 1161 1162 1170 
f 1164 1161 1170 
f 1162 1164 1170 
f 1162 1160 1171 
f 1159 1162 1171 
f 1160 1167 1171 
f 1169 1159 1171 
o convex_80
v -0.013509 -0.002723 -0.034066
v 0.003219 0.009618 -0.033792
v 0.003219 -0.009581 -0.033792
v -0.024755 0.009618 -0.032969
v -0.022285 -0.009581 -0.032969
v -0.018717 0.009618 -0.033792
v -0.022833 -0.009581 -0.033518
v 0.003219 0.009618 -0.034066
v 0.003219 -0.009581 -0.034066
v -0.024755 0.000840 -0.033518
v -0.009673 -0.009581 -0.034066
v -0.009673 0.009618 -0.034066
v -0.024755 -0.009581 -0.032969
v -0.022285 0.009618 -0.032969
f 1176 1173 1185 
f 1174 1173 1176 
f 1175 1173 1177 
f 1174 1176 1178 
f 1173 1174 1179 
f 1177 1173 1179 
f 1174 1178 1180 
f 1172 1179 1180 
f 1179 1174 1180 
f 1177 1172 1181 
f 1175 1177 1181 
f 1172 1178 1181 
f 1178 1172 1182 
f 1172 1180 1182 
f 1180 1178 1182 
f 1172 1177 1183 
f 1179 1172 1183 
f 1177 1179 1183 
f 1176 1175 1184 
f 1178 1176 1184 
f 1175 1181 1184 
f 1181 1178 1184 
f 1173 1175 1185 
f 1175 1176 1185 
o convex_81
v 0.011726 -0.003821 -0.034066
v 0.025434 0.009618 -0.032695
v 0.025707 0.009343 -0.032695
v 0.023511 -0.009581 -0.032695
v 0.003219 0.009618 -0.033792
v 0.003219 -0.009581 -0.033792
v 0.022143 0.007423 -0.033518
v 0.024060 -0.009306 -0.033244
v 0.008157 0.009618 -0.034066
v 0.003219 -0.009581 -0.034066
v 0.017205 -0.009581 -0.033792
v 0.027080 -0.002175 -0.032969
v 0.007337 0.009618 -0.033518
v 0.019398 0.002211 -0.033792
v 0.023511 0.009618 -0.032695
f 1198 1189 1200 
f 1188 1187 1189 
f 1187 1188 1192 
f 1190 1187 1194 
f 1187 1192 1194 
f 1189 1191 1195 
f 1191 1190 1195 
f 1190 1194 1195 
f 1194 1186 1195 
f 1193 1189 1196 
f 1189 1195 1196 
f 1195 1186 1196 
f 1188 1189 1197 
f 1192 1188 1197 
f 1189 1193 1197 
f 1187 1190 1198 
f 1191 1189 1198 
f 1190 1191 1198 
f 1186 1194 1199 
f 1194 1192 1199 
f 1196 1186 1199 
f 1193 1196 1199 
f 1192 1197 1199 
f 1197 1193 1199 
f 1189 1187 1200 
f 1187 1198 1200 
o convex_82
v 0.033663 0.021410 -0.012949
v 0.036404 0.014280 -0.019256
v 0.036131 0.014555 -0.019256
v 0.035581 0.014555 -0.009108
v 0.031195 0.023604 -0.019256
v 0.030646 0.023329 -0.009108
v 0.036131 0.017297 -0.016513
v 0.032018 0.023879 -0.018980
v 0.036404 0.014829 -0.009933
v 0.031195 0.023879 -0.009108
v 0.036953 0.014555 -0.018980
f 1207 1209 1211 
f 1203 1202 1204 
f 1202 1203 1205 
f 1205 1203 1206 
f 1203 1204 1206 
f 1202 1205 1208 
f 1201 1207 1208 
f 1204 1202 1209 
f 1207 1201 1209 
f 1205 1206 1210 
f 1206 1204 1210 
f 1208 1205 1210 
f 1201 1208 1210 
f 1204 1209 1210 
f 1209 1201 1210 
f 1202 1208 1211 
f 1208 1207 1211 
f 1209 1202 1211 
o convex_83
v 0.028451 0.015925 0.007621
v 0.037502 0.009893 -0.008286
v 0.037227 0.010715 -0.007736
v 0.034210 0.018120 -0.009108
v 0.028451 0.009618 0.011460
v 0.033662 0.012086 0.001040
v 0.036952 0.009893 -0.009108
v 0.028451 0.017844 0.004054
v 0.033387 0.017844 -0.004171
v 0.028727 0.009893 0.012558
v 0.030098 0.016199 0.004879
v 0.034484 0.009618 0.000493
v 0.028727 0.018120 0.005152
v 0.036952 0.012635 -0.008559
f 1220 1217 1225 
f 1218 1216 1219 
f 1216 1212 1219 
f 1215 1218 1219 
f 1212 1216 1221 
f 1221 1217 1222 
f 1217 1220 1222 
f 1212 1221 1222 
f 1213 1214 1223 
f 1214 1217 1223 
f 1218 1213 1223 
f 1216 1218 1223 
f 1221 1216 1223 
f 1217 1221 1223 
f 1219 1212 1224 
f 1215 1219 1224 
f 1220 1215 1224 
f 1212 1222 1224 
f 1222 1220 1224 
f 1214 1213 1225 
f 1217 1214 1225 
f 1213 1218 1225 
f 1218 1215 1225 
f 1215 1220 1225 
o convex_84
v -0.034354 -0.006288 0.005976
v -0.029692 0.009618 0.012832
v -0.029692 0.009618 0.012284
v -0.029692 -0.009581 0.012832
v -0.034354 0.001937 0.010364
v -0.032983 0.009618 0.005702
v -0.032983 -0.009581 0.005702
v -0.034354 -0.004095 0.009541
v -0.031612 -0.000803 0.012832
v -0.034354 0.006325 0.005702
v -0.033531 0.009618 0.005976
v -0.031887 -0.004644 0.007623
v -0.030241 0.009343 0.012832
v -0.033531 -0.009581 0.005976
v -0.029692 -0.009581 0.012284
v -0.030241 -0.009306 0.012832
f 1233 1239 1241 
f 1228 1227 1229 
f 1227 1228 1231 
f 1230 1226 1233 
f 1230 1233 1234 
f 1229 1227 1234 
f 1226 1230 1235 
f 1232 1226 1235 
f 1231 1232 1235 
f 1227 1231 1236 
f 1235 1230 1236 
f 1231 1235 1236 
f 1231 1228 1237 
f 1232 1231 1237 
f 1230 1234 1238 
f 1234 1227 1238 
f 1227 1236 1238 
f 1236 1230 1238 
f 1226 1232 1239 
f 1232 1229 1239 
f 1233 1226 1239 
f 1228 1229 1240 
f 1229 1232 1240 
f 1237 1228 1240 
f 1232 1237 1240 
f 1234 1233 1241 
f 1229 1234 1241 
f 1239 1229 1241 
o convex_85
v 0.027628 0.007697 0.015027
v 0.018579 -0.009581 0.015301
v 0.018853 -0.009581 0.015026
v 0.018853 0.009618 0.015026
v 0.026257 -0.009306 0.013107
v 0.023514 0.009618 0.013107
v 0.026805 -0.009306 0.015301
v 0.018853 0.006599 0.015849
v 0.027628 0.002486 0.013107
v 0.023514 -0.009581 0.013107
v 0.026531 0.009618 0.015301
v 0.018579 -0.006563 0.015849
v 0.027628 -0.009581 0.013655
v 0.027628 0.009618 0.013655
v 0.027628 -0.006014 0.015301
f 1254 1242 1256 
f 1244 1243 1245 
f 1244 1245 1247 
f 1246 1247 1250 
f 1243 1244 1251 
f 1244 1247 1251 
f 1247 1246 1251 
f 1247 1245 1252 
f 1245 1249 1252 
f 1245 1243 1253 
f 1243 1248 1253 
f 1249 1245 1253 
f 1248 1243 1254 
f 1246 1250 1254 
f 1250 1242 1254 
f 1243 1251 1254 
f 1251 1246 1254 
f 1250 1247 1255 
f 1242 1250 1255 
f 1247 1252 1255 
f 1252 1242 1255 
f 1242 1252 1256 
f 1252 1249 1256 
f 1253 1248 1256 
f 1249 1253 1256 
f 1248 1254 1256 
o convex_86
v -0.006657 0.000293 0.018592
v 0.000477 0.009618 0.017495
v 0.000477 0.008794 0.017769
v -0.018994 0.009618 0.015849
v -0.019268 -0.001079 0.015575
v -0.008026 -0.001079 0.017495
v -0.018720 0.009618 0.015301
v 0.000477 0.008520 0.017221
v -0.003638 0.005227 0.018592
v -0.019542 -0.001079 0.016124
v 0.000477 0.004680 0.018592
v -0.007752 0.009618 0.017221
v -0.005559 -0.001079 0.018592
f 1262 1267 1269 
f 1260 1258 1263 
f 1261 1260 1263 
f 1261 1263 1264 
f 1258 1259 1264 
f 1262 1261 1264 
f 1263 1258 1264 
f 1260 1257 1265 
f 1257 1260 1266 
f 1260 1261 1266 
f 1261 1262 1266 
f 1264 1259 1267 
f 1262 1264 1267 
f 1265 1257 1267 
f 1259 1265 1267 
f 1259 1258 1268 
f 1258 1260 1268 
f 1265 1259 1268 
f 1260 1265 1268 
f 1257 1266 1269 
f 1266 1262 1269 
f 1267 1257 1269 
o convex_87
v 0.031194 0.000565 0.010636
v 0.036129 -0.009581 -0.004995
v 0.036405 -0.009581 -0.004995
v 0.036129 0.009618 -0.004995
v 0.027629 -0.009581 0.013380
v 0.027629 0.009618 0.013380
v 0.037776 0.000565 -0.004718
v 0.029275 -0.005465 0.013654
v 0.034210 0.006051 0.003234
v 0.034759 -0.006288 0.001861
v 0.027904 0.009618 0.014202
v 0.035581 -0.009581 -0.004170
v 0.027904 -0.009581 0.014202
v 0.029001 0.005228 0.014202
v 0.035855 0.009618 -0.002799
v 0.035033 -0.000254 0.002412
v 0.035581 0.009618 -0.004170
v 0.027629 -0.004916 0.015301
v 0.033114 -0.009581 0.003782
v 0.037227 -0.006288 -0.004444
v 0.037227 0.006325 -0.004444
f 1285 1276 1290 
f 1272 1271 1273 
f 1271 1272 1274 
f 1272 1273 1276 
f 1273 1275 1280 
f 1273 1271 1281 
f 1271 1274 1281 
f 1274 1275 1281 
f 1274 1272 1282 
f 1277 1270 1283 
f 1270 1278 1283 
f 1278 1280 1283 
f 1273 1280 1284 
f 1280 1278 1284 
f 1270 1277 1285 
f 1278 1270 1285 
f 1277 1279 1285 
f 1275 1273 1286 
f 1273 1281 1286 
f 1281 1275 1286 
f 1275 1274 1287 
f 1280 1275 1287 
f 1274 1282 1287 
f 1282 1277 1287 
f 1283 1280 1287 
f 1277 1283 1287 
f 1279 1277 1288 
f 1282 1272 1288 
f 1277 1282 1288 
f 1272 1276 1289 
f 1276 1285 1289 
f 1285 1279 1289 
f 1288 1272 1289 
f 1279 1288 1289 
f 1276 1273 1290 
f 1273 1284 1290 
f 1284 1278 1290 
f 1278 1285 1290 
o convex_88
v -0.039565 -0.001626 -0.022546
v -0.039840 0.009618 -0.016513
v -0.039565 0.009618 -0.016789
v -0.039840 -0.009581 -0.016513
v -0.037920 -0.009581 -0.021998
v -0.037920 0.009618 -0.022546
v -0.040937 -0.002175 -0.021449
v -0.040937 0.006051 -0.016789
v -0.040937 0.003035 -0.021175
v -0.040937 -0.006014 -0.016513
v -0.039840 -0.009581 -0.019257
v -0.039840 0.009618 -0.019257
v -0.038469 -0.009306 -0.022546
f 1301 1297 1303 
f 1293 1292 1294 
f 1293 1294 1295 
f 1293 1295 1296 
f 1292 1293 1296 
f 1297 1298 1299 
f 1296 1291 1299 
f 1291 1297 1299 
f 1294 1292 1300 
f 1292 1298 1300 
f 1298 1297 1300 
f 1295 1294 1301 
f 1294 1300 1301 
f 1300 1297 1301 
f 1292 1296 1302 
f 1298 1292 1302 
f 1299 1298 1302 
f 1296 1299 1302 
f 1296 1295 1303 
f 1291 1296 1303 
f 1297 1291 1303 
f 1295 1301 1303 
o convex_89
v -0.037644 -0.000804 -0.000333
v -0.040113 -0.009581 -0.016513
v -0.039839 -0.009581 -0.016513
v -0.032983 -0.009581 0.005702
v -0.039016 -0.009581 -0.007737
v -0.040662 -0.002450 -0.016513
v -0.034355 -0.000531 0.005426
v -0.040937 -0.000256 -0.011301
v -0.034630 -0.005740 0.005702
v -0.039565 -0.006562 -0.007187
v -0.040662 -0.006838 -0.012671
v -0.035727 -0.009581 0.001313
v -0.032983 -0.009306 0.005426
v -0.040662 -0.000256 -0.013495
v -0.035179 -0.000256 0.005426
v -0.037644 -0.006288 -0.001431
v -0.039290 -0.000256 -0.004723
v -0.040937 -0.006562 -0.016513
f 1314 1311 1321 
f 1305 1306 1307 
f 1305 1307 1308 
f 1306 1305 1309 
f 1307 1310 1312 
f 1305 1308 1314 
f 1308 1313 1314 
f 1313 1311 1314 
f 1308 1307 1315 
f 1307 1312 1315 
f 1307 1306 1316 
f 1306 1309 1316 
f 1309 1310 1316 
f 1310 1307 1316 
f 1310 1309 1317 
f 1309 1311 1317 
f 1317 1311 1318 
f 1304 1312 1318 
f 1312 1310 1318 
f 1310 1317 1318 
f 1312 1304 1319 
f 1313 1308 1319 
f 1308 1315 1319 
f 1315 1312 1319 
f 1311 1313 1320 
f 1318 1311 1320 
f 1304 1318 1320 
f 1319 1304 1320 
f 1313 1319 1320 
f 1309 1305 1321 
f 1311 1309 1321 
f 1305 1314 1321 
o convex_90
v 0.040794 0.000293 -0.020625
v 0.038873 -0.009581 -0.015689
v 0.038873 -0.009305 -0.016237
v 0.044633 -0.008209 -0.015140
v 0.038873 0.000293 -0.009657
v 0.044633 -0.008757 -0.008834
v 0.044633 0.000293 -0.018158
v 0.038873 -0.008484 -0.008834
v 0.038873 -0.003547 -0.020625
v 0.044633 -0.003822 -0.018158
v 0.038873 0.000293 -0.020902
v 0.040794 -0.006562 -0.018980
v 0.044084 -0.009581 -0.010756
v 0.038873 -0.009581 -0.010481
f 1334 1327 1335 
f 1323 1324 1325 
f 1324 1323 1326 
f 1322 1326 1328 
f 1326 1327 1328 
f 1327 1325 1328 
f 1326 1323 1329 
f 1327 1326 1329 
f 1324 1326 1330 
f 1322 1328 1331 
f 1328 1325 1331 
f 1330 1322 1331 
f 1326 1322 1332 
f 1322 1330 1332 
f 1330 1326 1332 
f 1325 1324 1333 
f 1324 1330 1333 
f 1331 1325 1333 
f 1330 1331 1333 
f 1323 1325 1334 
f 1325 1327 1334 
f 1329 1323 1335 
f 1327 1329 1335 
f 1323 1334 1335 
o convex_91
v 0.020772 0.021136 0.014204
v 0.012544 0.017023 0.015026
v 0.018577 0.009618 0.015026
v 0.012544 0.026895 0.012832
v 0.023240 0.009618 0.013107
v 0.013094 0.025522 0.015301
v 0.023789 0.015652 0.015301
v 0.023789 0.018667 0.012832
v 0.012544 0.022230 0.013107
v 0.020223 0.009618 0.015301
v 0.018031 0.024426 0.013107
v 0.023789 0.009618 0.013656
f 1342 1345 1347 
f 1339 1337 1341 
f 1336 1341 1342 
f 1340 1339 1343 
f 1336 1342 1343 
f 1338 1337 1344 
f 1337 1339 1344 
f 1339 1340 1344 
f 1340 1338 1344 
f 1337 1338 1345 
f 1338 1340 1345 
f 1341 1337 1345 
f 1342 1341 1345 
f 1341 1336 1346 
f 1339 1341 1346 
f 1336 1343 1346 
f 1343 1339 1346 
f 1340 1343 1347 
f 1343 1342 1347 
f 1345 1340 1347 
o convex_92
v 0.039970 0.007971 -0.017885
v 0.038873 0.000293 -0.020902
v 0.038873 0.001391 -0.020902
v 0.038873 0.008519 -0.009657
v 0.039696 0.000293 -0.012949
v 0.038873 0.000293 -0.009932
v 0.039970 0.009069 -0.009657
v 0.039970 0.000293 -0.020625
v 0.038873 0.009618 -0.015689
f 1354 1348 1356 
f 1350 1349 1351 
f 1349 1352 1353 
f 1351 1349 1353 
f 1351 1353 1354 
f 1353 1352 1354 
f 1354 1352 1355 
f 1350 1348 1355 
f 1349 1350 1355 
f 1352 1349 1355 
f 1348 1354 1355 
f 1348 1350 1356 
f 1350 1351 1356 
f 1351 1354 1356 
o convex_93
v 0.049842 0.007148 -0.009933
v 0.039970 0.000293 -0.020627
v 0.039970 0.001392 -0.020627
v 0.039970 0.009069 -0.009658
v 0.051762 0.000293 -0.009383
v 0.040246 0.008519 -0.017334
v 0.046279 0.003584 -0.017334
v 0.050117 0.000293 -0.013772
v 0.045457 0.009067 -0.012675
v 0.046279 0.009067 -0.009383
v 0.049294 0.005502 -0.013224
v 0.039970 0.009618 -0.015415
v 0.044085 0.006325 -0.017334
v 0.052036 0.003310 -0.009383
v 0.046006 0.000293 -0.017883
v 0.041069 0.003859 -0.020077
v 0.039970 0.008794 -0.009658
v 0.040246 0.000293 -0.020077
v 0.045183 0.007972 -0.015142
f 1367 1369 1375 
f 1359 1358 1360 
f 1361 1358 1364 
f 1357 1365 1366 
f 1364 1363 1367 
f 1359 1360 1368 
f 1362 1359 1368 
f 1360 1366 1368 
f 1366 1365 1368 
f 1367 1363 1369 
f 1361 1364 1370 
f 1357 1366 1370 
f 1366 1361 1370 
f 1367 1357 1370 
f 1364 1367 1370 
f 1358 1359 1371 
f 1364 1358 1371 
f 1363 1364 1371 
f 1359 1362 1372 
f 1362 1369 1372 
f 1369 1363 1372 
f 1371 1359 1372 
f 1363 1371 1372 
f 1360 1358 1373 
f 1361 1366 1373 
f 1366 1360 1373 
f 1358 1361 1374 
f 1373 1358 1374 
f 1361 1373 1374 
f 1365 1357 1375 
f 1357 1367 1375 
f 1362 1368 1375 
f 1368 1365 1375 
f 1369 1362 1375 
o convex_94
v 0.021593 0.033204 -0.010206
v 0.011996 0.037592 -0.019256
v 0.011996 0.037865 -0.019256
v 0.011996 0.036494 -0.007463
v 0.023514 0.031286 -0.019256
v 0.018302 0.035947 -0.015690
v 0.023514 0.030187 -0.008286
v 0.012271 0.037865 -0.010754
v 0.023514 0.032383 -0.018981
v 0.017757 0.034849 -0.007738
v 0.023789 0.030736 -0.007463
v 0.023789 0.032383 -0.013769
v 0.012271 0.037316 -0.019256
v 0.018027 0.035671 -0.019256
v 0.012271 0.038415 -0.016786
f 1381 1389 1390 
f 1378 1377 1379 
f 1377 1378 1380 
f 1378 1379 1383 
f 1376 1381 1385 
f 1383 1379 1385 
f 1381 1383 1385 
f 1379 1382 1386 
f 1382 1380 1386 
f 1376 1385 1386 
f 1385 1379 1386 
f 1381 1376 1387 
f 1380 1384 1387 
f 1384 1381 1387 
f 1386 1380 1387 
f 1376 1386 1387 
f 1379 1377 1388 
f 1377 1380 1388 
f 1382 1379 1388 
f 1380 1382 1388 
f 1380 1378 1389 
f 1384 1380 1389 
f 1381 1384 1389 
f 1378 1383 1390 
f 1383 1381 1390 
f 1389 1378 1390 
o convex_95
v 0.024064 0.016473 0.014752
v 0.028177 0.009618 0.012009
v 0.028451 0.009618 0.012009
v 0.028177 0.018120 0.004605
v 0.024338 0.011538 0.013655
v 0.027629 0.010441 0.014204
v 0.023789 0.018120 0.012282
v 0.028451 0.018120 0.005702
v 0.025435 0.009618 0.013106
v 0.025435 0.009618 0.015301
v 0.023789 0.013457 0.013106
f 1399 1395 1401 
f 1393 1392 1394 
f 1393 1394 1398 
f 1396 1393 1398 
f 1391 1396 1398 
f 1397 1391 1398 
f 1394 1397 1398 
f 1392 1393 1399 
f 1394 1392 1399 
f 1391 1395 1400 
f 1393 1396 1400 
f 1396 1391 1400 
f 1399 1393 1400 
f 1395 1399 1400 
f 1395 1391 1401 
f 1391 1397 1401 
f 1397 1394 1401 
f 1394 1399 1401 
o convex_96
v 0.054232 0.000293 -0.004172
v 0.046279 0.009069 -0.008833
v 0.046828 0.008794 -0.007737
v 0.044633 0.003310 -0.003349
v 0.052037 0.000293 -0.009383
v 0.051489 0.006874 -0.003349
v 0.051489 0.005503 -0.009108
v 0.044633 0.008794 -0.009383
v 0.046554 0.007149 -0.003624
v 0.054232 0.002488 -0.003349
v 0.048747 0.008246 -0.009383
v 0.044633 0.007971 -0.006092
v 0.053958 0.000293 -0.003349
f 1411 1405 1414 
f 1403 1404 1407 
f 1402 1406 1408 
f 1406 1405 1409 
f 1407 1404 1410 
f 1405 1407 1410 
f 1407 1405 1411 
f 1402 1408 1411 
f 1408 1407 1411 
f 1403 1407 1412 
f 1407 1408 1412 
f 1408 1406 1412 
f 1409 1403 1412 
f 1406 1409 1412 
f 1404 1403 1413 
f 1403 1409 1413 
f 1409 1405 1413 
f 1410 1404 1413 
f 1405 1410 1413 
f 1406 1402 1414 
f 1405 1406 1414 
f 1402 1411 1414 
o convex_97
v -0.036546 0.018666 -0.019532
v -0.029420 0.009618 -0.031871
v -0.029420 0.010166 -0.031871
v -0.023384 0.018941 -0.031596
v -0.039290 0.009618 -0.018433
v -0.034078 0.017296 -0.024743
v -0.037644 0.009893 -0.023645
v -0.036001 0.018666 -0.018433
v -0.029147 0.009618 -0.030773
v -0.024210 0.019217 -0.031871
v -0.024210 0.018941 -0.030225
v -0.038467 0.012635 -0.021177
v -0.034353 0.019217 -0.023096
v -0.027501 0.014553 -0.031871
v -0.036273 0.019217 -0.018433
v -0.036272 0.012088 -0.024743
v -0.039840 0.010166 -0.018708
f 1419 1429 1431 
f 1417 1416 1421 
f 1416 1419 1421 
f 1416 1418 1423 
f 1419 1416 1423 
f 1416 1417 1424 
f 1418 1416 1424 
f 1422 1419 1425 
f 1423 1418 1425 
f 1419 1423 1425 
f 1418 1424 1425 
f 1424 1420 1427 
f 1426 1415 1427 
f 1420 1426 1427 
f 1417 1420 1428 
f 1424 1417 1428 
f 1420 1424 1428 
f 1419 1422 1429 
f 1422 1425 1429 
f 1425 1424 1429 
f 1427 1415 1429 
f 1424 1427 1429 
f 1420 1417 1430 
f 1417 1421 1430 
f 1426 1420 1430 
f 1421 1426 1430 
f 1421 1419 1431 
f 1415 1426 1431 
f 1426 1421 1431 
f 1429 1415 1431 
o convex_98
v 0.028723 0.019765 -0.026662
v 0.017756 0.035672 -0.019256
v 0.018305 0.035397 -0.019256
v 0.033661 0.019765 -0.019256
v 0.017481 0.023881 -0.030499
v 0.025712 0.027993 -0.023371
v 0.017758 0.024155 -0.031872
v 0.032017 0.023605 -0.019532
v 0.017758 0.033203 -0.023920
v 0.021323 0.019765 -0.031596
v 0.017481 0.035123 -0.019256
v 0.023241 0.032381 -0.019532
v 0.028997 0.022509 -0.025017
v 0.022145 0.020041 -0.031872
v 0.025708 0.026350 -0.025017
v 0.033387 0.020041 -0.021451
v 0.021049 0.029911 -0.025291
v 0.027628 0.027719 -0.021451
v 0.022694 0.032107 -0.021176
v 0.022418 0.019765 -0.029951
f 1436 1441 1451 
f 1434 1433 1435 
f 1434 1435 1439 
f 1433 1434 1440 
f 1438 1436 1440 
f 1432 1435 1441 
f 1436 1438 1441 
f 1435 1433 1442 
f 1436 1435 1442 
f 1433 1440 1442 
f 1440 1436 1442 
f 1434 1439 1443 
f 1432 1441 1445 
f 1441 1438 1445 
f 1444 1432 1445 
f 1444 1445 1446 
f 1445 1438 1446 
f 1435 1432 1447 
f 1439 1435 1447 
f 1432 1444 1447 
f 1438 1440 1448 
f 1437 1446 1448 
f 1446 1438 1448 
f 1443 1439 1449 
f 1444 1446 1449 
f 1446 1437 1449 
f 1439 1447 1449 
f 1447 1444 1449 
f 1440 1434 1450 
f 1434 1443 1450 
f 1437 1448 1450 
f 1448 1440 1450 
f 1443 1449 1450 
f 1449 1437 1450 
f 1435 1436 1451 
f 1441 1435 1451 
o convex_99
v -0.020917 0.032651 -0.023370
v -0.036274 0.019217 -0.018983
v -0.035725 0.019217 -0.020354
v -0.023111 0.019217 -0.031596
v -0.020367 0.034574 -0.018433
v -0.028595 0.027170 -0.022822
v -0.020917 0.022784 -0.031872
v -0.031885 0.019492 -0.025564
v -0.035725 0.019217 -0.018433
v -0.028321 0.029638 -0.018433
v -0.020367 0.022511 -0.030772
v -0.026402 0.026347 -0.025564
v -0.032709 0.023335 -0.021725
v -0.024760 0.032379 -0.019532
v -0.023660 0.020042 -0.031872
v -0.020367 0.030459 -0.025838
v -0.030513 0.022511 -0.025017
v -0.033529 0.023880 -0.018983
v -0.022564 0.029911 -0.025290
f 1467 1458 1470 
f 1453 1454 1455 
f 1455 1454 1459 
f 1453 1455 1460 
f 1460 1456 1461 
f 1455 1458 1462 
f 1460 1455 1462 
f 1456 1460 1462 
f 1459 1454 1464 
f 1456 1452 1465 
f 1452 1457 1465 
f 1461 1456 1465 
f 1457 1461 1465 
f 1458 1455 1466 
f 1455 1459 1466 
f 1463 1458 1466 
f 1452 1456 1467 
f 1456 1462 1467 
f 1462 1458 1467 
f 1457 1463 1468 
f 1459 1464 1468 
f 1464 1457 1468 
f 1466 1459 1468 
f 1463 1466 1468 
f 1454 1453 1469 
f 1453 1460 1469 
f 1460 1461 1469 
f 1461 1457 1469 
f 1464 1454 1469 
f 1457 1464 1469 
f 1457 1452 1470 
f 1463 1457 1470 
f 1458 1463 1470 
f 1452 1467 1470 
o convex_100
v -0.022014 0.027167 0.005429
v -0.028321 0.012909 0.012558
v -0.028046 0.012909 0.012558
v -0.016527 0.026345 0.012832
v -0.016527 0.030736 0.003508
v -0.028321 0.021960 0.003782
v -0.023657 0.020863 0.012832
v -0.028046 0.021140 0.003508
v -0.016527 0.025521 0.012558
v -0.028321 0.014281 0.012832
v -0.017351 0.031007 0.003782
v -0.019545 0.024976 0.012284
v -0.024755 0.025798 0.003782
f 1477 1482 1483 
f 1473 1472 1478 
f 1475 1473 1478 
f 1472 1476 1478 
f 1474 1473 1479 
f 1475 1474 1479 
f 1473 1475 1479 
f 1472 1473 1480 
f 1473 1474 1480 
f 1476 1472 1480 
f 1477 1476 1480 
f 1474 1477 1480 
f 1474 1475 1481 
f 1477 1474 1482 
f 1481 1471 1482 
f 1474 1481 1482 
f 1476 1477 1483 
f 1475 1478 1483 
f 1478 1476 1483 
f 1471 1481 1483 
f 1481 1475 1483 
f 1482 1471 1483 
o convex_101
v -0.003090 0.038689 -0.022273
v -0.011864 0.027445 -0.031871
v -0.011315 0.027445 -0.031871
v -0.011864 0.038139 -0.018433
v -0.000347 0.039511 -0.018708
v -0.000347 0.029913 -0.031871
v -0.011589 0.035397 -0.025017
v -0.011315 0.027994 -0.030499
v -0.000347 0.030189 -0.030225
v -0.000347 0.037318 -0.024468
v -0.006652 0.029640 -0.031871
v -0.007750 0.039511 -0.019257
v -0.006926 0.036493 -0.025017
v -0.011864 0.037592 -0.021724
v -0.000347 0.040061 -0.019257
v -0.000896 0.030189 -0.031871
f 1494 1496 1499 
f 1486 1485 1489 
f 1485 1486 1491 
f 1487 1485 1491 
f 1488 1487 1491 
f 1486 1489 1492 
f 1489 1488 1492 
f 1491 1486 1492 
f 1488 1491 1492 
f 1488 1489 1493 
f 1489 1485 1494 
f 1485 1490 1494 
f 1487 1488 1495 
f 1484 1493 1496 
f 1494 1490 1496 
f 1485 1487 1497 
f 1490 1485 1497 
f 1495 1484 1497 
f 1487 1495 1497 
f 1496 1490 1497 
f 1484 1496 1497 
f 1493 1484 1498 
f 1488 1493 1498 
f 1484 1495 1498 
f 1495 1488 1498 
f 1493 1489 1499 
f 1489 1494 1499 
f 1496 1493 1499 
o convex_102
v 0.006236 0.039512 -0.011852
v -0.000346 0.039512 -0.019256
v -0.000346 0.038689 -0.008287
v 0.011996 0.036769 -0.008835
v 0.011996 0.038141 -0.019256
v 0.000752 0.040335 -0.016513
v 0.011172 0.037593 -0.019256
v 0.011996 0.037318 -0.008011
v -0.000346 0.039238 -0.008011
v 0.011172 0.038689 -0.015690
v 0.006784 0.039512 -0.018707
f 1500 1509 1510 
f 1502 1501 1506 
f 1503 1502 1506 
f 1504 1503 1506 
f 1501 1504 1506 
f 1502 1503 1507 
f 1503 1504 1507 
f 1501 1502 1508 
f 1505 1501 1508 
f 1500 1505 1508 
f 1507 1500 1508 
f 1502 1507 1508 
f 1500 1507 1509 
f 1507 1504 1509 
f 1504 1501 1510 
f 1501 1505 1510 
f 1505 1500 1510 
f 1509 1504 1510 
o convex_103
v -0.017077 0.037044 -0.014867
v -0.028321 0.029091 -0.018433
v -0.028321 0.029640 -0.018433
v -0.028321 0.028267 -0.008011
v -0.016527 0.035397 -0.008560
v -0.024206 0.032655 -0.010756
v -0.016802 0.036219 -0.018433
v -0.028046 0.027719 -0.008560
v -0.024755 0.032928 -0.016513
v -0.018998 0.035122 -0.008286
v -0.019819 0.035672 -0.018433
v -0.028321 0.029640 -0.012675
v -0.019545 0.035947 -0.013770
v -0.027498 0.029365 -0.018433
f 1518 1512 1524 
f 1513 1512 1514 
f 1512 1513 1517 
f 1511 1515 1517 
f 1517 1515 1518 
f 1514 1512 1518 
f 1515 1514 1518 
f 1515 1511 1520 
f 1514 1515 1520 
f 1516 1514 1520 
f 1511 1517 1521 
f 1517 1513 1521 
f 1513 1519 1521 
f 1513 1514 1522 
f 1514 1516 1522 
f 1519 1513 1522 
f 1516 1519 1522 
f 1519 1516 1523 
f 1520 1511 1523 
f 1516 1520 1523 
f 1511 1521 1523 
f 1521 1519 1523 
f 1512 1517 1524 
f 1517 1518 1524 
o convex_104
v -0.018723 0.033478 -0.003073
v -0.028321 0.021411 0.002958
v -0.028046 0.021411 0.002958
v -0.028321 0.027721 -0.008011
v -0.016527 0.035122 -0.007736
v -0.016527 0.030733 0.003508
v -0.025578 0.025251 0.003508
v -0.024206 0.031832 -0.007736
v -0.028321 0.027171 -0.004719
v -0.022289 0.028542 0.002684
v -0.016802 0.031558 0.003232
v -0.017351 0.035672 -0.008011
v -0.028046 0.027446 -0.007736
v -0.028046 0.022508 0.003508
v -0.023107 0.030186 -0.001705
f 1531 1534 1539 
f 1527 1529 1530 
f 1528 1526 1533 
f 1532 1528 1533 
f 1534 1531 1535 
f 1530 1529 1535 
f 1531 1530 1535 
f 1525 1534 1535 
f 1529 1528 1536 
f 1528 1532 1536 
f 1532 1525 1536 
f 1525 1535 1536 
f 1535 1529 1536 
f 1527 1526 1537 
f 1526 1528 1537 
f 1528 1529 1537 
f 1529 1527 1537 
f 1526 1527 1538 
f 1527 1530 1538 
f 1530 1531 1538 
f 1533 1526 1538 
f 1531 1533 1538 
f 1525 1532 1539 
f 1533 1531 1539 
f 1532 1533 1539 
f 1534 1525 1539 
o convex_105
v -0.005557 0.039512 -0.010481
v -0.016527 0.036496 -0.018433
v -0.016527 0.037044 -0.018433
v -0.000346 0.040061 -0.018433
v -0.015978 0.035672 -0.008560
v -0.000346 0.038963 -0.009383
v -0.013784 0.038414 -0.015416
v -0.012962 0.037593 -0.008560
v -0.007752 0.039786 -0.017334
v -0.000346 0.040335 -0.014318
v -0.016527 0.036770 -0.010756
v -0.000346 0.039786 -0.018433
v -0.000346 0.039237 -0.008560
v -0.007477 0.039786 -0.013497
f 1549 1548 1553 
f 1541 1542 1543 
f 1543 1542 1548 
f 1542 1546 1548 
f 1545 1543 1549 
f 1543 1548 1549 
f 1542 1541 1550 
f 1541 1544 1550 
f 1546 1542 1550 
f 1544 1547 1550 
f 1547 1546 1550 
f 1541 1543 1551 
f 1544 1541 1551 
f 1545 1544 1551 
f 1543 1545 1551 
f 1544 1545 1552 
f 1547 1544 1552 
f 1540 1547 1552 
f 1545 1549 1552 
f 1549 1540 1552 
f 1546 1547 1553 
f 1547 1540 1553 
f 1548 1546 1553 
f 1540 1549 1553 
