o convex_0
v -0.012398 -0.030425 -0.005448
v 0.006011 0.032640 0.005139
v 0.006011 0.032640 -0.000440
v 0.034481 -0.009777 0.000125
v 0.010483 -0.003640 -0.036159
v -0.029146 0.006953 0.020771
v -0.024681 0.009191 -0.024988
v 0.017177 -0.012008 0.025797
v 0.016621 0.020353 0.023001
v 0.020524 0.020909 -0.019409
v 0.018850 -0.028757 -0.007125
v -0.006259 -0.026526 0.020212
v -0.020216 0.027609 0.009606
v -0.027473 -0.017595 -0.011033
v -0.005704 -0.018151 -0.032804
v -0.006815 0.022021 -0.027777
v 0.031134 0.014216 0.011843
v -0.015751 0.011978 0.028028
v 0.023877 -0.010333 -0.026665
v -0.024126 -0.017595 0.017422
v -0.034167 0.006404 0.000119
v 0.025551 -0.020382 0.015751
v -0.014633 -0.003640 -0.035034
v -0.023008 0.024815 -0.009362
v 0.030016 0.008072 -0.017178
v -0.004586 0.027615 0.021889
v -0.015751 -0.012008 0.026356
v 0.007691 -0.025401 -0.024988
v 0.011594 0.012534 -0.033357
v 0.031134 -0.003083 0.018540
v 0.008247 -0.031551 0.009047
v 0.023877 0.025377 0.004027
v -0.032493 -0.009220 0.007376
v -0.026917 -0.007546 -0.022198
v -0.004586 0.030965 -0.011593
v -0.007933 0.011978 -0.035034
v 0.021086 0.005841 0.025797
v -0.015751 -0.022057 -0.023316
v -0.022445 -0.024851 0.005698
v -0.025799 0.020909 0.015192
v -0.001239 -0.030994 -0.013823
v 0.027224 -0.020938 -0.011033
v 0.009365 0.027609 -0.017731
v 0.008802 -0.023170 0.023008
v 0.032252 0.013653 -0.003783
v 0.021086 0.004722 -0.030567
v -0.010724 0.032077 0.003461
v 0.012712 -0.017595 -0.031132
v 0.013267 0.028171 0.016310
v 0.004337 0.021471 0.026350
v -0.030264 0.018122 -0.003230
v -0.032493 -0.000846 -0.011593
v 0.032807 -0.005314 -0.012711
v 0.025551 -0.024845 0.004586
v -0.005141 -0.032107 0.005698
v 0.035036 0.004722 0.005698
v 0.000990 -0.001965 0.028021
v -0.026917 -0.003077 0.023001
v -0.018543 0.019797 0.024120
v -0.016862 0.022028 -0.022198
v 0.021641 0.025934 -0.007125
v -0.003468 -0.017589 0.026356
v 0.026669 0.017003 0.017422
v 0.006573 0.019790 -0.030008
f 16 43 64 
f 5 15 23 
f 20 12 27 
f 22 4 30 
f 8 22 30 
f 3 2 32 
f 6 21 33 
f 7 23 34 
f 23 7 36 
f 5 23 36 
f 29 5 36 
f 8 30 37 
f 1 14 38 
f 23 15 38 
f 14 34 38 
f 34 23 38 
f 14 1 39 
f 12 20 39 
f 33 14 39 
f 20 33 39 
f 21 6 40 
f 28 11 41 
f 15 28 41 
f 11 31 41 
f 1 38 41 
f 38 15 41 
f 11 28 42 
f 35 3 43 
f 16 35 43 
f 22 8 44 
f 12 31 44 
f 31 22 44 
f 25 10 45 
f 32 17 45 
f 19 5 46 
f 10 25 46 
f 25 19 46 
f 29 10 46 
f 5 29 46 
f 2 3 47 
f 24 13 47 
f 26 2 47 
f 13 26 47 
f 3 35 47 
f 35 24 47 
f 15 5 48 
f 5 19 48 
f 28 15 48 
f 19 42 48 
f 42 28 48 
f 2 26 49 
f 32 2 49 
f 37 9 50 
f 9 49 50 
f 49 26 50 
f 13 24 51 
f 24 7 51 
f 21 40 51 
f 40 13 51 
f 14 33 52 
f 33 21 52 
f 34 14 52 
f 7 34 52 
f 51 7 52 
f 21 51 52 
f 19 25 53 
f 4 42 53 
f 42 19 53 
f 25 45 53 
f 4 22 54 
f 31 11 54 
f 22 31 54 
f 42 4 54 
f 11 42 54 
f 31 12 55 
f 39 1 55 
f 12 39 55 
f 1 41 55 
f 41 31 55 
f 30 4 56 
f 17 30 56 
f 45 17 56 
f 4 53 56 
f 53 45 56 
f 18 27 57 
f 8 37 57 
f 50 18 57 
f 37 50 57 
f 18 6 58 
f 27 18 58 
f 20 27 58 
f 33 20 58 
f 6 33 58 
f 6 18 59 
f 26 13 59 
f 40 6 59 
f 13 40 59 
f 18 50 59 
f 50 26 59 
f 7 24 60 
f 35 16 60 
f 24 35 60 
f 36 7 60 
f 16 36 60 
f 3 32 61 
f 10 43 61 
f 43 3 61 
f 45 10 61 
f 32 45 61 
f 27 12 62 
f 44 8 62 
f 12 44 62 
f 8 57 62 
f 57 27 62 
f 30 17 63 
f 17 32 63 
f 9 37 63 
f 37 30 63 
f 49 9 63 
f 32 49 63 
f 10 29 64 
f 36 16 64 
f 29 36 64 
f 43 10 64 
o convex_1
v -0.010170 0.000263 0.038637
v 0.000992 0.000263 0.030267
v 0.000992 -0.001410 0.030267
v -0.004589 -0.002526 0.042547
v -0.009053 -0.004759 0.036964
v -0.004032 0.000821 0.028034
v -0.005146 0.002497 0.039754
v -0.000683 -0.003085 0.028034
v -0.010170 0.000821 0.035290
v -0.000125 0.001939 0.028034
v -0.009053 0.002497 0.036964
v -0.004032 -0.001968 0.028034
v -0.005146 -0.004201 0.040312
v -0.007937 -0.002526 0.041989
v -0.004589 -0.000295 0.042547
v -0.010170 -0.002526 0.035290
v -0.007937 0.000821 0.041429
v -0.000125 0.000821 0.033617
v -0.009612 -0.003643 0.039754
v -0.006263 -0.004759 0.039754
v -0.001241 -0.003085 0.033617
v -0.000683 -0.001410 0.035290
v 0.000992 -0.001968 0.028034
v -0.002915 0.002497 0.035290
v -0.002357 0.001939 0.028034
f 75 88 89 
f 72 70 74 
f 73 65 75 
f 72 69 76 
f 70 72 76 
f 73 70 76 
f 78 68 79 
f 65 73 80 
f 76 69 80 
f 73 76 80 
f 75 65 81 
f 71 75 81 
f 65 78 81 
f 79 71 81 
f 78 79 81 
f 67 66 82 
f 66 74 82 
f 71 79 82 
f 78 65 83 
f 65 80 83 
f 80 69 83 
f 69 72 84 
f 77 68 84 
f 68 78 84 
f 83 69 84 
f 78 83 84 
f 68 77 85 
f 84 72 85 
f 77 84 85 
f 79 68 86 
f 67 82 86 
f 82 79 86 
f 85 67 86 
f 68 85 86 
f 66 67 87 
f 74 66 87 
f 72 74 87 
f 67 85 87 
f 85 72 87 
f 75 71 88 
f 71 82 88 
f 82 74 88 
f 70 73 89 
f 74 70 89 
f 73 75 89 
f 88 74 89 
