o convex_0
v 0.048599 -0.032723 0.001271
v 0.049746 0.032601 0.002991
v 0.049746 0.032601 -0.002738
v 0.003907 0.016551 0.002409
v 0.039439 -0.002350 -0.032536
v 0.067505 -0.002350 0.023613
v 0.073809 -0.001775 -0.014197
v 0.003907 -0.013809 0.009865
v 0.037715 0.001084 0.032789
v 0.003907 -0.009224 -0.014197
v 0.039439 0.020567 -0.025656
v 0.042295 -0.022403 0.024764
v 0.048022 -0.024698 -0.021646
v 0.039439 0.022856 0.024188
v 0.070376 0.018272 0.009289
v 0.068082 -0.022403 0.004705
v 0.062924 0.015976 -0.022215
v 0.003907 0.006237 0.015594
v 0.030841 -0.030428 -0.002156
v 0.003907 0.006813 -0.015342
v 0.062355 -0.011513 -0.025080
v 0.030841 0.030306 -0.005027
v 0.057190 0.017696 0.025333
v 0.076103 -0.002919 0.007569
v 0.032557 -0.020689 -0.023366
v 0.057190 -0.018394 0.024757
v 0.064071 -0.024123 -0.010757
v 0.070945 0.018841 -0.005027
v 0.032557 0.028586 0.013305
v 0.028547 -0.009800 0.028198
v 0.033134 -0.027563 0.015594
v 0.052040 -0.004070 0.032207
v 0.056620 0.007382 -0.029665
v 0.003907 -0.015529 -0.006748
v 0.050893 0.028017 -0.016486
v 0.029124 0.025721 -0.015342
v 0.052040 -0.028701 0.015019
v 0.052040 0.028579 0.015588
v 0.031418 0.005093 -0.030234
v 0.035428 -0.029283 -0.013052
v 0.072662 -0.014378 -0.008461
v 0.037715 0.012542 0.030493
v 0.049746 -0.010375 -0.030816
v 0.062355 0.027435 -0.004452
v 0.067505 -0.018394 0.015019
v 0.029694 -0.006935 -0.029096
v 0.003907 0.015407 -0.006748
v 0.027977 0.019985 0.021893
v 0.003907 -0.001775 0.016739
v 0.075533 0.007958 -0.006172
v 0.070376 0.009102 0.018459
v 0.054903 0.006237 0.031062
v 0.049169 0.013687 -0.029665
v 0.033704 -0.016104 0.027628
v 0.068652 0.006807 -0.021071
v 0.029694 0.018265 -0.023935
v 0.052610 -0.030997 -0.007892
v 0.061208 0.026296 0.011585
v 0.028547 0.005662 0.029342
v 0.003907 -0.016673 0.002409
v 0.003907 0.013687 0.009865
v 0.060061 -0.028701 0.004705
v 0.039439 0.029730 -0.014197
v 0.046875 -0.012089 0.031069
f 54 12 64 
f 8 4 10 
f 4 8 18 
f 10 4 20 
f 2 3 22 
f 13 21 27 
f 2 22 29 
f 22 4 29 
f 19 1 31 
f 26 6 32 
f 8 10 34 
f 10 25 34 
f 26 12 37 
f 31 1 37 
f 12 31 37 
f 14 23 38 
f 2 29 38 
f 29 14 38 
f 1 19 40 
f 25 13 40 
f 19 34 40 
f 34 25 40 
f 21 7 41 
f 7 24 41 
f 24 16 41 
f 16 27 41 
f 27 21 41 
f 23 14 42 
f 21 13 43 
f 13 25 43 
f 5 33 43 
f 33 21 43 
f 3 2 44 
f 15 28 44 
f 28 17 44 
f 17 35 44 
f 35 3 44 
f 24 6 45 
f 16 24 45 
f 6 26 45 
f 26 37 45 
f 10 20 46 
f 25 10 46 
f 39 5 46 
f 20 39 46 
f 5 43 46 
f 43 25 46 
f 20 4 47 
f 4 22 47 
f 22 36 47 
f 14 29 48 
f 42 14 48 
f 18 8 49 
f 8 30 49 
f 15 24 50 
f 24 7 50 
f 28 15 50 
f 15 23 51 
f 6 24 51 
f 24 15 51 
f 32 6 52 
f 9 32 52 
f 42 9 52 
f 23 42 52 
f 6 51 52 
f 51 23 52 
f 33 5 53 
f 17 33 53 
f 11 35 53 
f 35 17 53 
f 5 39 53 
f 39 11 53 
f 30 8 54 
f 9 30 54 
f 31 12 54 
f 8 31 54 
f 7 21 55 
f 17 28 55 
f 33 17 55 
f 21 33 55 
f 50 7 55 
f 28 50 55 
f 36 11 56 
f 11 39 56 
f 39 20 56 
f 20 47 56 
f 47 36 56 
f 13 27 57 
f 1 40 57 
f 40 13 57 
f 23 15 58 
f 2 38 58 
f 38 23 58 
f 44 2 58 
f 15 44 58 
f 30 9 59 
f 9 42 59 
f 48 18 59 
f 42 48 59 
f 18 49 59 
f 49 30 59 
f 31 8 60 
f 19 31 60 
f 8 34 60 
f 34 19 60 
f 4 18 61 
f 29 4 61 
f 18 48 61 
f 48 29 61 
f 27 16 62 
f 37 1 62 
f 16 45 62 
f 45 37 62 
f 1 57 62 
f 57 27 62 
f 22 3 63 
f 35 11 63 
f 3 35 63 
f 11 36 63 
f 36 22 63 
f 12 26 64 
f 32 9 64 
f 26 32 64 
f 9 54 64 
o convex_1
v -0.007555 -0.014384 -0.003881
v -0.014433 0.015984 0.000698
v -0.014433 0.015406 0.004708
v -0.039644 -0.005216 -0.002162
v -0.026464 -0.004072 0.015598
v -0.024742 0.003372 -0.015918
v -0.028754 0.015406 0.002416
v -0.007555 0.002801 0.014450
v -0.007555 0.009679 -0.011331
v -0.025892 -0.015531 -0.005025
v -0.012712 -0.013813 0.008722
v -0.027610 0.007955 0.013877
v -0.011569 -0.006937 -0.014771
v -0.028754 0.014834 -0.005602
v -0.026464 -0.013813 0.008722
v -0.039644 0.002226 0.004708
v -0.030475 -0.008083 -0.011905
v -0.039644 0.003372 -0.004454
v -0.007555 0.011969 0.008718
v -0.007555 -0.008655 0.012155
v -0.007555 0.001085 -0.014771
v -0.010422 0.013113 -0.009613
v -0.039644 -0.003497 0.004137
v -0.031047 0.004519 -0.013052
v -0.025892 -0.016106 0.002416
v -0.027610 0.013113 0.009292
v -0.024742 0.009676 -0.013052
v -0.011569 -0.013238 -0.009613
v -0.025317 -0.009227 -0.013626
v -0.010994 0.006812 -0.014771
v -0.013287 0.005665 0.015024
v -0.012712 -0.005790 0.015024
v -0.012140 -0.016106 -0.002162
v -0.007555 0.014262 -0.003884
v -0.031618 -0.003497 0.012732
v -0.031618 -0.013238 0.001271
v -0.039644 0.005090 0.000698
v -0.027035 -0.009801 0.012732
v -0.031047 -0.002351 -0.013626
v -0.007555 -0.009227 -0.011905
v -0.030475 -0.012666 -0.006747
v -0.024742 -0.003497 -0.015918
v -0.027610 0.002801 0.015598
v -0.007555 -0.013813 0.005856
v -0.010994 -0.002926 -0.015918
v -0.013287 0.011966 0.010440
v -0.039644 -0.002926 -0.005025
v -0.031618 -0.010948 0.007574
v -0.013287 -0.010948 0.012158
v -0.031047 0.007955 -0.011334
v -0.012140 -0.015531 0.004708
v -0.025892 -0.013238 -0.009613
v -0.012712 0.002226 0.015598
v -0.031618 0.010823 0.007574
v -0.010422 0.014834 -0.006176
v -0.007555 0.014262 0.003563
v -0.031618 0.005090 0.012158
v -0.027610 0.015984 -0.001015
v -0.013862 0.009102 0.013306
v -0.024171 0.013113 -0.009613
v -0.010994 0.002801 -0.015918
v -0.031047 -0.007508 0.011584
v -0.039644 -0.005216 0.001845
v -0.007555 0.008530 0.012155
f 110 123 128 
f 72 65 73 
f 68 80 82 
f 72 73 83 
f 65 72 84 
f 73 65 85 
f 80 68 87 
f 67 71 90 
f 70 88 91 
f 77 92 93 
f 73 85 94 
f 86 73 94 
f 70 91 94 
f 91 86 94 
f 84 72 96 
f 89 74 97 
f 92 65 97 
f 74 92 97 
f 83 73 98 
f 73 86 98 
f 80 87 99 
f 74 89 100 
f 89 79 100 
f 71 78 101 
f 78 82 101 
f 82 80 101 
f 96 69 102 
f 88 70 103 
f 85 65 104 
f 65 92 104 
f 92 77 104 
f 100 68 105 
f 74 100 105 
f 77 93 106 
f 93 81 106 
f 81 103 106 
f 103 70 106 
f 95 76 107 
f 99 69 107 
f 65 84 108 
f 84 75 108 
f 97 65 108 
f 85 104 109 
f 104 77 109 
f 106 70 109 
f 77 106 109 
f 83 67 110 
f 67 90 110 
f 68 82 111 
f 82 88 111 
f 103 81 111 
f 88 103 111 
f 105 68 111 
f 81 105 111 
f 100 79 112 
f 79 102 112 
f 79 75 113 
f 75 84 113 
f 84 96 113 
f 102 79 113 
f 96 102 113 
f 82 78 114 
f 88 82 114 
f 78 91 114 
f 91 88 114 
f 75 79 115 
f 79 89 115 
f 89 97 115 
f 108 75 115 
f 97 108 115 
f 92 74 116 
f 81 93 116 
f 93 92 116 
f 105 81 116 
f 74 105 116 
f 72 95 117 
f 69 96 117 
f 96 72 117 
f 107 69 117 
f 95 107 117 
f 90 71 118 
f 76 90 118 
f 71 101 118 
f 101 80 118 
f 66 98 119 
f 98 86 119 
f 66 67 120 
f 67 83 120 
f 98 66 120 
f 83 98 120 
f 80 99 121 
f 107 76 121 
f 99 107 121 
f 76 118 121 
f 118 80 121 
f 67 66 122 
f 71 67 122 
f 78 71 122 
f 66 119 122 
f 119 78 122 
f 90 76 123 
f 76 95 123 
f 110 90 123 
f 86 91 124 
f 91 78 124 
f 78 119 124 
f 119 86 124 
f 94 85 125 
f 70 94 125 
f 85 109 125 
f 109 70 125 
f 69 99 126 
f 99 87 126 
f 102 69 126 
f 87 112 126 
f 112 102 126 
f 87 68 127 
f 68 100 127 
f 112 87 127 
f 100 112 127 
f 72 83 128 
f 95 72 128 
f 83 110 128 
f 123 95 128 
o convex_2
v -0.006407 0.013113 -0.007322
v 0.003904 0.003947 0.016171
v 0.003332 0.003947 0.016171
v 0.003904 -0.015530 -0.006174
v -0.007552 -0.012665 0.008146
v 0.003905 0.013689 -0.009611
v -0.007552 -0.004644 -0.014199
v -0.007552 0.011969 0.008722
v 0.003904 0.001655 -0.016491
v 0.003904 -0.013238 0.010438
v 0.003905 0.015981 0.004706
v -0.007552 -0.003496 0.014451
v -0.007552 -0.013810 -0.005602
v -0.007552 0.009104 -0.011907
v 0.003904 -0.009801 -0.013623
v 0.003332 -0.016106 0.004137
v 0.003332 -0.007508 0.015023
v -0.007552 0.014261 -0.003882
v -0.007552 0.006812 0.013303
v 0.003905 0.010252 0.013303
v -0.006407 -0.014958 0.001272
v -0.007552 -0.012090 -0.009042
v 0.003333 0.015981 -0.004454
v -0.007552 0.001655 -0.014771
v 0.002758 0.008532 -0.014199
v -0.007552 0.014261 0.003561
v -0.007552 -0.008653 0.012159
v 0.003332 -0.001779 -0.016491
v 0.003904 -0.004071 0.016171
v 0.003333 0.016557 0.000697
v 0.003333 0.014261 0.008718
v 0.002185 -0.016106 -0.003309
v -0.007552 0.003375 0.014451
v -0.007552 -0.009225 -0.011907
v 0.003332 -0.013238 -0.010186
v -0.007552 0.004519 -0.014199
v -0.007552 -0.014382 0.004137
v 0.003332 -0.006361 -0.015343
v 0.001612 -0.001779 0.016171
v 0.003904 -0.014958 0.007574
v 0.003332 -0.010373 0.013303
v 0.003904 0.006239 -0.015343
v -0.007552 0.013689 0.005854
v 0.003333 0.007387 0.015023
v -0.006407 0.010249 0.011011
v 0.002758 0.012541 0.011011
v -0.006980 -0.010945 0.010438
v -0.007552 -0.014382 -0.003882
v -0.007552 0.011396 -0.009614
v 0.002185 0.011396 -0.011907
v -0.006407 0.014837 -0.000445
v -0.007552 -0.006936 0.013303
v -0.007552 -0.007508 -0.013051
f 135 166 181 
f 135 133 136 
f 136 133 140 
f 133 135 141 
f 135 136 142 
f 134 132 143 
f 137 134 143 
f 142 136 146 
f 136 140 147 
f 132 134 148 
f 134 139 148 
f 132 141 150 
f 141 135 150 
f 134 129 151 
f 139 134 151 
f 129 146 151 
f 135 142 152 
f 146 136 154 
f 140 133 155 
f 137 143 156 
f 135 152 156 
f 152 137 156 
f 130 131 157 
f 140 145 157 
f 148 130 157 
f 138 148 157 
f 139 151 158 
f 154 139 158 
f 148 139 159 
f 132 144 160 
f 144 149 160 
f 147 140 161 
f 150 135 162 
f 150 162 163 
f 143 132 163 
f 132 150 163 
f 162 143 163 
f 137 152 164 
f 152 142 164 
f 142 153 164 
f 133 141 165 
f 149 144 165 
f 156 143 166 
f 135 156 166 
f 157 131 167 
f 140 157 167 
f 131 161 167 
f 161 140 167 
f 138 133 168 
f 144 132 168 
f 132 148 168 
f 148 138 168 
f 133 165 168 
f 165 144 168 
f 138 157 169 
f 157 145 169 
f 134 137 170 
f 153 134 170 
f 137 164 170 
f 164 153 170 
f 154 136 171 
f 139 154 171 
f 159 139 171 
f 136 159 171 
f 131 130 172 
f 130 148 172 
f 148 147 172 
f 161 131 172 
f 147 161 172 
f 136 147 173 
f 147 148 173 
f 148 159 174 
f 159 136 174 
f 136 173 174 
f 173 148 174 
f 133 138 175 
f 155 133 175 
f 138 169 175 
f 169 155 175 
f 141 132 176 
f 132 160 176 
f 160 149 176 
f 165 141 176 
f 149 165 176 
f 129 134 177 
f 146 129 177 
f 142 146 177 
f 153 142 178 
f 134 153 178 
f 177 134 178 
f 142 177 178 
f 151 146 179 
f 146 154 179 
f 158 151 179 
f 154 158 179 
f 145 140 180 
f 140 155 180 
f 155 169 180 
f 169 145 180 
f 162 135 181 
f 143 162 181 
f 166 143 181 
