o convex_0
v 0.047020 -0.036056 -0.003196
v 0.017674 -0.024180 -0.033944
v 0.022565 -0.036056 -0.030449
v 0.002298 -0.024180 0.011484
v 0.051220 -0.018586 -0.009477
v 0.000201 -0.036056 -0.002497
v -0.002593 -0.018588 -0.016468
v 0.028850 -0.018588 0.020572
v 0.018371 -0.036056 0.016377
v 0.039335 -0.018588 -0.029750
v 0.040730 -0.036056 -0.023459
v 0.042832 -0.024180 0.013576
v 0.005098 -0.036056 -0.022060
v -0.002593 -0.018588 0.003095
v 0.037238 -0.036056 0.012877
v 0.008589 -0.018588 -0.030449
v 0.011383 -0.018588 0.018469
v 0.049123 -0.018586 0.004493
v 0.049123 -0.024178 -0.017866
v 0.032347 -0.024180 -0.033245
v -0.003987 -0.024180 -0.010875
v 0.007195 -0.036056 0.010785
v 0.028850 -0.024180 0.020572
v 0.029553 -0.018588 -0.033944
v 0.001601 -0.024180 -0.024158
v 0.010681 -0.036056 -0.026948
v 0.011383 -0.024180 0.018469
v 0.049123 -0.024178 0.004493
v 0.000898 -0.036056 -0.014365
v 0.047020 -0.036056 -0.010875
v 0.051220 -0.024178 -0.003895
v 0.044226 -0.036056 0.005192
v -0.002593 -0.024180 0.003095
v 0.042129 -0.024180 -0.027648
v 0.033747 -0.036056 -0.028347
v 0.039335 -0.018588 0.016377
v 0.018371 -0.024180 0.020572
v 0.047718 -0.018588 -0.020657
v 0.008589 -0.024180 -0.030449
v 0.028850 -0.036056 0.016377
v 0.033747 -0.024180 0.019168
v 0.003698 -0.036056 0.006590
v 0.005795 -0.018588 0.014974
v 0.017674 -0.018588 -0.033944
v -0.002593 -0.024180 -0.016468
v -0.003987 -0.018588 -0.002497
v 0.051220 -0.024178 -0.009477
v -0.003987 -0.024180 -0.002497
v 0.029553 -0.024180 -0.033944
v 0.045626 -0.036056 -0.015764
v 0.044923 -0.024180 -0.024857
v 0.001601 -0.018588 -0.024158
v 0.012080 -0.036056 0.014275
v 0.005795 -0.024180 0.014974
v 0.037238 -0.024180 -0.031143
v 0.018371 -0.018588 0.020572
v 0.017674 -0.036056 -0.029750
v 0.012777 -0.024180 -0.032541
v 0.046323 -0.018588 0.009387
v 0.039335 -0.024180 0.016377
v 0.000201 -0.018588 0.008688
v 0.046323 -0.024180 0.009387
v 0.029553 -0.036056 -0.029750
v 0.002298 -0.036056 -0.017861
f 29 45 64 
f 3 1 6 
f 6 1 9 
f 1 3 11 
f 3 6 13 
f 9 1 15 
f 5 7 18 
f 6 9 22 
f 5 10 24 
f 10 20 24 
f 3 13 26 
f 13 6 29 
f 6 21 29 
f 1 11 30 
f 5 18 31 
f 28 1 31 
f 18 28 31 
f 1 30 31 
f 15 1 32 
f 12 15 32 
f 1 28 32 
f 11 3 35 
f 18 8 36 
f 23 8 37 
f 9 23 37 
f 17 27 37 
f 27 9 37 
f 10 5 38 
f 5 19 38 
f 25 16 39 
f 13 25 39 
f 26 13 39 
f 9 15 40 
f 23 9 40 
f 23 40 41 
f 8 23 41 
f 36 8 41 
f 40 15 41 
f 22 4 42 
f 6 22 42 
f 4 33 42 
f 33 6 42 
f 17 18 43 
f 27 17 43 
f 16 5 44 
f 5 24 44 
f 24 2 44 
f 21 7 45 
f 7 25 45 
f 29 21 45 
f 14 18 46 
f 18 7 46 
f 7 21 46 
f 33 14 46 
f 19 5 47 
f 30 19 47 
f 31 30 47 
f 5 31 47 
f 21 6 48 
f 6 33 48 
f 46 21 48 
f 33 46 48 
f 3 2 49 
f 2 24 49 
f 24 20 49 
f 30 11 50 
f 19 30 50 
f 34 10 51 
f 11 34 51 
f 10 38 51 
f 38 19 51 
f 50 11 51 
f 19 50 51 
f 7 5 52 
f 5 16 52 
f 25 7 52 
f 16 25 52 
f 22 9 53 
f 9 27 53 
f 53 27 54 
f 4 22 54 
f 43 4 54 
f 27 43 54 
f 22 53 54 
f 20 10 55 
f 10 34 55 
f 34 11 55 
f 35 20 55 
f 11 35 55 
f 18 17 56 
f 8 18 56 
f 37 8 56 
f 17 37 56 
f 2 3 57 
f 3 26 57 
f 39 16 58 
f 26 39 58 
f 16 44 58 
f 44 2 58 
f 2 57 58 
f 57 26 58 
f 28 18 59 
f 36 12 59 
f 18 36 59 
f 15 12 60 
f 12 36 60 
f 41 15 60 
f 36 41 60 
f 18 14 61 
f 33 4 61 
f 14 33 61 
f 4 43 61 
f 43 18 61 
f 12 32 62 
f 32 28 62 
f 59 12 62 
f 28 59 62 
f 20 35 63 
f 35 3 63 
f 3 49 63 
f 49 20 63 
f 25 13 64 
f 13 29 64 
f 45 25 64 
o convex_1
v -0.063398 -0.012990 -0.019963
v -0.010286 0.012863 0.030353
v -0.010286 0.010067 0.030353
v -0.010286 -0.014388 -0.043729
v -0.059207 0.014958 -0.042330
v -0.059904 -0.015085 0.029653
v -0.060606 0.014261 0.028253
v -0.010286 0.017758 -0.040230
v -0.010286 -0.015786 0.028953
v -0.059207 -0.015790 -0.042330
v -0.028463 -0.018586 0.031753
v -0.025666 0.017758 0.026853
v -0.036148 0.003773 0.033152
v -0.063398 0.012863 0.005887
v -0.010286 -0.015786 -0.042322
v -0.057112 0.016360 -0.008073
v -0.059904 0.012863 -0.043729
v -0.010286 0.017758 0.026861
v -0.010286 0.013564 -0.043729
v -0.062701 -0.013691 0.017070
v -0.026368 0.017758 -0.040230
v -0.062004 0.012863 -0.037430
v -0.022172 -0.012993 0.033152
v -0.059904 -0.013691 -0.043729
v -0.059207 0.012863 0.030353
v -0.062004 -0.015790 0.003095
v -0.039636 -0.012293 0.033152
v -0.032654 -0.018586 0.028953
v -0.063398 0.013560 -0.013665
v -0.014482 -0.017188 0.024061
v -0.053618 0.016360 0.014970
v -0.061302 -0.014388 -0.041622
v -0.061302 0.012863 0.028953
v -0.020071 -0.003207 0.033152
v -0.053618 0.016360 -0.029739
v -0.059904 -0.015790 0.028253
v -0.063398 -0.013691 0.005887
v -0.010286 -0.013691 0.030345
v -0.059904 0.014958 0.027553
v -0.061302 -0.013691 0.028953
v -0.059904 -0.012990 0.030353
v -0.062004 0.014958 -0.001097
v -0.062004 -0.015790 -0.016464
v -0.027064 0.004474 0.033152
v -0.033350 -0.018586 0.031753
v -0.041035 -0.002506 0.033152
v -0.033350 -0.016483 0.033152
v -0.063398 0.012162 -0.019963
v -0.062701 -0.013691 -0.030439
v -0.062004 0.012863 0.024061
v -0.061302 0.012863 -0.042330
v -0.059207 0.014261 0.029653
v -0.027064 0.017758 0.025461
v -0.060606 0.014958 -0.035338
v -0.059207 0.013560 -0.043729
v -0.063398 -0.014388 -0.015064
v -0.060606 -0.015790 -0.036031
v -0.062701 0.012863 -0.030439
v -0.027064 0.017758 -0.038830
v -0.059904 0.012162 0.030353
v -0.062701 0.012162 0.017070
v -0.062701 0.014261 0.007287
v -0.028463 -0.018586 0.028953
v -0.010286 0.014261 0.029653
f 82 116 128 
f 66 67 68 
f 66 68 72 
f 68 67 73 
f 68 73 79 
f 74 68 79 
f 66 72 82 
f 72 76 82 
f 72 68 83 
f 68 81 83 
f 76 72 85 
f 72 83 85 
f 68 74 88 
f 81 68 88 
f 87 77 91 
f 65 78 93 
f 73 75 94 
f 79 73 94 
f 88 74 96 
f 67 66 98 
f 77 87 98 
f 85 69 99 
f 84 90 100 
f 78 65 101 
f 84 78 101 
f 90 84 101 
f 73 67 102 
f 75 73 102 
f 87 75 102 
f 67 98 102 
f 98 87 102 
f 95 80 103 
f 100 70 104 
f 84 100 104 
f 104 70 105 
f 97 104 105 
f 103 80 106 
f 66 89 108 
f 89 77 108 
f 98 66 108 
f 77 98 108 
f 92 75 109 
f 74 92 109 
f 70 100 109 
f 100 90 109 
f 90 107 109 
f 91 77 110 
f 105 91 110 
f 75 87 111 
f 87 91 111 
f 105 70 111 
f 91 105 111 
f 109 75 111 
f 70 109 111 
f 65 93 112 
f 86 96 113 
f 65 112 113 
f 97 71 114 
f 84 104 114 
f 104 97 114 
f 81 88 115 
f 96 86 115 
f 88 96 115 
f 82 76 116 
f 89 66 116 
f 71 97 116 
f 103 71 116 
f 76 103 116 
f 76 85 117 
f 80 95 117 
f 103 76 117 
f 95 103 117 
f 99 69 118 
f 80 99 118 
f 106 80 118 
f 93 106 118 
f 69 115 118 
f 115 86 118 
f 83 81 119 
f 69 85 119 
f 85 83 119 
f 115 69 119 
f 81 115 119 
f 101 65 120 
f 90 101 120 
f 107 90 120 
f 113 96 120 
f 65 113 120 
f 96 74 121 
f 74 109 121 
f 109 107 121 
f 107 120 121 
f 120 96 121 
f 112 93 122 
f 86 113 122 
f 113 112 122 
f 118 86 122 
f 93 118 122 
f 99 80 123 
f 85 99 123 
f 117 85 123 
f 80 117 123 
f 77 89 124 
f 97 105 124 
f 110 77 124 
f 105 110 124 
f 89 116 124 
f 116 97 124 
f 78 84 125 
f 114 78 125 
f 84 114 125 
f 93 78 126 
f 71 103 126 
f 106 93 126 
f 103 106 126 
f 114 71 126 
f 78 114 126 
f 74 79 127 
f 75 92 127 
f 92 74 127 
f 94 75 127 
f 79 94 127 
f 66 82 128 
f 116 66 128 
o convex_2
v 0.067287 0.013564 -0.041626
v -0.010278 -0.014392 -0.043729
v 0.018374 -0.018586 -0.039534
v -0.010278 0.014958 -0.006686
v 0.065890 -0.015790 -0.006686
v -0.009579 -0.018586 -0.006686
v 0.063095 0.017758 -0.006686
v -0.010278 0.017758 -0.040230
v 0.065890 -0.015089 -0.043026
v -0.010278 0.013560 -0.043729
v 0.062397 0.017758 -0.040230
v 0.056109 -0.018586 -0.006686
v 0.065191 0.013564 -0.043729
v 0.067287 0.013564 -0.006686
v 0.067287 -0.014388 -0.041626
v 0.044931 -0.018586 -0.032543
v 0.065890 -0.013687 -0.043729
v -0.002593 -0.018586 -0.027652
v 0.067287 -0.014388 -0.006686
v -0.010278 -0.015790 -0.042330
v 0.065890 -0.015790 -0.041626
v -0.010278 -0.015790 -0.006686
v -0.010278 0.017758 -0.038134
v 0.053314 -0.018586 -0.022068
v 0.060301 0.017758 -0.006686
v 0.029545 -0.018586 -0.039534
v 0.005092 -0.018586 -0.034639
v -0.006785 -0.018586 -0.020668
v 0.063095 0.017758 -0.039534
v -0.010278 0.017057 -0.040930
v 0.067287 0.012863 -0.042330
v 0.056109 -0.018586 -0.013677
v 0.036539 -0.018586 -0.037435
f 154 149 161 
f 133 132 134 
f 132 133 135 
f 130 132 136 
f 130 136 138 
f 136 135 139 
f 134 131 140 
f 133 134 140 
f 130 138 141 
f 129 135 142 
f 135 133 142 
f 129 142 143 
f 140 131 144 
f 137 130 145 
f 130 141 145 
f 143 137 145 
f 131 134 146 
f 142 133 147 
f 133 143 147 
f 143 142 147 
f 130 131 148 
f 132 130 148 
f 133 140 149 
f 143 133 149 
f 137 143 149 
f 134 132 150 
f 132 148 150 
f 148 134 150 
f 136 132 151 
f 135 136 151 
f 140 144 152 
f 144 149 152 
f 132 135 153 
f 151 132 153 
f 135 151 153 
f 131 130 154 
f 130 137 154 
f 144 131 154 
f 137 149 154 
f 131 146 155 
f 148 131 155 
f 146 148 155 
f 146 134 156 
f 134 148 156 
f 148 146 156 
f 135 129 157 
f 139 135 157 
f 129 141 157 
f 141 139 157 
f 138 136 158 
f 136 139 158 
f 141 138 158 
f 139 141 158 
f 141 129 159 
f 129 143 159 
f 145 141 159 
f 143 145 159 
f 149 140 160 
f 140 152 160 
f 152 149 160 
f 149 144 161 
f 144 154 161 
o convex_3
v 0.005092 -0.001808 0.031754
v -0.010278 -0.015790 -0.006686
v -0.010278 0.014958 -0.006686
v 0.067287 0.013564 -0.006686
v 0.065890 -0.015790 0.028255
v 0.062397 0.017758 0.026859
v 0.065890 -0.015790 -0.006686
v -0.010278 0.017758 0.026855
v -0.010278 -0.015790 0.028955
v 0.063095 0.017758 -0.006686
v 0.056109 -0.018586 -0.006686
v 0.065890 0.012162 0.030355
v 0.010689 -0.018586 0.024063
v -0.009579 -0.018586 -0.006686
v 0.061698 -0.017188 0.028955
v -0.010278 0.012859 0.030355
v 0.065890 -0.013691 0.030355
v -0.001894 -0.011595 0.031754
v 0.067287 -0.014388 0.028255
v 0.067287 0.013564 0.028255
v 0.067287 -0.014388 -0.006686
v 0.042827 -0.018586 0.020568
v -0.005388 -0.018586 0.010092
v 0.019073 -0.018586 0.026159
v -0.010278 0.017758 0.024759
v 0.065191 0.014257 0.029655
v -0.010278 -0.013691 0.030355
v -0.002593 -0.000414 0.031754
v 0.060301 0.017758 -0.006686
v 0.034443 -0.017188 0.028955
v 0.054712 -0.018586 0.005197
v -0.005388 -0.008102 0.031754
v 0.006490 -0.007401 0.031754
v 0.065191 0.012863 0.030355
v -0.010278 0.014257 0.029655
v 0.001599 -0.018586 0.018472
v 0.063095 0.017758 0.026159
v 0.031641 -0.018586 0.025459
v -0.010278 0.017057 0.027555
v 0.067287 0.012863 0.028955
v -0.008881 -0.018586 0.000309
f 175 184 202 
f 163 164 165 
f 163 165 168 
f 164 163 169 
f 169 163 170 
f 165 164 171 
f 169 167 171 
f 163 168 172 
f 172 174 175 
f 170 163 175 
f 163 172 175 
f 168 166 176 
f 172 168 176 
f 169 170 177 
f 176 166 178 
f 176 178 179 
f 166 168 180 
f 178 166 180 
f 165 171 181 
f 180 165 181 
f 168 165 182 
f 165 180 182 
f 180 168 182 
f 174 172 183 
f 175 174 184 
f 170 174 185 
f 174 183 185 
f 164 169 186 
f 169 171 186 
f 177 170 188 
f 179 162 189 
f 171 164 190 
f 164 186 190 
f 186 171 190 
f 176 179 191 
f 170 185 191 
f 185 176 191 
f 188 170 191 
f 179 188 191 
f 172 176 192 
f 183 172 192 
f 176 183 192 
f 177 188 193 
f 188 179 193 
f 179 189 193 
f 189 177 193 
f 173 162 194 
f 178 173 194 
f 179 178 194 
f 162 179 194 
f 162 173 195 
f 173 187 195 
f 189 162 195 
f 177 189 195 
f 169 177 196 
f 177 195 196 
f 195 187 196 
f 174 170 197 
f 170 184 197 
f 184 174 197 
f 171 167 198 
f 181 171 198 
f 167 187 198 
f 187 181 198 
f 183 176 199 
f 176 185 199 
f 185 183 199 
f 167 169 200 
f 187 167 200 
f 169 196 200 
f 196 187 200 
f 173 178 201 
f 178 180 201 
f 180 181 201 
f 187 173 201 
f 181 187 201 
f 170 175 202 
f 184 170 202 
