o convex_0
v -0.020345 -0.013056 0.024213
v 0.005370 0.020435 0.020620
v 0.006567 0.019833 0.023014
v 0.029894 -0.005881 0.018227
v 0.004173 -0.002293 0.045143
v -0.017951 0.009067 0.010455
v -0.019148 0.009665 0.034973
v 0.003577 -0.019637 0.013442
v 0.013149 0.010861 0.007459
v 0.030495 0.006675 0.029588
v 0.003577 -0.017245 0.033173
v -0.001802 -0.016647 0.007459
v 0.030495 -0.007077 0.028990
v -0.000605 0.014452 0.037961
v -0.015562 -0.008870 0.038558
v -0.008378 0.019833 0.017633
v -0.017355 -0.004685 0.007459
v -0.025730 0.000692 0.027795
v -0.001201 0.016844 0.007459
v 0.012548 -0.011860 0.007459
v -0.011374 -0.019039 0.024811
v 0.027505 0.010865 0.022417
v 0.001188 0.003686 0.045143
v -0.016753 0.016246 0.024811
v 0.020923 -0.014256 0.020624
v 0.031091 0.003084 0.017629
v -0.011970 -0.017241 0.014044
v -0.023335 -0.005283 0.015840
v -0.007187 0.018036 0.031982
v -0.007783 -0.014252 0.037961
v -0.018546 0.000692 0.039160
v 0.009558 0.017442 0.012247
v -0.023931 0.007273 0.021222
v 0.006567 -0.019637 0.024213
v -0.009576 0.011459 0.039757
v 0.031091 0.003084 0.031384
v 0.005370 -0.005283 0.043944
v 0.005966 0.004882 0.043944
v 0.004774 0.016844 0.033173
v -0.019744 -0.010066 0.033774
v -0.004792 -0.002293 0.044538
v 0.015538 -0.004681 0.007459
v -0.016158 0.015046 0.015239
v -0.017951 0.003084 0.007459
v 0.031091 -0.003485 0.031384
v -0.002999 -0.020837 0.018828
v -0.023931 0.000692 0.015239
v -0.024533 -0.005283 0.029588
v -0.002999 -0.018437 0.031982
v 0.008360 -0.015451 0.007459
v -0.011970 0.003682 0.042147
v -0.020345 -0.010664 0.015239
v -0.024533 0.004280 0.030783
v 0.023312 0.013252 0.023014
v 0.031692 -0.002887 0.018227
v 0.027505 -0.010668 0.024807
v -0.014960 -0.015451 0.031384
v 0.004774 0.020435 0.016434
v -0.013167 -0.011262 0.008061
v 0.005966 -0.020235 0.016434
v -0.005388 0.020435 0.023612
v -0.022138 -0.003485 0.035571
v 0.003577 -0.013658 0.037363
v -0.009576 0.013252 0.007459
f 19 44 64 
f 9 12 17 
f 9 17 19 
f 12 9 20 
f 9 22 26 
f 22 10 26 
f 21 1 27 
f 24 7 29 
f 9 19 32 
f 22 9 32 
f 23 14 35 
f 14 29 35 
f 29 7 35 
f 26 10 36 
f 23 5 38 
f 14 23 38 
f 5 36 38 
f 36 10 38 
f 3 29 39 
f 29 14 39 
f 38 10 39 
f 14 38 39 
f 5 23 41 
f 15 30 41 
f 31 15 41 
f 37 5 41 
f 30 37 41 
f 20 9 42 
f 9 26 42 
f 24 16 43 
f 33 24 43 
f 6 33 43 
f 19 17 44 
f 36 5 45 
f 37 13 45 
f 5 37 45 
f 12 8 46 
f 27 12 46 
f 21 27 46 
f 17 28 47 
f 28 18 47 
f 18 33 47 
f 33 6 47 
f 6 44 47 
f 44 17 47 
f 18 28 48 
f 28 1 48 
f 1 40 48 
f 11 30 49 
f 34 11 49 
f 21 46 49 
f 46 34 49 
f 8 12 50 
f 20 4 50 
f 12 20 50 
f 4 25 50 
f 7 31 51 
f 23 35 51 
f 35 7 51 
f 41 23 51 
f 31 41 51 
f 27 1 52 
f 28 17 52 
f 1 28 52 
f 7 24 53 
f 31 7 53 
f 33 18 53 
f 24 33 53 
f 2 3 54 
f 10 22 54 
f 22 32 54 
f 3 39 54 
f 39 10 54 
f 13 4 55 
f 4 20 55 
f 26 36 55 
f 20 42 55 
f 42 26 55 
f 45 13 55 
f 36 45 55 
f 4 13 56 
f 13 11 56 
f 25 4 56 
f 11 34 56 
f 34 25 56 
f 1 21 57 
f 30 15 57 
f 40 1 57 
f 15 40 57 
f 49 30 57 
f 21 49 57 
f 19 16 58 
f 32 19 58 
f 2 54 58 
f 54 32 58 
f 17 12 59 
f 12 27 59 
f 27 52 59 
f 52 17 59 
f 25 34 60 
f 46 8 60 
f 34 46 60 
f 8 50 60 
f 50 25 60 
f 3 2 61 
f 16 24 61 
f 29 3 61 
f 24 29 61 
f 2 58 61 
f 58 16 61 
f 15 31 62 
f 40 15 62 
f 18 48 62 
f 48 40 62 
f 31 53 62 
f 53 18 62 
f 11 13 63 
f 30 11 63 
f 13 37 63 
f 37 30 63 
f 16 19 64 
f 43 16 64 
f 6 43 64 
f 44 6 64 
o convex_1
v -0.001805 -0.030996 -0.037393
v -0.003604 0.032996 -0.027232
v -0.003604 0.032996 -0.028422
v -0.057432 -0.003483 -0.015872
v 0.018532 -0.005878 -0.003905
v 0.008359 0.015639 -0.048766
v -0.044272 0.005476 -0.045772
v -0.052044 0.009064 -0.003905
v 0.030496 0.001889 -0.033213
v -0.026920 -0.029805 -0.024847
v 0.013747 0.025210 -0.014673
v -0.039486 0.024617 -0.036203
v -0.027523 -0.022025 -0.046369
v -0.050847 -0.009466 -0.003905
v 0.013145 -0.026810 -0.016469
v 0.019729 -0.016048 -0.043976
v -0.047861 -0.017239 -0.034407
v 0.012551 0.028205 -0.039193
v -0.017349 0.025815 -0.046369
v 0.014341 0.012052 -0.003905
v 0.024506 -0.020833 -0.026037
v -0.001212 -0.024414 -0.010488
v 0.028697 0.010262 -0.021255
v -0.011376 0.030002 -0.018265
v -0.006591 -0.019030 -0.048766
v -0.053834 0.009663 -0.030218
v -0.027523 0.030601 -0.027825
v -0.032902 0.004278 -0.048766
v 0.025108 0.011453 -0.041587
v -0.002408 0.015646 -0.003905
v 0.006569 -0.015443 -0.003905
v 0.018532 0.027612 -0.027227
v 0.009556 -0.028607 -0.040392
v -0.035897 -0.027415 -0.032611
v -0.009586 -0.031602 -0.020654
v -0.049651 -0.006477 -0.040985
v 0.026898 -0.010664 -0.017070
v 0.012551 -0.013652 -0.048165
v 0.012551 -0.030404 -0.026037
v -0.013760 -0.028008 -0.044577
v -0.056227 0.006075 -0.003905
v -0.041879 0.024018 -0.028422
v -0.015559 -0.032800 -0.029625
v 0.028103 -0.011855 -0.036203
v -0.055030 -0.008867 -0.008696
v 0.026304 0.017443 -0.033810
v 0.024506 -0.002890 -0.043976
v -0.035295 -0.008867 -0.048165
v -0.014957 0.029403 -0.041587
v -0.006591 0.025815 -0.012280
v 0.024506 0.007866 -0.011687
v -0.026920 0.017436 -0.048165
v 0.017930 -0.027409 -0.033208
v 0.000587 0.028211 -0.043980
v -0.040080 -0.025013 -0.027232
v -0.044866 0.013849 -0.042184
v -0.055030 -0.007076 -0.028426
v 0.004770 -0.025013 -0.045772
v 0.023309 0.019233 -0.018866
v 0.029894 -0.007076 -0.023051
v -0.041276 -0.016647 -0.042781
v 0.005373 0.030601 -0.020056
v -0.028719 0.025815 -0.042781
v -0.052044 0.004285 -0.037995
f 100 121 128 
f 69 72 78 
f 72 69 84 
f 66 67 91 
f 88 66 91 
f 72 88 91 
f 70 89 92 
f 70 82 93 
f 72 84 94 
f 84 75 94 
f 69 78 95 
f 79 69 95 
f 78 86 95 
f 86 79 95 
f 67 66 96 
f 82 67 96 
f 78 74 99 
f 86 78 99 
f 79 86 99 
f 69 79 101 
f 79 85 101 
f 89 70 102 
f 85 79 103 
f 65 97 103 
f 79 99 103 
f 77 89 104 
f 97 65 104 
f 98 77 104 
f 78 72 105 
f 90 68 105 
f 90 105 106 
f 76 90 106 
f 72 91 106 
f 91 76 106 
f 105 72 106 
f 74 98 107 
f 99 74 107 
f 65 103 107 
f 103 99 107 
f 104 65 107 
f 98 104 107 
f 105 68 109 
f 78 105 109 
f 87 73 110 
f 73 93 110 
f 93 82 110 
f 82 96 110 
f 70 93 111 
f 93 73 111 
f 102 70 111 
f 80 102 111 
f 108 80 111 
f 73 108 111 
f 89 77 112 
f 71 92 112 
f 92 89 112 
f 100 71 112 
f 91 67 113 
f 88 72 114 
f 72 94 114 
f 94 75 114 
f 84 69 115 
f 69 101 115 
f 83 70 116 
f 92 71 116 
f 70 92 116 
f 97 80 117 
f 85 103 117 
f 103 97 117 
f 80 108 117 
f 108 85 117 
f 67 82 118 
f 82 70 118 
f 70 83 118 
f 113 67 118 
f 83 113 118 
f 74 78 119 
f 98 74 119 
f 81 98 119 
f 78 109 119 
f 109 81 119 
f 90 76 120 
f 116 71 120 
f 68 90 121 
f 100 81 121 
f 109 68 121 
f 81 109 121 
f 80 97 122 
f 89 102 122 
f 102 80 122 
f 104 89 122 
f 97 104 122 
f 75 84 123 
f 96 75 123 
f 87 110 123 
f 110 96 123 
f 84 115 123 
f 115 87 123 
f 73 87 124 
f 101 85 124 
f 108 73 124 
f 85 108 124 
f 87 115 124 
f 115 101 124 
f 77 98 125 
f 98 81 125 
f 81 100 125 
f 112 77 125 
f 100 112 125 
f 66 88 126 
f 96 66 126 
f 75 96 126 
f 114 75 126 
f 88 114 126 
f 76 91 127 
f 113 83 127 
f 91 113 127 
f 83 116 127 
f 120 76 127 
f 116 120 127 
f 71 100 128 
f 120 71 128 
f 90 120 128 
f 121 90 128 
o convex_2
v -0.053241 -0.008275 -0.003307
v -0.043676 0.009669 -0.003307
v -0.043676 0.009669 -0.003905
v -0.037695 -0.005284 -0.003307
v -0.050850 0.001892 0.007459
v -0.056831 0.004284 -0.003905
v -0.052045 -0.004088 0.006262
v -0.036499 0.003088 -0.003905
v -0.044275 -0.010070 -0.003905
v -0.047260 -0.003489 0.006262
v -0.055635 0.002491 0.003870
v -0.051448 0.008471 -0.001513
v -0.047260 0.004284 0.005664
v -0.056233 -0.005881 -0.003905
v -0.035900 0.000696 -0.003307
v -0.056233 -0.003489 0.001479
v -0.050252 0.005480 0.005067
v -0.037695 0.005480 -0.003307
v -0.055036 0.007275 -0.003307
v -0.047260 0.000696 0.006861
v -0.050252 -0.006480 0.003272
v -0.053241 0.004883 0.004467
v -0.053840 -0.001694 0.006262
v -0.040687 -0.008275 -0.003307
v -0.047859 -0.005284 0.005067
v -0.053840 -0.005284 0.003272
v -0.040687 0.008471 -0.003307
v -0.056831 -0.001694 0.000282
v -0.051448 0.009070 -0.003905
v -0.050252 -0.009471 -0.003307
v -0.035900 -0.001097 -0.003307
v -0.037695 -0.005284 -0.003905
v -0.047859 0.009669 -0.002708
v -0.050850 -0.001694 0.007459
v -0.044275 -0.010070 -0.003307
v -0.052643 0.002491 0.006861
f 151 162 164 
f 134 131 136 
f 134 136 137 
f 134 137 142 
f 141 130 145 
f 133 141 145 
f 143 136 146 
f 141 143 146 
f 134 139 147 
f 141 133 148 
f 143 141 148 
f 145 140 150 
f 147 139 150 
f 140 147 150 
f 139 144 151 
f 132 138 152 
f 152 138 153 
f 138 135 153 
f 135 149 153 
f 142 129 154 
f 144 142 154 
f 149 135 154 
f 135 151 154 
f 151 144 154 
f 131 130 155 
f 136 131 155 
f 130 141 155 
f 146 136 155 
f 141 146 155 
f 139 134 156 
f 134 142 156 
f 144 139 156 
f 142 144 156 
f 131 134 157 
f 134 147 157 
f 147 140 157 
f 129 142 158 
f 142 137 158 
f 154 129 158 
f 149 154 158 
f 138 132 159 
f 136 143 159 
f 148 138 159 
f 143 148 159 
f 137 136 160 
f 132 152 160 
f 152 137 160 
f 159 132 160 
f 136 159 160 
f 130 131 161 
f 145 130 161 
f 140 145 161 
f 131 157 161 
f 157 140 161 
f 135 138 162 
f 148 133 162 
f 138 148 162 
f 151 135 162 
f 137 152 163 
f 152 153 163 
f 153 149 163 
f 158 137 163 
f 149 158 163 
f 133 145 164 
f 150 139 164 
f 145 150 164 
f 139 151 164 
f 162 133 164 
o convex_3
v -0.004196 -0.014853 -0.003905
v 0.002976 0.016847 0.007459
v 0.002976 0.016847 0.006861
v -0.022736 0.000695 -0.003905
v 0.013746 0.012056 -0.003905
v 0.004173 -0.016650 0.007459
v -0.016752 -0.004685 0.007459
v 0.018529 -0.004682 -0.003307
v 0.015541 0.001889 0.007459
v -0.005986 0.014453 -0.003905
v -0.011970 0.010859 0.007459
v 0.011353 -0.013656 -0.003905
v 0.012545 -0.011266 0.007459
v -0.010769 -0.011863 0.007459
v -0.016752 -0.008872 -0.003905
v 0.011947 0.012059 0.007459
v 0.018529 0.004282 -0.003905
v -0.017949 0.007869 -0.003905
v -0.016752 0.004882 0.007459
v 0.002378 0.015650 -0.003905
v -0.004794 -0.015453 0.007459
v -0.004196 0.015650 0.007459
v -0.020941 -0.004685 -0.003307
v 0.005370 -0.015453 -0.003905
v 0.016140 -0.009469 -0.003905
v 0.014943 -0.005882 0.007459
v 0.005968 0.016246 0.006861
v -0.013761 0.010859 -0.003307
v -0.017949 0.000098 0.007459
v -0.020342 0.005476 -0.003307
v 0.007165 0.015050 -0.003905
v 0.009558 -0.014256 0.007459
v -0.013166 -0.011266 -0.003905
v -0.000614 -0.016650 0.006861
v 0.014943 0.006076 0.007459
v 0.016140 0.009666 -0.003307
v 0.019131 0.001292 -0.003307
v -0.022137 -0.002892 -0.003307
v -0.014961 -0.007676 0.007459
v 0.010156 0.013853 0.007459
v -0.002401 0.016246 0.006861
v -0.001208 -0.015453 -0.003905
v -0.006585 -0.014256 -0.003905
v -0.014961 0.007869 0.007459
v 0.011947 0.013256 -0.003905
v -0.022736 0.000695 -0.003307
v 0.000583 0.015650 -0.003905
v -0.007781 0.013853 0.007459
v 0.015541 -0.001692 0.007459
v 0.017935 -0.006479 -0.003307
f 190 177 214 
f 165 168 169 
f 170 166 171 
f 166 170 173 
f 169 168 174 
f 171 166 175 
f 165 169 176 
f 173 170 177 
f 170 171 178 
f 168 165 179 
f 166 173 180 
f 176 169 181 
f 174 168 182 
f 171 175 183 
f 169 174 184 
f 170 178 185 
f 175 166 186 
f 179 178 187 
f 165 176 188 
f 176 170 188 
f 181 172 189 
f 176 181 189 
f 173 177 190 
f 167 166 191 
f 174 182 192 
f 182 175 192 
f 186 174 192 
f 171 183 193 
f 182 168 194 
f 175 182 194 
f 184 167 195 
f 169 184 195 
f 167 191 195 
f 170 176 196 
f 177 170 196 
f 189 177 196 
f 176 189 196 
f 178 179 197 
f 179 165 197 
f 185 178 197 
f 170 185 198 
f 188 170 198 
f 180 173 199 
f 199 181 200 
f 181 169 200 
f 180 199 200 
f 172 181 201 
f 199 173 201 
f 181 199 201 
f 168 179 202 
f 179 187 202 
f 171 193 202 
f 178 171 203 
f 187 178 203 
f 171 202 203 
f 202 187 203 
f 166 180 204 
f 191 166 204 
f 200 169 204 
f 180 200 204 
f 166 167 205 
f 186 166 205 
f 174 186 205 
f 165 188 206 
f 198 165 206 
f 188 198 206 
f 197 165 207 
f 185 197 207 
f 165 198 207 
f 198 185 207 
f 183 175 208 
f 175 194 208 
f 194 183 208 
f 169 195 209 
f 195 191 209 
f 191 204 209 
f 204 169 209 
f 193 183 210 
f 194 168 210 
f 183 194 210 
f 168 202 210 
f 202 193 210 
f 167 184 211 
f 184 174 211 
f 205 167 211 
f 174 205 211 
f 175 186 212 
f 192 175 212 
f 186 192 212 
f 190 172 213 
f 173 190 213 
f 172 201 213 
f 201 173 213 
f 189 172 214 
f 177 189 214 
f 172 190 214 
