o convex_0
v -0.045917 -0.028242 -0.011652
v -0.013179 -0.023007 -0.011652
v -0.013179 -0.028898 -0.011652
v -0.028897 -0.029553 -0.032602
v -0.038713 -0.022351 -0.029977
v -0.035438 -0.022351 -0.000519
v -0.030855 -0.032827 -0.011652
v -0.015800 -0.022351 -0.025394
v -0.025622 -0.029553 0.000135
v -0.043296 -0.029553 -0.025394
v -0.014489 -0.029553 -0.023433
v -0.045917 -0.022351 -0.017539
v -0.019732 -0.022351 -0.002484
v -0.039364 -0.029553 -0.002484
v -0.023658 -0.023007 -0.031945
v -0.027590 -0.032827 -0.020158
v -0.025622 -0.021696 -0.012306
v -0.042639 -0.022351 -0.005762
v -0.015800 -0.029553 -0.006416
v -0.020386 -0.029553 -0.029977
v -0.045917 -0.029553 -0.014274
v -0.037402 -0.029553 -0.030637
v -0.033473 -0.032827 -0.018196
v -0.025622 -0.032827 -0.013614
v -0.013179 -0.022351 -0.018196
v -0.034127 -0.022351 -0.031945
v -0.030198 -0.023007 0.000792
v -0.033473 -0.029553 0.000135
v -0.032820 -0.021696 -0.020158
v -0.045257 -0.023007 -0.022122
v -0.043296 -0.029553 -0.006416
v -0.013179 -0.029553 -0.018850
v -0.019732 -0.029553 -0.002484
v -0.045257 -0.029553 -0.021465
v -0.015800 -0.022351 -0.006416
v -0.045257 -0.023007 -0.009691
v -0.020386 -0.022351 -0.029977
v -0.024315 -0.023661 0.000135
v -0.033473 -0.032827 -0.013614
v -0.017107 -0.029553 -0.027362
v -0.034127 -0.021696 -0.013614
v -0.043296 -0.023007 -0.026048
v -0.039364 -0.028898 -0.029977
v -0.013839 -0.023007 -0.022779
v -0.040677 -0.023007 -0.003141
v -0.032820 -0.023007 -0.032602
v -0.026276 -0.021696 -0.020158
v -0.035438 -0.028898 -0.031945
v -0.013179 -0.029553 -0.012960
v -0.025622 -0.032827 -0.018196
v -0.031506 -0.032827 -0.020158
v -0.026276 -0.028898 -0.032602
v -0.026276 -0.022351 0.000135
f 27 38 53 
f 3 2 19 
f 16 4 20 
f 1 12 21 
f 16 7 23 
f 9 7 24 
f 7 16 24 
f 2 3 25 
f 7 9 28 
f 6 14 28 
f 14 7 28 
f 27 6 28 
f 9 27 28 
f 5 12 29 
f 26 5 29 
f 1 21 31 
f 25 3 32 
f 19 13 33 
f 9 24 33 
f 24 19 33 
f 21 12 34 
f 23 21 34 
f 10 23 34 
f 30 10 34 
f 12 30 34 
f 17 13 35 
f 19 2 35 
f 13 19 35 
f 2 25 35 
f 25 17 35 
f 12 1 36 
f 18 12 36 
f 1 31 36 
f 31 18 36 
f 20 15 37 
f 15 26 37 
f 27 9 38 
f 9 33 38 
f 33 13 38 
f 7 14 39 
f 23 7 39 
f 21 23 39 
f 14 31 39 
f 31 21 39 
f 16 20 40 
f 37 8 40 
f 20 37 40 
f 6 17 41 
f 12 18 41 
f 18 6 41 
f 29 12 41 
f 17 29 41 
f 12 5 42 
f 10 30 42 
f 30 12 42 
f 22 10 43 
f 42 5 43 
f 10 42 43 
f 8 25 44 
f 32 11 44 
f 25 32 44 
f 40 8 44 
f 11 40 44 
f 14 6 45 
f 6 18 45 
f 31 14 45 
f 18 31 45 
f 26 15 46 
f 5 26 46 
f 25 8 47 
f 17 25 47 
f 29 17 47 
f 26 29 47 
f 8 37 47 
f 37 26 47 
f 4 22 48 
f 22 43 48 
f 43 5 48 
f 46 4 48 
f 5 46 48 
f 3 19 49 
f 19 24 49 
f 32 3 49 
f 24 32 49 
f 24 16 50 
f 11 32 50 
f 32 24 50 
f 40 11 50 
f 16 40 50 
f 4 16 51 
f 22 4 51 
f 10 22 51 
f 16 23 51 
f 23 10 51 
f 20 4 52 
f 15 20 52 
f 4 46 52 
f 46 15 52 
f 17 6 53 
f 13 17 53 
f 6 27 53 
f 38 13 53 
o convex_1
v -0.036093 -0.016457 0.028288
v 0.003191 0.017590 0.023713
v 0.003191 0.016934 0.027634
v 0.003191 -0.017113 0.018471
v -0.036093 0.013660 0.011923
v -0.035437 0.003184 0.040078
v 0.003191 -0.005981 0.039419
v -0.036093 -0.013838 0.011923
v 0.003191 0.013660 0.011923
v -0.036750 0.015623 0.028946
v -0.015146 0.008422 0.040078
v 0.003191 -0.013838 0.011923
v -0.016455 -0.008600 0.040078
v 0.003191 -0.014491 0.032871
v 0.003191 0.011696 0.036148
v -0.036750 -0.009253 0.036804
v -0.035437 0.016934 0.017818
v -0.035437 0.013004 0.034836
v -0.036750 -0.016457 0.019780
v 0.003191 0.003184 0.040078
v 0.003191 -0.017113 0.026979
v -0.035437 -0.014491 0.032871
v -0.035437 0.016934 0.027634
v -0.035437 -0.017113 0.018471
v 0.003191 0.016279 0.015853
v -0.036750 0.012348 0.011923
v 0.003191 0.014967 0.032218
v -0.035437 -0.003362 0.040078
v -0.036093 0.007110 0.038766
v -0.035437 0.017590 0.022404
v -0.035437 -0.017113 0.026979
v 0.003191 -0.012527 0.035492
v -0.035437 -0.009908 0.037457
v -0.035437 0.014967 0.013234
v -0.036093 -0.015802 0.015197
v -0.035437 0.014967 0.032218
v 0.003191 0.017590 0.021748
v -0.036750 0.000561 0.039419
v -0.036750 -0.012527 0.011923
v 0.003191 -0.014491 0.012579
v -0.034784 -0.012527 0.035492
v -0.035437 -0.016457 0.028946
v 0.003191 0.005803 0.039419
v 0.003191 -0.003362 0.040078
v -0.019071 0.008422 0.040078
v -0.036750 0.016279 0.019129
v -0.035437 0.016279 0.029597
v 0.003191 -0.016457 0.016509
v 0.003191 0.014967 0.013234
v 0.003191 0.013004 0.034836
v -0.036750 0.011041 0.035492
v 0.003191 -0.009908 0.037457
v 0.003191 -0.016457 0.028946
v 0.003191 0.016934 0.017818
f 70 90 107 
f 55 56 57 
f 57 56 60 
f 61 58 62 
f 55 57 62 
f 61 62 65 
f 62 57 65 
f 64 59 66 
f 57 60 67 
f 60 56 68 
f 54 69 72 
f 69 63 72 
f 64 66 73 
f 60 68 73 
f 57 67 74 
f 69 54 75 
f 56 55 76 
f 57 74 77 
f 55 62 78 
f 58 61 79 
f 72 63 79 
f 68 56 80 
f 66 59 81 
f 76 55 83 
f 63 76 83 
f 54 72 84 
f 72 77 84 
f 77 74 84 
f 67 60 85 
f 75 67 85 
f 66 81 86 
f 81 69 86 
f 62 58 87 
f 70 78 87 
f 77 72 88 
f 71 80 89 
f 55 78 90 
f 83 55 90 
f 70 83 90 
f 63 69 91 
f 81 59 91 
f 69 81 91 
f 59 82 91 
f 79 61 92 
f 72 79 92 
f 61 88 92 
f 88 72 92 
f 65 57 93 
f 61 65 93 
f 88 61 93 
f 69 75 94 
f 85 66 94 
f 75 85 94 
f 66 86 94 
f 86 69 94 
f 67 75 95 
f 75 54 95 
f 54 84 95 
f 84 74 95 
f 68 64 96 
f 64 73 96 
f 73 68 96 
f 66 60 97 
f 60 73 97 
f 73 66 97 
f 59 64 98 
f 64 71 98 
f 82 59 98 
f 71 82 98 
f 58 79 99 
f 79 63 99 
f 83 70 99 
f 63 83 99 
f 87 58 99 
f 70 87 99 
f 56 76 100 
f 76 63 100 
f 80 56 100 
f 63 89 100 
f 89 80 100 
f 57 77 101 
f 77 88 101 
f 93 57 101 
f 88 93 101 
f 78 62 102 
f 62 87 102 
f 87 78 102 
f 64 68 103 
f 71 64 103 
f 68 80 103 
f 80 71 103 
f 82 71 104 
f 89 63 104 
f 71 89 104 
f 63 91 104 
f 91 82 104 
f 60 66 105 
f 85 60 105 
f 66 85 105 
f 74 67 106 
f 67 95 106 
f 95 74 106 
f 78 70 107 
f 90 78 107 
o convex_2
v -0.018415 -0.012528 0.054481
v -0.014490 0.013006 0.058407
v -0.014490 0.013006 0.057098
v -0.030203 0.001875 0.058407
v -0.024309 0.005146 0.040078
v -0.008596 -0.002053 0.040078
v -0.005322 -0.004017 0.059721
v -0.022345 -0.007290 0.040078
v -0.010562 0.006459 0.040733
v -0.026272 -0.008598 0.059721
v -0.004668 0.004492 0.056446
v -0.024309 0.010384 0.059721
v -0.009906 -0.011218 0.056446
v -0.013182 -0.007944 0.040078
v -0.019722 0.008420 0.040078
v -0.026272 -0.002053 0.042045
v -0.009906 0.010384 0.059721
v -0.028236 -0.007290 0.056446
v -0.013182 -0.011874 0.059721
v -0.024309 0.011040 0.055789
v -0.004668 -0.004670 0.056446
v -0.021689 -0.012528 0.057098
v -0.007942 0.009733 0.056446
v -0.028892 0.005802 0.055789
v -0.014490 0.008420 0.040078
v -0.009906 -0.005980 0.041391
v -0.019068 0.013006 0.056446
v -0.025616 0.002526 0.040078
v -0.008596 0.002526 0.040078
v -0.019068 -0.008598 0.040078
v -0.004012 -0.001396 0.056446
v -0.005322 0.005802 0.059065
v -0.030203 -0.000743 0.056446
v -0.014490 -0.012528 0.055135
v -0.028892 -0.004017 0.059721
v -0.024309 -0.011218 0.056446
v -0.010562 0.011696 0.057098
v -0.005978 -0.007290 0.059065
v -0.006634 -0.007944 0.055789
v -0.024309 -0.005324 0.040078
v -0.028236 0.007112 0.059065
v -0.021032 -0.012528 0.059065
v -0.026926 0.009076 0.056446
v -0.029546 -0.004670 0.056446
v -0.022345 0.007766 0.041391
v -0.021689 0.012350 0.059065
v -0.016456 -0.013184 0.058407
v -0.006634 0.007766 0.055135
v -0.015800 -0.009254 0.042045
v -0.029546 0.002526 0.054481
v -0.026272 -0.009254 0.055135
f 125 147 158 
f 112 113 115 
f 117 114 119 
f 115 113 121 
f 113 112 122 
f 119 114 124 
f 114 117 126 
f 113 122 132 
f 121 113 133 
f 120 121 133 
f 113 128 133 
f 109 110 134 
f 122 127 134 
f 132 122 134 
f 110 132 134 
f 112 115 135 
f 131 112 135 
f 113 132 136 
f 132 116 136 
f 115 121 137 
f 108 129 137 
f 129 115 137 
f 128 113 138 
f 114 128 138 
f 113 136 138 
f 136 118 138 
f 124 114 139 
f 130 124 139 
f 114 138 139 
f 138 118 139 
f 135 123 140 
f 121 120 141 
f 117 119 142 
f 125 117 142 
f 117 125 143 
f 115 129 143 
f 110 109 144 
f 109 124 144 
f 130 116 144 
f 124 130 144 
f 116 132 144 
f 132 110 144 
f 114 126 145 
f 126 120 145 
f 128 114 145 
f 120 133 146 
f 133 128 146 
f 145 120 146 
f 128 145 146 
f 135 115 147 
f 123 135 147 
f 131 111 148 
f 111 142 148 
f 142 119 148 
f 126 117 149 
f 117 143 149 
f 143 129 149 
f 112 131 150 
f 148 119 150 
f 131 148 150 
f 111 140 151 
f 140 123 151 
f 142 111 151 
f 125 142 151 
f 147 125 151 
f 123 147 151 
f 122 112 152 
f 127 122 152 
f 112 150 152 
f 150 127 152 
f 124 109 153 
f 119 124 153 
f 109 134 153 
f 134 127 153 
f 127 150 153 
f 150 119 153 
f 120 126 154 
f 129 108 154 
f 141 120 154 
f 108 141 154 
f 126 149 154 
f 149 129 154 
f 116 130 155 
f 118 136 155 
f 136 116 155 
f 139 118 155 
f 130 139 155 
f 108 137 156 
f 137 121 156 
f 121 141 156 
f 141 108 156 
f 111 131 157 
f 131 135 157 
f 140 111 157 
f 135 140 157 
f 115 143 158 
f 143 125 158 
f 147 115 158 
o convex_3
v 0.021527 -0.022351 0.000135
v 0.021527 -0.028898 -0.032602
v 0.020873 -0.029553 -0.031945
v 0.041822 -0.028898 -0.012306
v 0.035925 -0.022351 -0.028673
v 0.015636 -0.029553 -0.002484
v 0.009086 -0.022351 -0.019504
v 0.036582 -0.022351 -0.003794
v 0.020873 -0.032827 -0.016882
v 0.031342 -0.029553 -0.000519
v 0.009086 -0.029553 -0.019504
v 0.039197 -0.029553 -0.025394
v 0.016290 -0.022351 -0.029977
v 0.009740 -0.023007 -0.009031
v 0.041822 -0.023007 -0.019504
v 0.029378 -0.032827 -0.018196
v 0.029378 -0.021696 -0.012960
v 0.031999 -0.029553 -0.031288
v 0.028724 -0.023007 -0.032602
v 0.012361 -0.029553 -0.026705
v 0.010393 -0.029553 -0.008377
v 0.028070 -0.032827 -0.012306
v 0.037893 -0.029553 -0.005102
v 0.041165 -0.022351 -0.011652
v 0.021527 -0.029553 0.000135
v 0.015636 -0.022351 -0.002484
v 0.030035 -0.023007 0.000135
v 0.041822 -0.029553 -0.016882
v 0.020873 -0.021696 -0.018850
v 0.023491 -0.032827 -0.020158
v 0.011050 -0.023007 -0.025394
v 0.022834 -0.032827 -0.012306
v 0.008429 -0.028898 -0.014928
v 0.020873 -0.022351 -0.031945
v 0.040508 -0.022351 -0.022779
v 0.039197 -0.023007 -0.006416
v 0.026103 -0.028898 0.000792
v 0.009086 -0.022351 -0.012306
v 0.015636 -0.028898 -0.029977
v 0.027417 -0.021696 -0.020815
v 0.035925 -0.023007 -0.029326
v 0.011704 -0.028898 -0.005762
v 0.025452 -0.029553 -0.032602
v 0.022180 -0.021696 -0.011652
v 0.034614 -0.028898 -0.001830
v 0.016944 -0.023661 -0.001173
v 0.040508 -0.029553 -0.009691
v 0.034614 -0.029553 -0.029977
v 0.009740 -0.028898 -0.022779
v 0.027417 -0.032827 -0.020158
v 0.041165 -0.029553 -0.020815
v 0.032653 -0.022351 -0.001173
v 0.031999 -0.022351 -0.031288
f 163 199 211 
f 167 169 178 
f 169 167 179 
f 167 174 180 
f 168 180 181 
f 162 173 182 
f 175 166 182 
f 180 168 183 
f 173 162 186 
f 171 165 187 
f 174 167 188 
f 178 161 188 
f 167 178 188 
f 165 171 189 
f 164 179 190 
f 179 167 190 
f 167 180 190 
f 183 164 190 
f 180 183 190 
f 165 169 191 
f 169 179 191 
f 179 172 191 
f 160 171 192 
f 177 160 192 
f 171 187 192 
f 182 173 193 
f 175 182 193 
f 166 181 194 
f 162 182 194 
f 182 166 194 
f 159 183 195 
f 183 168 195 
f 185 159 195 
f 168 185 195 
f 172 184 196 
f 187 165 196 
f 165 191 196 
f 191 172 196 
f 160 161 197 
f 171 160 197 
f 161 178 197 
f 189 171 197 
f 178 189 197 
f 187 175 198 
f 192 187 198 
f 193 163 198 
f 175 193 198 
f 163 193 199 
f 193 170 199 
f 179 164 200 
f 172 179 200 
f 184 172 200 
f 161 160 201 
f 160 177 201 
f 177 176 201 
f 188 161 201 
f 184 159 202 
f 175 187 202 
f 196 184 202 
f 187 196 202 
f 181 166 203 
f 168 181 203 
f 185 168 203 
f 183 159 204 
f 164 183 204 
f 159 184 204 
f 200 164 204 
f 184 200 204 
f 180 174 205 
f 181 180 205 
f 186 162 205 
f 174 186 205 
f 162 194 205 
f 194 181 205 
f 170 174 206 
f 199 170 206 
f 176 199 206 
f 169 165 207 
f 178 169 207 
f 165 189 207 
f 189 178 207 
f 174 188 208 
f 201 176 208 
f 188 201 208 
f 206 174 208 
f 176 206 208 
f 174 170 209 
f 173 186 209 
f 186 174 209 
f 170 193 209 
f 193 173 209 
f 166 175 210 
f 159 185 210 
f 202 159 210 
f 175 202 210 
f 203 166 210 
f 185 203 210 
f 176 177 211 
f 177 192 211 
f 198 163 211 
f 192 198 211 
f 199 176 211 
o convex_4
v 0.003192 0.016934 0.027641
v 0.003192 -0.017113 0.018472
v 0.016939 -0.017113 0.018472
v 0.006466 -0.004670 0.047935
v 0.017596 0.014315 0.013234
v 0.017596 0.009077 0.037455
v 0.003192 0.013660 0.011923
v 0.017593 -0.013183 0.011923
v 0.017593 -0.014491 0.032220
v 0.003848 0.001872 0.047279
v 0.013011 0.003839 0.047935
v 0.003192 -0.013838 0.011923
v 0.003192 -0.016457 0.028949
v 0.016939 0.016279 0.029604
v 0.014320 -0.000743 0.047935
v 0.007776 0.005147 0.047935
v 0.016284 0.017590 0.021747
v 0.003192 0.016934 0.017820
v 0.017596 0.013004 0.011923
v 0.003192 0.014967 0.032220
v 0.016939 -0.017113 0.026989
v 0.017593 -0.004015 0.039422
v 0.011047 -0.005326 0.047279
v 0.003192 -0.014491 0.032869
v 0.016939 0.014967 0.032220
v 0.016939 0.016279 0.015857
v 0.004502 -0.002707 0.047935
v 0.003192 0.003184 0.040077
v 0.017596 0.016934 0.025018
v 0.016939 -0.014491 0.032869
v 0.016939 -0.014491 0.012582
v 0.003192 0.017590 0.023710
v 0.013665 -0.002707 0.047935
v 0.003192 -0.017113 0.026989
v 0.017593 -0.009908 0.036803
v 0.003192 0.014967 0.013234
v 0.017593 -0.017113 0.021747
v 0.016939 0.016934 0.027641
v 0.003848 -0.002051 0.047279
v 0.010394 0.005147 0.047935
v 0.017593 0.003839 0.039422
v 0.016939 0.014967 0.013234
v 0.004502 0.002528 0.047935
v 0.003192 -0.016457 0.016512
f 223 242 255 
f 213 212 218 
f 213 218 223 
f 218 219 223 
f 212 213 224 
f 217 222 226 
f 222 215 226 
f 215 222 227 
f 218 212 229 
f 216 217 230 
f 219 218 230 
f 212 224 231 
f 225 212 231 
f 213 214 232 
f 231 224 235 
f 234 215 235 
f 222 217 236 
f 225 231 236 
f 231 227 236 
f 229 228 237 
f 215 227 238 
f 235 215 238 
f 221 231 239 
f 231 235 239 
f 217 216 240 
f 236 217 240 
f 225 236 240 
f 216 237 240 
f 237 228 240 
f 232 220 241 
f 224 232 241 
f 235 224 241 
f 234 235 241 
f 219 214 242 
f 223 219 242 
f 229 212 243 
f 228 229 243 
f 226 215 244 
f 215 234 244 
f 241 220 244 
f 234 241 244 
f 224 213 245 
f 213 232 245 
f 232 224 245 
f 220 217 246 
f 217 233 246 
f 233 226 246 
f 226 244 246 
f 244 220 246 
f 218 229 247 
f 229 237 247 
f 214 219 248 
f 217 220 248 
f 230 217 248 
f 219 230 248 
f 232 214 248 
f 220 232 248 
f 212 225 249 
f 225 240 249 
f 240 228 249 
f 243 212 249 
f 228 243 249 
f 238 221 250 
f 235 238 250 
f 221 239 250 
f 239 235 250 
f 227 222 251 
f 222 236 251 
f 236 227 251 
f 217 226 252 
f 233 217 252 
f 226 233 252 
f 216 230 253 
f 230 218 253 
f 237 216 253 
f 218 247 253 
f 247 237 253 
f 231 221 254 
f 227 231 254 
f 221 238 254 
f 238 227 254 
f 214 213 255 
f 213 223 255 
f 242 214 255 
o convex_5
v 0.043128 -0.020386 0.019131
v 0.043128 0.007109 0.051860
v 0.019561 0.007109 0.051860
v 0.043785 0.018243 0.012583
v 0.017596 -0.017112 0.012583
v 0.018252 -0.027589 0.045312
v 0.017596 0.026754 0.042693
v 0.045096 -0.026276 0.045965
v 0.018252 0.017586 0.011930
v 0.045096 0.026749 0.045312
v 0.045096 -0.017112 0.012583
v 0.018906 -0.011874 0.051203
v 0.018906 0.020208 0.049241
v 0.044439 -0.010560 0.051203
v 0.017596 -0.010560 0.050550
v 0.043785 0.027411 0.042037
v 0.045096 0.017581 0.012579
v 0.043785 -0.027589 0.042693
v 0.018906 -0.018421 0.013236
v 0.044439 -0.017112 0.011930
v 0.019561 0.026098 0.037455
v 0.043785 0.018243 0.049893
v 0.043128 -0.020386 0.049241
v 0.018906 0.027411 0.045965
v 0.019561 -0.026276 0.038112
v 0.017596 0.016934 0.012583
v 0.018252 -0.017112 0.011930
v 0.044439 0.017586 0.011930
v 0.019561 -0.023659 0.047931
v 0.043128 -0.007287 0.051860
v 0.017596 -0.026932 0.043346
v 0.043785 0.026754 0.046622
v 0.045096 0.003841 0.051203
v 0.017596 0.010382 0.050550
v 0.019561 0.020208 0.018474
v 0.018906 -0.005979 0.051860
v 0.043785 -0.026276 0.046622
v 0.018906 0.027411 0.042037
v 0.019561 -0.018421 0.049893
v 0.043785 -0.018421 0.013236
v 0.043128 0.020208 0.018474
v 0.018906 0.011696 0.051203
v 0.043785 -0.015147 0.050550
v 0.044439 -0.027589 0.045312
v 0.018906 -0.027589 0.042693
v 0.017596 0.022824 0.047274
v 0.045096 -0.026932 0.042693
v 0.018906 0.018243 0.012583
v 0.043785 0.027411 0.045965
v 0.018906 0.026754 0.046622
v 0.019561 -0.020386 0.019131
v 0.017596 -0.021032 0.047931
v 0.045096 0.017581 0.049241
v 0.043785 0.011696 0.051203
v 0.043128 -0.023659 0.029602
v 0.043128 0.026098 0.037455
v 0.018906 0.018243 0.049893
v 0.018906 -0.026276 0.046622
v 0.045096 -0.019729 0.048584
f 298 278 314 
f 265 263 266 
f 262 260 270 
f 271 265 272 
f 265 266 272 
f 259 271 272 
f 272 266 275 
f 260 262 281 
f 264 260 281 
f 262 264 281 
f 260 264 282 
f 274 260 282 
f 264 275 282 
f 275 274 282 
f 264 259 283 
f 259 272 283 
f 275 264 283 
f 272 275 283 
f 257 258 285 
f 270 260 286 
f 260 274 286 
f 268 277 287 
f 263 265 288 
f 257 285 288 
f 285 269 288 
f 262 270 289 
f 270 267 291 
f 285 258 291 
f 267 285 291 
f 258 289 291 
f 289 270 291 
f 278 284 292 
f 271 276 293 
f 262 279 293 
f 279 271 293 
f 276 290 293 
f 284 278 294 
f 256 274 295 
f 275 266 295 
f 274 275 295 
f 271 259 296 
f 259 290 296 
f 290 276 296 
f 258 257 297 
f 289 258 297 
f 285 267 298 
f 269 285 298 
f 267 294 298 
f 294 278 298 
f 261 273 299 
f 292 261 299 
f 263 292 299 
f 273 261 300 
f 280 273 300 
f 261 286 300 
f 286 274 300 
f 279 262 301 
f 262 289 301 
f 266 263 302 
f 273 295 302 
f 295 266 302 
f 263 299 302 
f 299 273 302 
f 259 264 303 
f 264 262 303 
f 290 259 303 
f 262 293 303 
f 293 290 303 
f 265 271 304 
f 271 279 304 
f 287 265 304 
f 279 287 304 
f 268 287 305 
f 287 279 305 
f 279 301 305 
f 301 268 305 
f 274 256 306 
f 280 300 306 
f 300 274 306 
f 267 270 307 
f 270 286 307 
f 286 261 307 
f 294 267 307 
f 284 294 307 
f 265 287 308 
f 287 277 308 
f 288 265 308 
f 288 308 309 
f 257 288 309 
f 297 257 309 
f 277 297 309 
f 308 277 309 
f 273 280 310 
f 256 295 310 
f 295 273 310 
f 306 256 310 
f 280 306 310 
f 276 271 311 
f 271 296 311 
f 296 276 311 
f 277 268 312 
f 297 277 312 
f 289 297 312 
f 268 301 312 
f 301 289 312 
f 261 292 313 
f 292 284 313 
f 307 261 313 
f 284 307 313 
f 263 288 314 
f 288 269 314 
f 292 263 314 
f 278 292 314 
f 269 298 314 
o convex_6
v -0.057046 -0.021039 -0.020813
v 0.047706 0.022173 0.010611
v 0.047706 0.021516 0.011923
v 0.048360 -0.021696 -0.022124
v -0.055728 0.021516 -0.022780
v -0.041327 -0.021696 0.011923
v 0.047706 0.021516 -0.022780
v -0.041981 0.021516 0.011923
v 0.048360 -0.021039 0.011923
v -0.056382 -0.021039 -0.022780
v -0.055074 0.022173 -0.018850
v 0.049024 0.020863 -0.022124
v -0.044597 0.020206 0.008648
v 0.048360 -0.021039 -0.022780
v -0.043289 -0.020387 0.011267
v -0.056382 -0.021696 -0.022124
v 0.047706 0.022173 -0.021469
v -0.057046 0.020863 -0.020158
v 0.048360 -0.021696 0.011267
v 0.049024 0.020863 0.011267
v 0.049024 -0.021039 0.010611
v -0.041981 0.022173 0.010611
v 0.049024 -0.020387 -0.022124
v -0.053765 -0.019730 -0.012301
v -0.057046 0.020206 -0.022780
v -0.055074 0.022173 -0.021469
v -0.044597 -0.019730 0.008648
v -0.053765 0.020206 -0.012301
v -0.042635 0.020863 0.011923
v -0.055728 -0.020387 -0.016886
v -0.043289 -0.021696 0.009956
v -0.057046 -0.020387 -0.022780
v -0.044597 0.021516 0.007337
f 327 343 347 
f 317 316 322 
f 320 317 322 
f 317 320 323 
f 319 321 324 
f 318 324 328 
f 324 321 328 
f 321 326 328 
f 318 320 330 
f 324 318 330 
f 321 319 331 
f 325 316 331 
f 316 326 331 
f 326 321 331 
f 320 318 333 
f 323 320 333 
f 316 317 334 
f 317 323 334 
f 326 316 334 
f 334 323 335 
f 333 318 335 
f 323 333 335 
f 326 334 335 
f 322 316 336 
f 316 325 336 
f 318 328 337 
f 328 326 337 
f 335 318 337 
f 326 335 337 
f 319 324 339 
f 315 332 339 
f 332 319 339 
f 331 319 340 
f 325 331 340 
f 319 332 340 
f 332 325 340 
f 329 327 341 
f 327 338 341 
f 327 332 342 
f 338 327 342 
f 320 322 343 
f 329 320 343 
f 327 329 343 
f 332 315 344 
f 329 341 344 
f 341 338 344 
f 342 332 344 
f 338 342 344 
f 320 329 345 
f 330 320 345 
f 315 330 345 
f 344 315 345 
f 329 344 345 
f 330 315 346 
f 324 330 346 
f 315 339 346 
f 339 324 346 
f 325 332 347 
f 332 327 347 
f 322 336 347 
f 336 325 347 
f 343 322 347 
o convex_7
v -0.043953 0.022173 -0.023433
v -0.013179 0.028719 -0.011652
v -0.013179 0.022828 -0.011652
v -0.036095 0.029374 -0.000519
v -0.027590 0.029374 -0.032602
v -0.030198 0.022173 0.000135
v -0.019075 0.022173 -0.028673
v -0.034127 0.032649 -0.016882
v -0.045917 0.029374 -0.019504
v -0.043953 0.022828 -0.007070
v -0.020386 0.029374 -0.001830
v -0.015143 0.029374 -0.024740
v -0.036745 0.022828 -0.031288
v -0.024968 0.032649 -0.014928
v -0.040677 0.029374 -0.028673
v -0.043296 0.029374 -0.006416
v -0.020386 0.022173 -0.002484
v -0.013179 0.022828 -0.020158
v -0.026276 0.022173 -0.031945
v -0.026933 0.032649 -0.020158
v -0.031506 0.032649 -0.011652
v -0.021036 0.029374 -0.030637
v -0.024968 0.029374 0.000135
v -0.038713 0.022173 -0.002484
v -0.045917 0.022828 -0.012306
v -0.014489 0.029374 -0.008377
v -0.013179 0.029374 -0.019504
v -0.034781 0.029374 -0.031945
v -0.045917 0.029374 -0.012306
v -0.016457 0.022828 -0.005102
v -0.043296 0.022828 -0.026048
v -0.013839 0.022173 -0.011652
v -0.030198 0.022828 0.000792
v -0.032820 0.022828 -0.032602
v -0.045917 0.022828 -0.020158
v -0.015800 0.022828 -0.026048
v -0.043953 0.029374 -0.024740
v -0.024315 0.023484 0.000135
v -0.032820 0.032649 -0.019504
v -0.023658 0.023484 -0.031945
v -0.040677 0.028719 -0.003141
v -0.027590 0.032649 -0.011652
v -0.045257 0.022173 -0.012306
v -0.038713 0.022828 -0.001830
v -0.030855 0.028719 0.000792
v -0.017768 0.029374 -0.003794
v -0.038059 0.022173 -0.029977
v -0.034127 0.022828 0.000135
v -0.019732 0.022828 -0.029977
v -0.018418 0.029374 -0.028673
f 396 369 397 
f 353 348 354 
f 353 354 364 
f 349 350 365 
f 354 348 366 
f 355 361 367 
f 361 359 367 
f 361 355 368 
f 363 351 368 
f 355 363 368 
f 352 367 369 
f 368 351 370 
f 348 353 371 
f 350 349 373 
f 359 361 374 
f 349 365 374 
f 365 359 374 
f 373 349 374 
f 361 373 374 
f 360 362 375 
f 367 352 375 
f 355 356 376 
f 363 355 376 
f 357 363 376 
f 356 372 376 
f 372 357 376 
f 358 364 377 
f 350 373 377 
f 362 360 378 
f 364 354 379 
f 365 350 379 
f 354 365 379 
f 350 377 379 
f 377 364 379 
f 375 352 381 
f 360 375 381 
f 372 356 382 
f 378 348 382 
f 365 354 383 
f 359 365 383 
f 356 355 384 
f 362 378 384 
f 382 356 384 
f 378 382 384 
f 353 364 385 
f 364 358 385 
f 358 370 385 
f 380 353 385 
f 370 380 385 
f 355 367 386 
f 375 362 386 
f 367 375 386 
f 384 355 386 
f 362 384 386 
f 352 369 387 
f 381 352 387 
f 366 381 387 
f 351 363 388 
f 363 357 388 
f 361 368 389 
f 370 358 389 
f 368 370 389 
f 348 371 390 
f 371 357 390 
f 357 372 390 
f 382 348 390 
f 372 382 390 
f 357 371 391 
f 351 388 391 
f 388 357 391 
f 370 351 392 
f 380 370 392 
f 373 361 393 
f 358 377 393 
f 377 373 393 
f 361 389 393 
f 389 358 393 
f 366 348 394 
f 348 378 394 
f 378 360 394 
f 381 366 394 
f 360 381 394 
f 371 353 395 
f 353 380 395 
f 391 371 395 
f 351 391 395 
f 392 351 395 
f 380 392 395 
f 354 366 396 
f 383 354 396 
f 366 387 396 
f 387 369 396 
f 367 359 397 
f 369 367 397 
f 359 383 397 
f 383 396 397 
o convex_8
v 0.024799 0.022173 0.000135
v 0.021527 0.023484 -0.032602
v 0.021527 0.028719 -0.032602
v 0.041822 0.028719 -0.019504
v 0.011050 0.029374 -0.007070
v 0.009086 0.022173 -0.016882
v 0.039854 0.022173 -0.023433
v 0.028070 0.032649 -0.012306
v 0.035268 0.029374 -0.002484
v 0.011704 0.029374 -0.026048
v 0.039197 0.022828 -0.006416
v 0.034614 0.029374 -0.029977
v 0.020873 0.029374 0.000135
v 0.014983 0.022828 -0.002484
v 0.022834 0.032649 -0.020158
v 0.028724 0.022173 -0.031945
v 0.015636 0.022173 -0.029326
v 0.041165 0.029374 -0.010995
v 0.009086 0.029374 -0.020158
v 0.041165 0.022173 -0.012306
v 0.021527 0.032649 -0.012960
v 0.029378 0.032649 -0.018196
v 0.030035 0.022828 0.000135
v 0.009086 0.023484 -0.010995
v 0.010393 0.022828 -0.024087
v 0.027417 0.029374 -0.032602
v 0.015636 0.029374 -0.029977
v 0.037893 0.022828 -0.027362
v 0.039854 0.029374 -0.024087
v 0.029378 0.029374 0.000135
v 0.009086 0.029374 -0.011652
v 0.014322 0.029374 -0.003141
v 0.011704 0.022173 -0.007070
v 0.032653 0.022828 -0.031288
v 0.041822 0.022828 -0.019504
v 0.035268 0.022173 -0.003141
v 0.024148 0.023484 0.000792
v 0.039197 0.029374 -0.006416
v 0.008429 0.023484 -0.016882
v 0.041822 0.029374 -0.014274
v 0.013015 0.023484 -0.028016
v 0.018251 0.022828 -0.000519
v 0.041822 0.023484 -0.012306
v 0.020873 0.032649 -0.017539
v 0.011704 0.022828 -0.005762
v 0.028724 0.032649 -0.019504
v 0.037236 0.023484 -0.003794
v 0.037236 0.029374 -0.028016
v 0.023491 0.032649 -0.011652
v 0.039854 0.022828 -0.024740
v 0.019565 0.022828 -0.031945
f 438 424 448 
f 398 403 404 
f 404 403 413 
f 413 403 414 
f 398 404 417 
f 405 412 418 
f 412 405 419 
f 405 415 419 
f 414 403 422 
f 416 407 422 
f 399 400 423 
f 413 399 423 
f 407 412 424 
f 423 400 424 
f 412 423 424 
f 404 413 425 
f 406 405 427 
f 420 406 427 
f 402 418 428 
f 421 402 428 
f 418 402 429 
f 403 398 430 
f 421 403 430 
f 413 423 431 
f 423 409 431 
f 425 413 431 
f 417 404 432 
f 398 417 433 
f 417 408 433 
f 420 398 433 
f 398 420 434 
f 427 410 434 
f 420 427 434 
f 405 406 435 
f 415 405 435 
f 403 421 436 
f 422 403 436 
f 416 422 436 
f 428 416 436 
f 421 428 436 
f 419 415 437 
f 401 426 437 
f 426 419 437 
f 432 401 437 
f 422 407 438 
f 414 422 438 
f 407 424 438 
f 429 411 439 
f 410 429 439 
f 430 398 439 
f 411 430 439 
f 398 434 439 
f 434 410 439 
f 408 417 440 
f 417 432 440 
f 435 408 440 
f 415 435 440 
f 437 415 440 
f 432 437 440 
f 412 407 441 
f 407 416 441 
f 418 412 441 
f 428 418 441 
f 416 428 441 
f 402 421 442 
f 429 402 442 
f 411 429 442 
f 430 411 442 
f 421 430 442 
f 412 419 443 
f 423 412 443 
f 409 423 443 
f 419 426 443 
f 406 420 444 
f 433 408 444 
f 420 433 444 
f 435 406 444 
f 408 435 444 
f 431 409 445 
f 425 431 445 
f 409 443 445 
f 443 426 445 
f 405 418 446 
f 427 405 446 
f 410 427 446 
f 429 410 446 
f 418 429 446 
f 404 425 447 
f 426 401 447 
f 401 432 447 
f 432 404 447 
f 425 445 447 
f 445 426 447 
f 400 399 448 
f 399 413 448 
f 413 414 448 
f 424 400 448 
f 414 438 448 
